<svg width="144" height="30" fill="none" xmlns="http://www.w3.org/2000/svg"><g clip-path="url(#prefix__clip0_317_1014)" fill-rule="evenodd" clip-rule="evenodd" fill="currentColor"><path d="M61.55.19c.26.557 1.585 3.053 1.795 3.44 1.254 2.318 5.743 10.45 6.54 11.848.378.66 1.52 2.7 2.538 4.53 2.248 4.043 3.49 5.835 4.862 7.016 2.263 1.948 4.975 2.734 7.85 2.976 0-.123-1.9-3.602-2.42-4.444-.24-.39-1.472-2.613-2.746-4.9a2759.669 2759.669 0 00-3.51-6.288c-.657-1.17-1.815-3.25-2.574-4.622-3.164-5.726-4.527-7.21-8.585-8.725C63.837.476 62.8.26 61.55.19zm50.696.143c-2.143.365-4.815 1.737-6.498 3.337-1.605 1.527-2.792 3.33-5.632 8.55-1.563 2.872-2.031 3.95-2.524 4.97-.82-5.159-7.492-7.089-7.453-12.345.009-1.226.116-1.954.408-2.767.301-.838.487-1.248.622-1.603-.297.12-.609.32-1.045.684-1.847 1.542-3.825 5.045-4.347 7.7-.344 1.75-.356 4.152-.029 5.51.135.559.508 1.682.83 2.496.638 1.615.73 3.76.435 5.444-.202-.593-.999-2.314-2.548-3.309.231.43 1.228 2.112 1.228 3.824 0 1.095-.06 2.03-.407 3.353.682-.374 1.49-.866 2.083-1.436 2.895-2.782 2.12-7.319 1.454-10.866 3.888 2.355 5.991 7.058 4.751 11.497-.5 1.791-1.446 3.493-2.236 4.543 1.28-.334 1.598-.377 2.99-1.05 4.75-2.295 7.628-6.918 10.048-11.353 2.14-3.923 4.453-7.758 6.524-11.718.711-1.357 2.543-4.36 3.378-5.794-.65.076-.725.11-2.032.333zM16.136 1.717C14.012 5.337 2.166 26.025.737 28.607c-.324.587-.51.886-.737 1.374 5.347 0 6.934-2.167 9.637-4.394 3.1-2.553 6.217-3.716 10.617-3.467 7.115.401 9.938 7.865 18.68 7.865-.466-.864-1.342-2.368-2.985-5.21-.944-1.632-4.488-7.811-7.875-13.73C24.688 5.125 21.82.22 21.7.145c-.12-.077-1.194-.14-2.388-.142L17.142 0l-1.006 1.717zm9.451 18.421c-2.09 0-10.455.088-12.457.088 2.265-3.797 3.753-6.489 6.396-10.658 1.395 1.802 4.702 8.109 6.061 10.57zM121.198 1.717c-2.124 3.62-13.97 24.308-15.398 26.89-.325.587-.511.886-.738 1.374 5.347 0 6.935-2.167 9.638-4.394 3.1-2.553 6.216-3.716 10.616-3.467 7.115.401 9.938 7.865 18.681 7.865-.466-.864-1.342-2.368-2.985-5.21-.945-1.632-4.488-7.811-7.875-13.73-3.387-5.92-6.256-10.824-6.376-10.9-.12-.077-1.194-.14-2.387-.142L122.205 0l-1.007 1.717zm9.452 18.421c-2.091 0-10.455.088-12.457.088 2.265-3.797 3.752-6.489 6.395-10.658 1.396 1.802 4.702 8.109 6.062 10.57zM41.344.007c-.088 1.49.041 24.287.139 24.732 0 2.359 2.285 5.245 4.521 5.245h7.941c7.543 0 9.059-.076 11.209-2.185 1.36-1.749 1.406-2.555 1.754-4.323h-6.977c-6.596 0-6.8.012-7.807.42-1.257.507-2.948 1.77-4.206 3.947 0-7.371-.064-14.739-.014-22.11 0-3.773-5.692-5.725-6.56-5.726z"/></g><defs><clipPath id="prefix__clip0_317_1014"><path fill="#fff" d="M0 0h144v30H0z"/></clipPath></defs></svg>