<svg width="32" height="22" viewBox="0 0 32 22" fill="none" xmlns="http://www.w3.org/2000/svg">
<path d="M31.8047 10.5286L21.8047 0.52858C21.5443 0.268143 21.1224 0.268143 20.862 0.52858C20.6016 0.789018 20.6016 1.21089 20.862 1.47127L29.724 10.3333H0.666687C0.298187 10.3333 0 10.6315 0 11C0 11.3685 0.298187 11.6667 0.666687 11.6667H29.724L20.862 20.5286C20.6016 20.789 20.6016 21.2109 20.862 21.4713C20.9922 21.6015 21.1628 21.6666 21.3334 21.6666C21.5039 21.6666 21.6745 21.6015 21.8048 21.4713L31.8048 11.4713C32.0651 11.2109 32.0651 10.789 31.8047 10.5286Z" fill="currentColor"/>
</svg>
