<svg width="32" height="22" viewBox="0 0 32 22" fill="none" xmlns="http://www.w3.org/2000/svg">
<path d="M0.195312 10.5286L10.1953 0.52858C10.4557 0.268143 10.8776 0.268143 11.138 0.52858C11.3984 0.789018 11.3984 1.21089 11.138 1.47127L2.276 10.3333H31.3333C31.7018 10.3333 32 10.6315 32 11C32 11.3685 31.7018 11.6667 31.3333 11.6667H2.276L11.138 20.5286C11.3984 20.789 11.3984 21.2109 11.138 21.4713C11.0078 21.6015 10.8372 21.6666 10.6666 21.6666C10.4961 21.6666 10.3255 21.6015 10.1952 21.4713L0.19525 11.4713C-0.0651245 11.2109 -0.0651245 10.789 0.195312 10.5286Z" fill="#CCCCCC"/>
</svg>
