<svg xmlns="http://www.w3.org/2000/svg" xmlns:xlink="http://www.w3.org/1999/xlink" version="1.1" x="0px" y="0px" viewBox="0 0 90 90" enable-background="new 0 0 90 90" xml:space="preserve"><path fill-rule="evenodd" clip-rule="evenodd" d="M34.767,11.033c0.692,6.781,5.339,10.901,10.213,10.959c0.005,0,0.016,0,0.025,0  c4.871-0.057,9.516-4.177,10.215-10.953l6.995,2.229c4.129,1.313,5.937,3.151,9.151,6.12l12.203,11.255l-8.744,10.699l-5.699-5.245  v-6.875c0.095-1.855-2.739-1.855-2.645,0v50.235l-42.979-0.011V29.221c0.015-0.749-0.595-1.36-1.344-1.344  c-0.729,0.005-1.319,0.609-1.303,1.344v6.875l-5.692,5.235L6.418,30.639l12.197-11.251c3.22-2.969,5.027-4.812,9.157-6.125  L34.767,11.033z M37.396,10.867c2.521,0.537,4.985,0.787,7.605,0.772c2.613,0.02,5.067-0.229,7.583-0.761  c-0.583,5.636-4.197,8.417-7.593,8.464C41.595,19.295,37.98,16.513,37.396,10.867z M54.022,7.877  c-0.244-0.005-0.484,0.063-0.697,0.188c-2.771,0.708-5.38,0.948-8.371,0.943c-2.989,0-5.645-0.251-8.495-0.995  c-0.161-0.063-0.328-0.095-0.495-0.089c-0.197,0.005-0.396,0.052-0.572,0.141l-8.417,2.677c-4.62,1.468-6.969,3.76-10.151,6.697  L3.704,29.539c-0.516,0.475-0.579,1.271-0.131,1.813l10.423,12.744c0.479,0.595,1.364,0.661,1.927,0.141l4.932-4.543v41.073  c-0.005,0.735,0.593,1.333,1.328,1.328h45.62c0.729,0,1.323-0.593,1.323-1.323V39.691l4.937,4.547  c0.563,0.52,1.443,0.453,1.928-0.141l10.421-12.744c0.437-0.543,0.38-1.333-0.135-1.808L73.163,17.445  c-3.188-2.932-5.532-5.235-10.152-6.703l-8.249-2.62C54.543,7.967,54.287,7.883,54.022,7.877z"></path></svg>