<svg width="184" height="12" viewBox="0 0 184 12" fill="none" xmlns="http://www.w3.org/2000/svg">
<g opacity="0.3">
<path d="M9.75218 8.74597C9.75218 10.7506 8.2852 11.8974 5.36969 11.8974H0V0.102783H5.03755C7.63936 0.102783 9.13402 1.21232 9.13402 3.13303C9.13402 4.48498 8.41437 5.37075 7.35334 5.80897C8.848 6.15395 9.75218 7.14227 9.75218 8.74597ZM1.23632 1.1284V5.40804H4.95451C6.81822 5.40804 7.90692 4.68078 7.90692 3.27288C7.90692 1.86499 6.82745 1.13773 4.95451 1.13773H1.23632V1.1284ZM8.51586 8.64341C8.51586 7.1143 7.39948 6.43366 5.35124 6.43366H1.23632V10.8625H5.35124C7.39948 10.8718 8.51586 10.2005 8.51586 8.64341Z" fill="black"/>
<path d="M26.7383 10.4613L27.218 9.50098C28.0484 10.3308 29.5338 10.9368 31.0654 10.9368C33.252 10.9368 34.2023 10.0138 34.2023 8.84831C34.2023 5.61294 27.0151 7.59892 27.0151 3.23537C27.0151 1.50114 28.3529 0 31.3145 0C32.6339 0 33.9994 0.391601 34.9312 1.04427L34.516 2.04192C33.5196 1.38925 32.3479 1.06292 31.3145 1.06292C29.1832 1.06292 28.2329 2.02327 28.2329 3.19807C28.2329 6.43344 35.4202 4.47544 35.4202 8.77372C35.4202 10.508 34.0547 11.9904 31.0654 11.9904C29.3216 11.9998 27.6056 11.3751 26.7383 10.4613Z" fill="black"/>
<path d="M51.8983 0.102783V11.8974H50.7173V2.46171L46.1319 10.3963H45.5506L40.9651 2.50833V11.8881H39.7842V0.102783H40.7991L45.8643 8.84853L50.8834 0.102783H51.8983Z" fill="black"/>
<path d="M80.7395 0.102783V11.8974H79.7246L72.2236 2.33118V11.8974H70.9873V0.102783H72.0022L79.5216 9.66903V0.102783H80.7395Z" fill="black"/>
<path d="M85.1777 6.00474C85.1777 2.56425 87.7795 0.00952148 91.3132 0.00952148C94.81 0.00952148 97.4302 2.55493 97.4302 6.00474C97.4302 9.45456 94.81 12 91.3132 12C87.7795 12 85.1777 9.43591 85.1777 6.00474ZM96.2031 6.00474C96.2031 3.18895 94.118 1.11906 91.3224 1.11906C88.5084 1.11906 86.4048 3.18895 86.4048 6.00474C86.4048 8.82054 88.5084 10.8904 91.3224 10.8904C94.118 10.8904 96.2031 8.81121 96.2031 6.00474Z" fill="black"/>
<path d="M111.223 0.102783L106.056 11.8974H104.839L99.6719 0.102783H101.01L105.475 10.3403L109.978 0.102783H111.223Z" fill="black"/>
<path d="M18.9237 0.102783H17.7058L12.373 11.8974H13.6555L15.0579 8.74597L15.5008 7.739L18.3055 1.3988L21.1011 7.739L21.5532 8.74597L22.9556 11.8974H24.2565L18.9237 0.102783Z" fill="black"/>
<path d="M62.0565 0.102783H60.8386L55.5059 11.8974H56.7883L58.1907 8.74597L58.6336 7.739L61.4384 1.3988L64.2431 7.739L64.686 8.74597L66.0884 11.8974H67.3893L62.0565 0.102783Z" fill="black"/>
<path d="M121.852 0.0656738H123.78C125.293 0.0656738 126.317 1.054 126.317 2.4619C126.317 3.8698 125.293 4.85812 123.78 4.85812H121.852V0.0656738ZM123.761 4.4199C125.025 4.4199 125.837 3.60873 125.837 2.4619C125.837 1.31507 125.025 0.503894 123.761 0.503894H122.359V4.4199H123.761Z" fill="black"/>
<path d="M128.116 0.0656738H128.614V4.85812H128.116V0.0656738Z" fill="black"/>
<path d="M134.177 2.46184H134.657V4.28931C134.214 4.69023 133.578 4.89536 132.913 4.89536C131.474 4.89536 130.413 3.86041 130.413 2.46184C130.413 1.06327 131.465 0.0283203 132.923 0.0283203C133.642 0.0283203 134.26 0.261416 134.685 0.718283L134.371 1.04462C133.974 0.643693 133.495 0.485188 132.941 0.485188C131.769 0.485188 130.911 1.32433 130.911 2.47116C130.911 3.60867 131.769 4.45714 132.941 4.45714C133.393 4.45714 133.818 4.35458 134.177 4.08419V2.46184Z" fill="black"/>
<path d="M136.743 0.0656738H137.241V4.85812H136.743V0.0656738Z" fill="black"/>
<path d="M140.387 0.503894H138.717V0.0656738H142.546V0.503894H140.876V4.85812H140.378V0.503894H140.387Z" fill="black"/>
<path d="M146.762 3.58076H144.123L143.551 4.85812H143.025L145.194 0.0656738H145.692L147.86 4.85812H147.334L146.762 3.58076ZM146.578 3.17051L145.443 0.597132L144.308 3.17051H146.578Z" fill="black"/>
<path d="M149.318 0.0656738H149.817V4.4199H152.474V4.85812H149.318V0.0656738Z" fill="black"/>
<path d="M159.762 2.46184H160.242V4.28931C159.799 4.69023 159.163 4.89536 158.498 4.89536C157.059 4.89536 155.998 3.86041 155.998 2.46184C155.998 1.06327 157.05 0.0283203 158.508 0.0283203C159.227 0.0283203 159.845 0.261416 160.27 0.718283L159.956 1.04462C159.559 0.643693 159.08 0.485188 158.526 0.485188C157.354 0.485188 156.496 1.32433 156.496 2.47116C156.496 3.60867 157.354 4.45714 158.526 4.45714C158.978 4.45714 159.403 4.35458 159.762 4.08419V2.46184Z" fill="black"/>
<path d="M165.575 4.85812L164.495 3.31969C164.375 3.32901 164.256 3.33834 164.117 3.33834H162.844V4.85812H162.346V0.0656738H164.117C165.326 0.0656738 166.055 0.681046 166.055 1.70667C166.055 2.4619 165.658 2.98403 164.975 3.2078L166.128 4.8488H165.575V4.85812ZM165.547 1.70667C165.547 0.942114 165.049 0.503894 164.099 0.503894H162.835V2.90944H164.099C165.04 2.90944 165.547 2.4619 165.547 1.70667Z" fill="black"/>
<path d="M167.484 2.46184C167.484 1.06327 168.536 0.0283203 169.975 0.0283203C171.396 0.0283203 172.457 1.06327 172.457 2.46184C172.457 3.86041 171.396 4.89536 169.975 4.89536C168.536 4.89536 167.484 3.86041 167.484 2.46184ZM171.959 2.46184C171.959 1.31501 171.11 0.475864 169.975 0.475864C168.831 0.475864 167.973 1.31501 167.973 2.46184C167.973 3.60867 168.822 4.44781 169.975 4.44781C171.11 4.44781 171.959 3.60867 171.959 2.46184Z" fill="black"/>
<path d="M174.22 2.8162V0.0656738H174.718V2.78823C174.718 3.92574 175.244 4.44787 176.166 4.44787C177.098 4.44787 177.624 3.92574 177.624 2.78823V0.0656738H178.113V2.80688C178.113 4.18681 177.384 4.89541 176.166 4.89541C174.949 4.89541 174.22 4.1868 174.22 2.8162Z" fill="black"/>
<path d="M184 1.70667C184 2.72296 183.271 3.33834 182.062 3.33834H180.789V4.8488H180.291V0.0656738H182.062C183.271 0.0656738 184 0.681046 184 1.70667ZM183.502 1.70667C183.502 0.942114 183.004 0.503894 182.053 0.503894H180.789V2.90012H182.053C183.004 2.90012 183.502 2.4619 183.502 1.70667Z" fill="black"/>
</g>
</svg>
