<svg width="32" height="32" viewBox="0 0 32 32" fill="none" xmlns="http://www.w3.org/2000/svg">
<path d="M30.75 27.25H21V24.75H30.7496H30.75C31.4404 24.75 32 24.1904 32 23.5C32 22.8096 31.4404 22.25 30.75 22.25H30.7496C30.0606 22.25 29.5 21.6893 29.5 21C29.5 13.808 24.2216 7.93825 17.25 7.30719V4.75H18.5C19.1904 4.75 19.75 4.19037 19.75 3.5C19.75 2.80963 19.1904 2.25 18.5 2.25H13.5C12.8096 2.25 12.25 2.80963 12.25 3.5C12.25 4.19037 12.8096 4.75 13.5 4.75H14.75V7.30719C7.78494 7.93762 2.5 13.8019 2.5 21C2.5 21.6893 1.93944 22.25 1.25 22.25C0.559625 22.25 0 22.8096 0 23.5C0 24.1904 0.559625 24.75 1.25 24.75H11V27.25H1.25C0.559625 27.25 0 27.8096 0 28.5C0 29.1904 0.559625 29.75 1.25 29.75H30.75C31.4404 29.75 32 29.1904 32 28.5C32 27.8096 31.4404 27.25 30.75 27.25ZM5 21C5 14.6916 9.83181 9.75 16 9.75C22.1682 9.75 27 14.6916 27 21C27 21.4382 27.0763 21.8587 27.215 22.25H4.785C4.92375 21.8587 5 21.4382 5 21ZM13.5 24.75H18.5V27.25H13.5V24.75Z" fill="black"/>
</svg>
