<svg width="33" height="33" viewBox="0 0 33 33" fill="none" xmlns="http://www.w3.org/2000/svg">
<g clip-path="url(#clip0_294_6541)">
<path d="M5.73242 29.4834C5.18011 29.4834 4.73242 29.0356 4.73242 28.4834V5.1084C4.73242 2.83384 6.58286 0.983398 8.85742 0.983398H26.7324C27.2847 0.983398 27.7324 1.43115 27.7324 1.9834V24.9834C27.7324 25.5356 27.2847 25.9834 26.7324 25.9834C26.1801 25.9834 25.7324 25.5356 25.7324 24.9834V2.9834H8.85742C7.68567 2.9834 6.73242 3.93665 6.73242 5.1084V28.4834C6.73242 29.0356 6.28473 29.4834 5.73242 29.4834Z" fill="black"/>
<path d="M26.7324 32.9834H9.23242C6.75111 32.9834 4.73242 30.9647 4.73242 28.4834C4.73242 26.0021 6.75111 23.9834 9.23242 23.9834H26.7324C27.2847 23.9834 27.7324 24.4311 27.7324 24.9834C27.7324 25.5356 27.2847 25.9834 26.7324 25.9834H9.23242C7.85392 25.9834 6.73242 27.1049 6.73242 28.4834C6.73242 29.8619 7.85392 30.9834 9.23242 30.9834H26.7324C27.2847 30.9834 27.7324 31.4311 27.7324 31.9834C27.7324 32.5356 27.2847 32.9834 26.7324 32.9834Z" fill="black"/>
<path d="M26.7324 29.4834H9.23242C8.68011 29.4834 8.23242 29.0356 8.23242 28.4834C8.23242 27.9311 8.68011 27.4834 9.23242 27.4834H26.7324C27.2847 27.4834 27.7324 27.9311 27.7324 28.4834C27.7324 29.0356 27.2847 29.4834 26.7324 29.4834Z" fill="black"/>
<path d="M10.2324 25.9834C9.68011 25.9834 9.23242 25.5356 9.23242 24.9834V1.9834C9.23242 1.43115 9.68011 0.983398 10.2324 0.983398C10.7847 0.983398 11.2324 1.43115 11.2324 1.9834V24.9834C11.2324 25.5356 10.7847 25.9834 10.2324 25.9834Z" fill="black"/>
</g>
<defs>
<clipPath id="clip0_294_6541">
<rect width="32" height="32" fill="white" transform="translate(0.232422 0.983398)"/>
</clipPath>
</defs>
</svg>
