<svg width="32" height="32" viewBox="0 0 32 32" fill="none" xmlns="http://www.w3.org/2000/svg">
<path d="M7.15605 24.0546L7.15608 24.0546C7.50657 24.9005 8.33264 25.4505 9.24806 25.4493L7.15605 24.0546ZM7.15605 24.0546C6.80553 23.2098 6.99875 22.2363 7.6452 21.5898C8.29308 20.9432 9.26541 20.75 10.1114 21.1005C10.9561 21.451 11.5061 22.2758 11.5048 23.1913V23.1913M7.15605 24.0546L11.5048 23.1913M11.5048 23.1913C11.5036 24.4373 10.4943 25.4467 9.24815 25.4493L11.5048 23.1913ZM23.3438 25.4493C22.4297 25.4493 21.6048 24.898 21.2556 24.0534L21.2555 24.0533C20.905 23.2074 21.0994 22.2351 21.746 21.5885C22.3938 20.9419 23.3674 20.75 24.2108 21.1005L24.2109 21.1005C25.0557 21.451 25.6068 22.2772 25.6043 23.1911V23.1913C25.603 24.4386 24.5911 25.4493 23.3438 25.4493ZM30.977 16.0207L30.9761 16.0196L29.0249 13.523L26.8539 8.97311L26.8538 8.97281C26.1527 7.51164 24.6778 6.58046 23.0578 6.57499H23.0573H19.2411V5.67626C19.2411 5.45826 19.1541 5.24704 18.9991 5.09205C18.8442 4.93718 18.6344 4.85 18.4149 4.85H3.95595C3.49911 4.85 3.12969 5.22114 3.12969 5.67625C3.12969 6.13289 3.49932 6.5025 3.95595 6.5025H17.5886V13.9208C17.5886 14.1388 17.6757 14.35 17.8307 14.505C17.9855 14.6598 18.1954 14.747 18.4149 14.747H27.8938L29.5075 16.8096V22.3783H27.1779C26.7986 20.577 25.2067 19.277 23.3548 19.277C21.5015 19.277 19.9109 20.577 19.5317 22.3783H13.0708C12.6926 20.5769 11.1006 19.277 9.24857 19.277C7.3954 19.277 5.80334 20.5769 5.42536 22.3783H3.61814C3.16131 22.3783 2.79189 22.7494 2.79189 23.2045C2.79189 23.6612 3.16151 24.0308 3.61814 24.0308H5.43323C5.82627 25.8173 7.41144 27.099 9.25148 27.099C11.0914 27.099 12.6766 25.8173 13.0697 24.0308H19.5263C19.9193 25.8173 21.5045 27.099 23.3445 27.099C25.1845 27.099 26.7696 25.8173 27.1628 24.0308H29.6475C30.0463 24.0308 30.4281 23.8738 30.7101 23.5903C30.9916 23.3087 31.15 22.9273 31.15 22.5283L31.1493 16.5267C31.1493 16.3426 31.0879 16.1653 30.977 16.0207ZM19.2409 8.22354L23.0663 8.22354C23.0664 8.22354 23.0665 8.22354 23.0665 8.22354C24.0522 8.22486 24.9491 8.79127 25.3733 9.68077C25.3733 9.68078 25.3733 9.68079 25.3733 9.6808L27.0052 13.1051L19.241 13.1038L19.2409 8.22354Z" fill="black" stroke="black" stroke-width="0.3"/>
<path d="M6.67038 17.4143C6.82524 17.5692 6.91242 17.779 6.91243 17.9985L6.67038 17.4143ZM6.67038 17.4143C6.5155 17.2594 6.30567 17.1723 6.08617 17.1723M6.67038 17.4143L6.08617 17.1723M6.08617 17.1723H2.36679M6.08617 17.1723H2.36679M2.36679 17.1723C1.91015 17.1723 1.54054 17.5419 1.54054 17.9985M2.36679 17.1723L1.54054 17.9985M1.54054 17.9985C1.54054 18.4551 1.91016 18.8248 2.36679 18.8248M1.54054 17.9985L2.36679 18.8248M2.36679 18.8248H6.08617M2.36679 18.8248H6.08617M6.08617 18.8248C6.30565 18.8248 6.5155 18.7376 6.67038 18.5827M6.08617 18.8248L6.67038 18.5827M6.67038 18.5827C6.82524 18.4278 6.91242 18.218 6.91243 17.9985L6.67038 18.5827Z" fill="black" stroke="black" stroke-width="0.3"/>
<path d="M1.67625 14.7669H9.45313C9.90978 14.7669 10.2794 14.3973 10.2794 13.9407C10.2794 13.484 9.90976 13.1144 9.45313 13.1144H1.67625C1.21961 13.1144 0.85 13.484 0.85 13.9407C0.85 14.3973 1.21962 14.7669 1.67625 14.7669Z" fill="black" stroke="black" stroke-width="0.3"/>
<path d="M1.54064 9.88302C1.54064 10.1025 1.62782 10.3124 1.7827 10.4672C1.93757 10.6221 2.14741 10.7093 2.36691 10.7093H10.1438C10.6004 10.7093 10.97 10.3397 10.97 9.88304C10.97 9.42641 10.6004 9.05679 10.1438 9.05679H2.36691C1.91027 9.05679 1.54064 9.42639 1.54064 9.88302Z" fill="black" stroke="black" stroke-width="0.3"/>
</svg>
