<?xml version="1.0" encoding="UTF-8" standalone="no"?>
<svg
   data-name="Layer 3"
   id="Layer_3"
   viewBox="0 0 31 17"
   version="1.1"
   sodipodi:docname="delivery-new.svg"
   width="31"
   height="17"
   inkscape:version="1.1 (c68e22c387, 2021-05-23)"
   xmlns:inkscape="http://www.inkscape.org/namespaces/inkscape"
   xmlns:sodipodi="http://sodipodi.sourceforge.net/DTD/sodipodi-0.dtd"
   xmlns="http://www.w3.org/2000/svg"
   xmlns:svg="http://www.w3.org/2000/svg">
  <sodipodi:namedview
     id="namedview25"
     pagecolor="#ffffff"
     bordercolor="#666666"
     borderopacity="1.0"
     inkscape:pageshadow="2"
     inkscape:pageopacity="0.0"
     inkscape:pagecheckerboard="0"
     showgrid="false"
     inkscape:zoom="26.3125"
     inkscape:cx="15.486936"
     inkscape:cy="7.5059382"
     inkscape:window-width="1920"
     inkscape:window-height="1027"
     inkscape:window-x="-8"
     inkscape:window-y="-8"
     inkscape:window-maximized="1"
     inkscape:current-layer="Layer_3" />
  <defs
     id="defs4">
    <style
       id="style2">.cls-1{fill:none;stroke:#3c4044;stroke-linecap:round;stroke-linejoin:round;}</style>
  </defs>
  <title
     id="title6" />
  <path
     class="cls-1"
     d="m 22.44,0.5 v 13.6 h -9.66 a 2.42,2.42 0 0 0 -4.83,0 H 5.5 V 0.5 Z"
     id="path8" />
  <path
     class="cls-1"
     d="m 30.5,9.3 v 4.8 h -1.61 a 2.42,2.42 0 0 0 -4.83,0 H 22.44 V 4.5 h 3.37 z"
     id="path10" />
  <path
     class="cls-1"
     d="m 30.5,9.3 v 4.8 h -1.61 a 2.42,2.42 0 0 0 -4.83,0 H 22.44 V 9.3 Z"
     id="path12" />
  <ellipse
     class="cls-1"
     cx="10.36"
     cy="14.1"
     rx="2.4200001"
     ry="2.4000001"
     id="ellipse14" />
  <ellipse
     class="cls-1"
     cx="26.469999"
     cy="14.1"
     rx="2.4200001"
     ry="2.4000001"
     id="ellipse16" />
  <line
     class="cls-1"
     x1="0.5"
     x2="3.1099999"
     y1="2.1000004"
     y2="2.1000004"
     id="line18" />
  <line
     class="cls-1"
     x1="0.5"
     x2="3.1099999"
     y1="5.3000002"
     y2="5.3000002"
     id="line20" />
  <line
     class="cls-1"
     x1="0.5"
     x2="3.1099999"
     y1="8.5"
     y2="8.5"
     id="line22" />
</svg>
