<svg width="33" height="33" fill="none" xmlns="http://www.w3.org/2000/svg"><path d="M27.708 5.253H22.72l-.005-.001H6.14a1 1 0 000 2h10.366v6.02c0 .55.45 1 1 1h5.21c.55 0 1-.45 1-1v-6.02h3.993c.677 0 1.228.552 1.228 1.229v15.822a1.23 1.23 0 01-1.228 1.228H11.885a1.23 1.23 0 01-1.227-1.228V13.311a1 1 0 00-1-1H7.014a1 1 0 000 2h1.644v9.992a3.231 3.231 0 003.227 3.228h15.823a3.232 3.232 0 003.228-3.228V8.481a3.232 3.232 0 00-3.228-3.228zm-5.993 7.02h-3.21v-5.02h3.21v5.02z" fill="currentColor"/><path d="M2.995 10.78h6.17a1 1 0 000-2h-6.17a1 1 0 000 2zM25.834 23.638a1 1 0 000-2h-3.123a1 1 0 000 2h3.123z" fill="currentColor"/></svg>