<svg width="33" height="33" viewBox="0 0 33 33" fill="none" xmlns="http://www.w3.org/2000/svg">
<g clip-path="url(#clip0_294_6533)">
<path d="M28.4766 29.9192C28.4766 27.0167 28.0794 24.2186 27.2959 21.6031C26.6675 19.5044 25.7908 17.5183 24.6897 15.7C23.3653 13.5125 22.0384 12.0984 21.3357 11.4256L22.6018 7.99635C23.0423 6.80421 22.8809 5.46119 22.1707 4.4043C22.0821 4.27247 21.9869 4.14722 21.8858 4.02906V0.429199H20.0108V2.82593C19.7122 2.7417 19.4007 2.69239 19.0804 2.68165C19.034 2.67994 18.9876 2.6792 18.9407 2.6792C17.9468 2.6792 16.9937 3.05054 16.2608 3.6919C15.5276 3.05054 14.5745 2.6792 13.5806 2.6792C13.534 2.6792 13.4873 2.67994 13.4414 2.68165C13.1211 2.69239 12.8093 2.7417 12.5108 2.82593V0.429199H10.6358V4.02906C10.5344 4.14722 10.4392 4.27247 10.3506 4.4043C9.64039 5.46119 9.47926 6.80397 9.91944 7.99635L11.1856 11.4256C10.4829 12.0982 9.15626 13.5125 7.83179 15.6997C6.73072 17.5183 5.85376 19.5042 5.22534 21.6028C4.44214 24.2186 4.04492 27.0164 4.04492 29.919V30.8565H10.1443C10.1533 31.088 10.2388 32.4293 10.2388 32.4293H22.2827C22.2827 32.4293 22.3682 31.088 22.3772 30.8565H28.4766V29.9192ZM13.5051 4.55543C13.5303 4.5547 13.5554 4.55421 13.5806 4.55421C14.3555 4.55421 15.0571 4.95167 15.4571 5.6172L16.2608 6.95387L17.0642 5.6172C17.4773 4.92994 18.2097 4.52808 19.0166 4.55543C19.6646 4.5774 20.2471 4.90357 20.6143 5.45021C20.9954 6.0171 21.0786 6.70851 20.8431 7.34718L19.5833 10.7588H12.938L11.6782 7.34718C11.4426 6.70851 11.5259 6.0171 11.907 5.45021C12.2742 4.90357 12.8567 4.5774 13.5051 4.55543ZM22.3858 28.9817C22.2766 25.3965 21.4854 22.2359 20.7637 20.054C19.7984 17.135 18.7647 15.3164 18.7212 15.2403L17.0943 16.1724C17.1323 16.2386 20.7532 22.6592 20.5127 30.5543H17.1983V24.1531H15.3233V30.5543H12.0088C11.8897 26.5953 12.7488 23.0398 13.5222 20.69C14.428 17.9366 15.4175 16.189 15.4275 16.1717L14.6135 15.7063L13.8001 15.2405C13.7566 15.3164 12.7229 17.135 11.7576 20.054C11.0359 22.2359 10.2446 25.3965 10.1358 28.9817H5.93482C6.11475 23.356 7.88917 19.2476 9.39015 16.7464C10.7393 14.4983 12.1045 13.1275 12.6389 12.6336H19.8826C21.0613 13.722 26.2732 19.0826 26.5867 28.9817H22.3858Z" fill="black"/>
</g>
<defs>
<clipPath id="clip0_294_6533">
<rect width="32" height="32" fill="white" transform="translate(0.232422 0.491699)"/>
</clipPath>
</defs>
</svg>
