<svg width="24" height="24" viewBox="0 0 24 24" fill="none" xmlns="http://www.w3.org/2000/svg">
<path d="M17.25 21.75C16.836 21.75 16.5 21.414 16.5 21C16.5 20.586 16.836 20.25 17.25 20.25H17.2507C17.2507 19.836 17.586 19.5 18.0004 19.5C18.4147 19.5 18.75 19.836 18.75 20.25C18.75 21.0773 18.0773 21.75 17.25 21.75Z" fill="#999999"/>
<path d="M18 20.9999C17.586 20.9999 17.25 20.6639 17.25 20.2499V12.8943C17.25 12.4803 17.586 12.1443 18 12.1443C18.414 12.1443 18.75 12.4803 18.75 12.8943V20.2499C18.75 20.6639 18.414 20.9999 18 20.9999Z" fill="#999999"/>
<path d="M17.25 21.75H3.75C3.336 21.75 3 21.414 3 21C3 20.586 3.336 20.25 3.75 20.25H17.25C17.664 20.25 18 20.586 18 21C18 21.414 17.664 21.75 17.25 21.75Z" fill="#999999"/>
<path d="M3.75 21.75C2.92275 21.75 2.25 21.0773 2.25 20.25C2.25 19.836 2.586 19.5 3 19.5C3.414 19.5 3.75 19.836 3.75 20.25V20.2511C4.164 20.2511 4.5 20.5864 4.5 21.0004C4.5 21.4144 4.164 21.75 3.75 21.75Z" fill="#999999"/>
<path d="M3 21C2.586 21 2.25 20.664 2.25 20.25V6.75C2.25 6.336 2.586 6 3 6C3.414 6 3.75 6.336 3.75 6.75V20.25C3.75 20.664 3.414 21 3 21Z" fill="#999999"/>
<path d="M2.99963 7.5C2.58525 7.5 2.25 7.164 2.25 6.75C2.25 5.92275 2.92275 5.25 3.75 5.25C4.164 5.25 4.5 5.586 4.5 6C4.5 6.414 4.164 6.75 3.75 6.75H3.74925C3.74925 7.164 3.414 7.5 2.99963 7.5Z" fill="#999999"/>
<path d="M11.1056 6.75H3.75C3.336 6.75 3 6.414 3 6C3 5.586 3.336 5.25 3.75 5.25H11.1056C11.5196 5.25 11.8556 5.586 11.8556 6C11.8556 6.414 11.52 6.75 11.1056 6.75Z" fill="#999999"/>
<path d="M10.475 11.6241C10.283 11.6241 10.091 11.551 9.94475 11.4043C9.65188 11.1115 9.65188 10.6367 9.94475 10.3438L17.2696 3.01897C17.5621 2.7261 18.0376 2.7261 18.3301 3.01897C18.623 3.31185 18.623 3.7866 18.3301 4.07947L11.0053 11.4043C10.859 11.551 10.6666 11.6241 10.475 11.6241Z" fill="#999999"/>
<path d="M9.75075 15C9.69863 15 9.64575 14.9948 9.59288 14.9831C9.18787 14.8965 8.92987 14.4975 9.01687 14.0929L9.741 10.7171C9.82763 10.3117 10.2274 10.0526 10.6316 10.1411C11.0366 10.2277 11.2946 10.6267 11.2076 11.0314L10.4835 14.4071C10.4078 14.7592 10.0969 15 9.75075 15Z" fill="#999999"/>
<path d="M13.1264 14.2755C12.9344 14.2755 12.7424 14.2023 12.5961 14.0557C12.3032 13.7628 12.3032 13.2881 12.5961 12.9952L19.921 5.67034C20.2135 5.37746 20.689 5.37746 20.9815 5.67034C21.2744 5.96321 21.2744 6.43796 20.9815 6.73084L13.6566 14.0557C13.5104 14.2023 13.3184 14.2755 13.1264 14.2755Z" fill="#999999"/>
<path d="M9.74951 15C9.40339 15 9.09251 14.7593 9.01676 14.4076C8.93014 14.0026 9.18776 13.6036 9.59276 13.5169L12.9685 12.7924C13.3724 12.7066 13.7721 12.9631 13.8591 13.3681C13.9458 13.7731 13.6881 14.1721 13.2831 14.2587L9.90739 14.9832C9.85451 14.9944 9.80164 15 9.74951 15Z" fill="#999999"/>
<path d="M19.1252 8.27678C18.9332 8.27678 18.7412 8.20366 18.5949 8.05703L15.9433 5.4054C15.6504 5.11253 15.6504 4.63778 15.9433 4.3449C16.2358 4.05203 16.7113 4.05203 17.0038 4.3449L19.6554 6.99653C19.9483 7.28941 19.9483 7.76416 19.6554 8.05703C19.5092 8.20366 19.3172 8.27678 19.1252 8.27678Z" fill="#999999"/>
<path d="M20.4511 6.95059C20.2591 6.95059 20.0671 6.87746 19.9205 6.73084C19.6276 6.43796 19.6276 5.96284 19.9205 5.66996C20.1282 5.46258 20.2426 5.17983 20.2426 4.87496C20.2426 4.57008 20.1282 4.28733 19.9205 4.07996C19.5042 3.66333 18.7449 3.66371 18.3294 4.07958C18.0365 4.37246 17.5617 4.37246 17.2685 4.07996C16.9756 3.78708 16.9756 3.31196 17.2685 3.01908C17.7597 2.52746 18.419 2.25708 19.1247 2.25708C19.8305 2.25708 20.4901 2.52783 20.981 3.01908C21.4719 3.50996 21.7422 4.16883 21.7422 4.87496C21.7422 5.58108 21.4719 6.24034 20.9806 6.73121C20.8351 6.87746 20.6431 6.95059 20.4511 6.95059Z" fill="#999999"/>
</svg>
