<svg width="40" height="41" viewBox="0 0 40 41" xmlns="http://www.w3.org/2000/svg">
<path d="M23.3429 25.0075C22.3477 25.671 21.1918 26.0217 20 26.0217C18.8083 26.0217 17.6523 25.671 16.6572 25.0075L0.266328 14.08C0.175391 14.0193 0.0867969 13.9561 0 13.8911V31.7971C0 33.8501 1.66602 35.4794 3.68227 35.4794H36.3177C38.3706 35.4794 39.9999 33.8134 39.9999 31.7971V13.8911C39.913 13.9562 39.8242 14.0196 39.733 14.0803L23.3429 25.0075Z"/>
<path d="M1.56641 12.1297L17.9573 23.0574C18.5777 23.4711 19.2888 23.6779 19.9999 23.6779C20.7111 23.6779 21.4223 23.471 22.0427 23.0574L38.4336 12.1297C39.4145 11.4762 40 10.3825 40 9.20201C40 7.17225 38.3487 5.521 36.319 5.521H3.68102C1.65133 5.52107 0 7.17232 0 9.20396C0 10.3825 0.585625 11.4762 1.56641 12.1297Z"/>
</svg>
