<svg xmlns="http://www.w3.org/2000/svg" xmlns:xlink="http://www.w3.org/1999/xlink" version="1.1" x="0px" y="0px" viewBox="0 0 100 100" style="enable-background:new 0 0 100 100;" xml:space="preserve"><path d="M57.9,41.4H42.1c-0.7,0-1.3,0.3-1.8,0.8c-4,4.9-24.1,29.9-23,46.4c0.1,1.2,1.1,2.2,2.3,2.2h11.9c0.5,0,0.9-0.3,1.1-0.8  l5.8-15.8c0.1-0.4,0.7-0.2,0.6,0.2l-1,15.1c0,0.7,0.5,1.3,1.2,1.3h41.3c1.2,0,2.2-0.9,2.3-2.2c1.1-16.4-19-41.5-23-46.4  C59.3,41.7,58.6,41.4,57.9,41.4z"></path><path d="M37.8,9.2h-1.4c-0.3,0-0.5,0.2-0.5,0.5V15c0.8-0.2,1.6-0.3,2.4-0.4V9.7C38.4,9.4,38.1,9.2,37.8,9.2z"></path><path d="M63.6,9.2h-1.4c-0.3,0-0.5,0.2-0.5,0.5v4.9c0.9,0,1.7,0.2,2.4,0.4V9.7C64.1,9.4,63.8,9.2,63.6,9.2z"></path><path d="M32.3,20.2l8.4,16.5c0.4,0.7,1.1,1.2,1.8,1.2H49h2h6.4c0.8,0,1.5-0.4,1.8-1.2l8.4-16.5c0.5-1,0-2.4-1.1-2.9  c-3-1.4-8.8-2.9-15.2,2.9c-0.7,0.7-1.9,0.7-2.6,0c-6.4-5.8-12.3-4.3-15.2-2.9C32.3,17.8,31.8,19.1,32.3,20.2z"></path></svg>