<svg width="60" height="60" viewBox="0 0 60 60" fill="none" xmlns="http://www.w3.org/2000/svg">
<path d="M30 0C30 0 23.9999 7.51874 23.9999 11.7187C23.9999 14.8387 26.1428 17.4989 28.9687 17.9999C27.8108 17.565 27 16.1835 27 14.8125C27 12.7125 30 9.00004 30 9.00004C30 9.00004 33 12.7125 33 14.8125C33 16.1835 32.1892 17.565 31.0312 17.9999C33.8572 17.4989 35.9999 14.8387 35.9999 11.7187C35.9999 7.51874 30 0 30 0ZM8.99996 3.00001C8.99996 3.00001 3 10.5187 3 14.7187C3 17.8388 5.14274 20.499 7.96875 21C6.81075 20.565 6 19.1834 6 17.8125C6 15.7124 8.99996 12 8.99996 12C8.99996 12 11.9999 15.7124 11.9999 17.8125C11.9999 19.1834 11.0955 20.565 9.93742 21C12.7605 20.499 14.9062 17.8388 14.9062 14.7187C14.9062 10.5187 8.99996 3.00001 8.99996 3.00001ZM50.9999 3.00001C50.9999 3.00001 45 10.5187 45 14.7187C45 17.8388 47.1427 20.499 49.9687 21C48.8107 20.565 48 19.1834 48 17.8125C48 15.7124 50.9999 12 50.9999 12C50.9999 12 54 15.7124 54 17.8125C54 19.1834 53.0954 20.565 51.9375 21C54.7604 20.499 56.9063 17.8388 56.9063 14.7187C56.9063 10.5187 50.9999 3.00001 50.9999 3.00001ZM30 17.9999C15.0884 17.9999 3 23.3726 3 29.9999C3 34.1581 7.77131 37.7842 15 39.9374V45.4688C16.434 46.2127 18.417 46.8937 21 47.3437V41.2499C22.9133 41.5525 24.9155 41.7085 27 41.8125V47.9061C27.693 47.9361 28.4122 47.9909 29.1563 48H30.8438C31.5908 47.9909 32.307 47.9391 33 47.9061V41.8125C35.0845 41.7085 37.0867 41.5525 39.0001 41.2499V47.3437C41.5831 46.8937 43.5659 46.2157 45 45.4688V39.9374C52.2286 37.7842 57 34.1581 57 29.9999C57 23.3726 44.9117 17.9999 30 17.9999ZM6 39V48C6 56.601 16.9109 60 30 60C43.0889 60 54 56.601 54 48V39C52.2929 40.1399 50.2739 41.145 48 41.9999V48C48 50.8829 42.6241 53.9999 30 53.9999C17.376 53.9999 11.9999 50.8829 11.9999 48V41.9999C9.72596 41.145 7.707 40.1399 6 39Z" fill="currentColor"/>
</svg>
