<svg width="32" height="33" fill="none" xmlns="http://www.w3.org/2000/svg"><path d="M16 .362c-6.618 0-12 5.382-12 12C4 20.68 14.832 31.608 15.292 32.07a1.004 1.004 0 001.416 0C17.168 31.608 28 20.68 28 12.362c0-6.618-5.382-12-12-12zm0 29.554c-2.388-2.556-10-11.2-10-17.554 0-5.514 4.486-10 10-10s10 4.486 10 10c0 6.348-7.612 14.998-10 17.554z" fill="currentColor"/><path d="M16 6.362c-3.308 0-6 2.692-6 6s2.692 6 6 6 6-2.692 6-6-2.692-6-6-6zm0 10c-2.206 0-4-1.794-4-4s1.794-4 4-4 4 1.794 4 4-1.794 4-4 4z" fill="currentColor"/></svg>