<svg width="40" height="41" viewBox="0 0 40 41" xmlns="http://www.w3.org/2000/svg">
<path d="M20 0.500244C11.5566 0.500244 4.6875 7.36938 4.6875 15.8127C4.6875 18.5154 5.40156 21.1725 6.75242 23.4967C7.06734 24.0386 7.41937 24.5667 7.79891 25.0663L19.3347 40.5002H20.6652L32.2011 25.0663C32.5805 24.5667 32.9326 24.0387 33.2476 23.4968C34.5984 21.1725 35.3125 18.5154 35.3125 15.8127C35.3125 7.36938 28.4434 0.500244 20 0.500244ZM20 20.8909C17.1999 20.8909 14.9219 18.6128 14.9219 15.8127C14.9219 13.0127 17.1999 10.7346 20 10.7346C22.8001 10.7346 25.0781 13.0127 25.0781 15.8127C25.0781 18.6128 22.8001 20.8909 20 20.8909Z"/>
</svg>
