<svg width="32" height="33" viewBox="0 0 32 33" fill="none" xmlns="http://www.w3.org/2000/svg">
<path d="M3.00001 12.5721V27.8221C3.00001 28.2654 3.08751 28.7045 3.25749 29.114C3.42748 29.5235 3.6766 29.8955 3.9906 30.2085C4.30459 30.5216 4.67728 30.7696 5.0873 30.9384C5.49732 31.1072 5.93662 31.1934 6.38001 31.1921H25.63C26.5238 31.1921 27.381 30.837 28.013 30.205C28.645 29.573 29 28.7158 29 27.8221V12.5721C29 11.6774 28.6453 10.8191 28.0136 10.1856C27.3819 9.55197 26.5247 9.1947 25.63 9.19205H23.49C23.7851 8.88766 24.0466 8.5524 24.27 8.19205C24.6976 7.47592 24.9333 6.66161 24.9544 5.82779C24.9754 4.99397 24.781 4.16882 24.39 3.43205C24.0499 2.83812 23.5549 2.34768 22.9579 2.01305C22.3608 1.67843 21.6841 1.51218 21 1.53205C20.2508 1.50817 19.5053 1.64687 18.8148 1.93861C18.1243 2.23035 17.5051 2.6682 17 3.22205C16.6004 3.64509 16.2637 4.12331 16 4.64205C15.7518 4.12637 15.4319 3.64831 15.05 3.22205C14.5449 2.6682 13.9258 2.23035 13.2353 1.93861C12.5448 1.64687 11.7992 1.50817 11.05 1.53205C10.3656 1.51153 9.68832 1.67632 9.08984 2.00901C8.49135 2.3417 7.99388 2.82992 7.65001 3.42205C7.25902 4.15882 7.06465 4.98397 7.08567 5.81779C7.10669 6.65161 7.3424 7.46592 7.77001 8.18205C7.99339 8.5424 8.2549 8.87766 8.55001 9.18205H6.38001C5.9353 9.18205 5.49496 9.26981 5.08423 9.44029C4.6735 9.61078 4.30044 9.86064 3.98645 10.1756C3.67246 10.4905 3.4237 10.8643 3.25443 11.2755C3.08515 11.6867 2.9987 12.1273 3.00001 12.5721ZM27 12.5721V27.8221C27 28.002 26.9646 28.1801 26.8957 28.3463C26.8269 28.5125 26.726 28.6636 26.5988 28.7908C26.4715 28.918 26.3205 29.0189 26.1543 29.0878C25.9881 29.1566 25.8099 29.1921 25.63 29.1921H17L17.07 11.1921H25.66C26.019 11.2025 26.3599 11.3524 26.6101 11.6101C26.8603 11.8678 27.0002 12.2129 27 12.5721ZM21 3.57205C21.3337 3.54956 21.6671 3.62102 21.9622 3.77833C22.2574 3.93564 22.5026 4.1725 22.67 4.46205C22.8898 4.89379 22.9935 5.37533 22.9707 5.85928C22.9479 6.34322 22.7995 6.81289 22.54 7.22205C22.11 7.97205 20.98 9.22205 18.26 9.22205H17C17 8.01205 17.23 5.86205 18.39 4.59205C18.7186 4.23202 19.1234 3.94999 19.575 3.76659C20.0266 3.58319 20.5135 3.50305 21 3.53205V3.57205ZM9.47002 7.18205C9.21058 6.77289 9.06215 6.30322 9.03936 5.81928C9.01656 5.33533 9.12018 4.85379 9.34001 4.42205C9.50666 4.13409 9.75027 3.89827 10.0435 3.74106C10.3367 3.58385 10.6679 3.51147 11 3.53205C11.4737 3.50297 11.9481 3.57736 12.3902 3.75004C12.8323 3.92273 13.2314 4.18958 13.56 4.53205C14.73 5.83205 14.94 7.98205 15 9.19205H13.75C11 9.19205 9.90001 7.93205 9.47002 7.18205ZM5.00001 12.5721C5.00001 12.2061 5.14541 11.855 5.40421 11.5962C5.66301 11.3374 6.01402 11.1921 6.38001 11.1921H15L14.93 29.1921H6.38001C6.19926 29.1934 6.02004 29.1589 5.85267 29.0907C5.68529 29.0224 5.53308 28.9217 5.40481 28.7943C5.27653 28.667 5.17472 28.5155 5.10525 28.3486C5.03577 28.1818 5.00001 28.0028 5.00001 27.8221V12.5721Z" fill="black"/>
</svg>
