<svg width="20" height="24" fill="none" xmlns="http://www.w3.org/2000/svg"><path d="M17.215 4.87h-1.726c.15-.21.269-.445.314-.71.075-.43-.004-1.086-.795-1.773-.065-.056-.665-.547-1.662-.408-1.091.151-2.2.982-3.306 2.474C8.935 2.961 7.826 2.13 6.734 1.98c-.996-.138-1.597.352-1.663.408-.79.687-.869 1.343-.795 1.773.046.266.166.5.316.71H2.839a.633.633 0 00-.63.625l-.004 1.302a.621.621 0 00.62.625H17.2a.633.633 0 00.63-.625l.005-1.302a.621.621 0 00-.62-.625zm-3.742-1.646c.456-.076.715.108.716.108.905.786-.49 1.435-.73 1.538h-2.148c1.02-1.25 1.761-1.577 2.162-1.646zm-7.582.108c.001-.003.251-.173.672-.115.406.057 1.183.362 2.219 1.653H6.617c-.24-.094-1.578-.672-.726-1.538zm-2.597 5.34l-.012 8.32c0 .688.562 1.25 1.25 1.25H15.47c.687 0 1.25-.562 1.25-1.25l.012-8.32H3.294zm6.925 7.845c-.183.107-.424 0-.424 0-.17-.091-4.128-2.314-3.135-5.001.036-.08.48-.934 1.41-1.128.609-.126 1.26.059 1.938.549.676-.49 1.324-.676 1.934-.549.932.194 1.374 1.049 1.392 1.085 1.014 2.73-2.949 4.946-3.114 5.044z" fill="currentColor"/></svg>