<svg width="60" height="60" fill="none" xmlns="http://www.w3.org/2000/svg">
        <path
            d="M14.893 28.732c-.737 0-1.321-.63-1.205-1.356 1.132-7.087 6.737-12.68 13.829-13.796.726-.115 1.352.47 1.352 1.205 0 .655-.502 1.196-1.148 1.306A14.148 14.148 0 0016.2 27.586c-.112.645-.652 1.146-1.306 1.146zm-.012 2.51c-.734 0-1.318.626-1.206 1.351 1.104 7.123 6.724 12.754 13.841 13.874.727.114 1.354-.47 1.354-1.206 0-.655-.503-1.195-1.149-1.306a14.148 14.148 0 01-11.533-11.56c-.11-.648-.65-1.152-1.307-1.152zm30.488 0c-.656 0-1.197.505-1.306 1.152a14.148 14.148 0 01-11.534 11.561c-.646.11-1.148.651-1.148 1.306 0 .736.627 1.32 1.353 1.206 7.117-1.12 12.737-6.75 13.84-13.874.113-.725-.47-1.35-1.205-1.35zm-.011-2.51c.736 0 1.32-.63 1.205-1.356-1.133-7.087-6.738-12.68-13.83-13.796-.725-.115-1.352.47-1.352 1.205 0 .655.502 1.196 1.148 1.306a14.149 14.149 0 0111.522 11.495c.112.645.652 1.146 1.306 1.146z" fill="currentColor"/>
        <path
            d="M8.59 28.738c-.722 0-1.3-.608-1.22-1.326C8.556 16.827 16.96 8.423 27.544 7.236c.718-.081 1.326.497 1.326 1.22 0 .665-.52 1.212-1.182 1.291-9.312 1.11-16.698 8.496-17.806 17.81-.079.66-.626 1.181-1.292 1.181zm0 2.511c-.722 0-1.3.608-1.219 1.326 1.189 10.583 9.59 18.983 20.173 20.17.718.08 1.326-.497 1.326-1.22 0-.666-.52-1.212-1.182-1.291-9.31-1.11-16.695-8.493-17.805-17.803-.08-.662-.626-1.182-1.292-1.182zm43.07 0c-.666 0-1.213.52-1.292 1.182-1.11 9.31-8.495 16.694-17.805 17.803-.662.078-1.182.625-1.182 1.291 0 .723.608 1.3 1.326 1.22 10.583-1.187 18.984-9.587 20.173-20.17.08-.718-.497-1.326-1.22-1.326zm0-2.511c.723 0 1.301-.608 1.22-1.326-1.185-10.585-9.588-18.989-20.173-20.176-.718-.081-1.326.497-1.326 1.22 0 .665.52 1.212 1.182 1.291 9.312 1.11 16.698 8.496 17.806 17.81.079.66.626 1.181 1.292 1.181z" fill="currentColor"/>
        <path
            d="M2.168 28.734c-.715 0-1.29-.597-1.228-1.31C2.166 13.291 13.428 2.03 27.562.803c.713-.062 1.31.512 1.31 1.228 0 .672-.53 1.222-1.2 1.283C14.839 4.48 4.619 14.7 3.453 27.535c-.061.67-.611 1.2-1.284 1.2zm0 2.512c-.715 0-1.29.597-1.228 1.31 1.227 14.133 12.488 25.395 26.622 26.62.713.063 1.31-.512 1.31-1.227 0-.672-.53-1.223-1.2-1.284C14.839 55.5 4.619 45.28 3.453 32.445c-.061-.67-.611-1.2-1.284-1.2zm55.918 0c-.672 0-1.222.53-1.283 1.199-1.166 12.834-11.386 23.054-24.221 24.22-.67.061-1.199.611-1.199 1.284 0 .715.597 1.29 1.31 1.228 14.134-1.227 25.395-12.488 26.621-26.621.062-.713-.512-1.31-1.228-1.31zm0-2.512c.716 0 1.29-.597 1.228-1.31C58.088 13.291 46.827 2.03 32.694.803c-.714-.062-1.311.512-1.311 1.228 0 .672.53 1.222 1.199 1.283C45.417 4.48 55.637 14.7 56.802 27.535c.062.67.612 1.2 1.284 1.2zM21.643 28.739c-.774 0-1.377-.684-1.168-1.43a10.051 10.051 0 016.978-6.945c.744-.206 1.424.397 1.424 1.169 0 .626-.457 1.15-1.053 1.341a7.54 7.54 0 00-4.84 4.818c-.194.593-.716 1.047-1.34 1.047zm-.023 2.511c-.769 0-1.37.677-1.17 1.419a10.052 10.052 0 007.003 7.035c.744.206 1.424-.397 1.424-1.169 0-.626-.457-1.15-1.053-1.342a7.539 7.539 0 01-4.861-4.883c-.19-.6-.715-1.06-1.343-1.06zm17.026 0c-.629 0-1.153.46-1.343 1.06a7.54 7.54 0 01-4.861 4.883c-.596.193-1.053.716-1.053 1.342 0 .772.68 1.375 1.423 1.169a10.051 10.051 0 007.003-7.035c.202-.742-.4-1.419-1.17-1.419zm-.023-2.511c.774 0 1.377-.684 1.168-1.43a10.052 10.052 0 00-6.979-6.945c-.743-.206-1.423.397-1.423 1.169 0 .626.457 1.15 1.053 1.341a7.54 7.54 0 014.84 4.818c.194.593.716 1.047 1.34 1.047z" fill="currentColor"/>
</svg>