<svg width="30" height="31" viewBox="0 0 30 31" fill="none" xmlns="http://www.w3.org/2000/svg">
<path d="M14.6831 18.5983C14.6803 18.5983 14.6774 18.5983 14.6746 18.5983C14.1571 18.5936 13.7409 18.1703 13.7456 17.6523L13.7498 17.1836C13.7498 17.1569 13.7512 17.1297 13.754 17.103C13.8838 15.7394 14.789 14.9036 15.517 14.2319C15.7635 14.0041 15.997 13.7889 16.1957 13.5644C16.4381 13.2911 16.7896 12.7314 16.4198 12.0559C15.9937 11.2759 14.9531 11.0552 14.1445 11.2403C13.2998 11.4334 12.9885 12.1548 12.8779 12.5673C12.7438 13.0675 12.2296 13.3642 11.7295 13.2306C11.2293 13.0966 10.9326 12.5823 11.0662 12.0822C11.4398 10.6867 12.4092 9.71406 13.7254 9.41265C15.4968 9.00812 17.2809 9.7239 18.0642 11.1559C18.7162 12.3484 18.5376 13.7476 17.5978 14.808C17.3367 15.1023 17.0578 15.3601 16.7878 15.609C16.1151 16.2301 15.6946 16.6455 15.6234 17.245L15.6196 17.6683C15.6159 18.1844 15.1968 18.5983 14.6831 18.5983Z" fill="black"/>
<path d="M14.6816 21.4089C14.4379 21.4089 14.1941 21.3104 14.0207 21.137C13.8426 20.9636 13.7441 20.7198 13.7441 20.4714C13.7441 20.2276 13.8426 19.9839 14.0207 19.8104C14.3676 19.4636 14.9957 19.4636 15.3426 19.8104C15.5207 19.9839 15.6191 20.2276 15.6191 20.4714C15.6191 20.7198 15.5207 20.9589 15.3473 21.137C15.1691 21.3104 14.9301 21.4089 14.6816 21.4089Z" fill="black"/>
<path d="M14.9645 27.5481C13.8981 27.5481 12.841 27.4094 11.8224 27.1352C7.43305 25.9544 3.99618 22.3183 3.06665 17.8713C2.1193 13.3408 3.86774 8.57828 7.52165 5.73813C9.63383 4.09609 12.2977 3.19141 15.0231 3.19141C16.9098 3.19141 18.7834 3.63016 20.4418 4.45938C24.5373 6.50828 27.1834 10.7889 27.1834 15.3653C27.1834 19.0994 25.4213 22.6984 22.4701 24.9925C20.3504 26.6406 17.6846 27.5481 14.9645 27.5481ZM15.0235 5.06641C12.7131 5.06641 10.4574 5.83047 8.6729 7.21844C5.58055 9.62219 4.10024 13.653 4.90227 17.4873C5.68883 21.2491 8.59649 24.3255 12.3099 25.3244C13.1696 25.5555 14.0631 25.6731 14.9645 25.6731H14.9649C17.2702 25.6731 19.5268 24.9058 21.3198 23.5122C23.8177 21.5706 25.3088 18.5252 25.3088 15.3653C25.3088 11.493 23.0696 7.87047 19.6037 6.13656C18.204 5.43672 16.6206 5.06641 15.0235 5.06641Z" fill="black"/>
</svg>
