<svg width="57" height="36" fill="none" xmlns="http://www.w3.org/2000/svg"><path d="M0 4a4 4 0 014-4h53v36H14C6.268 36 0 29.732 0 22V4z" fill="currentColor"/><path d="M11.052 19l4.663-6.24-4.472-5.98h2.08l3.414 4.663 3.38-4.663h2.098l-4.472 5.98L22.388 19h-2.097l-3.571-4.888L13.167 19h-2.115zm12.812 0V6.78h1.664v9.29l7.02-9.29H33.9V19h-1.664V9.675L25.216 19h-1.352zm15.863 0V8.288h-4.333V6.78h10.452v1.508h-4.334V19h-1.785zM11.268 28.4v-4.666h4.07V28.4h-.777v-4.042h-2.515V28.4h-.778zm5.616 1.728v-6.394h.758v.835c.141-.287.35-.511.624-.671.282-.167.608-.25.98-.25.416 0 .777.1 1.084.297.314.192.554.47.72.836.173.358.26.787.26 1.286 0 .493-.087.922-.26 1.287a1.917 1.917 0 01-.72.835 1.955 1.955 0 01-1.084.297c-.359 0-.679-.08-.96-.24-.282-.16-.49-.38-.625-.662v2.544h-.777zm2.198-2.266c.435 0 .784-.153 1.047-.46.262-.314.393-.759.393-1.335 0-.582-.13-1.027-.393-1.334-.263-.308-.612-.461-1.047-.461-.435 0-.784.154-1.046.46-.263.308-.394.753-.394 1.335 0 .576.131 1.02.394 1.334.262.308.611.461 1.046.461zm5.432.624c-.455 0-.848-.099-1.181-.297a2.043 2.043 0 01-.778-.835c-.179-.365-.268-.794-.268-1.287 0-.493.09-.918.268-1.277a2.03 2.03 0 01.778-.845c.333-.198.726-.297 1.18-.297.449 0 .84.1 1.172.297.34.199.598.48.777.845.186.359.279.784.279 1.277 0 .493-.093.922-.279 1.287-.179.358-.438.636-.777.835-.333.198-.723.297-1.171.297zm0-.624c.435 0 .784-.153 1.046-.46.263-.314.394-.759.394-1.335 0-.582-.131-1.027-.394-1.334-.262-.308-.611-.461-1.046-.461-.442 0-.794.154-1.056.46-.256.308-.384.753-.384 1.335 0 .576.128 1.02.384 1.334.262.308.614.461 1.056.461zm2.98 1.786v-1.872h.49c.223-.326.383-.7.48-1.123.095-.43.143-.944.143-1.546v-1.373h3.303v4.042h.739v1.872h-.672V28.4h-3.821v1.248h-.662zm1.238-1.872h2.438v-3.427h-1.872v.892c0 .48-.048.945-.144 1.393a3.797 3.797 0 01-.422 1.142zm6.43.71c-.32 0-.608-.06-.864-.182-.25-.128-.448-.3-.595-.518a1.273 1.273 0 01-.221-.73c0-.34.086-.608.26-.806.178-.199.47-.34.873-.423.41-.09.966-.134 1.67-.134h.307v-.298c0-.397-.083-.681-.25-.854-.16-.18-.418-.27-.777-.27-.281 0-.553.043-.816.126a3.068 3.068 0 00-.806.384l-.269-.567a2.97 2.97 0 01.883-.412 3.608 3.608 0 011.008-.154c.602 0 1.047.147 1.335.442.294.294.441.752.441 1.372V28.4h-.73v-.806a1.44 1.44 0 01-.566.652 1.6 1.6 0 01-.883.24zm.125-.585c.384 0 .697-.131.94-.394.244-.269.365-.608.365-1.018v-.288h-.297c-.519 0-.928.026-1.229.077-.294.045-.502.128-.624.25-.115.115-.173.275-.173.48 0 .262.09.477.269.643.186.166.435.25.749.25zm2.813.499l.96-1.613c.167-.281.317-.496.451-.643a1.25 1.25 0 01.47-.317l-1.64-2.093h.854l1.536 1.95h.739v-1.95h.777v1.95h.75l1.526-1.95h.854l-1.642 2.093c.173.064.327.17.461.317.141.147.295.362.461.643l.96 1.613h-.835l-.845-1.411c-.16-.276-.317-.458-.47-.547-.148-.09-.352-.135-.615-.135h-.605V28.4h-.777v-2.093h-.605c-.262 0-.467.045-.614.135-.148.09-.304.271-.47.547l-.846 1.41H38.1z" fill="#fff"/></svg>