<svg width="33" height="33" viewBox="0 0 33 33" fill="none" xmlns="http://www.w3.org/2000/svg">
<g clip-path="url(#clip0_759_23650)">
<path d="M16.2324 0.966797C7.38936 0.966797 0.232422 8.1228 0.232422 16.9668C0.232422 25.8099 7.38842 32.9668 16.2324 32.9668C25.0755 32.9668 32.2324 25.8108 32.2324 16.9668C32.2324 8.12373 25.0764 0.966797 16.2324 0.966797ZM16.2324 30.7342C8.64105 30.7342 2.46498 24.5582 2.46498 16.9668C2.46498 9.37542 8.64105 3.19936 16.2324 3.19936C23.8238 3.19936 29.9999 9.37542 29.9999 16.9668C29.9999 24.5582 23.8238 30.7342 16.2324 30.7342Z" fill="black"/>
<path d="M16.2327 13.6924C15.6162 13.6924 15.1165 14.1922 15.1165 14.8086V23.9621C15.1165 24.5786 15.6163 25.0784 16.2327 25.0784C16.8492 25.0784 17.349 24.5786 17.349 23.9621V14.8087C17.349 14.1922 16.8492 13.6924 16.2327 13.6924Z" fill="black"/>
<path d="M16.2327 8.85522C15.6162 8.85522 15.1165 9.35504 15.1165 9.97147V11.311C15.1165 11.9275 15.6163 12.4273 16.2327 12.4273C16.8492 12.4273 17.349 11.9275 17.349 11.311V9.97147C17.349 9.35504 16.8492 8.85522 16.2327 8.85522Z" fill="black"/>
</g>
<defs>
<clipPath id="clip0_759_23650">
<rect width="32" height="32" fill="white" transform="translate(0.232422 0.966797)"/>
</clipPath>
</defs>
</svg>
