<svg width="50" height="50" viewBox="0 0 50 50" fill="none" xmlns="http://www.w3.org/2000/svg">
<circle cx="25" cy="25" r="24.5" stroke="#000" opacity="0.1"/>
<path d="M25 37C24.8847 36.9982 24.7717 36.9675 24.6717 36.9107C24.5472 36.8548 21.7396 35.2802 18.8868 32.7563C14.9811 29.2831 13 25.8323 13 22.482C12.999 21.0958 13.4488 19.7459 14.2832 18.6307C15.1177 17.5154 16.2928 16.6937 17.6359 16.2862C18.979 15.8787 20.4191 15.907 21.7447 16.3669C23.0702 16.8269 24.2112 17.6942 25 18.8413C25.7888 17.6942 26.9298 16.8269 28.2553 16.3669C29.5809 15.907 31.021 15.8787 32.3641 16.2862C33.7072 16.6937 34.8823 17.5154 35.7168 18.6307C36.5513 19.7459 37.001 21.0958 37 22.482C37 25.8323 35.0189 29.2831 31.1132 32.7563C28.2604 35.2802 25.4528 36.8548 25.3283 36.9107C25.2283 36.9675 25.1153 36.9982 25 37ZM19.566 17.3449C18.1849 17.3449 16.8604 17.8861 15.8837 18.8495C14.9071 19.8129 14.3585 21.1195 14.3585 22.482C14.3585 28.8811 23.166 34.4649 25 35.5482C26.834 34.4649 35.6415 28.8811 35.6415 22.482C35.6441 21.2925 35.2282 20.1389 34.4648 19.2182C33.7013 18.2975 32.6377 17.6667 31.4553 17.4334C30.2729 17.2001 29.045 17.3788 27.9813 17.9391C26.9176 18.4993 26.084 19.4063 25.6226 20.5053C25.5739 20.6291 25.4884 20.7355 25.3773 20.8106C25.2662 20.8856 25.1346 20.9257 25 20.9257C24.8654 20.9257 24.7338 20.8856 24.6227 20.8106C24.5116 20.7355 24.4261 20.6291 24.3774 20.5053C23.9815 19.5686 23.3133 18.7686 22.457 18.2061C21.6008 17.6436 20.5948 17.3439 19.566 17.3449Z" fill="#000"/>
</svg>
