<svg width="20" height="20" viewBox="0 0 20 20" fill="none" xmlns="http://www.w3.org/2000/svg">
<path d="M17.1897 10.3054L10.0007 17.4723L2.81078 10.2826C1.92613 9.39774 1.43883 8.21142 1.43883 6.94235C1.43883 5.67329 1.92613 4.48696 2.81078 3.60208C3.69566 2.71743 4.88609 2.23013 6.16305 2.23013C7.41965 2.23013 8.61246 2.71958 9.52109 3.60782C9.80262 3.88337 10.2542 3.88095 10.5326 3.60208C11.4175 2.71743 12.6036 2.23013 13.8729 2.23013C15.1422 2.23013 16.3283 2.71743 17.2072 3.5963C18.0803 4.48958 18.5611 5.68216 18.5611 6.95435C18.5611 8.21118 18.072 9.40372 17.1897 10.3054Z" fill="black"/>
</svg>
