<svg width="20" height="20" viewBox="0 0 20 20" fill="none" xmlns="http://www.w3.org/2000/svg">
<path d="M9.99968 18.9333C9.91756 18.9337 9.83619 18.9177 9.76035 18.8862C9.68451 18.8547 9.61571 18.8084 9.55801 18.75L4.75801 13.95C3.72001 12.9131 3.01288 11.5916 2.72608 10.1527C2.43929 8.71376 2.58571 7.22212 3.14684 5.86646C3.70796 4.51079 4.65857 3.35201 5.8784 2.53672C7.09823 1.72143 8.53247 1.28625 9.99968 1.28625C11.4669 1.28625 12.9011 1.72143 14.121 2.53672C15.3408 3.35201 16.2914 4.51079 16.8525 5.86646C17.4136 7.22212 17.5601 8.71376 17.2733 10.1527C16.9865 11.5916 16.2793 12.9131 15.2413 13.95L10.4413 18.75C10.3836 18.8084 10.3148 18.8547 10.239 18.8862C10.1632 18.9177 10.0818 18.9337 9.99968 18.9333ZM9.99968 2.54167C8.78065 2.54252 7.58923 2.90465 6.57592 3.58231C5.56261 4.25997 4.77288 5.22276 4.30649 6.34904C3.84011 7.47532 3.71799 8.71456 3.95558 9.91021C4.19317 11.1059 4.77979 12.2043 5.64134 13.0667L9.99968 17.425L14.358 13.0667C15.2196 12.2043 15.8062 11.1059 16.0438 9.91021C16.2814 8.71456 16.1592 7.47532 15.6929 6.34904C15.2265 5.22276 14.4367 4.25997 13.4234 3.58231C12.4101 2.90465 11.2187 2.54252 9.99968 2.54167Z" fill="black"/>
<path d="M10 11.4584C9.38193 11.4584 8.77774 11.2751 8.26384 10.9317C7.74994 10.5883 7.3494 10.1003 7.11288 9.52926C6.87635 8.95824 6.81447 8.32991 6.93505 7.72372C7.05563 7.11753 7.35325 6.56071 7.79029 6.12367C8.22733 5.68663 8.78415 5.389 9.39034 5.26842C9.99653 5.14784 10.6249 5.20973 11.1959 5.44625C11.7669 5.68278 12.255 6.08331 12.5983 6.59722C12.9417 7.11112 13.125 7.71531 13.125 8.33337C13.125 9.16218 12.7958 9.95703 12.2097 10.5431C11.6237 11.1291 10.8288 11.4584 10 11.4584ZM10 6.45838C9.62916 6.45838 9.26664 6.56834 8.9583 6.77437C8.64996 6.9804 8.40964 7.27323 8.26773 7.61584C8.12581 7.95846 8.08868 8.33545 8.16103 8.69917C8.23337 9.06288 8.41195 9.39698 8.67417 9.6592C8.9364 9.92142 9.27049 10.1 9.6342 10.1723C9.99792 10.2447 10.3749 10.2076 10.7175 10.0656C11.0601 9.92373 11.353 9.68341 11.559 9.37507C11.765 9.06673 11.875 8.70421 11.875 8.33337C11.875 7.83609 11.6774 7.35918 11.3258 7.00755C10.9742 6.65592 10.4973 6.45838 10 6.45838Z" fill="black"/>
</svg>
