<svg width="32" height="32" viewBox="0 0 32 32" fill="none" xmlns="http://www.w3.org/2000/svg">
<path d="M30.5394 13.176C30.3977 13.0343 30.22 12.9274 30.0061 12.8566C29.97 12.8566 29.9353 12.8205 29.8992 12.8205L29.7923 12.7844L27.8011 12.2873L29.3299 10.7584C30.3255 9.76283 30.6449 8.44784 30.1478 7.23979C29.5785 5.854 28.051 5 26.2013 5H15.8231C15.4315 5 15.076 5.14164 14.7928 5.42629L2.70658 17.5125C2.63576 17.5833 2.59966 17.6194 2.52884 17.6903L2.45803 17.7611C1.56933 18.7567 1 20.0356 1 21.4573C1 24.4789 3.45222 26.9672 6.5099 26.9672H18.2044C18.596 26.9672 18.9515 26.8256 19.2347 26.5409L30.5737 15.2019C30.8584 14.9173 31 14.5618 31 14.1716C30.9653 13.8161 30.824 13.4606 30.5394 13.176ZM28.1926 13.4967L17.5646 24.1248H6.47406C5.05215 24.1248 3.87879 22.9514 3.87879 21.5295C3.87879 20.1076 5.05215 18.9342 6.47406 18.9342H15.2902C15.7165 18.9342 16.0373 19.2536 16.0373 19.6813C16.0373 20.1076 15.7179 20.4284 15.2902 20.4284H6.97137C6.1896 20.4284 5.51334 21.0685 5.51334 21.8864C5.51334 22.7043 6.15349 23.3444 6.97137 23.3444H15.2888C16.2844 23.3444 17.1731 22.9528 17.848 22.278L26.9126 13.2133L28.1926 13.4967ZM15.5384 6.20944C15.6092 6.13862 15.7161 6.10252 15.823 6.10252H26.2026C27.6245 6.10252 28.7618 6.70655 29.1534 7.70217C29.4727 8.48393 29.2603 9.37262 28.584 10.0489L18.9499 19.6468C18.9499 17.6555 17.3502 16.0213 15.3588 16.0213H6.47192C6.18726 16.0213 5.90258 16.0574 5.65404 16.0921L15.5384 6.20944ZM29.7923 14.4924L18.4533 25.8314C18.3825 25.9022 18.2755 25.9383 18.1686 25.9383H6.47414C4.02191 25.9383 2.03067 23.9471 2.03067 21.4949C2.03067 20.3215 2.49308 19.2551 3.23872 18.4733L3.41646 18.2956C4.19823 17.5485 5.26466 17.0875 6.43802 17.0875H15.2887C16.6745 17.0875 17.8478 18.2609 17.8478 19.6467C17.8478 20.3576 17.5632 20.9978 17.1008 21.4602C16.6384 21.9226 15.9982 22.2073 15.2873 22.2073L6.97088 22.2059C6.75704 22.2059 6.57929 22.0281 6.57929 21.8143C6.57929 21.6004 6.75702 21.4227 6.97088 21.4227H15.2883C16.284 21.4227 17.1018 20.6048 17.1018 19.6092C17.1018 18.6136 16.284 17.7957 15.2883 17.7957L6.47357 17.7971C4.44763 17.7971 2.8118 19.4328 2.8118 21.4588C2.8118 23.4848 4.44756 25.1206 6.47357 25.1206H18.0266L29.2604 13.8868C29.402 13.7452 29.652 13.7452 29.7936 13.8868C29.8644 13.9576 29.9005 14.0646 29.9005 14.1715C29.8991 14.3145 29.8645 14.4202 29.7923 14.4924Z" fill="black" stroke="black" stroke-width="0.55"/>
</svg>
