<svg width="33" height="33" viewBox="0 0 33 33" fill="none" xmlns="http://www.w3.org/2000/svg">
<g clip-path="url(#clip0_759_23638)">
<path d="M5.73242 29.2375C5.18011 29.2375 4.73242 28.7898 4.73242 28.2375V4.86255C4.73242 2.58799 6.58286 0.737549 8.85742 0.737549H26.7324C27.2847 0.737549 27.7324 1.1853 27.7324 1.73755V24.7375C27.7324 25.2898 27.2847 25.7375 26.7324 25.7375C26.1801 25.7375 25.7324 25.2898 25.7324 24.7375V2.73755H8.85742C7.68567 2.73755 6.73242 3.6908 6.73242 4.86255V28.2375C6.73242 28.7898 6.28473 29.2375 5.73242 29.2375Z" fill="black"/>
<path d="M26.7324 32.7375H9.23242C6.75111 32.7375 4.73242 30.7189 4.73242 28.2375C4.73242 25.7562 6.75111 23.7375 9.23242 23.7375H26.7324C27.2847 23.7375 27.7324 24.1853 27.7324 24.7375C27.7324 25.2898 27.2847 25.7375 26.7324 25.7375H9.23242C7.85392 25.7375 6.73242 26.859 6.73242 28.2375C6.73242 29.616 7.85392 30.7375 9.23242 30.7375H26.7324C27.2847 30.7375 27.7324 31.1853 27.7324 31.7375C27.7324 32.2898 27.2847 32.7375 26.7324 32.7375Z" fill="black"/>
<path d="M26.7324 29.2375H9.23242C8.68011 29.2375 8.23242 28.7898 8.23242 28.2375C8.23242 27.6853 8.68011 27.2375 9.23242 27.2375H26.7324C27.2847 27.2375 27.7324 27.6853 27.7324 28.2375C27.7324 28.7898 27.2847 29.2375 26.7324 29.2375Z" fill="black"/>
<path d="M10.2324 25.7375C9.68011 25.7375 9.23242 25.2898 9.23242 24.7375V1.73755C9.23242 1.1853 9.68011 0.737549 10.2324 0.737549C10.7847 0.737549 11.2324 1.1853 11.2324 1.73755V24.7375C11.2324 25.2898 10.7847 25.7375 10.2324 25.7375Z" fill="black"/>
</g>
<defs>
<clipPath id="clip0_759_23638">
<rect width="32" height="32" fill="white" transform="translate(0.232422 0.737549)"/>
</clipPath>
</defs>
</svg>
