<?xml version="1.0" encoding="UTF-8" standalone="no"?>
<svg
   viewBox="0 0 58 41.95076"
   x="0px"
   y="0px"
   version="1.1"
   id="svg8"
   sodipodi:docname="measuring-tape.svg"
   width="58"
   height="41.95076"
   inkscape:version="1.1 (c68e22c387, 2021-05-23)"
   xmlns:inkscape="http://www.inkscape.org/namespaces/inkscape"
   xmlns:sodipodi="http://sodipodi.sourceforge.net/DTD/sodipodi-0.dtd"
   xmlns="http://www.w3.org/2000/svg"
   xmlns:svg="http://www.w3.org/2000/svg">
  <defs
     id="defs12" />
  <sodipodi:namedview
     id="namedview10"
     pagecolor="#ffffff"
     bordercolor="#666666"
     borderopacity="1.0"
     inkscape:pageshadow="2"
     inkscape:pageopacity="0.0"
     inkscape:pagecheckerboard="0"
     showgrid="false"
     inkscape:zoom="13.15625"
     inkscape:cx="28.997625"
     inkscape:cy="21.016627"
     inkscape:window-width="1920"
     inkscape:window-height="1027"
     inkscape:window-x="-8"
     inkscape:window-y="-8"
     inkscape:window-maximized="1"
     inkscape:current-layer="svg8" />
  <g
     data-name="Layer 27"
     id="g6"
     transform="translate(-3,-11.04924)">
    <path
       d="m 10.71,20.15 c 1.83,0.68 7,2.27 15.72,2.27 8.72,0 13.89,-1.59 15.72,-2.27 a 1,1 0 0 0 0,-1.88 C 40.32,17.59 35.15,16 26.43,16 17.71,16 12.54,17.59 10.71,18.27 a 1,1 0 0 0 0,1.88 z M 26.43,18 A 52.11,52.11 0 0 1 38.26,19.21 52.7,52.7 0 0 1 26.43,20.42 52.7,52.7 0 0 1 14.6,19.21 52.11,52.11 0 0 1 26.43,18 Z"
       id="path2" />
    <path
       d="m 52.42,25.42 h -2.56 v -6.21 a 0.71,0.71 0 0 0 0,-0.16 c -0.24,-5.23 -12.18,-8 -23.42,-8 C 16,11 5,13.42 3.26,17.92 A 1,1 0 0 0 3,18.57 v 11.05 0 c 0,5.23 11.6,8.1 22.76,8.21 h 26.66 a 6.52,6.52 0 0 1 4,1.37 6.52,6.52 0 0 1 -4,1.37 H 11.86 a 1,1 0 0 0 -1,1 V 52 a 1,1 0 0 0 1,1 H 52.42 A 8.59,8.59 0 0 0 61,44.42 V 34 a 8.59,8.59 0 0 0 -8.58,-8.58 z m -10.42,0 a 17.74,17.74 0 0 0 5.82,-2.73 v 2.73 z M 26.43,13 c 12.26,0 21.43,3.28 21.43,6.21 0,2.93 -9.17,6.21 -21.43,6.21 C 14.17,25.42 5,22.14 5,19.21 5,16.28 14.17,13 26.43,13 Z M 53.8,36 v -1.58 a 1,1 0 0 0 -2,0 v 1.42 H 45.48 V 32 a 1,1 0 1 0 -2,0 v 3.84 h -6.32 v -1.42 a 1,1 0 0 0 -2,0 v 1.42 H 28.84 V 32 a 1,1 0 0 0 -2,0 v 3.84 h -0.41 c -2.07,0 -4,-0.1 -5.91,-0.27 v -1.15 a 1,1 0 0 0 -2,0 v 0.93 A 45.32,45.32 0 0 1 12.2,34.14 V 32 a 1,1 0 0 0 -2,0 v 1.52 C 6.94,32.38 5,31 5,29.63 v 0 -6.94 c 3.8,3 12.44,4.65 20.83,4.72 H 52.42 A 6.58,6.58 0 0 1 57.82,37.75 8.43,8.43 0 0 0 53.8,36 Z M 53,51 v -1.42 a 1,1 0 0 0 -2,0 V 51 h -6.32 v -3.84 a 1,1 0 0 0 -2,0 V 51 h -6.32 v -1.42 a 1,1 0 0 0 -2,0 V 51 H 28 v -3.84 a 1,1 0 0 0 -2,0 V 51 h -6.28 v -1.42 a 1,1 0 0 0 -2,0 V 51 H 12.86 V 42.58 H 52.42 A 8.55,8.55 0 0 0 57.82,40.66 6.58,6.58 0 0 1 53,51 Z"
       id="path4" />
  </g>
</svg>
