<svg width="24" height="24" viewBox="0 0 24 24" fill="none" xmlns="http://www.w3.org/2000/svg">
<path d="M23.9351 14.1282C23.8823 14.038 23.8012 13.9679 23.7044 13.9287L21.9832 13.2241L23.7659 12.1743C23.9913 12.0424 24.0671 11.7527 23.9351 11.5273C23.8823 11.4372 23.8012 11.367 23.7044 11.3279L21.9832 10.6233L23.7659 9.57348C23.9216 9.4798 24.0098 9.30519 23.9929 9.12425C23.9792 8.94556 23.8657 8.78987 23.6997 8.72231L16.9234 5.94652L13.5849 4.5279C13.5307 4.50644 13.4729 4.49527 13.4146 4.49479L7.97656 2.28173C7.84304 2.22629 7.69148 2.23504 7.56516 2.30538L0.278141 6.40049C0.0448945 6.51794 -0.0489714 6.80225 0.0684792 7.0355C0.122032 7.1419 0.21383 7.22418 0.325428 7.26585L2.08453 7.99408L0.278141 9.0013C0.0508646 9.12993 -0.0291106 9.4185 0.0995117 9.64578C0.150641 9.73609 0.229966 9.80703 0.325428 9.84775L2.08453 10.576L0.287598 11.5832C0.047318 11.6856 -0.064399 11.9634 0.0379787 12.2036C0.0913546 12.3289 0.196097 12.425 0.325428 12.4675L2.08453 13.191L0.287598 14.1982C0.0603221 14.3268 -0.0196531 14.6154 0.108969 14.8427C0.160099 14.933 0.239424 15.0039 0.334886 15.0447L6.44917 17.6408C6.47152 17.657 6.49528 17.6713 6.5201 17.6833L9.86334 19.1019L16.0107 21.7169C16.149 21.7756 16.307 21.7651 16.4363 21.6886L23.7659 17.3759C23.9913 17.244 24.0671 16.9544 23.9351 16.729C23.8823 16.6388 23.8012 16.5687 23.7044 16.5295L21.9832 15.8249L23.7659 14.7751C23.9913 14.6432 24.067 14.3536 23.9351 14.1282ZM22.4608 11.8339L16.1573 15.546L10.5206 13.1532V11.5785L16.006 13.9098C16.0643 13.9346 16.1271 13.9475 16.1904 13.9476C16.2753 13.9476 16.3586 13.9248 16.4316 13.8814L20.957 11.2192L22.4608 11.8339ZM22.4797 9.22834L16.1573 12.9404L11.0361 10.7652L16.8052 6.91125L22.4797 9.22834ZM6.21746 16.5248L1.57855 14.5529L3.17214 13.6592L6.22219 14.9549L6.21746 16.5248ZM6.21746 13.924L1.57855 11.9521L3.17214 11.0489L6.22219 12.3446L6.21746 13.924ZM6.21746 11.3232L1.57855 9.35602L3.17214 8.46228L6.22219 9.75797L6.21746 11.3232ZM1.57855 6.7552L7.82997 3.24173L12.3649 5.10014L6.65251 8.91152L1.57855 6.7552ZM9.78295 10.472C9.65261 10.5601 9.57465 10.7072 9.57488 10.8645V17.9576L7.16795 16.9362V9.70595L13.4336 5.53045L15.7648 6.4762L9.78295 10.472ZM22.4608 17.0355L16.1573 20.7429L10.5206 18.3501V16.7802L16.006 19.0878C16.1443 19.1465 16.3023 19.136 16.4316 19.0594L20.957 16.3971L22.4608 17.0355ZM16.1573 18.1421L10.5206 15.7493V14.1794L16.0107 16.5106C16.149 16.5693 16.307 16.5588 16.4363 16.4823L20.9617 13.82L22.4608 14.4347L16.1573 18.1421Z" fill="black"/>
</svg>
