<svg width="80" height="80" fill="none" xmlns="http://www.w3.org/2000/svg"><path d="M70 55.407V24.594a2.532 2.532 0 00-1.281-2.187l-27.5-15.47a2.437 2.437 0 00-2.438 0l-27.5 15.47A2.532 2.532 0 0010 24.594v30.813a2.532 2.532 0 001.281 2.187l27.5 15.469a2.438 2.438 0 002.438 0l27.5-15.469A2.531 2.531 0 0070 55.407z" stroke="currentColor" stroke-width="2" stroke-linecap="round" stroke-linejoin="round"/><path d="M55.313 47.656v-16.25L25 14.688" stroke="currentColor" stroke-width="2" stroke-linecap="round" stroke-linejoin="round"/><path d="M69.656 23.31L40.281 39.998 10.344 23.311M40.281 40L40 73.375" stroke="currentColor" stroke-width="2" stroke-linecap="round" stroke-linejoin="round"/></svg>