<svg width="24" height="24" fill="none" xmlns="http://www.w3.org/2000/svg"><path d="M3 1.44C3 .645 3.645 0 4.44 0H15l6 5.04v17.52A1.44 1.44 0 0119.56 24H4.44A1.44 1.44 0 013 22.56V1.44z" fill="#EF5350"/><path d="M15 0v3.6c0 .795.645 1.44 1.44 1.44H21" fill="#D32F2F"/><path d="M7.515 15.217h-.563v1.726H5.707v-5.199H7.35c1.418 0 2.228.555 2.228 1.696 0 1.223-.833 1.777-2.063 1.777zm-.15-2.588h-.413v1.688h.458c.562 0 .885-.27.885-.878 0-.547-.308-.81-.93-.81zm4.178 4.314h-1.41v-5.199h1.32c1.336 0 2.61.428 2.61 2.574 0 2.114-1.222 2.625-2.52 2.625zm.09-4.299h-.255v3.399h.255c.682 0 1.14-.368 1.14-1.726 0-1.387-.487-1.673-1.14-1.673zm4.597-.014v1.365h1.815v.892h-1.816v2.056h-1.252v-5.199h3.428l-.128.885H16.23z" fill="#fff"/></svg>