<svg width="33" height="33" viewBox="0 0 33 33" fill="none" xmlns="http://www.w3.org/2000/svg">
<g clip-path="url(#clip0_759_23717)">
<path fill-rule="evenodd" clip-rule="evenodd" d="M26.0898 0.39209C26.6077 0.39209 27.0273 0.811768 27.0273 1.32959V13.7688C30.3 15.406 32.4648 18.7673 32.4648 22.564C32.4648 27.9917 28.0645 32.3921 22.6367 32.3921C18.8401 32.3921 15.4788 30.2273 13.8416 26.9546H1.40234C0.884521 26.9546 0.464844 26.5349 0.464844 26.0171V1.32959C0.464844 0.811768 0.884521 0.39209 1.40234 0.39209H26.0898ZM18.2148 2.26709V7.521C18.2148 8.19507 17.4956 8.71387 16.7932 8.32373L13.7461 6.77539L10.636 8.35596C10.0117 8.67212 9.27905 8.21069 9.27954 7.521L9.27734 2.26709H2.33984V25.0796H13.1338C12.2263 21.6436 13.2468 18.0549 15.6873 15.6145C18.1277 13.1741 21.7163 12.1536 25.1523 13.061V2.26709H18.2148ZM19.6523 26.7046H24.0271C25.0261 26.7046 25.9326 26.2976 26.5889 25.6411C27.2788 24.9514 27.6523 24.0579 27.6523 23.0173C27.6523 21.0193 26.0251 19.3921 24.0271 19.3921H21.4219L21.9722 18.8408C22.8391 17.9688 21.5134 16.6506 20.6465 17.5225L18.4963 19.6765C18.1323 20.0425 18.1338 20.6345 18.5 20.9985L20.6543 23.1487C21.5261 24.0156 22.8445 22.6899 21.9727 21.823L21.4155 21.2671H24.0271C25.0422 21.2671 25.7773 22.0786 25.7773 23.0793C25.7773 24.0422 24.99 24.8296 24.0271 24.8296H19.6523C19.1345 24.8296 18.7148 25.2493 18.7148 25.7671C18.7148 26.2849 19.1345 26.7046 19.6523 26.7046ZM17.0129 16.9402C13.9072 20.0461 13.9072 25.082 17.0129 28.1877C20.1189 31.2937 25.1548 31.2937 28.2605 28.1877C31.3665 25.082 31.3665 20.0461 28.2605 16.9402C25.1548 13.8345 20.1187 13.8345 17.0129 16.9402ZM16.3398 2.26709H11.1523V5.99561L13.3228 4.89258C13.5789 4.7627 13.8911 4.7522 14.1672 4.89136L16.3398 5.99561V2.26709Z" fill="black"/>
</g>
<defs>
<clipPath id="clip0_759_23717">
<rect width="32" height="32" fill="white" transform="translate(0.464844 0.39209)"/>
</clipPath>
</defs>
</svg>
