<svg width="32" height="32" viewBox="0 0 32 32" fill="none" xmlns="http://www.w3.org/2000/svg">
<path d="M27 1C23.952 1 20.508 3.027 18.678 4.273C18.499 4.106 18.264 4 18 4H14C13.759 4 13.547 4.096 13.374 4.238C11.562 3.025 8.077 1 5 1C2.346 1 1 2.315 1 4.91V12C1 14.513 3.323 16.885 5.828 16.99C4.245 20.067 3 25.109 3 29C3 29.369 3.203 29.708 3.528 29.882C3.852 30.055 4.248 30.036 4.554 29.832L6.872 28.287L9.292 30.707C9.484 30.898 9.74 31 10 31C10.129 31 10.259 30.975 10.383 30.924C10.757 30.769 11 30.404 11 30C11 22.707 13.741 16.709 14.604 15H17.396C18.261 16.706 21 22.687 21 30C21 30.404 21.243 30.769 21.617 30.924C21.741 30.975 21.871 31 22 31C22.26 31 22.516 30.898 22.707 30.707L25.127 28.287L27.445 29.832C27.752 30.037 28.147 30.055 28.471 29.882C28.797 29.708 29 29.369 29 29C29 25.109 27.755 20.067 26.172 16.99C28.677 16.885 31 14.513 31 12V5C31 1.694 28.825 1 27 1ZM29 5V8.367C28.367 8.094 27.661 8 27 8C24.123 8 20.894 9.807 19 11.058V9.618L22.447 7.894C22.941 7.647 23.141 7.046 22.894 6.552C22.646 6.058 22.047 5.859 21.552 6.105L19 7.382V6.497C20.179 5.624 23.976 3 27 3C28.853 3 29 3.867 29 5ZM5 3C7.959 3 11.678 5.467 12.941 6.372C12.957 6.41 12.979 6.445 13 6.482V7.382L10.447 6.106C9.953 5.859 9.354 6.059 9.105 6.553C8.858 7.047 9.059 7.647 9.553 7.895L13 9.618V11.057C11.106 9.807 7.877 8 5 8C4.339 8 3.633 8.094 3 8.367V4.91C3 3.971 3 3 5 3ZM3 12C3 10.867 3.147 10 5 10C7.524 10 10.606 11.843 12.237 12.956C10.842 13.785 8.389 15 6 15C4.57 15 3 13.43 3 12ZM9.084 27.67L7.707 26.293C7.369 25.955 6.84 25.903 6.445 26.168L5.097 27.066C5.488 22.988 6.984 18.523 8.321 16.725C9.812 16.389 11.188 15.794 12.272 15.227C11.206 17.573 9.483 22.111 9.084 27.67ZM15 6H17V13H15V6ZM25.555 26.168C25.159 25.903 24.63 25.955 24.293 26.293L22.916 27.67C22.517 22.111 20.794 17.573 19.728 15.228C20.812 15.795 22.188 16.389 23.679 16.726C25.016 18.524 26.512 22.989 26.903 27.067L25.555 26.168ZM26 15C23.61 15 21.157 13.785 19.762 12.955C21.39 11.843 24.469 10 27 10C28.853 10 29 10.867 29 12C29 13.43 27.43 15 26 15Z" fill="black"/>
</svg>
