<svg width="24" height="24" viewBox="0 0 24 24" fill="none" xmlns="http://www.w3.org/2000/svg">
<path d="M23.8496 6.29367L17.7063 0.150369C17.5058 -0.0501232 17.182 -0.0501232 16.9815 0.150369L0.150369 16.9815C-0.0501232 17.182 -0.0501232 17.5058 0.150369 17.7063L6.29367 23.8496C6.49416 24.0501 6.81804 24.0501 7.01853 23.8496L23.8496 7.01853C24.0501 6.81804 24.0501 6.49416 23.8496 6.29367ZM6.65353 22.7598L1.24023 17.3465L5.30663 13.2801L7.15219 15.1256C7.34754 15.3313 7.67656 15.3364 7.87705 15.1359C8.08268 14.9406 8.08782 14.6115 7.88733 14.4111C7.88219 14.4059 7.88219 14.4059 7.87705 14.4008L6.03149 12.5604L7.37325 11.2186L10.2521 14.0975C10.4526 14.298 10.7816 14.298 10.977 14.0923C11.1775 13.8918 11.1775 13.568 10.977 13.3675L8.0981 10.4886L9.43986 9.14684L11.2854 10.9873C11.4859 11.1877 11.8098 11.1877 12.0103 10.9873C12.2108 10.7868 12.2108 10.4629 12.0103 10.2624L10.1647 8.42198L11.5065 7.08022L14.3853 9.95909C14.5858 10.1596 14.9097 10.1596 15.1102 9.95909C15.3107 9.75859 15.3107 9.43472 15.1102 9.23423L12.2313 6.35536L13.5731 5.0136L15.4187 6.85916C15.6191 7.05966 15.943 7.0648 16.1435 6.8643C16.344 6.66381 16.3491 6.33994 16.1487 6.13945C16.1487 6.13945 16.1487 6.13944 16.1435 6.1343L14.3134 4.27332L15.6551 2.93156L18.534 5.81043C18.7345 6.01092 19.0584 6.01092 19.2589 5.81043C19.4594 5.60994 19.4594 5.28607 19.2589 5.08557L16.38 2.2067L17.3465 1.24023L22.7598 6.65353L6.65353 22.7598Z" fill="black"/>
<path d="M7.06003 17.033C6.41229 16.3904 5.3687 16.3904 4.72609 17.033C4.08349 17.6807 4.08349 18.7243 4.72609 19.3669C5.3687 20.0095 6.41743 20.0095 7.06003 19.3669C7.70264 18.7243 7.70264 17.6807 7.06003 17.033ZM6.38658 18.6266C6.3763 18.6369 6.36088 18.6523 6.33004 18.6472C6.08842 18.8888 5.69257 18.8888 5.44581 18.6472C5.20419 18.4056 5.20419 18.0097 5.44581 17.763C5.68743 17.5214 6.08327 17.5214 6.33004 17.763C6.58194 17.9943 6.61792 18.3747 6.38658 18.6266Z" fill="black"/>
</svg>
