<svg width="80" height="80" fill="none" xmlns="http://www.w3.org/2000/svg"><path d="M41.373 35.32c-.084-1.406-.255-2.603-.634-3.688-.385-1.104-.99-2.107-1.945-3.121-.397.163-.81.27-1.24.301a.734.734 0 01-.79-.67.73.73 0 01.681-.777c.541-.04 1.073-.287 1.59-.644.124-.085.246-.176.367-.272l-.39.011c-1.63.051-3.237.1-4.705-.748-.864-.5-1.528-.527-2.113-.24-.422.205-.836.565-1.264 1.03a3.1 3.1 0 01.721.427c.433.343.78.81.938 1.353.05.173.081.354.089.542.224.11.625.138 1.034.165.287.02.576.04.864.089.065.01.137.029.215.053.926.29 1.408 1.336 1.59 2.581.137.934.117 2.009-.001 2.894a1.735 1.735 0 00.814-.994.74.74 0 01.926-.469c.388.122.6.53.476.91-.126.387-.314.731-.553 1.028l-.372 2.04a.714.714 0 01-.1.257 4.55 4.55 0 001.308-.345c.849-.361 1.66-.966 2.496-1.714h-.002zm17.59 17.782a.457.457 0 01-.461-.454c0-.25.206-.454.461-.454h1.2v-1.588c0-.25.207-.454.462-.454.256 0 .462.203.462.454v1.588h1.2c.256 0 .462.203.462.454 0 .25-.206.454-.462.454h-1.2v3.558c0 .25-.206.454-.462.454a.458.458 0 01-.461-.454v-3.558h-1.2zM9.735 44.697a.466.466 0 01-.644-.094.448.448 0 01.095-.633l.965-.704-.965-1.276a.448.448 0 01.096-.634.466.466 0 01.645.095l.964 1.275.965-.704a.466.466 0 01.644.094c.152.2.109.484-.096.633l-.964.704 1.377 1.823a.74.74 0 011.152-.237c.112.096.207.27.359.55.418.77 1.447 2.665 2.238 3.53.18.197.449.467.776.795.926.932 2.295 2.307 3.255 3.579.635.84 1.09 1.654 1.176 2.345l.056.006c.47.065.914.307 1.219.71a1.77 1.77 0 01.29 1.56c.3.082.618.228.948.434.64.402 1.372 1.046 2.083 1.853a2.258 2.258 0 011.667.247c.089.05.178.065.267.055.126-.013.272-.072.428-.16 1.094-.623 1.36-1.247 1.417-1.803a.736.736 0 01-.8-.585c-.383-1.965-.569-3.526-.233-4.846.358-1.407 1.264-2.47 3.061-3.317.2-.094.916-.603 1.285-1.506.19-.466.275-1.036.12-1.705-.668-2.35-.555-4.97.183-7.943.142-.574.265-.974.528-1.267l.002.001c.368-.41.81-.515 1.496-.34.173.045.343.08.508.107a.71.71 0 01-.076-.47l.128-.7c-.291.077-.599.118-.92.12a.748.748 0 01-.226-.034.722.722 0 01-.48-.909c.053-.163.103-.375.146-.623a9.46 9.46 0 00.051-2.804c-.107-.733-.292-1.318-.574-1.407l-.018-.002c-.22-.037-.469-.054-.714-.07-.742-.05-1.466-.1-2.006-.582-.31.016-.604.06-.874.172-.355.146-.713.426-1.088.946a.747.747 0 01-1.15.124c-.467-.464-.64-1.369-.512-2.289.108-.778.425-1.611.95-2.203.866-1.097 1.668-1.976 2.602-2.433 1.04-.509 2.153-.497 3.517.292 1.102.637 2.497.594 3.914.55.758-.024 1.522-.048 2.291.021a.74.74 0 01.469.199.717.717 0 01.026 1.025c-.524.54-1.076 1.068-1.663 1.503.986 1.1 1.627 2.2 2.048 3.405.037.106.072.213.106.32.034-.107.07-.214.106-.32.42-1.206 1.062-2.306 2.049-3.405-.588-.435-1.14-.963-1.664-1.503a.716.716 0 01.027-1.025.74.74 0 01.468-.198c.77-.07 1.533-.046 2.291-.023 1.417.045 2.812.088 3.914-.55 1.364-.787 2.478-.799 3.518-.291.934.457 1.736 1.336 2.602 2.433.524.592.842 1.424.949 2.203.128.92-.044 1.825-.51 2.289a.747.747 0 01-1.151-.124c-.375-.52-.733-.799-1.088-.946-.271-.112-.566-.155-.874-.172-.54.482-1.265.531-2.006.581-.246.017-.494.034-.714.071-.017.003-.016.002-.019.002-.28.089-.466.674-.574 1.407a9.457 9.457 0 00.051 2.804c.044.248.093.46.146.623a.721.721 0 01-.48.909.748.748 0 01-.225.034 3.692 3.692 0 01-.92-.12l.128.7c.03.167 0 .331-.076.47.165-.028.332-.063.505-.107.656-.168 1.089-.08 1.447.288a.756.756 0 01.05.05c.263.295.386.695.528 1.268.815 3.283.845 6.138-.102 8.672-.126.652.105 1.163.424 1.541.46.544 1.096.86 1.27.941 1.798.847 2.704 1.91 3.062 3.318.337 1.32.15 2.881-.233 4.845a.737.737 0 01-.8.585c.058.556.323 1.18 1.417 1.802.156.09.3.148.428.161a.433.433 0 00.267-.055c.149-.084.329-.138.532-.167a6.654 6.654 0 01-.189-1.563c0-.817.15-1.593.412-2.278.28-.728.692-1.353 1.193-1.818a.747.747 0 011.043.031c.28.292.264.75-.032 1.025-.34.315-.623.752-.823 1.274a4.668 4.668 0 00-.254.968l4.507-.036a4.662 4.662 0 00-.23-.883c-.189-.512-.459-.946-.783-1.267a.716.716 0 01.003-1.024.747.747 0 011.043.003c.474.468.86 1.084 1.124 1.794.248.668.388 1.421.388 2.212 0 .83-.153 1.616-.423 2.305a.731.731 0 01.683.686c.091 1.665-1.802 2.29-3.41 2.82-.532.176-1.025.338-1.31.5-.684.39-1.523.697-2.43.613-.925-.085-1.871-.56-2.711-1.731-.247-.345-.416-.553-.66-.71-.293-.187-.74-.361-1.535-.632a4.3 4.3 0 01-2.352-1.898 4.52 4.52 0 01-.597-1.879.747.747 0 01-.81-.233.72.72 0 01-.156-.352c-.196-1.336-.485-2.352-.864-3.073a4.2 4.2 0 01-.787 1.302l.067.407c.241 1.49.375 2.313 2.11 3.579a.719.719 0 01-.132 1.24c-.793.355-1.562.516-2.288.485.525.61 1.052.995 2.363 1.362 1.381.387 2.285 1.09 2.807 2.018.561 1 .646 2.224.386 3.57-.04.213-.116.4-.223.545a.865.865 0 01-1.179.232 1.305 1.305 0 01-.412-.425c-.09-.14-.12-.19-.155-.246-.399-.65-1.078-1.756-2.035-1.786-.176 1.06-.726 2.2-1.683 3.75a.744.744 0 01-1.01.243.717.717 0 01-.249-.993c1.158-1.874 1.632-3.005 1.507-4.098-.123-1.081-.836-2.284-2.055-4.212.63 3-.13 5.61-1.45 10.155l-.293 1.007a.739.739 0 01-.854.516.738.738 0 01-.855-.516l-.293-1.007c-1.32-4.544-2.079-7.154-1.45-10.155-1.219 1.928-1.931 3.13-2.055 4.212-.125 1.093.35 2.223 1.507 4.098a.717.717 0 01-.248.993.744.744 0 01-1.01-.244c-.958-1.549-1.508-2.688-1.684-3.749-.956.03-1.636 1.136-2.035 1.786-.034.055-.065.106-.155.246a1.312 1.312 0 01-.412.425.865.865 0 01-1.179-.232 1.341 1.341 0 01-.223-.544c-.26-1.347-.175-2.571.386-3.57.522-.93 1.425-1.632 2.807-2.019 1.311-.367 1.84-.753 2.364-1.362-.727.03-1.497-.13-2.288-.485a.719.719 0 01-.132-1.24c1.741-1.273 1.888-2.17 2.136-3.69.033-.203.067-.413.087-.528a5.213 5.213 0 01-.416-.709 4.819 4.819 0 01-.212-.51c-.487.68-.851 1.735-1.07 3.222a.712.712 0 01-.156.352.747.747 0 01-.81.233 4.528 4.528 0 01-.598 1.88 4.3 4.3 0 01-2.352 1.897c-.794.27-1.24.445-1.534.633-.245.156-.413.364-.66.709-.174.24-.43.502-.744.758.03.125.054.246.07.362a2.29 2.29 0 011.89.965 2.21 2.21 0 01.38 1.632 2.287 2.287 0 01-.918 1.492h-.001a2.36 2.36 0 01-1.714.433 2.29 2.29 0 01-1.565-.944 2.21 2.21 0 01-.308-1.943 5.182 5.182 0 01-.898-.538.693.693 0 01-.063-.051c-.672.08-1.334 0-1.907-.327-.689-.393-1.224-.817-1.589-1.4-.37-.592-.542-1.306-.49-2.257a.717.717 0 01.274-.527 7.315 7.315 0 01-.475-1.13c-.137-.435-.198-.834-.179-1.184a1.834 1.834 0 01-1.445-.786c-.27-.39-.362-.85-.293-1.289l.01-.055c-.648-.281-1.31-.945-1.946-1.786-.962-1.274-1.907-2.958-2.545-4.099a36.862 36.862 0 00-.547-.958c-.607-.984-2.162-2.506-2.793-3.124-.23-.225-.373-.364-.434-.5a.72.72 0 01.37-.958.744.744 0 01.25-.063l-1.393-1.844-.965.705-.007.001zm9.678 9.658c-.645-.853-1.513-1.783-2.285-2.575.55.956 1.205 2.042 1.849 2.895.64.846 1.191 1.47 1.358 1.349.167-.122-.283-.822-.922-1.669zm2.214 2.925a.395.395 0 00-.441.32.344.344 0 00.065.265.357.357 0 00.237.136.395.395 0 00.441-.32.346.346 0 00-.302-.4zm3.399 3.818c-.542-.586-1.073-1.043-1.531-1.33-.343-.214-.558-.337-.576-.324-.056.041-.005.32.136.768.159.508.462 1.122.903 1.795.35-.352.735-.66 1.068-.91zm4.127 5.593a.873.873 0 00-.635.16.842.842 0 00-.34.55.79.79 0 00.176.635.82.82 0 00.517.282.876.876 0 00.67-.186.842.842 0 00.305-.523.793.793 0 00-.15-.604.814.814 0 00-.542-.313l-.001-.001zm33.754-7.704l-4.632.038c.006.294.033.571.08.828.05.274.122.536.213.782a7.682 7.682 0 011.625.64c.449.24.865.517 1.194.81.036.031.07.064.105.096.347-.232.655-.591.895-1.041h.001c.317-.594.509-1.338.52-2.153zM26.73 46.25a19.583 19.583 0 001.154-.857.745.745 0 011.036.11.716.716 0 01-.113 1.02c-.385.304-.756.585-1.12.837-.365.481-.633 1.093-.865 1.623-.058.132-.113.26-.17.383.266.023.528.027.786.013.875-.047 1.681-.31 2.32-.778.629-.46 1.101-1.126 1.326-1.988.123-.468.174-.998.141-1.593a.73.73 0 01.698-.76.733.733 0 01.775.686 6.551 6.551 0 01-.187 2.023c-.315 1.209-.982 2.145-1.868 2.795-.875.641-1.96.998-3.13 1.061a7.455 7.455 0 01-2.176-.215.743.743 0 01-.4-.215.717.717 0 01.032-1.024c.112-.104.256-.414.423-.793-.276.094-.556.17-.843.225-1.481.286-3.072.023-5.125-.949a.718.718 0 01-.096-1.28c.203-.125.479-.44.805-.815l.203-.232c-.076 0-.148-.003-.219-.008-.79-.066-1.58-.33-2.314-.705a9.464 9.464 0 01-2.158-1.534.721.721 0 01.306-1.262c.278-.064.69-.307 1.178-.594l.243-.142a5.066 5.066 0 01-.06-.02c-.745-.274-1.435-.737-2.036-1.288a9.335 9.335 0 01-1.687-2.092.713.713 0 01-.098-.389.731.731 0 01.762-.698c.295.012.784-.095 1.363-.222.725-.158 1.57-.342 2.479-.404l-.255-.171a.89.89 0 01-.061-.046c-.767-.637-1.235-1.543-1.485-2.526-.286-1.122-.287-2.362-.125-3.4a.714.714 0 01.182-.419.748.748 0 011.042-.065c.439.38 1.735 1.03 3.085 1.691a5.693 5.693 0 01-.315-1.308c-.146-1.168.014-2.42.312-3.438h.003a.715.715 0 01.22-.343.745.745 0 011.04.062c1 1.108 2.314 2.293 3.628 3.479 2.271 2.05 4.543 4.098 5.464 5.997.295.61.401 1.11.367 1.615-.032.485-.192.924-.432 1.45-.493 1.08-.735 1.693-.617 2.013.116.315.681.603 1.814 1.06a.72.72 0 01.4.946.741.741 0 01-.96.394c-1.542-.622-2.343-1.1-2.64-1.906-.295-.802.005-1.668.658-3.097.173-.38.287-.68.306-.951.017-.253-.05-.53-.229-.9-.8-1.649-2.964-3.602-5.128-5.555-.943-.85-1.886-1.701-2.736-2.546a6.611 6.611 0 00-.001 1.544c.089.713.318 1.373.748 1.848l3.161 2.732a.718.718 0 01.067 1.025.748.748 0 01-1.043.065l-1.236-1.068c-.559-.38-1.78-.976-3.031-1.588-.985-.481-1.989-.972-2.761-1.404-.006.57.05 1.161.19 1.715.179.699.49 1.328.98 1.748l2.85 1.912c.175.08.35.17.524.27.166.094.28.241.334.408a.715.715 0 01-.044.747.745.745 0 01-1.024.19l-.507-.34c-1.702-.72-3.548-.318-4.904-.022-.148.032-.29.064-.43.092.235.293.496.576.777.834.473.434 1 .792 1.545.993.6.22 1.826.15 2.985.036.088-.012.177-.022.267-.032l.08-.003.677-.074c.397-.044.758-.084 1.019-.106a.735.735 0 01.797.664.73.73 0 01-.676.783c-.302.025-.624.06-.98.1-.323.037-.672.075-1.031.11-1.21.184-2.248.795-3.078 1.283-.142.084-.279.165-.412.24.314.228.652.44 1.005.62.572.291 1.176.497 1.76.545.838.07 2.562-.616 3.84-1.125.323-.128.617-.245.954-.368a.74.74 0 01.947.425.72.72 0 01-.433.931c-.192.07-.536.207-.914.358-.275.11-.569.226-.872.343a.673.673 0 01-.096.05c-1.064.471-1.817 1.335-2.411 2.016l-.227.26c1.274.483 2.303.598 3.24.418.824-.16 1.615-.552 2.463-1.13h-.002zm12.09 11.275c-.222 1.324-.455 2.272-1.574 3.363.22.022.433.019.637-.01.51-.07.98-.302 1.393-.697.578-.9.626-1.18.366-2.87-.169.067-.35.128-.543.186a.75.75 0 01-.28.028zm-2.292 7.337c-.233.083-.491.164-.778.245-.97.272-1.586.73-1.918 1.32-.205.366-.313.794-.339 1.27.593-.783 1.436-1.554 2.66-1.541.067-.425.193-.848.375-1.294zm5.213-4.319c-1.402 3.487-.846 5.908.503 10.583 1.35-4.676 1.906-7.096.504-10.583l-.027.023a.748.748 0 01-.963-.008l-.017-.015zm-3.58-6.273c.041.254.137.533.27.807.167.346.384.667.618.908.403-.151.71-.324.96-.533.229-.191.424-.425.613-.71l-.314-.184c-.819-.321-1.542-.432-2.147-.29v.002zm3.759 1.168a4.877 4.877 0 01-.857 1.03v.033c.004.586.095 1.054.331 1.492.182.337.458.674.85 1.046.394-.372.67-.708.852-1.046.235-.437.326-.906.33-1.492v-.034a4.9 4.9 0 01-.884-1.072l-.007.003a.747.747 0 01-.615.04zm-10.288 2.75c.024 1.052.045 2.353-2.162 3.609-.325.184-.661.31-1.011.349a1.874 1.874 0 01-1.15-.238.815.815 0 00-.557-.106c-.218.039-.445.16-.671.327-.468.344-1.105.836-1.475 1.371-.242.348-.355.727-.132 1.083.062.038.126.076.193.114.439.25 1.077.184 1.713-.03.925-.315 1.779-.915 2.117-1.389.353-.492.608-.797 1.065-1.09.409-.262.941-.474 1.858-.785a2.84 2.84 0 001.555-1.251c.321-.547.471-1.227.4-1.988a2.548 2.548 0 00-.696-.123 3.45 3.45 0 00-1.047.146zm3.053-8.85c-.58 1.135-1.575 1.818-1.874 1.958-1.348.635-2.017 1.39-2.265 2.364-.223.877-.142 1.975.087 3.329.738-.275 1.418-.416 2.09-.395.63.021 1.23.18 1.836.497.415-1.816 1.115-3.01 2.048-3.68a3.446 3.446 0 011.217-.558c-1.352-1.09-2.389-2.256-3.139-3.516zm6.275 3.917a25.453 25.453 0 001.223.688 25.922 25.922 0 001.62-.93c2.527-1.58 4.193-3.317 5.122-5.28.094-.199.18-.4.26-.603.053-.228.134-.465.243-.71.63-2.111.54-4.5-.14-7.241-.088-.356-.152-.59-.205-.65l-.014-.016c-.013-.005.052.105-.006.12-1.527.392-2.829.245-4.041-.27-.978-.416-1.875-1.067-2.781-1.864-.906.797-1.803 1.448-2.781 1.864-1.213.516-2.514.662-4.042.27-.066-.016.033-.165-.02-.107v.004c-.053.06-.116.293-.204.65-.827 3.329-.812 6.142.307 8.563.952 2.06 2.717 3.87 5.458 5.514l.001-.002zm5.957-15.875a.723.723 0 01-.1-.257l-.373-2.04a3.257 3.257 0 01-.553-1.027.721.721 0 01.477-.91.739.739 0 01.926.468 1.73 1.73 0 00.814.994c-.119-.885-.139-1.96-.002-2.893.182-1.244.664-2.292 1.59-2.582.08-.025.151-.042.215-.053.289-.048.578-.068.865-.088.409-.027.81-.055 1.034-.166a2.24 2.24 0 01.089-.542c.157-.541.504-1.008.937-1.353.219-.174.464-.318.722-.426-.429-.465-.843-.824-1.264-1.031-.585-.287-1.25-.26-2.114.24-1.468.85-3.074.8-4.705.749l-.39-.012c.122.096.244.188.367.273.516.356 1.049.603 1.59.643a.73.73 0 01.682.778c-.03.4-.384.7-.791.67a4.041 4.041 0 01-1.24-.302c-.954 1.015-1.559 2.018-1.944 3.121-.38 1.087-.55 2.285-.634 3.69.836.747 1.645 1.35 2.493 1.711a4.55 4.55 0 001.312.346h-.003zm2.68 12.173c-.702 1.1-1.625 2.128-2.791 3.095.458.123.88.346 1.27.676.85.721 1.47 1.956 1.858 3.764a4.166 4.166 0 011.83-.493c.673-.022 1.353.12 2.09.394.23-1.354.31-2.451.087-3.328-.248-.974-.916-1.73-2.265-2.364-.239-.113-1.11-.545-1.767-1.322a4.033 4.033 0 01-.313-.422zm-5.117 4.752c-.21.13-.426.26-.648.387.2.308.405.559.646.76.27.226.606.41 1.058.569.258-.169.497-.446.685-.762.232-.394.37-.82.346-1.154-.562-.2-1.259-.123-2.087.2zm-13.41-25.85a1.418 1.418 0 00-.348-.394 1.485 1.485 0 00-.714-.321.76.76 0 00-.102-.007c-.244.354-.399.82-.46 1.271l-.014.106c.24-.177.483-.311.73-.413.307-.127.608-.2.908-.242zm26.645 17.767c.015.009.03.019.043.03.85.576 1.639.97 2.463 1.128.938.181 1.966.066 3.24-.418l-.227-.26c-.594-.68-1.347-1.544-2.411-2.015a.752.752 0 01-.096-.05 69.976 69.976 0 01-.871-.344 43.43 43.43 0 00-.915-.357.72.72 0 01-.433-.931.74.74 0 01.948-.426c.337.123.63.24.954.369 1.278.508 3.002 1.195 3.84 1.125.584-.049 1.188-.254 1.76-.546a7.58 7.58 0 001.004-.62 48 48 0 01-.411-.239c-.83-.489-1.868-1.1-3.079-1.284-.358-.035-.706-.074-1.031-.11a35.91 35.91 0 00-.98-.1.73.73 0 01-.675-.783c.033-.4.39-.697.796-.664.26.021.622.062 1.02.106.215.025.442.05.675.074.028 0 .055 0 .082.004.09.01.18.02.267.032 1.157.113 2.384.183 2.984-.037.546-.2 1.072-.558 1.545-.992.282-.259.542-.542.777-.834l-.43-.092c-1.355-.296-3.201-.698-4.904.022l-.506.34a.745.745 0 01-1.025-.19.715.715 0 01-.043-.748.725.725 0 01.333-.408c.175-.1.35-.19.525-.27l2.85-1.912c.49-.42.8-1.049.978-1.748.141-.553.198-1.144.192-1.715-.773.433-1.777.923-2.761 1.404-1.253.612-2.474 1.208-3.032 1.589l-1.236 1.068a.748.748 0 01-1.042-.065.718.718 0 01.066-1.025l3.161-2.733c.43-.476.66-1.135.749-1.847a6.606 6.606 0 00-.002-1.544c-.85.845-1.792 1.695-2.735 2.546-2.165 1.953-4.33 3.905-5.13 5.555-.179.37-.244.647-.227.9.018.271.132.57.305.95.653 1.43.953 2.295.658 3.097-.297.807-1.098 1.283-2.64 1.907a.74.74 0 01-.96-.395.72.72 0 01.4-.945c1.132-.457 1.698-.745 1.814-1.06.118-.32-.124-.933-.617-2.013-.24-.526-.4-.965-.432-1.45-.034-.506.071-1.006.367-1.615.921-1.9 3.193-3.95 5.464-5.998 1.314-1.185 2.628-2.37 3.629-3.478a.745.745 0 011.04-.063c.11.096.183.216.22.344h.002c.298 1.017.459 2.27.313 3.438a5.696 5.696 0 01-.316 1.308c1.351-.662 2.646-1.312 3.085-1.692a.748.748 0 011.043.066.72.72 0 01.181.419c.161 1.038.16 2.277-.124 3.4-.25.983-.719 1.888-1.485 2.525a.89.89 0 01-.062.046l-.255.171c.91.063 1.755.247 2.48.405.579.126 1.067.232 1.362.222a.732.732 0 01.763.698.708.708 0 01-.1.388c-.42.712-1 1.463-1.686 2.092-.601.552-1.29 1.015-2.036 1.288l-.06.02.243.142c.487.287.9.53 1.178.595a.726.726 0 01.549.874.724.724 0 01-.242.388 9.46 9.46 0 01-2.159 1.534c-.733.374-1.524.639-2.314.704-.07.006-.144.009-.219.009l.203.232c.326.374.602.69.805.814a.718.718 0 01-.096 1.28c-2.052.973-3.643 1.235-5.125.95a6.309 6.309 0 01-.843-.226c.167.38.312.69.423.793.297.274.31.733.032 1.025a.737.737 0 01-.4.215 7.432 7.432 0 01-2.176.215c-1.169-.063-2.255-.42-3.13-1.062-.887-.65-1.553-1.586-1.868-2.794a6.552 6.552 0 01-.186-2.024c.02-.4.367-.707.774-.686a.73.73 0 01.698.76 5.154 5.154 0 00.14 1.593c.226.863.698 1.528 1.326 1.988.64.47 1.445.732 2.321.779.258.013.52.01.786-.013-.056-.123-.112-.251-.17-.383-.232-.53-.5-1.142-.865-1.623a22.212 22.212 0 01-1.12-.838.716.716 0 01-.112-1.019.746.746 0 011.036-.11c.385.305.753.582 1.11.827h-.002zm-12.502 13.96c.411.394.881.627 1.392.697.202.028.413.031.63.01-1.13-1.092-1.335-2.006-1.557-3.361a.756.756 0 01-.345-.048 7.287 7.287 0 01-.486-.168c-.26 1.69-.213 1.97.366 2.87zm3.123 5.974c1.223-.013 2.067.758 2.66 1.542-.026-.477-.135-.905-.34-1.27-.331-.591-.946-1.049-1.917-1.321-.288-.08-.546-.162-.778-.245.182.446.307.87.375 1.294zm12.3-2.756a1.922 1.922 0 00-.237-.243 4.804 4.804 0 00-.91-.61c-.914-.488-1.967-.831-2.31-.639a1.888 1.888 0 01-1.148.237 2.6 2.6 0 01-1.012-.348c-2.206-1.256-2.187-2.557-2.162-3.61a3.451 3.451 0 00-1.046-.145 2.52 2.52 0 00-.697.122c-.071.76.08 1.441.4 1.988a2.844 2.844 0 001.556 1.252c.916.311 1.45.523 1.858.785.457.292.712.598 1.065 1.09.551.77 1.113 1.075 1.637 1.123.543.05 1.092-.16 1.557-.425.38-.216.89-.392 1.449-.576zM54.58 27.733c-.033 0-.067.003-.1.007-.24.03-.495.145-.715.32a1.433 1.433 0 00-.349.394c.3.042.602.115.91.242.246.102.489.237.728.414-.003-.035-.008-.07-.013-.107-.062-.45-.217-.916-.46-1.27zM39.363 8.496c0 .25.207.453.462.453h1.2v1.006a4.84 4.84 0 00-2.788 1.187c-.857.763-1.388 1.821-1.388 2.992 0 .402.331.727.74.727.408 0 .739-.325.739-.727 0-.747.342-1.426.896-1.92a3.336 3.336 0 011.801-.798v1.092c0 .25.207.454.462.454a.457.457 0 00.462-.454v-1.092a3.325 3.325 0 011.8.798c.555.494.897 1.173.897 1.92 0 .402.331.727.74.727.408 0 .739-.325.739-.727 0-1.17-.53-2.228-1.388-2.992a4.847 4.847 0 00-2.788-1.187V8.95h1.2a.458.458 0 00.462-.453.457.457 0 00-.462-.454h-1.2V6.454A.458.458 0 0041.487 6a.457.457 0 00-.462.454v1.588h-1.2a.458.458 0 00-.462.454z" fill="currentColor"/><path d="M43.659 14.803c-.587-.108-1.382-.176-2.245-.176-.863 0-1.657.068-2.244.176-.913.17-1.477.55-1.477 1.103 0 .553.564.935 1.477 1.103.587.11 1.381.177 2.244.177.863 0 1.658-.068 2.245-.177.912-.168 1.477-.55 1.477-1.103 0-.552-.565-.934-1.477-1.103zM30.514 14.551c0 .25.207.454.462.454h1.2v1.006a4.841 4.841 0 00-2.789 1.186C28.53 17.96 28 19.02 28 20.19c0 .401.331.727.74.727.408 0 .739-.326.739-.727 0-.747.342-1.427.896-1.92a3.335 3.335 0 011.801-.798v1.091c0 .251.207.454.462.454a.457.457 0 00.462-.454v-1.091a3.324 3.324 0 011.8.798c.555.493.897 1.173.897 1.92 0 .401.331.727.74.727.408 0 .739-.326.739-.727 0-1.17-.53-2.229-1.388-2.993a4.846 4.846 0 00-2.788-1.186v-1.006h1.2a.458.458 0 00.462-.454.458.458 0 00-.462-.454h-1.2V12.51a.457.457 0 00-.462-.454.457.457 0 00-.462.454v1.588h-1.2a.458.458 0 00-.462.454z" fill="currentColor"/><path d="M34.81 20.859c-.587-.109-1.382-.177-2.245-.177-.863 0-1.657.068-2.244.177-.913.169-1.477.55-1.477 1.103 0 .553.564.934 1.477 1.103.587.109 1.381.176 2.244.176.863 0 1.658-.067 2.245-.176.912-.169 1.477-.55 1.477-1.103 0-.553-.565-.934-1.477-1.103zM47.97 14.551c0 .25.206.454.461.454h1.2v1.006a4.841 4.841 0 00-2.788 1.186c-.857.763-1.388 1.822-1.388 2.993 0 .401.331.727.74.727.408 0 .739-.326.739-.727 0-.747.342-1.427.896-1.92a3.336 3.336 0 011.801-.798v1.091c0 .251.207.454.462.454a.457.457 0 00.462-.454v-1.091a3.325 3.325 0 011.8.798c.555.493.897 1.173.897 1.92 0 .401.331.727.74.727.408 0 .739-.326.739-.727 0-1.17-.53-2.229-1.388-2.993a4.846 4.846 0 00-2.788-1.186v-1.006h1.2a.458.458 0 00.462-.454.458.458 0 00-.462-.454h-1.2V12.51a.457.457 0 00-.462-.454.457.457 0 00-.462.454v1.588h-1.2a.458.458 0 00-.462.454z" fill="currentColor"/><path d="M52.265 20.859c-.587-.109-1.382-.176-2.245-.176-.863 0-1.657.067-2.244.176-.913.169-1.477.55-1.477 1.103 0 .553.564.934 1.477 1.103.587.109 1.381.176 2.244.176.863 0 1.658-.067 2.245-.176.912-.169 1.477-.55 1.477-1.103 0-.553-.565-.934-1.477-1.103z" fill="currentColor"/></svg>