<svg width="20" height="20" viewBox="0 0 20 20" fill="none" xmlns="http://www.w3.org/2000/svg">
<g clip-path="url(#clip0_101_1723)">
<path d="M8.80758 0C3.95121 0 0 3.95121 0 8.80758C0 13.6642 3.95121 17.6152 8.80758 17.6152C13.6642 17.6152 17.6152 13.6642 17.6152 8.80758C17.6152 3.95121 13.6642 0 8.80758 0ZM8.80758 15.9892C4.8477 15.9892 1.62602 12.7675 1.62602 8.80762C1.62602 4.84773 4.8477 1.62602 8.80758 1.62602C12.7675 1.62602 15.9891 4.8477 15.9891 8.80758C15.9891 12.7675 12.7675 15.9892 8.80758 15.9892Z" fill="black"/>
<path d="M19.7615 18.6121L15.1002 13.9509C14.7826 13.6332 14.2682 13.6332 13.9506 13.9509C13.633 14.2682 13.633 14.7831 13.9506 15.1005L18.6119 19.7617C18.7707 19.9205 18.9786 19.9999 19.1867 19.9999C19.3945 19.9999 19.6027 19.9205 19.7615 19.7617C20.0791 19.4444 20.0791 18.9295 19.7615 18.6121Z" fill="black"/>
</g>
<defs>
<clipPath id="clip0_101_1723">
<rect width="20" height="20" fill="white"/>
</clipPath>
</defs>
</svg>
