<svg width="16" height="16" viewBox="0 0 16 16" fill="none" xmlns="http://www.w3.org/2000/svg">
<path d="M14.356 6.242C15.0067 5.78 15.554 5.20333 16 4.53933V4.53867C15.4047 4.79933 14.7713 4.97267 14.11 5.05667C14.79 4.65067 15.3093 4.01267 15.5533 3.244C14.9193 3.622 14.2193 3.88867 13.4733 4.038C12.8713 3.39667 12.0133 3 11.0773 3C9.26133 3 7.79933 4.474 7.79933 6.28067C7.79933 6.54067 7.82133 6.79067 7.87533 7.02867C5.14867 6.89533 2.73533 5.58867 1.114 3.59733C0.831333 4.08867 0.664667 4.65067 0.664667 5.25533C0.664667 6.39133 1.24933 7.398 2.122 7.98133C1.59467 7.97133 1.078 7.818 0.64 7.57733V7.61333C0.64 9.20733 1.77667 10.5313 3.268 10.8367C3.00067 10.91 2.71 10.9447 2.408 10.9447C2.198 10.9447 1.986 10.9327 1.78733 10.8887C2.212 12.1873 3.41867 13.1427 4.852 13.174C3.736 14.0467 2.31867 14.5727 0.784667 14.5727C0.516 14.5727 0.258 14.5607 0 14.528C1.45333 15.4647 3.17467 16 5.032 16C10.8207 16 14.5933 11.1707 14.356 6.242Z" fill="#999999"/>
</svg>
