<svg width="32" height="32" viewBox="0 0 32 32" fill="none" xmlns="http://www.w3.org/2000/svg">
<g clip-path="url(#clip0_643_21979)">
<path d="M21.2703 12.0956C20.8538 11.6791 20.1784 11.6791 19.7618 12.0956L13.8308 18.0266L12.2388 16.4348C11.8223 16.0183 11.1469 16.0183 10.7303 16.4348C10.3138 16.8513 10.3138 17.5267 10.7303 17.9433L13.0766 20.2895C13.4932 20.706 14.1685 20.706 14.5851 20.2895L21.2703 13.604C21.6869 13.1875 21.6869 12.5121 21.2703 12.0956Z" fill="black"/>
<path d="M28.6372 7.34397L16.5445 0.149906C16.2085 -0.0499688 15.7899 -0.0499688 15.4538 0.149906L3.36116 7.34397C3.03797 7.53628 2.83984 7.88466 2.83984 8.26072V12.3674C2.83984 21.017 7.83735 28.9172 15.614 31.928C15.8616 32.0239 16.1365 32.024 16.3843 31.928C24.1421 28.9247 29.1584 21.0417 29.1584 12.3674V8.26072C29.1585 7.8846 28.9604 7.53628 28.6372 7.34397ZM27.0251 12.3674C27.0251 20.3265 22.4356 27.1056 15.9992 29.784C9.55897 27.104 4.97328 20.3218 4.97328 12.3674V8.86735L15.9992 2.30784L27.0252 8.86735V12.3674H27.0251Z" fill="black"/>
</g>
<defs>
<clipPath id="clip0_643_21979">
<rect width="32" height="32" fill="white"/>
</clipPath>
</defs>
</svg>
