<svg width="34" height="34" fill="none" xmlns="http://www.w3.org/2000/svg"><circle cx="17" cy="17" r="17" fill="currentColor"/><path fill-rule="evenodd" clip-rule="evenodd" d="M27.482 11.903c.163-.51 0-.88-.722-.88h-2.4c-.605 0-.885.325-1.048.671 0 0-1.235 2.961-2.96 4.881-.558.555-.815.74-1.118.74-.163 0-.373-.185-.373-.693v-4.743c0-.601-.186-.879-.699-.879h-3.774c-.374 0-.606.278-.606.555 0 .579.862.718.955 2.337v3.518c0 .763-.138.903-.443.903-.815 0-2.796-2.985-3.984-6.385-.23-.673-.465-.928-1.071-.928H6.815c-.699 0-.815.324-.815.67 0 .626.815 3.771 3.798 7.935 1.98 2.844 4.8 4.372 7.34 4.372 1.537 0 1.723-.347 1.723-.925V20.9c0-.693.14-.809.63-.809.349 0 .978.185 2.4 1.55C23.52 23.26 23.8 24 24.71 24h2.4c.698 0 1.025-.348.838-1.019-.21-.67-1.002-1.642-2.027-2.798-.56-.648-1.398-1.365-1.654-1.712-.35-.463-.256-.648 0-1.064-.023 0 2.913-4.118 3.215-5.507" fill="#fff"/></svg>