<svg xmlns="http://www.w3.org/2000/svg" xmlns:xlink="http://www.w3.org/1999/xlink" version="1.1" x="0px" y="0px" viewBox="0 0 100 100" style="enable-background:new 0 0 100 100;" xml:space="preserve"><path d="M59.1767578,10c-8.2333984,0-15.9736328,3.2060547-21.7949219,9.0283203  c-3.225708,3.2251587-5.6443481,7.0409546-7.1636353,11.2016602c-4.2211914,1.5419312-7.9869995,3.947998-11.1898804,7.1518555  C13.2060547,43.203125,10,50.9433594,10,59.1767578s3.2060547,15.9736328,9.0283203,21.7949219  C24.8496094,86.7939453,32.5898438,90,40.8232422,90s15.9736328-3.2060547,21.7949219-9.0283203  c3.2263794-3.2258911,5.6454468-7.0426025,7.1646729-11.2043457c4.2207031-1.5422363,7.9852295-3.9445801,11.1888428-7.1491699  C86.7939453,56.796875,90,49.0566406,90,40.8232422s-3.2060547-15.9736328-9.0283203-21.7949219  C75.1503906,13.2060547,67.4101562,10,59.1767578,10z M37.3818359,62.6181641  c5.7822266,5.7832031,13.6611328,9.0283203,21.8105469,9.0283203c0.0054321,0,0.0109253-0.0003662,0.0163574-0.0003662  c-4.0023804,5.8824463-10.749939,9.7542725-18.385498,9.7542725c-12.2539062,0-22.2236328-9.9697266-22.2236328-22.2236328  c0-7.3548584,3.7058105-14.2803955,9.7549438-18.3952637c0,0.0139771-0.0010376,0.027771-0.0010376,0.041748  C28.3535156,49.0566406,31.5595703,56.796875,37.3818359,62.6181641z M61.2041016,79.5576172  C55.7597656,85.0019531,48.5224609,88,40.8232422,88s-14.9365234-2.9980469-20.3808594-8.4423828S12,66.8759766,12,59.1767578  s2.9980469-14.9365234,8.4423828-20.3808594c2.6203003-2.6211548,5.6425781-4.6704102,8.9995117-6.1082764  c-0.4994507,1.836853-0.8292847,3.7275391-0.9818726,5.6553345c-7.3167114,4.3517456-11.8604126,12.3299561-11.8604126,20.8338013  c0,13.3574219,10.8662109,24.2236328,24.2236328,24.2236328S65.046875,72.5341797,65.046875,59.1767578  S54.1806641,34.953125,40.8232422,34.953125c-1.0535278,0-2.102356,0.0913696-3.1417847,0.2261963  c0.4424438-1.6835938,1.0787354-3.2889404,1.8820801-4.7924805c8.0458374-0.3486328,15.9344482,2.7020264,21.640564,8.4090576  c5.4443359,5.4443359,8.4423828,12.6816406,8.4423828,20.3808594S66.6484375,74.1132812,61.2041016,79.5576172z   M37.2436523,37.2537231c1.1762695-0.1911621,2.3765869-0.3005981,3.5795898-0.3005981  c12.2539062,0,22.2236328,9.9697266,22.2236328,22.2236328c0,1.2178345-0.102417,2.4116821-0.2918091,3.5768433  c-1.1751099,0.1900635-2.3763428,0.2932739-3.5783081,0.2932739c-12.2539062,0-22.2236328-9.9697266-22.2236328-22.2236328  C36.953125,39.6079712,37.0550537,38.4165649,37.2436523,37.2537231z M62.6181641,37.3818359  c-5.7903442-5.7921753-13.6588135-9.0358276-21.8268433-9.0280151c4.0023804-5.8823853,10.749939-9.7542114,18.385437-9.7542114  c12.2539062,0,22.2236328,9.9697266,22.2236328,22.2236328c0,7.3757324-3.701416,14.2762451-9.7548828,18.3918457  c0-0.0128174,0.0009766-0.0255127,0.0009766-0.0383301C71.6464844,50.9433594,68.4404297,43.203125,62.6181641,37.3818359z   M79.5576172,61.2041016c-2.6206055,2.62146-5.6428223,4.668335-8.9989014,6.1061401  c0.4998779-1.8389893,0.8297119-3.7320557,0.9819336-5.6621704c7.3209229-4.3574219,11.8597412-12.2991333,11.8597412-20.8248291  c0-13.3574219-10.8662109-24.2236328-24.2236328-24.2236328S34.953125,27.4658203,34.953125,40.8232422  S45.8193359,65.046875,59.1767578,65.046875c1.0531006,0,2.102417-0.0892944,3.1412354-0.2241821  c-0.442688,1.6838379-1.0791626,3.2893677-1.8828735,4.7930908c-8.0533447,0.3371582-15.9381714-2.7106323-21.6392212-8.4116821  c-5.4443359-5.4443359-8.4423828-12.6816406-8.4423828-20.3808594s2.9980469-14.9365234,8.4423828-20.3808594  S51.4775391,12,59.1767578,12s14.9365234,2.9980469,20.3808594,8.4423828S88,33.1240234,88,40.8232422  S85.0019531,55.7597656,79.5576172,61.2041016z"></path></svg>