<svg width="24" height="24" viewBox="0 0 24 24" fill="none" xmlns="http://www.w3.org/2000/svg">
<g clip-path="url(#clip0_617_2011)">
<path d="M13.33 18.076C17.38 19.04 18.805 15.576 18.091 14.283C17.805 13.767 15.235 12.776 15.11 12.728C14.006 12.326 13.598 13.076 12.833 14.063C11.364 13.328 10.379 12.749 9.367 11.103C9.424 11.032 9.5 10.948 9.557 10.884C9.911 10.488 10.574 9.75 10.122 8.847C9.742 8.09 9.553 7.562 9.414 7.175C9.011 6.054 8.704 5.75 7.316 5.75C5.871 5.75 4.75 7.649 4.75 9.284C4.75 12.853 9.548 17.173 13.33 18.076ZM7.316 7.25C7.616 7.25 7.768 7.26 7.844 7.272C8.006 7.615 8.17 8.331 8.774 9.445C8.68 9.796 7.345 10.619 7.964 11.683C9.229 13.831 10.495 14.576 12.309 15.478C13.517 16.024 13.903 15.035 14.669 14.166C15.024 14.31 16.222 14.84 16.748 15.106C16.701 16.142 15.701 17.098 13.678 16.616C10.206 15.787 6.249 11.881 6.249 9.283C6.25 8.295 6.943 7.25 7.316 7.25Z" fill="black"/>
<path d="M0.0830696 23.0849C-0.0479304 23.5589 0.30707 24.0339 0.80607 24.0339C0.98607 24.0339 0.69207 24.0799 6.65407 22.5339C9.08107 23.7699 10.9261 23.7309 12.1041 23.8419C22.6591 23.8419 27.8291 10.9689 20.5651 3.47891C10.6081 -6.14509 -4.89893 5.81491 1.59007 17.6059L0.0830696 23.0849ZM19.3711 4.41291C19.5441 4.72891 24.5061 9.20391 21.7431 15.8909C20.0421 20.0109 16.1171 22.5499 11.7191 22.3119C8.14107 22.1129 7.21507 20.8349 6.55607 21.0099L1.87307 22.2299L3.11807 17.7059C3.17207 17.5119 3.14507 17.3049 3.04507 17.1309C-2.93793 6.80691 10.5911 -3.80809 19.3711 4.41291Z" fill="black"/>
</g>
<defs>
<clipPath id="clip0_617_2011">
<rect width="24" height="24" fill="white"/>
</clipPath>
</defs>
</svg>
