<svg width="24" height="24" viewBox="0 0 24 24" fill="none" xmlns="http://www.w3.org/2000/svg">
<path d="M11.9995 0.480103C5.63469 0.480103 0.479492 5.6353 0.479492 12.0001C0.479492 14.5345 1.28589 16.8673 2.66829 18.7681L1.08429 22.9441L5.66349 21.6193C7.47789 22.8289 9.66669 23.5201 11.9995 23.5201C18.3643 23.5201 23.5195 18.3649 23.5195 12.0001C23.5195 5.6353 18.3643 0.480103 11.9995 0.480103ZM18.1339 16.7809L16.8955 17.9905C15.5995 19.2865 12.1723 17.8753 9.14829 14.8225C6.12429 11.7985 4.77069 8.3713 5.98029 7.1041L7.21869 5.8657C7.67949 5.4049 8.45709 5.4049 8.94669 5.8657L10.7611 7.6801C11.3947 8.3137 11.1355 9.4081 10.3003 9.6673C9.72429 9.8689 9.32109 10.5025 9.52269 11.0785C9.83949 12.4321 11.5963 14.1025 12.8923 14.4193C13.4683 14.5633 14.1307 14.2177 14.3035 13.6417C14.5627 12.8065 15.6571 12.5473 16.2907 13.1809L18.1051 14.9953C18.5659 15.4849 18.5659 16.2625 18.1339 16.7809Z" fill="black"/>
</svg>
