<svg width="109" height="109" fill="none" xmlns="http://www.w3.org/2000/svg"><path d="M54.539.914C24.913.914.897 24.948.897 54.594c0 29.648 24.016 53.682 53.642 53.682 29.626 0 53.642-24.034 53.642-53.681S84.165.914 54.539.914z" stroke="#593226"/><path d="M54.539 12.589c-23.183 0-41.976 18.806-41.976 42.006S31.356 96.6 54.539 96.6c23.182 0 41.976-18.807 41.976-42.006 0-23.2-18.794-42.006-41.976-42.006z" stroke="#593226"/><path d="M54.537 25.043c-16.309 0-29.53 13.23-29.53 29.551 0 16.32 13.221 29.551 29.53 29.551s29.53-13.23 29.53-29.55c0-16.321-13.221-29.552-29.53-29.552z" stroke="#593226"/><path d="M54.538 38.661c-8.793 0-15.922 7.134-15.922 15.933 0 8.8 7.129 15.933 15.922 15.933 8.793 0 15.922-7.133 15.922-15.933s-7.13-15.933-15.922-15.933z" stroke="#593226"/></svg>