<svg width="152" height="86" fill="none" xmlns="http://www.w3.org/2000/svg"><path fill-rule="evenodd" clip-rule="evenodd" d="M0 .543c.746 1.597 4.566 8.753 5.171 9.865 3.615 6.645 16.557 29.954 18.857 33.962 1.087 1.895 4.378 7.74 7.313 12.987 6.483 11.59 10.062 16.726 14.017 20.112 6.524 5.586 14.34 7.838 22.627 8.531 0-.353-5.474-10.327-6.972-12.739-.694-1.117-4.245-7.49-7.918-14.049-3.672-6.56-8.225-14.67-10.118-18.022a2789.268 2789.268 0 01-7.42-13.252C26.437 11.525 22.508 7.27 10.809 2.928 6.592 1.364 3.598.745 0 .543zm146.142.412c-6.178 1.045-13.879 4.979-18.731 9.567-4.627 4.377-8.049 9.543-16.237 24.511-4.504 8.232-5.855 11.323-7.276 14.244-2.365-14.787-21.597-20.32-21.486-35.386.026-3.515.336-5.603 1.178-7.933.868-2.404 1.402-3.578 1.792-4.597-.857.347-1.754.918-3.013 1.963-5.325 4.42-11.025 14.461-12.53 22.074-.991 5.017-1.028 11.9-.083 15.792.388 1.603 1.465 4.823 2.39 7.156 1.84 4.63 2.104 10.779 1.255 15.606-.582-1.7-2.878-6.632-7.346-9.484.668 1.232 3.54 6.053 3.54 10.96 0 3.14-.17 5.823-1.171 9.614 1.965-1.072 4.292-2.482 6.004-4.118 8.347-7.974 6.109-20.98 4.19-31.149 11.21 6.751 17.272 20.235 13.698 32.958-1.442 5.136-4.168 10.014-6.446 13.023 3.691-.958 4.607-1.08 8.62-3.009 13.694-6.58 21.989-19.831 28.963-32.546 6.17-11.245 12.839-22.24 18.81-33.59C144.311 12.718 149.593 4.11 152 0c-1.873.216-2.09.316-5.858.954z" fill="#4F2417"/></svg>