<svg width="300" height="301" viewBox="0 0 300 301" fill="none" xmlns="http://www.w3.org/2000/svg">
<g clip-path="url(#clip0_1068_3699)">
<path d="M204.825 124.144C204.773 123.991 204.711 123.841 204.64 123.694C204.557 123.442 204.455 123.196 204.335 122.959C204.229 122.799 204.114 122.646 203.99 122.499C203.859 122.301 203.714 122.111 203.555 121.934C203.407 121.803 203.251 121.679 203.09 121.564C202.931 121.42 202.764 121.285 202.59 121.159L152.59 91.1595C151.006 90.2076 149.024 90.2076 147.44 91.1595L97.44 121.159C97.255 121.281 97.0794 121.416 96.915 121.564C96.7519 121.679 96.595 121.803 96.445 121.934C96.2894 122.111 96.1456 122.298 96.015 122.494C95.8881 122.642 95.7713 122.797 95.665 122.959C95.5475 123.19 95.4475 123.429 95.365 123.674C95.2938 123.829 95.23 123.988 95.175 124.149C95.0581 124.571 94.9994 125.007 95 125.444V175.444C95.0006 177.199 95.9206 178.826 97.425 179.729L147.425 209.729L147.48 209.754L147.535 209.794C147.797 209.93 148.072 210.043 148.355 210.129C148.47 210.169 148.58 210.234 148.7 210.269C149.551 210.502 150.449 210.502 151.3 210.269C151.42 210.234 151.53 210.169 151.645 210.129C151.928 210.043 152.202 209.93 152.465 209.794L152.52 209.754L152.575 209.729L202.575 179.729C204.079 178.826 204.999 177.199 205 175.444V125.444C205 125.006 204.941 124.568 204.825 124.144ZM150 101.274L165.28 110.444L125 134.614L109.72 125.444L150 101.274ZM145 196.609L105 172.609V134.274L145 158.274V196.609ZM150 149.614L134.72 140.444L175 116.274L190.28 125.444L150 149.614ZM195 172.614L155 196.614V158.274L195 134.274V172.614Z" fill="#F55308"/>
<path d="M154 2.4446C152.182 0.235231 148.918 -0.081643 146.709 1.73585C146.45 1.94835 146.212 2.18585 146 2.4446L131 22.4446L139 28.4445L145 20.4446V60.4445H155V20.4446L161 28.4445L169 22.4446L154 2.4446Z" fill="#F55308"/>
<path d="M161 272.444L155 280.444V240.444H145V280.444L139 272.444L131 278.444L146 298.444C147.657 300.653 150.791 301.101 153 299.444C153.379 299.16 153.716 298.823 154 298.444L169 278.444L161 272.444Z" fill="#F55308"/>
<path d="M155 70.4445H145V80.4444H155V70.4445Z" fill="#F55308"/>
<path d="M155 220.444H145V230.444H155V220.444Z" fill="#F55308"/>
<path d="M60.0002 145.444H20.0003L28.0003 139.444L22.0003 131.444L2.00037 146.444C-0.209002 148.101 -0.656501 151.235 1.00037 153.444C1.28475 153.823 1.62162 154.16 2.00037 154.444L22.0003 169.444L28.0003 161.444L20.0003 155.444H60.0002V145.444Z" fill="#F55308"/>
<path d="M299 147.444C298.715 147.066 298.379 146.729 298 146.444L278 131.444L272 139.444L280 145.444H240V155.444H280L272 161.444L278 169.444L298 154.444C300.209 152.787 300.657 149.654 299 147.444Z" fill="#F55308"/>
<path d="M80 145.444H70V155.444H80V145.444Z" fill="#F55308"/>
<path d="M230 145.444H220V155.444H230V145.444Z" fill="#F55308"/>
<path d="M89.8946 83.2695L61.6146 54.9895L71.5096 56.3995L72.9246 46.4995L48.1797 42.9446C45.4484 42.5389 42.9053 44.4245 42.4997 47.1564C42.4272 47.6433 42.4272 48.1383 42.4997 48.6245L46.0347 73.3695L55.9347 71.9545L54.5247 62.0595L82.8046 90.3394L89.8946 83.2695Z" fill="#F55308"/>
<path d="M257.49 252.264L253.955 227.519L244.045 228.944L245.455 238.839L217.175 210.559L210.105 217.629L238.385 245.909L228.5 244.489L227.085 254.389L251.83 257.924C252.065 257.958 252.303 257.975 252.54 257.974C255.302 257.975 257.54 255.736 257.541 252.975C257.542 252.737 257.524 252.5 257.49 252.264Z" fill="#F55308"/>
<path d="M96.9694 90.3431L89.8984 97.4141L96.9694 104.485L104.04 97.4141L96.9694 90.3431Z" fill="#F55308"/>
<path d="M203.036 196.403L195.965 203.474L203.036 210.545L210.107 203.474L203.036 196.403Z" fill="#F55308"/>
<path d="M61.5954 245.899L89.8754 217.619L82.8254 210.549L54.5455 238.829L55.9554 228.934L46.0555 227.519L42.5005 252.264C42.1086 254.997 44.0061 257.531 46.7398 257.923C46.9755 257.957 47.213 257.974 47.4505 257.974C47.688 257.975 47.9255 257.958 48.1605 257.924L72.9054 254.389L71.4904 244.489L61.5954 245.899Z" fill="#F55308"/>
<path d="M256.065 44.3795C254.957 43.2589 253.38 42.7333 251.82 42.9645L227.075 46.4995L228.49 56.3995L238.385 54.9895L210.105 83.2694L217.175 90.3394L245.455 62.0595L244.045 71.9445L253.945 73.3695L257.48 48.6245C257.704 47.0658 257.18 45.4933 256.065 44.3795Z" fill="#F55308"/>
<path d="M96.9733 196.408L89.9023 203.479L96.9733 210.55L104.044 203.479L96.9733 196.408Z" fill="#F55308"/>
<path d="M203.036 90.3255L195.965 97.3965L203.036 104.467L210.107 97.3965L203.036 90.3255Z" fill="#F55308"/>
</g>
<defs>
<clipPath id="clip0_1068_3699">
<rect width="300" height="300" fill="white" transform="translate(0 0.500244)"/>
</clipPath>
</defs>
</svg>
