<svg height="32" id="icon" width="32" xmlns="http://www.w3.org/2000/svg"><path d="M26 14h-2v2h2a3.003 3.003 0 013 3v4h2v-4a5.006 5.006 0 00-5-5zM24 4a3 3 0 11-3 3 3 3 0 013-3m0-2a5 5 0 105 5 5 5 0 00-5-5zm-1 28h-2v-2a3.003 3.003 0 00-3-3h-4a3.003 3.003 0 00-3 3v2H9v-2a5.006 5.006 0 015-5h4a5.006 5.006 0 015 5zm-7-17a3 3 0 11-3 3 3 3 0 013-3m0-2a5 5 0 105 5 5 5 0 00-5-5zm-8 3H6a5.006 5.006 0 00-5 5v4h2v-4a3.003 3.003 0 013-3h2zM8 4a3 3 0 11-3 3 3 3 0 013-3m0-2a5 5 0 105 5 5 5 0 00-5-5z"/><path data-name="&lt;Transparent Rectangle&gt;" id="_Transparent_Rectangle_" fill="none" d="M0 0h32v32H0z"/></svg>