<svg width="300" height="301" viewBox="0 0 300 301" fill="none" xmlns="http://www.w3.org/2000/svg">
<g clip-path="url(#clip0_1068_3841)">
<path d="M295.305 237.67H259.594V146.362H295.305C295.926 146.369 296.542 146.253 297.118 146.02C297.694 145.787 298.218 145.442 298.66 145.005C299.102 144.569 299.452 144.049 299.692 143.475C299.931 142.902 300.054 142.287 300.054 141.666C300.054 141.045 299.931 140.43 299.692 139.856C299.452 139.283 299.102 138.763 298.66 138.326C298.218 137.889 297.694 137.544 297.118 137.312C296.542 137.079 295.926 136.962 295.305 136.969H258.409C256.233 136.972 254.147 137.837 252.608 139.376C251.069 140.915 250.203 143.001 250.201 145.178V149.056H228.549C227.579 149.057 226.627 148.794 225.795 148.295L168.359 113.833C164.902 111.759 160.947 110.663 156.916 110.662H119.147C115.761 110.671 112.423 111.463 109.394 112.976C106.365 114.489 103.727 116.682 101.686 119.384L79.6634 148.345H49.8029V145.178C49.8004 143.001 48.9347 140.915 47.3957 139.376C45.8568 137.837 43.7702 136.972 41.5939 136.969H4.69855C4.07737 136.962 3.46099 137.079 2.88509 137.312C2.30919 137.544 1.78521 137.889 1.3435 138.326C0.901788 138.763 0.551114 139.283 0.311783 139.856C0.0724518 140.43 -0.0507813 141.045 -0.0507812 141.666C-0.0507813 142.287 0.0724518 142.902 0.311783 143.475C0.551114 144.049 0.901788 144.569 1.3435 145.005C1.78521 145.442 2.30919 145.787 2.88509 146.02C3.46099 146.253 4.07737 146.369 4.69855 146.362H40.4097V237.67H4.69855C4.07737 237.663 3.46099 237.78 2.88509 238.013C2.30919 238.245 1.78521 238.59 1.3435 239.027C0.901788 239.464 0.551114 239.984 0.311783 240.557C0.0724518 241.13 -0.0507812 241.746 -0.0507812 242.367C-0.0507812 242.988 0.0724518 243.603 0.311783 244.176C0.551114 244.75 0.901788 245.27 1.3435 245.706C1.78521 246.143 2.30919 246.488 2.88509 246.721C3.46099 246.954 4.07737 247.07 4.69855 247.063H41.5939C43.7703 247.061 45.8568 246.195 47.3958 244.656C48.9347 243.117 49.8004 241.031 49.8029 238.854V226.705H57.0404C56.5819 229.701 56.9921 232.766 58.2226 235.537C59.453 238.307 61.452 240.667 63.9825 242.335C65.0227 243.021 66.2925 243.265 67.5125 243.014C68.7326 242.763 69.803 242.037 70.4882 240.997C71.1734 239.957 71.4174 238.687 71.1664 237.467C70.9155 236.247 70.1901 235.177 69.1499 234.491C67.7243 233.552 66.7301 232.085 66.3861 230.413C66.0421 228.741 66.3763 227 67.3154 225.575L71.547 219.151C72.49 217.734 73.9556 216.749 75.6233 216.41C77.291 216.071 79.025 216.406 80.4462 217.342C81.8674 218.279 82.86 219.739 83.2071 221.405C83.5542 223.071 83.2275 224.807 82.2984 226.233L78.0661 232.657C75.7613 236.164 74.9418 240.443 75.7877 244.554C76.6335 248.664 79.0755 252.272 82.5778 254.584C83.618 255.27 84.8878 255.514 86.1078 255.263C87.3279 255.012 88.3983 254.286 89.0835 253.246C89.7688 252.206 90.0127 250.936 89.7617 249.716C89.5108 248.496 88.7854 247.426 87.7452 246.74C86.3214 245.8 85.3287 244.333 84.9848 242.662C84.6409 240.99 84.9738 239.251 85.9107 237.824L90.1423 231.401C91.0865 229.987 92.5513 229.005 94.2171 228.668C95.8829 228.33 97.6146 228.665 99.0342 229.6C100.454 230.534 101.446 231.992 101.795 233.656C102.144 235.319 101.82 237.053 100.895 238.479L96.6638 244.904C94.359 248.411 93.5397 252.69 94.3855 256.801C95.2313 260.911 97.6732 264.519 101.175 266.832C101.691 267.176 102.269 267.415 102.876 267.535C103.484 267.655 104.109 267.653 104.717 267.531C105.324 267.408 105.901 267.166 106.414 266.819C106.928 266.473 107.367 266.028 107.708 265.511C108.049 264.993 108.284 264.414 108.4 263.805C108.516 263.197 108.51 262.571 108.383 261.965C108.256 261.358 108.011 260.783 107.66 260.272C107.31 259.761 106.862 259.324 106.343 258.987C104.919 258.046 103.927 256.58 103.583 254.908C103.239 253.237 103.572 251.497 104.509 250.071L108.741 243.647C109.679 242.221 111.146 241.226 112.818 240.882C114.49 240.537 116.231 240.871 117.657 241.81C119.083 242.749 120.077 244.215 120.422 245.887C120.766 247.56 120.432 249.3 119.494 250.726L115.256 257.156C112.951 260.664 112.131 264.942 112.977 269.053C113.823 273.164 116.265 276.771 119.767 279.084C120.808 279.759 122.073 279.996 123.287 279.742C124.5 279.488 125.565 278.764 126.247 277.728C126.929 276.693 127.174 275.429 126.928 274.214C126.682 272.998 125.966 271.929 124.935 271.24C123.511 270.299 122.518 268.832 122.175 267.161C121.831 265.489 122.164 263.75 123.101 262.324L127.332 255.899C128.272 254.474 129.739 253.479 131.411 253.136C133.083 252.792 134.824 253.126 136.249 254.065C137.675 255.005 138.669 256.472 139.013 258.144C139.357 259.816 139.022 261.556 138.083 262.982C137.685 263.587 137.433 264.276 137.348 264.995C137.331 265.029 137.311 265.06 137.295 265.094C136.765 266.221 136.704 267.513 137.126 268.685C137.549 269.856 138.419 270.813 139.546 271.343C141.696 272.354 143.892 273.362 146.078 274.34C148.535 275.8 151.323 276.611 154.18 276.696C157.037 276.782 159.868 276.139 162.408 274.828C164.948 273.518 167.113 271.582 168.698 269.204C170.284 266.827 171.238 264.084 171.472 261.236C173.448 262.033 175.558 262.444 177.688 262.447C179.002 262.447 180.313 262.293 181.592 261.991C185.211 261.14 188.447 259.118 190.797 256.238C193.148 253.358 194.48 249.782 194.588 246.067C196.232 246.597 197.949 246.869 199.677 246.872C200.992 246.871 202.302 246.717 203.581 246.415C207.238 245.556 210.504 243.499 212.859 240.573C215.215 237.646 216.526 234.017 216.585 230.26C217.741 230.511 218.921 230.638 220.104 230.639C221.419 230.638 222.729 230.485 224.008 230.182C227.257 229.417 230.207 227.705 232.484 225.264C234.76 222.822 236.262 219.761 236.799 216.466C237.337 213.171 236.885 209.791 235.502 206.753C234.118 203.714 231.866 201.154 229.028 199.396L141.347 144.863H141.343L141.327 144.853C141.3 144.836 141.272 144.823 141.244 144.807C138.361 143.023 134.92 142.37 131.584 142.975C128.248 143.579 125.254 145.398 123.181 148.08L105.525 170.715C104.533 171.993 103.298 173.061 101.891 173.859C100.484 174.657 98.9328 175.169 97.327 175.365C95.7213 175.561 94.0927 175.437 92.535 175.001C90.9773 174.564 89.5214 173.824 88.2511 172.822C86.9809 171.821 85.9214 170.578 85.1338 169.165C84.3461 167.752 83.8459 166.197 83.6619 164.59C83.4779 162.983 83.6137 161.355 84.0616 159.8C84.5095 158.246 85.2606 156.796 86.2716 155.533L109.195 125.025C110.358 123.485 111.861 122.235 113.588 121.373C115.315 120.511 117.217 120.06 119.147 120.055H156.916C159.243 120.055 161.527 120.687 163.523 121.885L220.96 156.347C223.252 157.722 225.874 158.448 228.547 158.448H250.199V238.854C250.201 241.031 251.067 243.117 252.606 244.656C254.145 246.195 256.231 247.061 258.408 247.063H295.303C295.924 247.07 296.541 246.954 297.117 246.721C297.692 246.488 298.216 246.143 298.658 245.706C299.1 245.27 299.45 244.75 299.69 244.176C299.929 243.603 300.052 242.988 300.052 242.367C300.052 241.746 299.929 241.13 299.69 240.557C299.45 239.984 299.1 239.464 298.658 239.027C298.216 238.59 297.692 238.245 297.117 238.013C296.541 237.78 295.924 237.663 295.303 237.67H295.305ZM95.8657 184.855C99.1601 184.855 102.411 184.102 105.369 182.653C108.328 181.203 110.915 179.096 112.934 176.492L130.586 153.851C131.244 152.993 132.199 152.41 133.263 152.218C134.328 152.026 135.426 152.237 136.342 152.812L136.355 152.819L136.363 152.824L224.078 207.375C224.914 207.892 225.641 208.569 226.216 209.368C226.791 210.166 227.203 211.07 227.428 212.027C227.654 212.985 227.689 213.977 227.531 214.948C227.373 215.919 227.025 216.849 226.508 217.686C225.99 218.522 225.313 219.249 224.515 219.824C223.717 220.399 222.813 220.811 221.856 221.036C220.898 221.262 219.906 221.297 218.935 221.139C217.964 220.981 217.033 220.634 216.197 220.116L208.587 215.615L188.06 202.427C187.033 201.764 185.788 201.528 184.59 201.769C183.392 202.01 182.335 202.709 181.644 203.717C180.953 204.726 180.683 205.964 180.89 207.168C181.098 208.372 181.768 209.448 182.756 210.167C182.824 210.22 182.897 210.275 182.983 210.329L203.583 223.565L203.651 223.609C205.335 224.656 206.536 226.329 206.988 228.26C207.441 230.191 207.109 232.223 206.066 233.91C205.022 235.597 203.352 236.801 201.422 237.258C199.492 237.715 197.459 237.388 195.77 236.348L186.571 231.173L172.005 221.675C171.488 221.338 170.91 221.106 170.304 220.992C169.697 220.878 169.075 220.885 168.471 221.012C167.252 221.268 166.184 221.999 165.504 223.042C164.823 224.085 164.584 225.357 164.841 226.576C165.097 227.795 165.827 228.862 166.871 229.543L181.566 239.126L181.66 239.185C182.497 239.702 183.224 240.38 183.798 241.178C184.373 241.976 184.785 242.88 185.011 243.837C185.237 244.795 185.271 245.787 185.113 246.758C184.956 247.729 184.608 248.66 184.09 249.496C183.573 250.333 182.896 251.059 182.097 251.634C181.299 252.209 180.395 252.621 179.438 252.847C177.504 253.302 175.469 252.971 173.779 251.926L163.584 245.621L156.39 240.684C155.395 240.003 154.177 239.73 152.987 239.923C151.796 240.115 150.726 240.758 149.997 241.718C149.267 242.679 148.935 243.882 149.069 245.081C149.203 246.279 149.793 247.379 150.716 248.155C150.806 248.232 150.912 248.311 151.025 248.389C151.042 248.402 151.058 248.415 151.075 248.427L158.361 253.427L158.466 253.492L158.65 253.613C160.308 254.641 161.491 256.285 161.938 258.185C162.386 260.084 162.062 262.083 161.037 263.743C159.991 265.432 158.317 266.636 156.384 267.092C154.45 267.547 152.415 267.217 150.725 266.173L150.456 266.007L150.169 265.878C149.32 265.5 148.469 265.113 147.622 264.726C148.558 262.088 148.777 259.249 148.257 256.499C147.738 253.748 146.498 251.185 144.665 249.07C142.832 246.955 140.47 245.363 137.821 244.459C135.173 243.554 132.331 243.367 129.587 243.919C128.73 239.837 126.295 236.259 122.812 233.965C119.329 231.671 115.08 230.845 110.992 231.669C110.135 227.589 107.701 224.012 104.219 221.718C100.738 219.423 96.4916 218.597 92.404 219.418C91.7589 216.362 90.2238 213.565 87.9921 211.379C85.7604 209.193 82.9318 207.716 79.8626 207.135C76.7933 206.554 73.6207 206.894 70.7442 208.112C67.8677 209.33 65.416 211.372 63.6978 213.981L61.5052 217.309H49.8029V157.738H74.8845C74.0601 160.942 73.9787 164.291 74.6466 167.531C75.3145 170.771 76.714 173.815 78.7383 176.431C80.7625 179.048 83.3579 181.167 86.3262 182.627C89.2945 184.087 92.5573 184.849 95.8652 184.855H95.8657Z" fill="#F55308"/>
<path d="M150.225 51.887C150.841 51.887 151.452 51.7655 152.022 51.5294C152.592 51.2934 153.109 50.9474 153.546 50.5112C153.982 50.0751 154.328 49.5573 154.563 48.9875C154.799 48.4176 154.921 47.8069 154.921 47.1901V25.8379C154.928 25.2168 154.811 24.6004 154.578 24.0245C154.346 23.4486 154.001 22.9246 153.564 22.4829C153.127 22.0412 152.607 21.6905 152.034 21.4512C151.46 21.2118 150.845 21.0886 150.224 21.0886C149.603 21.0886 148.988 21.2118 148.415 21.4512C147.841 21.6905 147.321 22.0412 146.885 22.4829C146.448 22.9246 146.103 23.4486 145.87 24.0245C145.637 24.6004 145.521 25.2168 145.528 25.8379V47.1895C145.528 47.8064 145.649 48.4172 145.885 48.9871C146.121 49.557 146.467 50.0749 146.903 50.5111C147.339 50.9473 147.857 51.2933 148.427 51.5294C148.997 51.7655 149.608 51.887 150.225 51.887Z" fill="#F55308"/>
<path d="M183.853 66.4563C184.47 66.4571 185.081 66.336 185.651 66.1C186.221 65.864 186.738 65.5177 187.174 65.0811L202.272 49.9832C203.153 49.1024 203.648 47.9078 203.648 46.6621C203.648 45.4164 203.153 44.2217 202.272 43.3408C201.391 42.4599 200.197 41.965 198.951 41.9649C197.705 41.9649 196.511 42.4597 195.63 43.3405L180.532 58.4383C179.875 59.0952 179.428 59.9321 179.246 60.8432C179.065 61.7542 179.158 62.6986 179.514 63.5568C179.869 64.415 180.471 65.1486 181.244 65.6647C182.016 66.1808 182.924 66.4563 183.853 66.4563Z" fill="#F55308"/>
<path d="M112.238 65.0811C112.674 65.5172 113.192 65.8632 113.762 66.0992C114.331 66.3352 114.942 66.4567 115.559 66.4567C116.176 66.4566 116.787 66.3351 117.357 66.0991C117.926 65.863 118.444 65.517 118.88 65.0808C119.316 64.6446 119.662 64.1268 119.898 63.557C120.134 62.9871 120.256 62.3763 120.256 61.7595C120.256 61.1427 120.134 60.5319 119.898 59.9621C119.662 59.3922 119.316 58.8745 118.88 58.4383L103.782 43.3405C103.347 42.8989 102.829 42.5477 102.257 42.3072C101.686 42.0668 101.073 41.9418 100.453 41.9395C99.833 41.9371 99.2188 42.0575 98.6457 42.2937C98.0726 42.5298 97.5519 42.8771 97.1137 43.3154C96.6754 43.7537 96.3283 44.2745 96.0922 44.8476C95.8561 45.4208 95.7359 46.035 95.7383 46.6548C95.7408 47.2746 95.8659 47.8879 96.1064 48.4591C96.347 49.0304 96.6982 49.5484 97.1399 49.9833L112.238 65.0811Z" fill="#F55308"/>
<path d="M81.054 92.8235H102.406C103.027 92.8304 103.643 92.7141 104.219 92.4812C104.795 92.2482 105.319 91.9034 105.761 91.4666C106.202 91.0298 106.553 90.5097 106.792 89.9364C107.032 89.3632 107.155 88.7481 107.155 88.1269C107.155 87.5057 107.032 86.8906 106.792 86.3174C106.553 85.7441 106.202 85.224 105.761 84.7872C105.319 84.3504 104.795 84.0056 104.219 83.7726C103.643 83.5397 103.027 83.4234 102.406 83.4303H81.054C80.4328 83.4234 79.8165 83.5397 79.2406 83.7726C78.6647 84.0056 78.1407 84.3504 77.699 84.7872C77.2573 85.224 76.9066 85.7441 76.6673 86.3174C76.4279 86.8906 76.3047 87.5057 76.3047 88.1269C76.3047 88.7481 76.4279 89.3632 76.6673 89.9364C76.9066 90.5097 77.2573 91.0298 77.699 91.4666C78.1407 91.9034 78.6647 92.2482 79.2406 92.4812C79.8165 92.7141 80.4328 92.8304 81.054 92.8235Z" fill="#F55308"/>
<path d="M194.383 88.1266C194.383 89.3722 194.878 90.5668 195.759 91.4476C196.639 92.3284 197.834 92.8233 199.08 92.8235H220.431C221.052 92.8304 221.669 92.7141 222.245 92.4812C222.821 92.2482 223.345 91.9034 223.786 91.4666C224.228 91.0298 224.579 90.5097 224.818 89.9364C225.057 89.3632 225.181 88.7481 225.181 88.1269C225.181 87.5057 225.057 86.8906 224.818 86.3174C224.579 85.7441 224.228 85.224 223.786 84.7872C223.345 84.3504 222.821 84.0056 222.245 83.7726C221.669 83.5397 221.052 83.4234 220.431 83.4303H199.08C197.834 83.4305 196.64 83.9253 195.759 84.806C194.878 85.6866 194.383 86.8811 194.383 88.1266Z" fill="#F55308"/>
</g>
<defs>
<clipPath id="clip0_1068_3841">
<rect width="300" height="300" fill="white" transform="translate(0 0.500244)"/>
</clipPath>
</defs>
</svg>
