<?xml version="1.0" encoding="utf-8"?>
<!-- Generator: Adobe Illustrator 26.0.3, SVG Export Plug-In . SVG Version: 6.00 Build 0)  -->
<svg version="1.1" id="Слой_1" xmlns="http://www.w3.org/2000/svg" xmlns:xlink="http://www.w3.org/1999/xlink" x="0px" y="0px"
	 viewBox="0 0 470.5 137.76" style="enable-background:new 0 0 470.5 137.76;" xml:space="preserve">
<style type="text/css">
	.st0{fill:url(#SVGID_1_);}
	.st1{fill:#5A2A1B;}
</style>
<g>
	<linearGradient id="SVGID_1_" gradientUnits="userSpaceOnUse" x1="272.4165" y1="86.7039" x2="312.505" y2="-66.1728">
		<stop  offset="0.0935" style="stop-color:#EF7A59"/>
		<stop  offset="0.4252" style="stop-color:#E2000B"/>
		<stop  offset="0.6643" style="stop-color:#CB1113"/>
	</linearGradient>
	<path class="st0" d="M247.26,82.78l6.03-8.96c0.33-0.49,0.67-0.96,1.03-1.43c-2.67-6.52-4.11-16.58,3.46-28.33
		c1.02,3.49,3.98,14.5,4.02,14.62l0.14,0.52l0.44-0.3c0.16-0.11,15.6-10.8,18.72-32.67c13.84,10.24,9.49,31.88,9.44,32.1l-0.21,0.98
		l0.81-0.6c0.1-0.07,9.18-6.79,11.24-8.2c1.28,1.34,7.85,9.15,1.53,23l-0.01,0.03c0.1,0.14,0.2,0.27,0.3,0.42l6.74,10.14l0.21-0.42
		c15.82-31.39-7.03-45.31-7.26-45.44l-0.25-0.15l-3.42,3.33c-2.89-23.88-26.49-30.64-26.73-30.71l-0.59-0.16l0.12,0.6
		c0.03,0.14,2.5,13.7-7.58,29.26c-1.94-7.45-1.41-15.72-1.41-15.81l0.05-0.74l-0.63,0.39c-0.09,0.06-9.28,5.79-15.83,15.81
		c-6.06,9.27-11.04,24.2-0.37,42.67L247.26,82.78z"/>
	<g>
		<path class="st1" d="M70.13,55.93c-8.33,0-16.1,4.12-20.76,11.03L7.15,129.39h18.45l15.17-22.44h58.7l15.17,22.44h18.45
			L90.89,66.96C86.23,60.06,78.46,55.93,70.13,55.93z M51.12,91.66l10.91-16.14c1.85-2.73,4.8-4.3,8.1-4.3c3.3,0,6.25,1.57,8.1,4.3
			l10.91,16.14H51.12z"/>
		<path class="st1" d="M421.79,66.96c-4.67-6.9-12.43-11.03-20.76-11.03s-16.1,4.12-20.76,11.03l-42.21,62.43h18.45l15.17-22.44
			h58.7l14.49,21.43l0.68,1.01H464L421.79,66.96z M382.01,91.66l10.91-16.14c1.85-2.73,4.8-4.3,8.1-4.3s6.25,1.57,8.1,4.3
			l10.91,16.14H382.01z"/>
		<path class="st1" d="M343.13,55.78l-22.36,51.62l-20.79-31.26c-4.68-7.04-12.55-11.26-21.05-11.28c-8.42,0-16.26,4.17-20.96,11.16
			l-21.19,31.48l-22.1-51.02l-0.3-0.69h-16.53l29.38,67.83c1.33,3.07,4.22,5.17,7.55,5.47c0.28,0.03,0.56,0.04,0.84,0.04
			c3.05,0,5.88-1.51,7.58-4.04l27.34-40.6c1.91-2.84,4.98-4.46,8.41-4.46c3.43,0.01,6.49,1.65,8.39,4.51l26.92,40.48
			c1.86,2.8,5.1,4.35,8.43,4.05c3.34-0.3,6.25-2.4,7.58-5.48l29.37-67.81H343.13z"/>
		<path class="st1" d="M142.45,95.9V55.93h-15.16V95.9c0,14.36,6.59,22.38,12.11,26.58c5.78,4.39,13.57,6.91,21.37,6.91h53.33
			v-15.16h-53.33C157.71,114.22,142.45,113.34,142.45,95.9z"/>
	</g>
</g>
</svg>
