<svg width="187" height="33" fill="none" xmlns="http://www.w3.org/2000/svg"><g clip-path="url(#clip0_101_118)" fill="#000"><path d="M29.947 1.686c-.6.295-1.166.695-1.678 1.164a10.227 10.227 0 00-1.467 1.703c-.477.66-.972 1.408-1.52 2.242-.37.573-.865 1.338-1.519 2.294-.653.973-1.307 1.98-1.996 3.006-.69 1.042-1.343 2.033-1.979 2.989-.636.956-1.13 1.703-1.502 2.242v8.984c0 .869.018 1.703.07 2.52.036.816.195 1.39.425 1.72.46.66 1.042 1.077 1.767 1.286.724.208 1.43.365 2.085.486v.452H8.64v-.434a10.807 10.807 0 002.067-.417c.583-.191 1.219-.66 1.89-1.408.16-.139.265-.4.336-.765.07-.364.141-.764.177-1.199.053-.451.07-.92.088-1.425.018-.504.018-.99.018-1.477.035-.834.053-1.824.07-2.971.018-1.147.018-2.537.018-4.17-.053-.088-.248-.366-.548-.852-.3-.487-.671-1.06-1.113-1.773-.442-.695-.919-1.477-1.449-2.346s-1.06-1.703-1.572-2.52c-.512-.816-1.007-1.58-1.449-2.293-.46-.713-.83-1.304-1.13-1.738-.584-.869-1.096-1.651-1.573-2.364-.477-.712-.936-1.32-1.431-1.824s-.954-.904-1.431-1.2A3.119 3.119 0 000 1.113V.66h13.763v.452c-.46.035-.9.07-1.36.14-.46.051-.884.156-1.272.295-.389.139-.707.312-.954.538-.248.226-.354.54-.354.921 0 .383.212.974.654 1.773a68.75 68.75 0 001.396 2.38c.336.54.724 1.182 1.184 1.947.459.765.954 1.564 1.501 2.415.548.852 1.096 1.72 1.661 2.607.565.904 1.078 1.738 1.572 2.555.39-.574.884-1.286 1.45-2.173.565-.886 1.165-1.772 1.748-2.676.584-.903 1.149-1.772 1.679-2.606.53-.835.936-1.495 1.201-1.964.16-.243.318-.521.495-.834.177-.313.353-.643.512-.973.16-.348.318-.696.424-1.043a2.99 2.99 0 00.177-.973c0-.47-.124-.852-.371-1.112a2.585 2.585 0 00-.936-.626 6.258 6.258 0 00-1.255-.33c-.46-.07-.9-.14-1.307-.209V.713h10.494v.451a5.239 5.239 0 00-2.155.522zm17.368 31.088v-.434c.088 0 .3-.035.654-.087a7.57 7.57 0 001.095-.313 3.748 3.748 0 001.007-.626c.283-.26.424-.608.424-1.025 0-.26-.088-.712-.247-1.32-.16-.609-.406-1.356-.707-2.242-.3-.887-.653-1.86-1.042-2.92-.39-1.077-.813-2.19-1.272-3.354H35.142c-.46 1.13-.884 2.207-1.325 3.233a571.583 571.583 0 00-1.272 3.11c-.637 1.616-.955 2.746-.955 3.389 0 .382.124.712.372.956.247.26.547.469.936.625.371.157.777.278 1.219.365.442.07.848.14 1.255.209v.451h-9.683v-.486c.796-.087 1.467-.295 2.015-.626.565-.33.883-.556.971-.677.212-.209.566-.695 1.043-1.477.477-.765 1.078-1.93 1.767-3.441a822.706 822.706 0 002.137-4.78c.795-1.789 1.59-3.631 2.438-5.508.83-1.894 1.661-3.805 2.474-5.717.813-1.929 1.59-3.719 2.315-5.387L42.774 0h1.979c.936 2.468 1.837 4.814 2.686 7.038.848 2.224 1.66 4.362 2.438 6.412.777 2.05 1.52 4.05 2.243 5.96a658.265 658.265 0 002.174 5.7c.335.922.636 1.686.936 2.294.283.609.618 1.304.972 2.086.07.121.194.33.406.625.212.296.495.609.848.921.336.313.778.591 1.29.817.513.243 1.113.365 1.82.4v.538H47.315v-.017zM41.36 5.717c-.177.383-.442.99-.795 1.825-.354.834-.778 1.842-1.29 3.04a216.42 216.42 0 00-1.696 4.05c-.618 1.494-1.29 3.128-2.014 4.883h11.307c-.512-1.338-1.042-2.676-1.572-4.014s-1.043-2.624-1.537-3.858c-.495-1.234-.954-2.363-1.36-3.389-.425-1.042-.778-1.894-1.043-2.537zm132.103 27.057v-.434c.089 0 .318-.035.672-.087a7.66 7.66 0 001.095-.313 3.74 3.74 0 001.007-.626c.283-.26.424-.608.424-1.025 0-.26-.088-.712-.247-1.32a26.819 26.819 0 00-.707-2.242c-.301-.887-.654-1.86-1.043-2.92-.388-1.077-.812-2.19-1.271-3.354h-12.085c-.46 1.13-.901 2.207-1.326 3.233-.424 1.025-.847 2.067-1.271 3.11-.637 1.616-.955 2.746-.955 3.389 0 .382.124.712.371.956.248.26.548.469.937.625.371.157.795.278 1.219.365.442.07.848.14 1.254.209v.451h-9.664v-.486c.795-.087 1.466-.295 2.014-.626.566-.33.883-.556.972-.677.212-.209.565-.695 1.042-1.477.477-.765 1.078-1.93 1.767-3.441a828.485 828.485 0 002.138-4.78 860.2 860.2 0 012.421-5.508c.83-1.894 1.66-3.805 2.473-5.717.813-1.929 1.59-3.719 2.314-5.387L168.94 0h1.979c.936 2.468 1.837 4.814 2.686 7.038.847 2.224 1.66 4.362 2.438 6.412.777 2.05 1.519 4.05 2.244 5.96a636.267 636.267 0 002.173 5.7c.335.922.636 1.686.936 2.294.283.609.618 1.304.972 2.086.07.121.194.33.406.625.212.296.495.609.848.921.354.313.778.591 1.29.817.512.243 1.113.365 1.82.4v.538h-13.269v-.017zm-5.936-27.057c-.177.383-.442.99-.795 1.825-.354.834-.778 1.842-1.29 3.04a215.079 215.079 0 00-1.696 4.05c-.618 1.494-1.29 3.128-2.014 4.883h11.307c-.512-1.338-1.042-2.676-1.572-4.014a940.047 940.047 0 00-1.538-3.858c-.512-1.234-.954-2.363-1.36-3.389-.441-1.042-.777-1.894-1.042-2.537zM101.184 33v-.452a9.975 9.975 0 002.12-.573 4.48 4.48 0 001.661-1.165c.141-.173.264-.434.335-.764.071-.33.142-.713.177-1.165.053-.451.07-.92.088-1.407.018-.487.018-.973.018-1.46 0-.417.017-.99.017-1.703.018-.712.036-1.494.054-2.346.017-.834.017-1.703.017-2.589V6.464c0-.538-.035-1.042-.071-1.494-.053-.47-.106-.886-.212-1.251-.088-.365-.229-.66-.406-.87a3.672 3.672 0 00-1.572-1.094 9.063 9.063 0 00-2.121-.47v-.45h13.057v.45c-.636.088-1.307.262-2.032.487-.724.244-1.29.713-1.678 1.425-.265.504-.424 1.147-.424 1.912a74.773 74.773 0 01-.071 2.19c0 .747 0 1.477-.018 2.207-.017.73-.017 1.46-.017 2.207v14.962c0 .868.017 1.703.053 2.502.035.8.159 1.373.406 1.703.371.504.936.904 1.732 1.164.795.26 1.501.435 2.137.487v.452h-13.25V33zm50.388-31.088c-.671.417-1.201 1.06-1.555 1.911-.212.452-.353 1.269-.406 2.485-.071 1.2-.124 2.502-.177 3.858a137.09 137.09 0 00-.159 4.535c-.053 1.738-.07 3.615-.07 5.613v2.868c0 1.042.017 2.102.017 3.197.018 1.095.018 2.172.018 3.232v2.902a.432.432 0 01-.106.296c-.071.07-.194.104-.336.104-.247 0-.512-.156-.813-.452a753.903 753.903 0 01-7.031-8.045 2336.34 2336.34 0 00-6.06-6.986c-1.926-2.225-3.817-4.38-5.654-6.5a327.191 327.191 0 00-5.866-6.568v18.854c0 1.512.036 2.885.106 4.119.071 1.216.265 2.12.565 2.728a3.291 3.291 0 001.573 1.547c.707.347 1.696.59 2.933.73v.451h-11.166v-.451a9.103 9.103 0 002.173-.556 3.513 3.513 0 001.732-1.408c.423-.626.689-1.547.812-2.763.124-1.216.212-2.676.265-4.38.071-1.285.106-2.797.142-4.535.035-1.737.052-3.614.052-5.613V7.646c0-.59-.017-1.32-.052-2.19-.089-.868-.301-1.563-.637-2.12-.335-.556-.724-.99-1.183-1.303a4.436 4.436 0 00-1.467-.66 13.733 13.733 0 00-1.519-.296V.626h9.222l21.52 24.745V10.183c0-1.181-.018-2.328-.053-3.423-.035-1.095-.159-1.946-.407-2.572-.3-.834-.847-1.512-1.607-2.033-.778-.521-1.891-.886-3.339-1.095V.608h11.254v.452c-1.149.156-2.049.435-2.721.852zM88.34.608v.452c1.448.209 2.561.573 3.338 1.095.778.521 1.308 1.199 1.608 2.033.247.626.371 1.477.406 2.572.036 1.095.054 2.224.054 3.423v15.188L72.226.608h-9.223v.452c.477.052.99.156 1.52.295a5.19 5.19 0 011.484.66c.46.314.848.748 1.184 1.304.335.556.547 1.251.636 2.12.035.869.053 1.599.053 2.19v5.439c0 1.998-.018 3.858-.053 5.613-.035 1.738-.071 3.25-.142 4.535a77.557 77.557 0 01-.264 4.38c-.124 1.216-.39 2.137-.813 2.763-.424.66-.99 1.13-1.732 1.407a9.092 9.092 0 01-2.173.556v.452H73.87v-.434c-1.237-.157-2.226-.4-2.933-.73-.706-.348-1.236-.852-1.572-1.547-.3-.59-.495-1.512-.565-2.728a71.457 71.457 0 01-.107-4.119V4.362a387.257 387.257 0 015.849 6.569c1.855 2.12 3.728 4.274 5.653 6.499 1.926 2.224 3.94 4.553 6.06 6.986a1579.4 1579.4 0 006.926 7.906h1.396v-2.728c0-1.077 0-2.155-.018-3.232-.017-1.095-.017-2.155-.017-3.198v-2.867c0-1.998.017-3.858.07-5.613a131.4 131.4 0 01.16-4.535c.052-1.373.123-2.66.176-3.858.053-1.2.194-2.034.406-2.485.372-.87.884-1.512 1.573-1.912.671-.417 1.59-.695 2.703-.851V.59H88.34v.017z"/></g><defs><clipPath id="clip0_101_118"><path fill="#fff" d="M0 0h187v33H0z"/></clipPath></defs></svg>