<svg width="183" height="47" viewBox="0 0 183 47" fill="none" xmlns="http://www.w3.org/2000/svg">
<g clip-path="url(#clip0_822_108)">
<path d="M96.1764 28.5647L98.5918 25.0208C98.724 24.827 98.8602 24.6411 99.0044 24.4552C97.9349 21.8764 97.3581 17.8974 100.39 13.25C100.799 14.6304 101.985 18.9851 102.001 19.0326L102.057 19.2382L102.233 19.1196C102.297 19.0761 108.482 14.8479 109.732 6.19784C115.276 10.248 113.533 18.8071 113.513 18.8941L113.429 19.2817L113.753 19.0444C113.793 19.0167 117.431 16.3588 118.256 15.8011C118.768 16.3311 121.4 19.4202 118.869 24.8982V24.91C118.901 24.9654 118.945 25.0168 118.981 25.0762L121.681 29.0868L121.765 28.9206C128.102 16.5052 118.949 10.9995 118.857 10.9481L118.756 10.8887L117.387 12.2058C116.233 2.76471 106.779 0.0909703 106.683 0.0632837L106.447 0L106.495 0.237314C106.507 0.292687 107.496 5.65598 103.459 11.8103C102.682 8.86367 102.894 5.5927 102.894 5.5571L102.914 5.26441L102.662 5.41866C102.626 5.4424 98.9443 7.70874 96.3206 11.6719C93.8931 15.3384 91.8983 21.2435 96.1724 28.5488L96.1804 28.5647H96.1764Z" fill="#FF5E1D"/>
<path d="M25.2278 17.9488C21.8911 17.9488 18.7787 19.5783 16.912 22.3114L0 47H7.3905L13.4671 38.1244H36.9805L43.0572 47H50.4477L33.5397 22.3074C31.669 19.5783 28.5606 17.9448 25.2238 17.9448L25.2278 17.9488ZM17.609 32.0769L21.9792 25.6931C22.7203 24.6133 23.902 23.9924 25.2238 23.9924C26.5457 23.9924 27.7274 24.6133 28.4684 25.6931L32.8387 32.0769H17.605H17.609Z" fill="#4E2417"/>
<path d="M166.092 22.3074C164.222 19.5783 161.113 17.9448 157.777 17.9448C154.44 17.9448 151.327 19.5744 149.461 22.3074L132.553 47H139.943L146.02 38.1244H169.533L175.338 46.6005L175.61 47H183L166.092 22.3074ZM150.158 32.0769L154.528 25.6931C155.269 24.6133 156.451 23.9924 157.773 23.9924C159.094 23.9924 160.276 24.6133 161.017 25.6931L165.387 32.0769H150.154H150.158Z" fill="#4E2417"/>
<path d="M134.579 17.8855L125.623 38.3024L117.295 25.9383C115.42 23.1539 112.268 21.4848 108.863 21.4768C105.49 21.4768 102.35 23.1262 100.467 25.8909L91.9789 38.3419L83.1263 18.1624L83.0062 17.8895H76.3848L88.1535 44.7178C88.6862 45.932 89.8439 46.7626 91.1778 46.8813C91.2899 46.8932 91.4021 46.8971 91.5143 46.8971C92.736 46.8971 93.8696 46.2999 94.5506 45.2992L105.502 29.241C106.267 28.1177 107.497 27.4769 108.871 27.4769C110.245 27.4809 111.471 28.1295 112.232 29.2607L123.015 45.2715C123.76 46.379 125.058 46.992 126.392 46.8734C127.73 46.7547 128.895 45.9241 129.428 44.7059L141.193 17.8855H134.571H134.579Z" fill="#4E2417"/>
<path d="M54.1927 33.7578V17.9487H48.1201V33.7578C48.1201 39.4375 50.7599 42.6096 52.971 44.2708C55.2863 46.0071 58.4067 47.0038 61.5312 47.0038H82.8935V41.0077H61.5312C60.3054 41.0077 54.1927 40.6597 54.1927 33.7617V33.7578Z" fill="#4E2417"/>
<path d="M96.5045 28.5647L98.9199 25.0208C99.0521 24.827 99.1883 24.6411 99.3325 24.4552C98.263 21.8764 97.6862 17.8974 100.718 13.25C101.127 14.6304 102.313 18.9851 102.329 19.0326L102.385 19.2382L102.561 19.1196C102.625 19.0761 108.81 14.8479 110.06 6.19784C115.604 10.248 113.861 18.8071 113.841 18.8941L113.757 19.2817L114.081 19.0444C114.122 19.0167 117.759 16.3588 118.584 15.8011C119.097 16.3311 121.728 19.4202 119.197 24.8982V24.91C119.229 24.9654 119.273 25.0168 119.309 25.0762L122.009 29.0868L122.093 28.9206C128.43 16.5052 119.277 10.9995 119.185 10.9481L119.085 10.8887L117.715 12.2058C116.561 2.76471 107.108 0.0909703 107.011 0.0632837L106.775 0L106.823 0.237314C106.835 0.292687 107.825 5.65598 103.787 11.8103C103.01 8.86367 103.222 5.5927 103.222 5.5571L103.242 5.26441L102.99 5.41866C102.954 5.4424 99.2724 7.70874 96.6487 11.6719C94.2213 15.3384 92.2264 21.2435 96.5005 28.5488L96.5085 28.5647H96.5045Z" fill="#E15501"/>
</g>
<defs>
<clipPath id="clip0_822_108">
<rect width="183" height="47" fill="white"/>
</clipPath>
</defs>
</svg>
