<svg width="32" height="32" viewBox="0 0 32 32" fill="none" xmlns="http://www.w3.org/2000/svg">
<g clip-path="url(#clip0_822_310)">
<path d="M3.72306 31.9386C3.07691 31.9386 2.09229 31.6309 1.23075 30.7694C0.338446 29.877 0.0615234 28.8924 0.0615234 28.2463C0.0615234 27.8155 0.21537 27.477 0.461523 27.2309L8.67691 19.6617C8.79998 19.5694 8.95383 19.5078 9.10768 19.5078C9.26152 19.5386 9.41537 19.6001 9.47691 19.7232C10.2461 20.8001 11.1692 21.754 12.2769 22.5232C12.4 22.6155 12.4923 22.7386 12.4923 22.8924C12.5231 23.0463 12.4615 23.2001 12.3384 23.3232L4.76922 31.5386C4.55383 31.7847 4.1846 31.9078 3.75383 31.9386C3.75383 31.9386 3.75383 31.9386 3.72306 31.9386ZM8.95383 20.8617L1.19998 28.0309C1.07691 28.1847 1.13845 29.1386 1.99998 30.0001C2.86152 30.8617 3.81537 30.9232 3.99998 30.8001L11.1692 23.0463C10.3384 22.4001 9.59998 21.6617 8.95383 20.8617Z" fill="#FF5E1D"/>
<path d="M3.69274 29.7847C2.89274 29.7847 2.21582 29.1385 2.21582 28.3077C2.21582 27.477 2.86197 26.8308 3.69274 26.8308C4.52351 26.8308 5.16967 27.477 5.16967 28.3077C5.16967 29.1385 4.49274 29.7847 3.69274 29.7847ZM3.69274 27.9385C3.47736 27.9385 3.29274 28.1231 3.29274 28.3385C3.29274 28.5539 3.47736 28.7385 3.69274 28.7385C3.90813 28.7385 4.09274 28.5539 4.09274 28.3385C4.09274 28.1231 3.90813 27.9385 3.69274 27.9385Z" fill="#FF5E1D"/>
<path d="M19.0769 25.7846C11.9999 25.7846 6.24609 20 6.24609 12.9231C6.24609 5.84613 11.9999 0.0922852 19.0769 0.0922852C26.1538 0.0922852 31.9384 5.84613 31.9384 12.9538C31.9384 20 26.1538 25.7846 19.0769 25.7846ZM19.0769 1.16921C12.5846 1.16921 7.32302 6.43075 7.32302 12.9231C7.32302 19.4154 12.6153 24.7077 19.1076 24.7077C25.5999 24.7077 30.8923 19.4154 30.8923 12.9231C30.8615 6.43075 25.5692 1.16921 19.0769 1.16921Z" fill="#FF5E1D"/>
<path d="M12.8921 19.7846C12.769 19.7846 12.6152 19.7231 12.5229 19.6308C12.3075 19.4154 12.3075 19.0769 12.5229 18.8615L24.7075 6.67692C24.9229 6.46153 25.2613 6.46153 25.4767 6.67692C25.6921 6.8923 25.6921 7.23077 25.4767 7.44615L13.2921 19.6308C13.169 19.7231 13.0459 19.7846 12.8921 19.7846Z" fill="#FF5E1D"/>
<path d="M15.5073 21.5078C15.3843 21.5078 15.2304 21.4463 15.1381 21.3539C14.9227 21.1386 14.9227 20.8001 15.1381 20.5847L26.4612 9.26164C26.6766 9.04625 27.015 9.04625 27.2304 9.26164C27.4458 9.47702 27.4458 9.81548 27.2304 10.0309L15.8766 21.3539C15.7843 21.477 15.6612 21.5078 15.5073 21.5078Z" fill="#FF5E1D"/>
<path d="M11.1694 17.1692C11.0464 17.1692 10.8925 17.1076 10.8002 17.0153C10.5848 16.7999 10.5848 16.4615 10.8002 16.2461L22.0925 4.92301C22.3079 4.70763 22.6464 4.70763 22.8618 4.92301C23.0771 5.1384 23.0771 5.47686 22.8618 5.69224L11.5387 17.0153C11.4464 17.1076 11.2925 17.1692 11.1694 17.1692Z" fill="#FF5E1D"/>
<path d="M18.9849 22.4C18.8618 22.4 18.7079 22.3384 18.6156 22.2461C18.4003 22.0307 18.4003 21.6923 18.6156 21.4769L27.3233 12.7692C27.5387 12.5538 27.8772 12.5538 28.0926 12.7692C28.3079 12.9846 28.3079 13.3231 28.0926 13.5384L19.3849 22.2154C19.2618 22.3384 19.1387 22.4 18.9849 22.4Z" fill="#FF5E1D"/>
<path d="M10.2769 13.6922C10.1538 13.6922 9.99994 13.6307 9.90763 13.5384C9.69225 13.323 9.69225 12.9845 9.90763 12.7691L18.6153 4.06144C18.8307 3.84606 19.1692 3.84606 19.3846 4.06144C19.5999 4.27683 19.5999 4.61529 19.3846 4.83067L10.6769 13.5384C10.5538 13.6307 10.4307 13.6922 10.2769 13.6922Z" fill="#FF5E1D"/>
<path d="M24.2153 21.5076C24.0923 21.5076 23.9384 21.4461 23.8461 21.3538C23.6307 21.1384 23.6307 20.7999 23.8461 20.5845L26.4615 17.9692C26.6769 17.7538 27.0153 17.7538 27.2307 17.9692C27.4461 18.1845 27.4461 18.523 27.2307 18.7384L24.6153 21.3538C24.4923 21.4768 24.3384 21.5076 24.2153 21.5076Z" fill="#FF5E1D"/>
<path d="M11.1694 8.46147C11.0464 8.46147 10.8925 8.39994 10.8002 8.30763C10.5848 8.09224 10.5848 7.75378 10.8002 7.5384L13.4156 4.92301C13.631 4.70763 13.9694 4.70763 14.1848 4.92301C14.4002 5.1384 14.4002 5.47686 14.1848 5.69224L11.5387 8.30763C11.4464 8.39994 11.2925 8.46147 11.1694 8.46147Z" fill="#FF5E1D"/>
</g>
<defs>
<clipPath id="clip0_822_310">
<rect width="32" height="32" fill="white"/>
</clipPath>
</defs>
</svg>
