<svg width="300" height="301" viewBox="0 0 300 301" fill="none" xmlns="http://www.w3.org/2000/svg">
<path d="M79.6857 245.774V281.75C79.6857 282.993 80.1796 284.186 81.0587 285.065C81.9378 285.944 83.13 286.438 84.3732 286.438H129.04C129.945 286.438 130.831 286.176 131.591 285.683C132.35 285.191 132.95 284.489 133.32 283.663C133.689 282.837 133.811 281.921 133.672 281.027C133.532 280.133 133.136 279.298 132.533 278.624C129.515 275.252 127.538 271.078 126.841 266.608C126.143 262.137 126.755 257.56 128.602 253.429C130.449 249.298 133.452 245.79 137.248 243.328C141.045 240.867 145.473 239.557 149.998 239.557C154.523 239.557 158.951 240.867 162.748 243.328C166.545 245.79 169.548 249.298 171.395 253.429C173.242 257.56 173.853 262.137 173.156 266.608C172.458 271.078 170.481 275.252 167.464 278.624C166.86 279.298 166.465 280.133 166.325 281.027C166.185 281.921 166.307 282.837 166.677 283.663C167.046 284.489 167.647 285.191 168.406 285.683C169.165 286.176 170.051 286.438 170.956 286.438H215.623C216.866 286.438 218.059 285.944 218.938 285.065C219.817 284.186 220.311 282.993 220.311 281.75V269.63L240.434 289.752L247.063 283.123L214.25 250.311C212.223 248.284 210.615 245.877 209.518 243.229C208.421 240.58 207.857 237.742 207.857 234.875C207.857 232.009 208.421 229.17 209.518 226.522C210.615 223.873 212.223 221.467 214.25 219.44C214.686 219.005 215.031 218.488 215.267 217.919C215.502 217.35 215.623 216.741 215.623 216.125C215.623 215.51 215.502 214.9 215.267 214.331C215.031 213.763 214.686 213.246 214.25 212.811L197.844 196.404C196.858 195.419 196.305 194.082 196.305 192.688C196.305 191.294 196.858 189.957 197.844 188.971C198.83 187.985 200.167 187.432 201.561 187.432C202.955 187.432 204.292 187.985 205.277 188.971L221.684 205.377L228.313 198.748L220.311 190.746V178.625H234.373C236.859 178.628 239.242 179.617 240.999 181.374C242.757 183.132 243.745 185.515 243.748 188V230.188C243.748 230.803 243.869 231.413 244.105 231.982C244.341 232.55 244.686 233.067 245.121 233.502L270.902 259.284L277.532 252.654L253.123 228.247V188C253.118 183.029 251.14 178.263 247.625 174.748C244.11 171.233 239.344 169.256 234.373 169.25H220.311V114.524C225.312 116.895 230.832 117.963 236.357 117.627C241.882 117.292 247.232 115.565 251.91 112.606C256.588 109.647 260.441 105.552 263.111 100.704C265.781 95.8555 267.181 90.4103 267.181 84.8753C267.181 79.3402 265.781 73.895 263.111 69.0466C260.441 64.1981 256.588 60.1039 251.91 57.1449C247.232 54.186 241.882 52.4584 236.357 52.123C230.832 51.7877 225.312 52.8554 220.311 55.2268V19.2503C220.311 18.0071 219.817 16.8148 218.938 15.9357C218.059 15.0566 216.866 14.5628 215.623 14.5628H170.956C170.051 14.5628 169.165 14.8249 168.406 15.3173C167.647 15.8097 167.046 16.5114 166.677 17.3377C166.307 18.164 166.185 19.0795 166.325 19.9737C166.465 20.8679 166.86 21.7025 167.464 22.3768C170.481 25.7488 172.458 29.9221 173.156 34.3929C173.853 38.8637 173.242 43.4409 171.395 47.5717C169.548 51.7026 166.545 55.2105 162.748 57.6721C158.951 60.1336 154.523 61.4434 149.998 61.4434C145.473 61.4434 141.045 60.1336 137.248 57.6721C133.452 55.2105 130.449 51.7026 128.602 47.5717C126.755 43.4409 126.143 38.8637 126.841 34.3929C127.538 29.9221 129.515 25.7488 132.533 22.3768C133.136 21.7025 133.532 20.8679 133.672 19.9737C133.811 19.0795 133.689 18.164 133.32 17.3377C132.95 16.5114 132.35 15.8097 131.591 15.3173C130.831 14.8249 129.945 14.5628 129.04 14.5628H84.3732C83.13 14.5628 81.9378 15.0566 81.0587 15.9357C80.1796 16.8148 79.6857 18.0071 79.6857 19.2503V31.371L59.5629 11.2481L52.9336 17.8774L85.7461 50.6899C89.8333 54.7871 92.1286 60.338 92.1286 66.1253C92.1286 71.9125 89.8333 77.4634 85.7461 81.5606C85.3108 81.9959 84.9655 82.5126 84.7299 83.0814C84.4943 83.6501 84.3731 84.2597 84.3731 84.8753C84.3731 85.4908 84.4943 86.1004 84.7299 86.6691C84.9655 87.2379 85.3108 87.7546 85.7461 88.1899L106.84 109.284C107.826 110.269 108.379 111.606 108.379 113C108.379 114.394 107.826 115.731 106.84 116.717C105.854 117.703 104.517 118.256 103.123 118.256C101.729 118.256 100.392 117.703 99.4066 116.717L78.3129 95.6231L71.6836 102.252L79.6857 110.255V122.375H65.6232C63.1377 122.372 60.7549 121.384 58.9974 119.626C57.2399 117.869 56.2512 115.486 56.2482 113V70.8128C56.2483 70.1972 56.127 69.5876 55.8915 69.0189C55.6559 68.4502 55.3107 67.9334 54.8754 67.4981L29.0941 41.7169L22.4648 48.3462L46.8732 72.754V113C46.8788 117.971 48.8561 122.737 52.3712 126.252C55.8863 129.767 60.6521 131.745 65.6232 131.75H79.6857V186.477C74.6844 184.105 69.1644 183.038 63.6395 183.373C58.1146 183.708 52.7643 185.436 48.0866 188.395C43.4088 191.354 39.5556 195.448 36.8855 200.297C34.2153 205.145 32.8151 210.59 32.8151 216.125C32.8151 221.66 34.2153 227.105 36.8855 231.954C39.5556 236.802 43.4088 240.897 48.0866 243.856C52.7643 246.815 58.1146 248.542 63.6395 248.877C69.1644 249.213 74.6844 248.145 79.6857 245.774ZM92.7773 123.347C95.5253 126.071 99.2406 127.596 103.11 127.588C106.98 127.579 110.689 126.039 113.425 123.302C116.161 120.566 117.702 116.857 117.71 112.988C117.718 109.118 116.194 105.403 113.469 102.655L95.4416 84.6268C99.8566 78.6121 101.974 71.2165 101.412 63.7766C100.85 56.3367 97.6443 49.3433 92.3754 44.0606L89.0607 40.746V23.9378H120.35C117.978 28.9391 116.911 34.4591 117.246 39.984C117.581 45.5089 119.309 50.8592 122.268 55.5369C125.227 60.2147 129.321 64.0679 134.17 66.738C139.018 69.4082 144.463 70.8084 149.998 70.8084C155.533 70.8084 160.978 69.4082 165.827 66.738C170.675 64.0679 174.77 60.2147 177.729 55.5369C180.688 50.8592 182.415 45.5089 182.75 39.984C183.086 34.4591 182.018 28.9391 179.647 23.9378H210.936V63.9174C210.936 64.8225 211.198 65.7082 211.69 66.4675C212.183 67.2269 212.884 67.8275 213.711 68.1967C214.537 68.566 215.452 68.6882 216.347 68.5485C217.241 68.4088 218.076 68.0133 218.75 67.4096C222.122 64.3922 226.295 62.4154 230.766 61.7179C235.237 61.0204 239.814 61.6319 243.945 63.4787C248.076 65.3255 251.584 68.3286 254.045 72.1254C256.507 75.9222 257.816 80.3504 257.816 84.8753C257.816 89.4002 256.507 93.8283 254.045 97.6251C251.584 101.422 248.076 104.425 243.945 106.272C239.814 108.119 235.237 108.73 230.766 108.033C226.295 107.335 222.122 105.358 218.75 102.341C218.076 101.737 217.241 101.342 216.347 101.202C215.452 101.062 214.537 101.185 213.711 101.554C212.884 101.923 212.183 102.524 211.69 103.283C211.198 104.042 210.936 104.928 210.936 105.833V145.813H170.956C170.051 145.813 169.165 146.075 168.406 146.567C167.647 147.06 167.046 147.761 166.677 148.588C166.307 149.414 166.185 150.329 166.325 151.224C166.465 152.118 166.86 152.953 167.464 153.627C170.481 156.999 172.458 161.172 173.156 165.643C173.853 170.114 173.242 174.691 171.395 178.822C169.548 182.953 166.545 186.461 162.748 188.922C158.951 191.384 154.523 192.693 149.998 192.693C145.473 192.693 141.045 191.384 137.248 188.922C133.452 186.461 130.449 182.953 128.602 178.822C126.755 174.691 126.143 170.114 126.841 165.643C127.538 161.172 129.515 156.999 132.533 153.627C133.136 152.953 133.532 152.118 133.672 151.224C133.811 150.329 133.689 149.414 133.32 148.588C132.95 147.761 132.35 147.06 131.591 146.567C130.831 146.075 129.945 145.813 129.04 145.813H89.0607V119.63L92.7773 123.347ZM42.1857 216.125C42.1849 211.601 43.4941 207.173 45.955 203.376C48.4159 199.579 51.9234 196.576 56.0538 194.729C60.1843 192.882 64.7612 192.27 69.2317 192.968C73.7022 193.665 77.8752 195.642 81.2467 198.66C81.921 199.263 82.7556 199.659 83.6498 199.799C84.544 199.938 85.4595 199.816 86.2858 199.447C87.1121 199.077 87.8138 198.477 88.3062 197.718C88.7986 196.958 89.0607 196.072 89.0607 195.167V155.188H120.35C117.978 160.189 116.911 165.709 117.246 171.234C117.581 176.759 119.309 182.109 122.268 186.787C125.227 191.465 129.321 195.318 134.17 197.988C139.018 200.658 144.463 202.058 149.998 202.058C155.533 202.058 160.978 200.658 165.827 197.988C170.675 195.318 174.77 191.465 177.729 186.787C180.688 182.109 182.415 176.759 182.75 171.234C183.086 165.709 182.018 160.189 179.647 155.188H210.936V181.457C208.044 179.041 204.333 177.834 200.574 178.087C196.815 178.339 193.298 180.033 190.756 182.814C188.214 185.595 186.843 189.249 186.929 193.016C187.014 196.782 188.55 200.371 191.215 203.034L204.552 216.371C200.13 222.383 198.008 229.781 198.571 237.224C199.134 244.666 202.344 251.661 207.621 256.94L210.936 260.255V277.063H179.647C182.018 272.061 183.086 266.541 182.75 261.017C182.415 255.492 180.688 250.141 177.729 245.464C174.77 240.786 170.675 236.933 165.827 234.262C160.978 231.592 155.533 230.192 149.998 230.192C144.463 230.192 139.018 231.592 134.17 234.262C129.321 236.933 125.227 240.786 122.268 245.464C119.309 250.141 117.581 255.492 117.246 261.017C116.911 266.541 117.978 272.061 120.35 277.063H89.0607V237.083C89.0607 236.178 88.7986 235.292 88.3062 234.533C87.8138 233.774 87.1121 233.173 86.2858 232.804C85.4595 232.435 84.544 232.312 83.6498 232.452C82.7556 232.592 81.921 232.987 81.2467 233.591C77.8752 236.608 73.7022 238.585 69.2317 239.283C64.7612 239.98 60.1843 239.369 56.0538 237.522C51.9234 235.675 48.4159 232.672 45.955 228.875C43.4941 225.078 42.1849 220.65 42.1857 216.125Z" fill="#F55308"/>
<path d="M23.4376 216.125C23.4076 206.16 26.9178 196.509 33.3424 188.891C39.7669 181.274 48.6882 176.186 58.5153 174.534C61.807 173.994 64.7999 172.302 66.9605 169.761C69.1211 167.219 70.309 163.993 70.3126 160.657V145.813H60.9376V160.657C60.9293 161.777 60.5236 162.858 59.7928 163.706C59.062 164.555 58.0536 165.116 56.9474 165.29C48.4968 166.735 40.5397 170.264 33.7956 175.557C27.0516 180.85 21.7333 187.741 18.3218 195.606C14.9104 203.471 13.5133 212.063 14.2569 220.604C15.0006 229.145 17.8615 237.365 22.581 244.523L30.4021 239.354C25.847 232.464 23.4245 224.384 23.4376 216.125Z" fill="#F55308"/>
<path d="M34.6955 244.815L27.8242 251.194C29.9221 253.452 32.2162 255.52 34.6797 257.373L40.3141 249.875C38.2949 248.358 36.4147 246.665 34.6955 244.815Z" fill="#F55308"/>
<path d="M276.562 84.8753C276.587 91.4299 275.074 97.899 272.143 103.762C269.212 109.625 264.945 114.718 259.687 118.631L265.318 126.126C271.743 121.344 276.957 115.12 280.538 107.956C284.119 100.791 285.969 92.8852 285.937 84.8753C285.913 72.9949 281.798 61.4853 274.284 52.2825C266.771 43.0797 256.317 36.7452 244.682 34.3446L242.816 43.5315C252.335 45.4968 260.886 50.6802 267.032 58.2098C273.178 65.7395 276.543 75.1559 276.562 84.8753Z" fill="#F55308"/>
</svg>
