<svg width="80" height="80" viewBox="0 0 80 80" fill="none" xmlns="http://www.w3.org/2000/svg">
<path d="M28.0246 49V47.2353H31.9878V33.7227L28.8616 35.7395L28 34.2017L32.5539 31.2269H34.0062V47.2353H37.7232V49H28.0246Z" fill="#F55308"/>
<path d="M41.9475 49V47.437L47.8799 40.8824C48.7169 39.9412 49.3158 39.084 49.6769 38.3109C50.0543 37.5378 50.243 36.7479 50.243 35.9412C50.243 33.874 49.0697 32.8403 46.723 32.8403C44.9671 32.8403 43.4163 33.5126 42.0706 34.8571L41.3075 33.2437C41.9475 32.5714 42.7598 32.0336 43.7445 31.6303C44.7455 31.2101 45.7958 31 46.8953 31C48.6348 31 49.9641 31.4202 50.883 32.2605C51.8184 33.084 52.2861 34.2605 52.2861 35.7899C52.2861 36.8487 52.0318 37.8908 51.5231 38.916C51.0143 39.9244 50.2348 41 49.1846 42.1429L44.5322 47.2353H53V49H41.9475Z" fill="#F55308"/>
<circle cx="40" cy="40" r="28" stroke="white" stroke-width="2"/>
</svg>
