<svg width="80" height="80" viewBox="0 0 80 80" fill="none" xmlns="http://www.w3.org/2000/svg">
<path fill-rule="evenodd" clip-rule="evenodd" d="M58.5415 35.7569H63.0978L63.097 33.7521H70.5681V39.7658H63.097V37.7612H58.3353C57.4824 42.1309 53.8355 45.7138 49 47.1308V45.0341C53.4181 43.5408 56.5369 39.9672 56.5369 35.807L56.5381 35.7569H12.4376V35.807C12.4376 40.8654 17.0485 45.0568 23 45.6954V47.7098C15.9398 47.0424 10.4319 41.9587 10.4319 35.807V33.7523H58.5415V35.7569ZM68.5643 35.7569H65.1024V37.7614H68.5643V35.7569Z" fill="white"/>
<path d="M18.7429 29.0341L20.16 30.4512L23.5006 27.1106L23.5011 27.111C24.1315 26.4797 24.4859 25.6237 24.4859 24.7315C24.4859 23.8393 24.1315 22.9833 23.5011 22.3521L21.8312 20.6822C21.301 20.1506 21.301 19.2898 21.8312 18.7582L25.1718 15.4175L23.7543 14L20.4137 17.3406C19.7832 17.972 19.4288 18.8279 19.4288 19.7201C19.4288 20.6123 19.7832 21.4683 20.4137 22.0996L22.0835 23.7695C22.6138 24.301 22.6138 25.1619 22.0835 25.6935L18.7429 29.0341Z" fill="white"/>
<path d="M31.7727 29.0341L33.1898 30.4512L36.5304 27.1106L36.5308 27.111C37.1613 26.4797 37.5157 25.6237 37.5157 24.7315C37.5157 23.8393 37.1613 22.9833 36.5308 22.3521L34.861 20.6822C34.3308 20.1506 34.3308 19.2898 34.861 18.7582L38.2016 15.4175L36.7841 14L33.4435 17.3406C32.813 17.972 32.4586 18.8279 32.4586 19.7201C32.4586 20.6123 32.813 21.4683 33.4435 22.0996L35.1133 23.7695C35.6436 24.301 35.6436 25.1619 35.1133 25.6935L31.7727 29.0341Z" fill="white"/>
<path d="M44.8022 29.0341L46.2193 30.4512L49.5599 27.1106L49.5604 27.111C50.1908 26.4797 50.5452 25.6237 50.5452 24.7315C50.5452 23.8393 50.1908 22.9833 49.5604 22.3521L47.8905 20.6822C47.3603 20.1506 47.3603 19.2898 47.8905 18.7582L51.2312 15.4175L49.8137 14L46.473 17.3406C45.8426 17.972 45.4882 18.8279 45.4882 19.7201C45.4882 20.6123 45.8426 21.4683 46.473 22.0996L48.1429 23.7695C48.6731 24.301 48.6731 25.1619 48.1429 25.6935L44.8022 29.0341Z" fill="white"/>
<path d="M67.5616 56.8049V53.798H53.5296V49.7889H47.5159V51.7934H51.525V53.798H36.4908V49.7889H34.4862V53.798H19.4519V51.7934H23.4611V49.7889H17.4474V53.798H10.4314V66.8277H67.5616V62.8186C68.6359 62.8186 69.6283 62.2454 70.1657 61.3151C70.7026 60.3849 70.7026 59.2385 70.1657 58.3083C69.6283 57.378 68.6359 56.8049 67.5616 56.8049ZM65.557 64.8231H12.436V55.8026H65.557V64.8231ZM67.5616 60.814V58.8094C68.1151 58.8094 68.5638 59.2582 68.5638 59.8117C68.5638 60.3652 68.1151 60.814 67.5616 60.814Z" fill="white"/>
<path d="M23 45.6954C23.5178 45.7509 24.0458 45.7796 24.5818 45.7796L44.3927 45.7796C46.0226 45.7796 47.5785 45.5145 49 45.0341V47.1307C47.5556 47.554 46.0052 47.784 44.3915 47.784L24.5807 47.784C24.0465 47.784 23.519 47.7588 23 47.7097L23 45.6954Z" fill="#F55308"/>
</svg>
