<svg width="80" height="80" viewBox="0 0 80 80" fill="none" xmlns="http://www.w3.org/2000/svg">
<mask id="path-1-outside-1_411_2632" maskUnits="userSpaceOnUse" x="19.8005" y="10.0007" width="42" height="60" fill="black">
<rect fill="white" x="19.8005" y="10.0007" width="42" height="60"/>
<path fill-rule="evenodd" clip-rule="evenodd" d="M37.1382 22.5176C38.012 18.565 41.2548 14.1292 44.455 11.0073C44.8572 10.9428 45.268 11.3186 45.2374 11.7236C45.0532 14.2214 45.4561 16.4167 46.2437 18.4568L44.9324 18.4568C44.3853 16.8587 44.0447 15.162 43.9893 13.326C40.7082 16.8976 39.0476 19.8958 38.4486 22.7914C37.7836 26.0078 38.2971 29.2092 39.1255 33.1214C39.236 33.6342 38.5591 34.1121 38.1107 33.8383C35.043 31.91 32.6546 29.0299 31.9569 24.4995C25.536 30.5369 21.5526 39.331 21.5526 47.7096C21.5526 56.634 26.14 62.2948 33.3521 66.6611C33.1789 66.0204 33.0561 65.325 33.0561 64.5742C33.0561 59.7182 36.0397 54.8632 40.2039 52.8949C40.3875 52.8059 40.6122 52.8059 40.7958 52.8949C44.9633 54.8618 47.9431 59.7159 47.9431 64.5737C47.9431 65.3085 47.8152 65.9878 47.6472 66.6187C54.8539 62.2216 59.4467 56.3661 59.4467 47.4347C59.442 47.0786 59.7663 46.7507 60.1236 46.7507C60.4814 46.7507 60.8057 47.0781 60.8005 47.4347C60.8005 57.5799 55.1461 64.3095 46.6323 68.9382C46.1338 69.205 45.4579 68.5619 45.7019 68.0528C46.1758 67.0117 46.5903 65.8723 46.5903 64.5743C46.5903 60.4095 43.9422 56.1346 40.5003 54.329C37.0613 56.1355 34.4103 60.4123 34.4103 64.5743C34.4103 65.8779 34.8215 67.0099 35.2982 68.0528C35.5423 68.5619 34.8668 69.205 34.3679 68.9382C25.8738 64.3136 20.1997 57.8455 20.1997 47.7093C20.1997 38.507 24.682 28.9274 31.936 22.6229C32.3136 22.2936 33.0236 22.5877 33.0566 23.0868C33.3441 27.3284 35.0939 29.8466 37.5399 31.7303C36.9154 28.4956 36.518 25.5158 37.1382 22.5176Z"/>
</mask>
<path fill-rule="evenodd" clip-rule="evenodd" d="M37.1382 22.5176C38.012 18.565 41.2548 14.1292 44.455 11.0073C44.8572 10.9428 45.268 11.3186 45.2374 11.7236C45.0532 14.2214 45.4561 16.4167 46.2437 18.4568L44.9324 18.4568C44.3853 16.8587 44.0447 15.162 43.9893 13.326C40.7082 16.8976 39.0476 19.8958 38.4486 22.7914C37.7836 26.0078 38.2971 29.2092 39.1255 33.1214C39.236 33.6342 38.5591 34.1121 38.1107 33.8383C35.043 31.91 32.6546 29.0299 31.9569 24.4995C25.536 30.5369 21.5526 39.331 21.5526 47.7096C21.5526 56.634 26.14 62.2948 33.3521 66.6611C33.1789 66.0204 33.0561 65.325 33.0561 64.5742C33.0561 59.7182 36.0397 54.8632 40.2039 52.8949C40.3875 52.8059 40.6122 52.8059 40.7958 52.8949C44.9633 54.8618 47.9431 59.7159 47.9431 64.5737C47.9431 65.3085 47.8152 65.9878 47.6472 66.6187C54.8539 62.2216 59.4467 56.3661 59.4467 47.4347C59.442 47.0786 59.7663 46.7507 60.1236 46.7507C60.4814 46.7507 60.8057 47.0781 60.8005 47.4347C60.8005 57.5799 55.1461 64.3095 46.6323 68.9382C46.1338 69.205 45.4579 68.5619 45.7019 68.0528C46.1758 67.0117 46.5903 65.8723 46.5903 64.5743C46.5903 60.4095 43.9422 56.1346 40.5003 54.329C37.0613 56.1355 34.4103 60.4123 34.4103 64.5743C34.4103 65.8779 34.8215 67.0099 35.2982 68.0528C35.5423 68.5619 34.8668 69.205 34.3679 68.9382C25.8738 64.3136 20.1997 57.8455 20.1997 47.7093C20.1997 38.507 24.682 28.9274 31.936 22.6229C32.3136 22.2936 33.0236 22.5877 33.0566 23.0868C33.3441 27.3284 35.0939 29.8466 37.5399 31.7303C36.9154 28.4956 36.518 25.5158 37.1382 22.5176Z" fill="white"/>
<path d="M44.455 11.0073L44.4076 10.711L44.3136 10.7261L44.2456 10.7925L44.455 11.0073ZM37.1382 22.5176L36.8453 22.4529L36.8444 22.4568L37.1382 22.5176ZM45.2374 11.7236L44.9382 11.701L44.9382 11.7016L45.2374 11.7236ZM46.2437 18.4568L46.2437 18.7568L46.6811 18.7568L46.5236 18.3487L46.2437 18.4568ZM44.9324 18.4568L44.6485 18.5539L44.718 18.7568L44.9324 18.7568L44.9324 18.4568ZM43.9893 13.326L44.2891 13.317L44.2669 12.5804L43.7683 13.1231L43.9893 13.326ZM38.4486 22.7914L38.1549 22.7306L38.1549 22.7307L38.4486 22.7914ZM39.1255 33.1214L38.832 33.1835L38.8322 33.1846L39.1255 33.1214ZM38.1107 33.8383L37.951 34.0924L37.9543 34.0944L38.1107 33.8383ZM31.9569 24.4995L32.2534 24.4539L32.1667 23.8905L31.7514 24.281L31.9569 24.4995ZM33.3521 66.6611L33.1967 66.9177L33.8371 67.3054L33.6417 66.5828L33.3521 66.6611ZM40.2039 52.8949L40.3321 53.1661L40.3347 53.1649L40.2039 52.8949ZM40.7958 52.8949L40.6651 53.1649L40.6678 53.1662L40.7958 52.8949ZM47.9431 64.5737L48.2431 64.5737L47.9431 64.5737ZM47.6472 66.6187L47.3573 66.5415L47.1647 67.2645L47.8034 66.8748L47.6472 66.6187ZM59.4467 47.4347L59.7467 47.4347L59.7467 47.4308L59.4467 47.4347ZM60.8005 47.4347L60.5005 47.4304L60.5005 47.4347L60.8005 47.4347ZM46.6323 68.9382L46.7738 69.2027L46.7756 69.2018L46.6323 68.9382ZM45.7019 68.0528L45.9725 68.1826L45.975 68.1771L45.7019 68.0528ZM40.5003 54.329L40.6397 54.0634L40.5002 53.9902L40.3608 54.0634L40.5003 54.329ZM34.4103 64.5743L34.1103 64.5743L34.1103 64.5743L34.4103 64.5743ZM35.2982 68.0528L35.0253 68.1776L35.0277 68.1825L35.2982 68.0528ZM34.3679 68.9382L34.2244 69.2017L34.2264 69.2028L34.3679 68.9382ZM31.936 22.6229L32.1328 22.8494L32.1332 22.849L31.936 22.6229ZM33.0566 23.0868L32.7573 23.1066L32.7573 23.1071L33.0566 23.0868ZM37.5399 31.7303L37.3569 31.968L37.9847 32.4515L37.8345 31.6735L37.5399 31.7303ZM44.2456 10.7925C41.0295 13.9298 37.7377 18.4158 36.8453 22.4529L37.4311 22.5824C38.2863 18.7142 41.4801 14.3285 44.6645 11.222L44.2456 10.7925ZM45.5365 11.7463C45.5601 11.4346 45.4142 11.154 45.2111 10.9681C45.008 10.7822 44.7158 10.6616 44.4076 10.711L44.5025 11.3035C44.5965 11.2884 44.7108 11.3236 44.806 11.4107C44.9011 11.4978 44.9453 11.6076 44.9382 11.701L45.5365 11.7463ZM46.5236 18.3487C45.7506 16.3465 45.3559 14.1955 45.5365 11.7457L44.9382 11.7016C44.7505 14.2472 45.1616 16.4869 45.9638 18.5648L46.5236 18.3487ZM44.9324 18.7568L46.2437 18.7568L46.2437 18.1568L44.9324 18.1568L44.9324 18.7568ZM43.6894 13.3351C43.7458 15.2034 44.0926 16.9298 44.6485 18.5539L45.2162 18.3596C44.6781 16.7877 44.3436 15.1206 44.2891 13.317L43.6894 13.3351ZM38.7424 22.8522C39.3266 20.0283 40.9504 17.0774 44.2102 13.529L43.7683 13.1231C40.466 16.7178 38.7687 19.7633 38.1549 22.7306L38.7424 22.8522ZM39.419 33.0592C38.5905 29.1465 38.0914 26.0009 38.7424 22.8521L38.1549 22.7307C37.4758 26.0148 38.0037 29.2719 38.832 33.1835L39.419 33.0592ZM37.9543 34.0944C38.3117 34.3126 38.725 34.2146 39.0008 34.0199C39.2764 33.8252 39.5071 33.4681 39.4188 33.0582L38.8322 33.1846C38.8544 33.2874 38.8019 33.4258 38.6546 33.5298C38.5074 33.6338 38.3581 33.6379 38.267 33.5823L37.9543 34.0944ZM31.6604 24.5452C32.3732 29.1737 34.8208 32.1246 37.951 34.0923L38.2703 33.5844C35.2652 31.6953 32.9359 28.8861 32.2534 24.4539L31.6604 24.5452ZM21.8526 47.7096C21.8526 39.4199 25.7971 30.7031 32.1624 24.7181L31.7514 24.281C25.2748 30.3707 21.2526 39.242 21.2526 47.7096L21.8526 47.7096ZM33.5075 66.4044C29.9251 64.2356 27.0137 61.7566 24.9975 58.7284C22.984 55.7041 21.8526 52.1164 21.8526 47.7096L21.2526 47.7096C21.2526 52.2272 22.4149 55.9321 24.4981 59.0609C26.5786 62.1857 29.5671 64.7203 33.1967 66.9177L33.5075 66.4044ZM32.7561 64.5742C32.7561 65.358 32.8843 66.0803 33.0625 66.7394L33.6417 66.5828C33.4734 65.9604 33.3561 65.292 33.3561 64.5742L32.7561 64.5742ZM40.0757 52.6236C35.8004 54.6446 32.7561 59.6093 32.7561 64.5742L33.3561 64.5742C33.3561 59.8271 36.2791 55.0819 40.3321 53.1661L40.0757 52.6236ZM40.9266 52.6248C40.6604 52.4959 40.3394 52.4959 40.0732 52.6248L40.3347 53.1649C40.4357 53.1159 40.5641 53.1159 40.6651 53.1649L40.9266 52.6248ZM48.2431 64.5737C48.2431 59.6071 45.2028 54.6431 40.9239 52.6236L40.6678 53.1662C44.7238 55.0805 47.6431 59.8246 47.6431 64.5737L48.2431 64.5737ZM47.9371 66.6959C48.1091 66.0501 48.2431 65.3434 48.2431 64.5737L47.6431 64.5737C47.6431 65.2735 47.5213 65.9255 47.3573 66.5415L47.9371 66.6959ZM59.1467 47.4347C59.1467 56.2322 54.6367 62.0027 47.4909 66.3626L47.8034 66.8748C55.0712 62.4405 59.7467 56.5001 59.7467 47.4347L59.1467 47.4347ZM60.1236 46.4507C59.5998 46.4507 59.1398 46.9146 59.1467 47.4387L59.7467 47.4308C59.7442 47.2426 59.9328 47.0507 60.1236 47.0507L60.1236 46.4507ZM61.1004 47.4391C61.1081 46.9139 60.6475 46.4507 60.1236 46.4507L60.1236 47.0507C60.3152 47.0507 60.5032 47.2424 60.5005 47.4304L61.1004 47.4391ZM46.7756 69.2018C55.3531 64.5384 61.1005 57.7227 61.1005 47.4347L60.5005 47.4347C60.5005 57.437 54.9392 64.0805 46.489 68.6747L46.7756 69.2018ZM45.4314 67.9232C45.2334 68.3361 45.4248 68.7592 45.6819 69.0038C45.939 69.2485 46.3707 69.4185 46.7738 69.2027L46.4907 68.6737C46.3954 68.7247 46.2399 68.7065 46.0955 68.5691C45.951 68.4316 45.9264 68.2786 45.9724 68.1825L45.4314 67.9232ZM46.2903 64.5743C46.2903 65.8078 45.8969 66.9003 45.4289 67.9286L45.975 68.1771C46.4548 67.123 46.8903 65.9367 46.8903 64.5743L46.2903 64.5743ZM40.361 54.5947C43.7032 56.348 46.2903 60.52 46.2903 64.5743L46.8903 64.5743C46.8903 60.299 44.1812 55.9212 40.6397 54.0634L40.361 54.5947ZM34.7103 64.5743C34.7103 60.5229 37.3002 56.3489 40.6398 54.5946L40.3608 54.0634C36.8224 55.9222 34.1103 60.3016 34.1103 64.5743L34.7103 64.5743ZM35.5711 67.9281C35.1006 66.8988 34.7103 65.8136 34.7103 64.5743L34.1103 64.5743C34.1103 65.9422 34.5424 67.121 35.0254 68.1776L35.5711 67.9281ZM34.2264 69.2028C34.6297 69.4184 35.0613 69.2486 35.3185 69.0037C35.5756 68.7591 35.7667 68.336 35.5687 67.9232L35.0277 68.1825C35.0738 68.2787 35.0492 68.4317 34.9048 68.5691C34.7606 68.7065 34.605 68.7248 34.5093 68.6737L34.2264 69.2028ZM19.8997 47.7093C19.8997 57.9923 25.6713 64.5449 34.2244 69.2017L34.5113 68.6748C26.0764 64.0822 20.4997 57.6988 20.4997 47.7093L19.8997 47.7093ZM31.7392 22.3965C24.423 28.7551 19.8997 38.4158 19.8997 47.7093L20.4997 47.7093C20.4997 38.5981 24.941 29.0998 32.1328 22.8494L31.7392 22.3965ZM33.3559 23.067C33.3298 22.6716 33.0414 22.3917 32.7403 22.267C32.4391 22.1423 32.0374 22.1365 31.7388 22.3968L32.1332 22.849C32.2123 22.7801 32.3543 22.7566 32.5108 22.8214C32.6672 22.8862 32.7504 23.0028 32.7573 23.1066L33.3559 23.067ZM37.7229 31.4927C35.3386 29.6564 33.637 27.2145 33.3559 23.0665L32.7573 23.1071C33.0511 27.4422 34.8492 30.0368 37.3569 31.968L37.7229 31.4927ZM36.8444 22.4568C36.2113 25.5174 36.6199 28.5476 37.2453 31.7872L37.8345 31.6735C37.2109 28.4436 36.8247 25.5142 37.432 22.5784L36.8444 22.4568Z" fill="white" mask="url(#path-1-outside-1_411_2632)"/>
<mask id="path-3-outside-2_411_2632" maskUnits="userSpaceOnUse" x="44.1333" y="17.755" width="17" height="26" fill="black">
<rect fill="white" x="44.1333" y="17.755" width="17" height="26"/>
<path fill-rule="evenodd" clip-rule="evenodd" d="M46.2438 18.4568L44.9324 18.4568C46.0114 21.6086 47.8932 24.3764 49.9736 27.0712C50.3317 27.5351 50.6941 27.9984 51.0575 28.4632C54.2111 32.4962 57.4489 36.6369 58.7919 42.1868C58.8495 42.5542 59.2574 42.8257 59.6199 42.7387C59.9824 42.6511 60.2203 42.2235 60.1032 41.8707C58.6827 36.001 55.3032 31.6846 52.1489 27.6557C51.7792 27.1836 51.4127 26.7154 51.0527 26.2492C49.0795 23.6932 47.3095 21.2171 46.2438 18.4568Z"/>
</mask>
<path fill-rule="evenodd" clip-rule="evenodd" d="M46.2438 18.4568L44.9324 18.4568C46.0114 21.6086 47.8932 24.3764 49.9736 27.0712C50.3317 27.5351 50.6941 27.9984 51.0575 28.4632C54.2111 32.4962 57.4489 36.6369 58.7919 42.1868C58.8495 42.5542 59.2574 42.8257 59.6199 42.7387C59.9824 42.6511 60.2203 42.2235 60.1032 41.8707C58.6827 36.001 55.3032 31.6846 52.1489 27.6557C51.7792 27.1836 51.4127 26.7154 51.0527 26.2492C49.0795 23.6932 47.3095 21.2171 46.2438 18.4568Z" fill="#F55308"/>
<path d="M44.9324 18.4568L44.9324 18.1568L44.5126 18.1568L44.6486 18.5539L44.9324 18.4568ZM46.2438 18.4568L46.5236 18.3487L46.4495 18.1568L46.2438 18.1568L46.2438 18.4568ZM49.9736 27.0712L49.7361 27.2545L49.7361 27.2545L49.9736 27.0712ZM51.0575 28.4632L51.2938 28.2784L51.2938 28.2784L51.0575 28.4632ZM58.7919 42.1868L59.0883 42.1404L59.0864 42.1282L59.0835 42.1163L58.7919 42.1868ZM59.6199 42.7387L59.6899 43.0304L59.6903 43.0303L59.6199 42.7387ZM60.1032 41.8707L59.8116 41.9412L59.8146 41.9533L59.8185 41.9652L60.1032 41.8707ZM52.1489 27.6557L52.3851 27.4708L52.1489 27.6557ZM51.0527 26.2492L51.2902 26.0659L51.0527 26.2492ZM44.9324 18.7568L46.2438 18.7568L46.2438 18.1568L44.9324 18.1568L44.9324 18.7568ZM44.6486 18.5539C45.744 21.7538 47.6509 24.5534 49.7361 27.2545L50.2111 26.8878C48.1356 24.1994 46.2787 21.4633 45.2163 18.3596L44.6486 18.5539ZM49.7361 27.2545C50.0949 27.7192 50.4578 28.1833 50.8212 28.648L51.2938 28.2784C50.9303 27.8135 50.5685 27.3509 50.211 26.8878L49.7361 27.2545ZM50.8212 28.648C53.9795 32.6871 57.1748 36.7797 58.5004 42.2574L59.0835 42.1163C57.723 36.4942 54.4427 32.3054 51.2938 28.2784L50.8212 28.648ZM58.4956 42.2333C58.5394 42.5133 58.713 42.7415 58.9252 42.8828C59.1374 43.0242 59.4147 43.0964 59.6899 43.0304L59.5498 42.4469C59.4626 42.4679 59.3546 42.4479 59.2579 42.3835C59.1611 42.319 59.102 42.2277 59.0883 42.1404L58.4956 42.2333ZM59.6903 43.0303C59.9658 42.9638 60.1795 42.7729 60.3035 42.5501C60.4275 42.3273 60.4772 42.0451 60.388 41.7762L59.8185 41.9652C59.8463 42.0491 59.8356 42.1571 59.7793 42.2582C59.723 42.3593 59.6365 42.426 59.5495 42.447L59.6903 43.0303ZM60.3948 41.8001C58.9569 35.8587 55.5355 31.4947 52.3851 27.4708L51.9126 27.8407C55.0709 31.8745 58.4085 36.1433 59.8116 41.9412L60.3948 41.8001ZM52.3851 27.4708C52.0153 26.9985 51.6494 26.5312 51.2902 26.0659L50.8153 26.4325C51.1759 26.8997 51.5431 27.3687 51.9126 27.8407L52.3851 27.4708ZM51.2902 26.0659C49.3179 23.511 47.5723 21.0648 46.5236 18.3487L45.9639 18.5648C47.0467 21.3694 48.8411 23.8753 50.8153 26.4325L51.2902 26.0659Z" fill="#F55308" mask="url(#path-3-outside-2_411_2632)"/>
</svg>
