<svg width="80" height="80" viewBox="0 0 80 80" fill="none" xmlns="http://www.w3.org/2000/svg">
<g clip-path="url(#clip0_411_1557)">
<path d="M65.7592 46.8105C74.7223 37.8474 74.6603 23.2078 65.621 14.1684C57.9346 6.48195 46.1878 5.09454 37.0531 10.7966C36.6731 11.0366 36.5641 11.5378 36.7979 11.9194C37.0411 12.3015 37.5432 12.4148 37.9229 12.1842C46.4187 6.87889 57.338 8.16952 64.4743 15.3153C72.8792 23.7108 72.9369 37.3285 64.6028 45.6627C56.2687 53.9967 42.6604 53.9391 34.2554 45.5342C25.8504 37.1293 25.7928 23.521 34.1269 15.1868C34.6818 14.6319 35.2651 14.105 35.8668 13.6243C36.2184 13.3469 36.2723 12.8366 35.9825 12.482C35.7022 12.1281 35.1914 12.0699 34.8393 12.3566C34.1915 12.8739 33.5618 13.4473 32.9609 14.0391C28.4841 18.5159 26.2519 24.4233 26.2769 30.3315C26.3019 36.2395 28.5751 42.1658 33.0991 46.6811C42.1567 55.7111 56.7971 55.7732 65.7592 46.8105Z" fill="white"/>
<path d="M58.0911 45.6263C58.3343 46.0084 58.8364 46.1217 59.2161 45.8817C60.3369 45.171 61.3831 44.3304 62.3265 43.3868C65.7582 39.955 67.6338 35.3836 67.6132 30.5063C67.5925 25.6302 65.6782 21.0331 62.2176 17.5729C58.7567 14.1119 54.1693 12.1976 49.2919 12.1769C44.415 12.1563 39.8437 14.0319 36.4114 17.4636C32.9791 20.8954 31.104 25.4668 31.1247 30.3442C31.1453 35.2211 33.0597 39.8084 36.5206 43.2699C39.9816 46.7308 44.569 48.6452 49.4463 48.6658C52.0195 48.6767 54.4972 48.1672 56.8154 47.146C57.2235 46.9621 57.4071 46.4796 57.2287 46.0795C57.0414 45.6698 56.5668 45.4822 56.1587 45.6571C54.0539 46.5865 51.7894 47.0507 49.4488 47.0408C45.0085 47.022 40.8304 45.2766 37.6779 42.1235C34.5248 38.9704 32.7795 34.7923 32.7607 30.3526C32.7419 25.9123 34.4519 21.7488 37.5785 18.6229C40.6952 15.4951 44.8587 13.7849 49.2994 13.8037C53.7397 13.8225 57.9178 15.5679 61.0703 18.721C64.2235 21.8741 65.9688 26.0522 65.9876 30.4919C66.0064 34.9323 64.2963 39.0957 61.1698 42.2216C60.3096 43.0818 59.3562 43.8489 58.3279 44.4945C57.9573 44.7444 57.8479 45.2448 58.0911 45.6263Z" fill="white"/>
<path d="M19.2725 65.4238L32.3325 52.3638L32.9574 52.9887C33.2748 53.3061 33.7948 53.3083 34.1091 52.9936L35.6536 51.449C35.9683 51.1343 35.9661 50.6143 35.6488 50.2973C35.3314 49.98 34.8114 49.9778 34.497 50.2924L33.5257 51.2638L28.5349 46.273L29.5062 45.3016C29.8209 44.9869 29.8187 44.4669 29.5014 44.1499C29.184 43.8326 28.664 43.8304 28.3497 44.1451L26.8051 45.6896C26.648 45.8467 26.5651 46.0508 26.566 46.2646C26.5669 46.4784 26.6511 46.6828 26.81 46.8417L27.4349 47.4665L19.9056 54.9958C19.591 55.3105 19.5932 55.8305 19.9105 56.1475C20.2279 56.4648 20.7479 56.467 21.0622 56.1523L28.5915 48.6231L31.1845 51.2162L20.2602 62.1406L17.6671 59.5475L19.508 57.7066C19.8227 57.3919 19.8205 56.8719 19.5031 56.5549C19.1858 56.2375 18.6657 56.2353 18.3514 56.55L14.3835 60.5179C13.7175 61.1839 13.3774 62.0647 13.3812 62.9567C13.3849 63.8394 13.7231 64.7231 14.4042 65.4041C15.7476 66.7565 17.9311 66.7652 19.2725 65.4238ZM15.5429 64.2563C14.8244 63.5378 14.8195 62.3862 15.532 61.6742L16.5216 60.6845L19.1147 63.2776L18.125 64.2673C17.413 64.9793 16.2515 64.9744 15.5429 64.2563Z" fill="#F55308"/>
</g>
<defs>
<clipPath id="clip0_411_1557">
<rect width="80" height="80" fill="white" transform="translate(80 80) rotate(-180)"/>
</clipPath>
</defs>
</svg>
