<svg width="80" height="80" viewBox="0 0 80 80" fill="none" xmlns="http://www.w3.org/2000/svg">
<g clip-path="url(#clip0_411_3059)">
<path fill-rule="evenodd" clip-rule="evenodd" d="M50.8586 43.2644L50.8205 43.2736C49.7176 39.7169 46.8897 36.613 42.7642 34.3811C38.316 32.0891 33.4207 30.7965 28.4206 30.5931C28.9193 29.8785 29.1383 29.0058 29.0366 28.1405C28.9348 27.2752 28.5186 26.4775 27.8673 25.8988C27.216 25.3201 26.3755 25 25.504 25C24.6324 25 23.792 25.3201 23.1406 25.8988C22.4893 26.4775 22.0731 27.2752 21.9714 28.1405C21.8696 29.0058 22.0886 29.8785 22.5873 30.5931C17.5264 30.8257 12.5745 32.142 8.06573 34.452C3.77752 36.743 1.0182 39.8813 0.145508 43.3213H1.84913C3.78633 36.8951 13.6476 32.1489 25.5137 32.1489L25.5135 32.1134C31.9075 32.1134 37.5986 33.3764 41.9741 35.7683C45.5215 37.7282 48.0521 40.3786 49.0802 43.3213H50.8586V43.2644ZM27.246 27.9264C26.9551 27.228 26.2709 26.7745 25.5135 26.7776C24.4894 26.7826 23.66 27.612 23.6551 28.6367C23.6513 29.3935 24.1054 30.0776 24.8038 30.3692C25.5023 30.6601 26.3081 30.5013 26.8428 29.966C27.3781 29.4306 27.5375 28.6255 27.246 27.9264ZM6.39498 40.0011C8.23112 38.2601 10.371 36.8705 12.7083 35.9016L12.7623 35.9376C13.1561 35.7584 13.6214 35.9135 13.8292 36.2931C13.9917 36.7087 13.8199 37.1807 13.4291 37.396C11.2568 38.2879 9.26755 39.5719 7.55988 41.184C7.40419 41.3322 7.19702 41.4154 6.98177 41.4147C6.76033 41.4172 6.54757 41.3267 6.39498 41.166C6.23928 41.0122 6.1512 40.8025 6.1512 40.5835C6.1512 40.3646 6.23928 40.1549 6.39498 40.0011ZM17.4572 34.1233H17.4566L17.4567 34.1234C16.7535 34.2865 16.0614 34.4943 15.3854 34.7455C15.0145 34.8857 14.7949 35.269 14.8619 35.6598C14.9295 36.0505 15.2645 36.3384 15.6608 36.3464C15.7551 36.3458 15.8488 36.3278 15.9362 36.2931C16.8311 35.978 17.4839 35.8128 17.709 35.7559C17.7635 35.7421 17.7929 35.7347 17.7946 35.733H17.7952C18.0086 35.6902 18.1965 35.5636 18.3169 35.3813C18.4372 35.1995 18.48 34.9768 18.4354 34.7635C18.3194 34.3615 17.9242 34.1072 17.5105 34.168L17.4567 34.1234C17.4569 34.1234 17.4571 34.1233 17.4572 34.1233Z" fill="#F55308"/>
<path fill-rule="evenodd" clip-rule="evenodd" d="M0.145819 43.3214C0.0937199 43.5268 0.0483446 43.7332 0.00976955 43.9406C-0.00325652 44.02 -0.00325652 44.1013 0.00976955 44.1807C-0.0206253 44.4083 0.0476065 44.6378 0.196479 44.8122C0.543223 45.497 1.51274 47.3907 2.67764 49.3205C5.43415 53.838 6.79518 54.4249 7.66601 54.4249H43.3773C44.2668 54.4249 45.6625 53.8115 48.4817 49.1339L58.8593 46.644L58.9393 46.9908C59.0292 47.3604 59.3598 47.621 59.7401 47.6222H59.9355L77.1075 43.5047C78.0795 43.2727 78.9187 42.6611 79.4373 41.8064C79.9689 40.9591 80.1327 39.9318 79.8908 38.9611L79.8914 38.9609C79.6575 37.9895 79.0472 37.151 78.1955 36.6285C77.3432 36.1069 76.3191 35.9444 75.347 36.1776L58.175 40.2945C57.9628 40.3509 57.7792 40.4843 57.6595 40.6679C57.5522 40.8565 57.5175 41.0779 57.5615 41.2907L57.6502 41.6288L50.859 43.2645V43.3214H49.0805C49.0832 43.3291 49.0859 43.3369 49.0886 43.3446H1.84249C1.8448 43.3369 1.84711 43.3291 1.84944 43.3214H0.145819ZM47.2296 47.9868C47.3387 47.7914 47.5267 47.6519 47.745 47.6041L58.4696 45.0349L58.2562 44.1454L58.0342 43.2559L50.6 45.0343C50.4902 45.0907 50.368 45.1211 50.2446 45.1236H2.17118C2.63388 46.0125 3.32737 47.2487 4.10149 48.4576C6.67129 52.7618 7.65817 52.7618 7.65817 52.7618H43.3615C43.3701 52.7618 44.4197 52.7084 47.2296 47.9868ZM77.9801 40.9081H77.9795L77.9799 40.9083C77.6915 41.3902 77.2195 41.7337 76.6725 41.8596L60.3453 45.8258L59.8565 43.7627L59.4477 42.0463L59.3677 41.7083L75.7299 37.7781C76.8688 37.5052 78.0145 38.2049 78.2905 39.3431C78.4269 39.8896 78.3339 40.4677 78.033 40.9441L77.9799 40.9083C77.98 40.9082 77.98 40.9082 77.9801 40.9081Z" fill="white"/>
</g>
<defs>
<clipPath id="clip0_411_3059">
<rect width="80" height="80" fill="white" transform="translate(80 80) rotate(-180)"/>
</clipPath>
</defs>
</svg>
