<svg width="80" height="80" viewBox="0 0 80 80" fill="none" xmlns="http://www.w3.org/2000/svg">
<path d="M41.3729 35.3193C41.2894 33.9146 41.1177 32.7173 40.7388 31.6319C40.3544 30.5281 39.7489 29.5247 38.7937 28.5107C38.397 28.6741 37.9848 28.7805 37.5548 28.8124C37.148 28.8421 36.7938 28.5426 36.7636 28.1427C36.7335 27.7429 37.0382 27.3947 37.445 27.3651C37.9863 27.3248 38.5184 27.0778 39.0358 26.7212C39.1588 26.6361 39.281 26.5449 39.4024 26.4491C39.2725 26.4529 39.1426 26.4567 39.0126 26.4605C37.3816 26.5114 35.7752 26.5609 34.3073 25.7118C33.4435 25.2123 32.7791 25.185 32.1937 25.4715C31.7722 25.6775 31.3584 26.0371 30.93 26.5023C31.1867 26.6103 31.4319 26.7547 31.6515 26.9288C32.0838 27.2724 32.4303 27.7399 32.5889 28.2818C32.6391 28.4552 32.6701 28.6361 32.6778 28.8238C32.9021 28.9348 33.3027 28.9622 33.7118 28.9896C33.9987 29.0093 34.288 29.0283 34.5764 29.0777C34.6406 29.0884 34.7126 29.1066 34.7914 29.1309C35.7172 29.4206 36.199 30.4673 36.3815 31.7125C36.5184 32.646 36.4983 33.7208 36.3799 34.6056C36.4372 34.5745 36.4921 34.5403 36.5447 34.5038C36.8424 34.2955 37.0682 33.9907 37.1935 33.6114C37.318 33.2305 37.7326 33.0207 38.12 33.1431C38.5075 33.2655 38.7209 33.673 38.5964 34.0538C38.4696 34.44 38.2816 34.7843 38.0434 35.0815L37.6714 37.1209C37.6544 37.2152 37.6196 37.3011 37.5709 37.3779C38.0295 37.3292 38.4618 37.2099 38.8787 37.0327C39.7279 36.6717 40.5383 36.0674 41.3751 35.3193L41.3729 35.3193ZM58.9634 53.1019C58.7082 53.1019 58.5017 52.8989 58.5017 52.6481C58.5017 52.3972 58.7082 52.1943 58.9634 52.1943H60.1637V50.6063C60.1637 50.3554 60.3702 50.1525 60.6254 50.1525C60.8806 50.1525 61.0871 50.3554 61.0871 50.6063V52.1943H62.2874C62.5426 52.1943 62.7491 52.3972 62.7491 52.6481C62.7491 52.8989 62.5426 53.1019 62.2874 53.1019H61.0871V56.6602C61.0871 56.911 60.8806 57.114 60.6254 57.114C60.3702 57.114 60.1637 56.911 60.1637 56.6602V53.1019H58.9634ZM9.73475 44.6975C9.53059 44.8465 9.24211 44.8039 9.09053 44.6032C8.93895 44.4025 8.98226 44.119 9.18643 43.97L10.1508 43.2661L9.18643 41.9898C9.03485 41.7891 9.07816 41.5056 9.28233 41.3566C9.48649 41.2076 9.77497 41.2502 9.92655 41.4508L10.8909 42.7264L11.8561 42.0217C12.0603 41.8727 12.3488 41.9153 12.5003 42.116C12.6519 42.3167 12.6086 42.6002 12.4044 42.7492L11.44 43.4531L12.8174 45.276C12.846 45.2167 12.8832 45.1597 12.9296 45.1072C13.1972 44.8062 13.6627 44.7758 13.969 45.0388C14.0811 45.1353 14.1755 45.3086 14.3278 45.5891C14.7462 46.3592 15.7748 48.2542 16.566 49.1194C16.7462 49.3163 17.0146 49.5861 17.3417 49.9145C18.2682 50.8457 19.6371 52.2215 20.5968 53.4926C21.2317 54.3326 21.6865 55.1467 21.7731 55.8378C21.7916 55.84 21.8102 55.8423 21.8288 55.8446C22.299 55.9092 22.7429 56.1509 23.0476 56.5538C23.3507 56.9552 23.4575 57.4417 23.3848 57.9031C23.3732 57.9738 23.3577 58.0445 23.3384 58.1144C23.6377 58.1958 23.9563 58.3425 24.2858 58.5485C24.9269 58.9498 25.6585 59.5937 26.3691 60.401C26.4078 60.3919 26.4473 60.3843 26.4859 60.3766C26.9917 60.2854 27.5114 60.3531 28.0365 60.648C28.1247 60.6974 28.2136 60.7126 28.3026 60.7035C28.4294 60.6898 28.5748 60.6313 28.731 60.5424C29.8246 59.9198 30.0906 59.2965 30.1479 58.74C29.7712 58.7788 29.4201 58.5272 29.3482 58.1547C28.9654 56.1904 28.779 54.6291 29.1146 53.3095C29.4727 51.9017 30.3791 50.8383 32.1764 49.9922C32.376 49.8979 33.0921 49.3886 33.461 48.4856C33.6513 48.0203 33.7363 47.4502 33.5809 46.7805C32.9127 44.4301 33.0264 41.8106 33.7642 38.8385C33.9065 38.2646 34.0294 37.864 34.2924 37.5706L34.2939 37.5721C34.6621 37.1616 35.1037 37.0567 35.7897 37.2323C35.9629 37.2771 36.133 37.3121 36.2985 37.3395C36.222 37.2004 36.1918 37.0362 36.222 36.8689L36.3496 36.1696C36.0588 36.2456 35.751 36.2866 35.4293 36.2889C35.355 36.2889 35.2792 36.2783 35.2042 36.2547C34.8168 36.1338 34.6025 35.7272 34.7247 35.3463C34.7773 35.1829 34.8268 34.9708 34.8701 34.723C35.0132 33.9081 35.0549 32.8325 34.9212 31.9188C34.8137 31.186 34.6288 30.6007 34.3473 30.5125C34.3442 30.5117 34.3442 30.5125 34.3288 30.5102C34.1083 30.473 33.8601 30.4562 33.6149 30.4395C32.8733 30.3894 32.1486 30.3399 31.6088 29.858C31.2994 29.874 31.0055 29.9173 30.7348 30.0298C30.3799 30.1765 30.0218 30.4562 29.6467 30.9762C29.6165 31.0233 29.581 31.0674 29.5384 31.1085C29.2484 31.389 28.7813 31.3852 28.4959 31.1001C28.0296 30.6356 27.8579 29.731 27.9855 28.8112C28.093 28.0328 28.4101 27.1997 28.9344 26.6075C29.8014 25.5106 30.6034 24.632 31.5369 24.175C32.5764 23.6665 33.69 23.6779 35.0543 24.4669C36.1564 25.104 37.5515 25.0606 38.9685 25.0165C39.7264 24.993 40.4897 24.9694 41.2591 25.0386C41.4285 25.0477 41.5955 25.1131 41.7278 25.237C42.0225 25.5129 42.0341 25.9713 41.7541 26.2617C41.2297 26.8021 40.6783 27.3304 40.0906 27.7653C41.0766 28.8644 41.7185 29.9644 42.1393 31.17C42.1764 31.2764 42.2112 31.3828 42.2453 31.4908C42.2785 31.3828 42.3141 31.2764 42.3512 31.17C42.7712 29.9644 43.4131 28.8644 44.3999 27.7653C43.8122 27.3304 43.2608 26.8021 42.7364 26.2617C42.4557 25.972 42.4673 25.5129 42.7627 25.237C42.895 25.1131 43.062 25.0477 43.2314 25.0386C44.0009 24.9694 44.7642 24.993 45.5221 25.0165C46.9389 25.0606 48.334 25.104 49.4362 24.4669C50.7997 23.6787 51.9142 23.6673 52.9536 24.175C53.8878 24.6319 54.6898 25.5106 55.5561 26.6075C56.0804 27.1997 56.3975 28.0321 56.505 28.8112C56.6326 29.731 56.4609 30.6356 55.9946 31.1001C55.7092 31.3851 55.2421 31.389 54.9521 31.1085C54.9103 31.0682 54.874 31.0233 54.8438 30.9762C54.4687 30.457 54.1107 30.1773 53.7557 30.0298C53.485 29.918 53.1903 29.8747 52.8818 29.858C52.3419 30.3399 51.6173 30.3894 50.8756 30.4395C50.6304 30.4562 50.3822 30.473 50.1618 30.5102C50.1455 30.5133 50.1463 30.5117 50.1432 30.5125C49.8624 30.6007 49.6768 31.186 49.5694 31.9188C49.4356 32.8317 49.4773 33.9074 49.6204 34.723C49.6637 34.9716 49.7132 35.1829 49.7658 35.3463C49.8888 35.7271 49.6738 36.1338 49.2863 36.2547C49.2113 36.2783 49.1355 36.2889 49.0613 36.2889C48.7395 36.2866 48.431 36.2463 48.1409 36.1696L48.2686 36.8689C48.2987 37.0362 48.2686 37.2003 48.1928 37.3387C48.3575 37.3113 48.5253 37.2764 48.6978 37.2323C49.3544 37.0643 49.7867 37.1525 50.1455 37.5204C50.1625 37.5364 50.1796 37.5531 50.195 37.5706C50.458 37.8647 50.5809 38.2653 50.7232 38.8385C51.5384 42.1216 51.5678 44.976 50.6212 47.5103C50.4951 48.1617 50.7256 48.6726 51.045 49.0511C51.5051 49.5954 52.1409 49.9101 52.3156 49.9922C54.113 50.839 55.0193 51.9017 55.3774 53.3096C55.7139 54.63 55.5267 56.1914 55.1439 58.1547C55.0712 58.5272 54.7209 58.778 54.3442 58.74C54.4022 59.2965 54.6675 59.9198 55.761 60.5424C55.9172 60.6313 56.0619 60.6898 56.1895 60.7035C56.2784 60.7134 56.3674 60.6974 56.4555 60.648C56.6048 60.5644 56.785 60.5097 56.9884 60.4815C56.9582 60.3592 56.9319 60.2353 56.9087 60.1083C56.8376 59.7176 56.7997 59.3185 56.7997 58.9187C56.7997 58.1007 56.9489 57.3246 57.2111 56.6405C57.4911 55.9122 57.9025 55.2866 58.4044 54.8222C58.7014 54.5477 59.1677 54.5622 59.4469 54.8533C59.7261 55.1452 59.7114 55.6036 59.4152 55.878C59.0757 56.1927 58.7919 56.6306 58.5916 57.152C58.4771 57.45 58.3905 57.7754 58.3379 58.1197L62.8452 58.084C62.7949 57.7716 62.7176 57.4751 62.6155 57.2007C62.426 56.6891 62.1561 56.2551 61.8321 55.9343C61.5452 55.6507 61.5467 55.1916 61.8352 54.9096C62.1236 54.6276 62.5908 54.6291 62.8777 54.9126C63.3518 55.3809 63.7385 55.9966 64.0022 56.7066C64.2496 57.3748 64.3896 58.1281 64.3896 58.9194C64.3896 59.7487 64.2365 60.5347 63.9666 61.2243C64.3324 61.2501 64.6302 61.5405 64.6495 61.9099C64.7415 63.5754 62.8483 64.1996 61.2396 64.7301C60.7075 64.9057 60.2149 65.0683 59.9303 65.2303C59.2458 65.6202 58.4067 65.9265 57.5004 65.8429C56.5747 65.7578 55.6289 65.2827 54.789 64.112C54.5416 63.7669 54.373 63.5594 54.1286 63.4028C53.8355 63.2151 53.3885 63.041 52.5942 62.7704C51.578 62.4245 50.7621 61.7571 50.2424 60.8723C49.9168 60.3181 49.7095 59.6826 49.6453 58.9932C49.3607 59.0874 49.0344 59.0038 48.8348 58.7606C48.749 58.6549 48.6972 58.5333 48.6794 58.4086C48.4829 57.0722 48.1937 56.0559 47.8147 55.3353C47.7304 55.5588 47.6245 55.7777 47.5015 55.986C47.3654 56.2163 47.2061 56.4368 47.0282 56.6367C47.0475 56.7553 47.0715 56.9012 47.0947 57.0441C47.336 58.534 47.4698 59.3566 49.2044 60.623C49.3011 60.6937 49.3823 60.788 49.4357 60.9035C49.6051 61.2669 49.4419 61.6964 49.0722 61.8629C48.2803 62.2178 47.5108 62.379 46.7845 62.3478C47.3096 62.9575 47.8371 63.3429 49.148 63.71C50.5293 64.097 51.4334 64.7994 51.9554 65.7282C52.5161 66.7279 52.6012 67.9518 52.3414 69.2988C52.3004 69.5109 52.2253 69.6979 52.1178 69.8431C51.9856 70.0209 51.8147 70.1403 51.6051 70.1889C51.3816 70.2414 51.1573 70.2072 50.9392 70.0749C50.7923 69.986 50.6523 69.8461 50.527 69.65C50.4373 69.5093 50.4064 69.4592 50.3724 69.4037C49.9733 68.7538 49.2943 67.6477 48.3369 67.6181C48.1613 68.6785 47.6114 69.818 46.654 71.3672C46.4437 71.7085 45.9912 71.818 45.6432 71.6112C45.296 71.4045 45.1846 70.9598 45.395 70.6177C46.5527 68.7439 47.0268 67.6135 46.9023 66.5196C46.7793 65.4387 46.0663 64.2362 44.8474 62.3083C45.4762 65.3086 44.7175 67.9182 43.3973 72.4625C43.231 73.0342 43.1568 73.2896 43.1042 73.4705C42.999 73.8384 42.624 74.0596 42.2496 73.9859C41.8746 74.0596 41.4995 73.8384 41.3951 73.4705C41.3425 73.2896 41.2682 73.0342 41.1019 72.4625C39.7818 67.919 39.0231 65.3086 39.6519 62.3083C38.433 64.236 37.7208 65.4386 37.597 66.5196C37.4725 67.6135 37.9466 68.7431 39.1043 70.6177C39.3147 70.959 39.2033 71.4045 38.8561 71.6112C38.5088 71.818 38.0556 71.7085 37.8452 71.3672C36.8878 69.818 36.3379 68.6786 36.1624 67.6181C35.2057 67.6477 34.5259 68.7537 34.1269 69.4037C34.0929 69.4592 34.0619 69.5101 33.9722 69.65C33.8469 69.8461 33.707 69.9852 33.56 70.0749C33.3419 70.2072 33.1177 70.2414 32.8942 70.1889C32.6838 70.1395 32.5129 70.0209 32.3814 69.8431C32.2739 69.6979 32.1989 69.5109 32.1579 69.2988C31.8981 67.9518 31.9831 66.7279 32.5438 65.7282C33.0659 64.7986 33.9692 64.097 35.3512 63.71C36.6621 63.3429 37.1903 62.9575 37.7148 62.3478C36.9878 62.379 36.2183 62.2179 35.4271 61.8629C35.0574 61.6964 34.8942 61.2669 35.0636 60.9035C35.1169 60.788 35.1982 60.693 35.2948 60.623C37.0365 59.3505 37.1834 58.4529 37.4309 56.9324C37.4641 56.7302 37.4982 56.5197 37.5175 56.4049C37.3613 56.1814 37.2213 55.942 37.1022 55.6964C37.0218 55.53 36.9506 55.3589 36.8903 55.1856C36.4031 55.8667 36.0388 56.9211 35.8199 58.4086C35.8022 58.5332 35.7503 58.6549 35.6637 58.7605C35.4642 59.0038 35.1378 59.0874 34.8532 58.9931C34.7882 59.6834 34.5818 60.3181 34.2562 60.8722C33.7365 61.7571 32.9206 62.4245 31.9043 62.7704C31.1101 63.041 30.6631 63.2151 30.3699 63.4028C30.1248 63.5594 29.957 63.7669 29.7095 64.112C29.5363 64.353 29.2795 64.6145 28.9663 64.8699C28.9964 64.9953 29.0196 65.1162 29.0359 65.2325C29.1442 65.2325 29.2524 65.2393 29.3599 65.2546C29.9268 65.3321 30.462 65.6149 30.8409 66.0862C30.8734 66.1211 30.9013 66.1591 30.9252 66.1979C31.2733 66.689 31.3939 67.2735 31.3057 67.8292C31.2153 68.4031 30.902 68.9451 30.3885 69.3206L30.387 69.3214C29.8735 69.6962 29.2563 69.8337 28.6732 69.7539C28.1063 69.6764 27.5711 69.3936 27.1922 68.9223C27.1597 68.8874 27.1318 68.8493 27.1079 68.8106C26.7599 68.3195 26.6392 67.735 26.7274 67.1793C26.7444 67.0736 26.7684 66.9695 26.8001 66.8668C26.5162 66.7384 26.2139 66.5567 25.9022 66.3294C25.8797 66.3135 25.8589 66.296 25.8388 66.2777C25.1667 66.3583 24.5047 66.2777 23.9324 65.9509C23.2433 65.5579 22.7081 65.1337 22.3431 64.5507C21.9727 63.9592 21.801 63.2455 21.8536 62.2937C21.8644 62.0793 21.9688 61.8923 22.1266 61.7669C21.9193 61.3625 21.76 60.9824 21.6517 60.6373C21.5148 60.2017 21.4545 59.8026 21.4731 59.453C21.412 59.4507 21.3516 59.4454 21.2913 59.437C20.8435 59.3754 20.4205 59.1542 20.1181 58.7855C20.0833 58.7483 20.0539 58.7088 20.0284 58.667C19.7585 58.2778 19.6657 57.8163 19.7353 57.3785C19.7384 57.3602 19.7415 57.3413 19.7453 57.323C19.0973 57.0418 18.4352 56.3781 17.7995 55.5366C16.8367 54.2626 15.8924 52.5789 15.2537 51.4385C15.01 51.0037 14.8097 50.6465 14.7069 50.48C14.0998 49.4963 12.5453 47.9745 11.9135 47.3557C11.6831 47.1307 11.5408 46.9915 11.4797 46.857C11.3126 46.4921 11.4774 46.0626 11.8494 45.8977C11.9313 45.8612 12.0156 45.8414 12.1007 45.8354L10.7071 43.9912L9.74189 44.6959L9.73475 44.6975ZM19.4128 54.3553C18.7678 53.5017 17.9001 52.572 17.1283 51.78C17.6773 52.7362 18.3332 53.8225 18.9766 54.6746C19.6162 55.5207 20.1684 56.1455 20.3354 56.0239C20.5017 55.9023 20.0524 55.2021 19.4128 54.3553ZM21.627 57.2803C21.5296 57.2667 21.426 57.2902 21.3394 57.3533C21.2527 57.4164 21.2001 57.5069 21.1855 57.6004C21.1708 57.6908 21.1916 57.7866 21.2512 57.8649C21.3092 57.9417 21.3958 57.988 21.4878 58.001C21.5853 58.0147 21.6889 57.9911 21.7755 57.928C21.8621 57.8649 21.9147 57.7744 21.9294 57.681C21.9441 57.5897 21.9232 57.4947 21.8637 57.4157C21.8057 57.3389 21.7191 57.2933 21.627 57.2803ZM25.026 61.0978C24.4839 60.5125 23.9526 60.0549 23.4947 59.7683C23.1521 59.5539 22.9371 59.4316 22.9194 59.4445C22.8629 59.4855 22.9139 59.7645 23.0547 60.2122C23.214 60.72 23.5172 61.3342 23.958 62.007C24.3076 61.655 24.6927 61.3479 25.026 61.0978ZM29.1528 66.691C28.937 66.6614 28.7081 66.7123 28.5179 66.8514C28.3268 66.9905 28.2108 67.1905 28.1776 67.4003C28.1466 67.5941 28.1869 67.7971 28.3036 67.9696C28.3214 67.9909 28.3384 68.0129 28.3539 68.0365C28.4869 68.1946 28.6733 68.2904 28.8705 68.3178C29.0731 68.3459 29.2874 68.3018 29.4707 68.1817C29.4923 68.1635 29.5155 68.1467 29.5403 68.1315C29.7112 67.9939 29.8148 67.8062 29.8465 67.6085C29.879 67.4018 29.8318 67.1844 29.6965 67.005C29.5619 66.8271 29.3647 66.7207 29.1543 66.6918L29.1528 66.691ZM62.9071 58.9876L58.2752 59.0248C58.2807 59.319 58.3077 59.5965 58.3549 59.8534C58.4052 60.127 58.4771 60.3893 58.5676 60.6348C59.1166 60.7793 59.6843 61.0035 60.1932 61.2749C60.6417 61.5143 61.0578 61.7918 61.3865 62.0845C61.4228 62.1164 61.4576 62.1491 61.4917 62.181C61.8389 61.9492 62.1467 61.5896 62.3865 61.1396L62.388 61.1403C62.7051 60.5459 62.897 59.8024 62.9071 58.9876ZM26.7295 46.2504C26.7434 46.2397 26.7581 46.2299 26.7728 46.2207C27.1301 45.976 27.4982 45.6993 27.8834 45.3929C28.2005 45.1421 28.6645 45.1915 28.9197 45.5039C29.1749 45.8156 29.1246 46.2717 28.8068 46.5225C28.4224 46.8274 28.0512 47.1079 27.6869 47.3602C27.3219 47.8414 27.0543 48.4533 26.8223 48.9832C26.7643 49.1154 26.7086 49.2431 26.6522 49.3663C26.9182 49.3891 27.1804 49.3929 27.4379 49.3792C28.3134 49.3321 29.1192 49.0698 29.7589 48.6008C30.3869 48.1402 30.8594 47.475 31.0844 46.613C31.2066 46.1455 31.2577 45.6149 31.2252 45.0204C31.2043 44.6206 31.5175 44.28 31.9235 44.2595C32.3303 44.239 32.6768 44.5469 32.6977 44.9459C32.7387 45.6833 32.6706 46.3583 32.5113 46.9694C32.1958 48.178 31.5291 49.1139 30.6428 49.7636C29.7682 50.4052 28.6824 50.7625 27.5137 50.8256C26.8123 50.8636 26.0768 50.7921 25.3375 50.6104C25.1898 50.5831 25.049 50.5109 24.9376 50.3953C24.6585 50.1034 24.6732 49.645 24.9694 49.3706C25.0807 49.2673 25.2254 48.9571 25.3924 48.5778C25.1163 48.672 24.8363 48.7473 24.5494 48.8028C23.0676 49.0886 21.4767 48.8264 19.4242 47.8541C19.2912 47.7979 19.1744 47.7021 19.0917 47.5721C18.8767 47.2323 18.9826 46.7846 19.3283 46.5732C19.5309 46.4493 19.807 46.1331 20.1334 45.7591C20.1991 45.6839 20.2672 45.6063 20.336 45.5273C20.2602 45.5273 20.1875 45.5242 20.1171 45.5189C19.3275 45.4528 18.5364 45.1882 17.8031 44.8142C16.9872 44.3977 16.2378 43.8428 15.6447 43.2802C15.5279 43.1837 15.4405 43.0499 15.4026 42.8926C15.3083 42.5026 15.5542 42.1111 15.9509 42.0184C16.2286 41.9538 16.6415 41.7105 17.1295 41.4239C17.2084 41.3776 17.2889 41.3297 17.3716 41.2818C17.3515 41.2749 17.3314 41.2681 17.3121 41.2613C16.5665 40.9884 15.8775 40.5254 15.2758 39.9735C14.5898 39.3449 14.0098 38.5939 13.5891 37.8816C13.5218 37.7676 13.4862 37.6345 13.4909 37.4932C13.5056 37.0933 13.8466 36.7809 14.2534 36.7953C14.5481 36.8067 15.0368 36.7003 15.6161 36.5734C16.3408 36.4153 17.186 36.2313 18.0948 36.169L17.8404 35.9979C17.8195 35.9835 17.7986 35.9683 17.7785 35.9516C17.0121 35.3146 16.5442 34.4092 16.2937 33.4257C16.0083 32.3037 16.0075 31.0646 16.1691 30.0262C16.1815 29.8764 16.2418 29.729 16.3509 29.6073C16.62 29.3063 17.0871 29.2774 17.3934 29.542C17.8319 29.9213 19.1281 30.572 20.4784 31.2333C20.3214 30.8183 20.2193 30.3774 20.1628 29.9251C20.0167 28.7567 20.1775 27.5046 20.4753 26.4869L20.4776 26.4876C20.5147 26.3592 20.5882 26.2391 20.698 26.144C21.0027 25.8795 21.4683 25.9069 21.7374 26.2064C22.7382 27.3139 24.052 28.499 25.3661 29.6849C27.6375 31.7342 29.9088 33.7835 30.83 35.6825C31.1254 36.2921 31.2314 36.7923 31.1974 37.297C31.1649 37.782 31.0048 38.2214 30.7651 38.7474C30.2724 39.8276 30.0304 40.4403 30.1479 40.7604C30.2639 41.0751 30.8292 41.3632 31.9615 41.8208C32.3381 41.9728 32.5175 42.3962 32.3629 42.7657C32.2082 43.1358 31.7774 43.3122 31.4015 43.1602C29.8602 42.5376 29.059 42.061 28.762 41.2537C28.4674 40.4517 28.7674 39.5859 29.4202 38.1568C29.5934 37.7775 29.7071 37.478 29.7256 37.2059C29.7427 36.9535 29.6769 36.6768 29.4975 36.3066C28.6978 34.657 26.5331 32.7041 24.3685 30.7513C23.4258 29.9007 22.4831 29.0501 21.6332 28.2056C21.576 28.7164 21.5682 29.2439 21.6316 29.7495C21.7206 30.4625 21.9503 31.1215 22.3803 31.5966L25.5411 34.3294C25.8473 34.594 25.8767 35.0531 25.6076 35.3541C25.3384 35.6551 24.8713 35.684 24.5651 35.4195L23.3292 34.3514C22.7701 33.9706 21.5497 33.3747 20.2977 32.7627C19.3132 32.2815 18.3093 31.7912 17.5368 31.3587C17.5306 31.9296 17.5879 32.5202 17.7278 33.0736C17.9057 33.773 18.2166 34.4016 18.7062 34.822L21.5561 36.7338C21.7317 36.8136 21.9065 36.9033 22.0812 37.0036C22.2467 37.0979 22.3612 37.2454 22.4146 37.4119C22.5375 37.6414 22.5306 37.9295 22.3713 38.1591C22.1416 38.4897 21.683 38.5749 21.3465 38.3491L20.84 38.0093C19.1378 37.2887 17.2917 37.6916 15.9359 37.9873C15.7882 38.0192 15.6451 38.0511 15.5067 38.0793C15.741 38.3719 16.0016 38.6547 16.2832 38.9132C16.7565 39.3472 17.2824 39.7052 17.8284 39.9059C18.4277 40.1256 19.6543 40.0557 20.8128 39.9424C20.9009 39.9303 20.9899 39.9196 21.0796 39.9105C21.1067 39.9082 21.1337 39.9067 21.1608 39.9067C21.3936 39.8824 21.621 39.8565 21.8367 39.833C22.2343 39.7889 22.5954 39.7486 22.856 39.7265C23.2628 39.6939 23.6194 39.9911 23.6526 40.3909C23.6859 40.7908 23.3835 41.1412 22.9767 41.1739C22.6751 41.199 22.3526 41.2347 21.9976 41.2742C21.6735 41.3107 21.3248 41.3495 20.9659 41.3837C19.7556 41.5684 18.7178 42.1788 17.8879 42.6676C17.7463 42.7512 17.6094 42.8318 17.4764 42.9071C17.7904 43.1351 18.1284 43.3464 18.481 43.5266C19.0526 43.8185 19.6566 44.0237 20.2405 44.0724C21.0788 44.1423 22.8026 43.4559 24.0804 42.9474C24.4036 42.8189 24.6975 42.7018 25.0347 42.5787C25.416 42.4388 25.8398 42.6296 25.9821 43.0044C26.1244 43.3791 25.9303 43.7957 25.549 43.9356C25.3572 44.0055 25.0131 44.1423 24.6349 44.2928C24.3603 44.4023 24.0664 44.5194 23.7633 44.6357C23.7331 44.6547 23.7014 44.6722 23.6674 44.6866C22.6032 45.1571 21.8499 46.0207 21.2559 46.7025C21.1778 46.7914 21.1028 46.8781 21.0286 46.9617C22.3031 47.4451 23.3317 47.5599 24.269 47.3798C25.0934 47.2209 25.8838 46.8279 26.7321 46.2509L26.7295 46.2504ZM38.8196 57.5252C38.5976 58.8493 38.3648 59.7973 37.2465 60.888C37.4662 60.9101 37.6788 60.907 37.883 60.8789C38.3934 60.809 38.8636 60.5756 39.2759 60.1811C39.8543 59.2811 39.9023 59.0013 39.6424 57.3115C39.4731 57.3777 39.2921 57.4392 39.0988 57.497C39.009 57.5236 38.9131 57.5335 38.8196 57.5252ZM36.5281 64.8622C36.2945 64.945 36.037 65.0264 35.7501 65.1069C34.7795 65.3791 34.1639 65.8367 33.8321 66.4273C33.6272 66.793 33.5189 67.2209 33.4934 67.6976C34.0858 66.9138 34.9295 66.143 36.1531 66.156C36.2204 65.731 36.3464 65.3076 36.5281 64.8622ZM41.7406 60.543C40.3393 64.0299 40.8946 66.4509 42.2441 71.126C43.5936 66.4503 44.1497 64.0299 42.7476 60.543L42.7205 60.5658C42.4382 60.8007 42.0283 60.7908 41.7584 60.5582L41.7406 60.543ZM38.1615 54.2703C38.2025 54.5242 38.2984 54.8031 38.4306 55.0775C38.5977 55.4234 38.815 55.7442 39.0493 55.9852C39.4522 55.8339 39.7593 55.6613 40.0098 55.4515C40.238 55.2607 40.4329 55.0266 40.6224 54.7416C40.5164 54.6808 40.4112 54.6192 40.3076 54.5576C39.4894 54.2368 38.7655 54.1258 38.1615 54.2687V54.2703ZM41.92 55.4379C41.6655 55.8331 41.3956 56.1707 41.0631 56.4671C41.0639 56.4785 41.0639 56.4899 41.0639 56.5013C41.067 57.0867 41.1582 57.5549 41.3941 57.9928C41.5758 58.3303 41.8519 58.667 42.2448 59.0387C42.6377 58.667 42.9138 58.331 43.0955 57.9928C43.3314 57.5557 43.4219 57.0867 43.4258 56.5013C43.4258 56.4899 43.4265 56.4785 43.4265 56.4671C43.0816 56.16 42.804 55.8096 42.5418 55.3953L42.5348 55.3983C42.35 55.4964 42.1257 55.5162 41.92 55.4379ZM31.6318 58.1874C31.6565 59.2402 31.6766 60.5409 29.4702 61.7966C29.1454 61.9813 28.8089 62.1075 28.4586 62.1455C28.0704 62.1874 27.686 62.1205 27.3094 61.9084C27.1121 61.7974 26.9265 61.7708 26.7518 61.802C26.5344 61.8407 26.3071 61.9623 26.0805 62.1288C25.6133 62.4732 24.9761 62.965 24.6057 63.5002C24.3644 63.8483 24.2514 64.2269 24.4742 64.5834C24.5361 64.6214 24.6002 64.6594 24.6668 64.6974C25.106 64.9475 25.7441 64.8814 26.3798 64.6662C27.3047 64.3523 28.1585 63.7518 28.4972 63.2782C28.8498 62.7864 29.1051 62.4808 29.5621 62.1881C29.9705 61.9266 30.5033 61.7145 31.4198 61.4029C32.0934 61.1733 32.6332 60.7339 32.975 60.1516C33.296 59.6051 33.446 58.9247 33.3756 58.1638C33.1421 58.0893 32.9116 58.049 32.6788 58.0414C32.3501 58.0308 32.0045 58.0825 31.6318 58.1874ZM34.6851 49.3375C34.105 50.4732 33.1097 51.1558 32.8112 51.2964C31.4632 51.9311 30.7941 52.6867 30.5461 53.6604C30.3226 54.5368 30.4038 55.6346 30.6327 56.989C31.3705 56.7138 32.0511 56.5732 32.7238 56.5945C33.3525 56.615 33.9527 56.7732 34.559 57.0909C34.9735 55.2749 35.6742 54.0814 36.6069 53.4118C36.9851 53.1404 37.3919 52.9565 37.8242 52.8531C36.4716 51.7638 35.4352 50.597 34.6851 49.3375ZM40.9602 53.2554C40.9934 53.2721 41.0243 53.2904 41.0537 53.3117C41.4134 53.5253 41.7892 53.7358 42.1829 53.9434C42.7242 53.6575 43.2339 53.3656 43.7134 53.0692C43.742 53.0487 43.7721 53.0297 43.8039 53.0129C46.3297 51.4326 47.9956 49.6964 48.9251 47.7328C49.0187 47.5344 49.1053 47.3338 49.1842 47.13C49.2383 46.902 49.3188 46.6648 49.4278 46.4193C50.0581 44.309 49.9684 41.9192 49.2878 39.1788C49.1997 38.823 49.1362 38.5889 49.0829 38.5289L49.069 38.5129C49.0558 38.5083 49.1208 38.6186 49.0635 38.6338C47.5361 39.0252 46.2345 38.8785 45.0219 38.3632C44.0443 37.9473 43.1465 37.2959 42.2408 36.4992C41.3352 37.2959 40.4381 37.9473 39.4597 38.3632C38.2471 38.8785 36.9455 39.0252 35.4181 38.6338C35.3516 38.617 35.4514 38.468 35.3988 38.5266L35.3972 38.5281L35.3988 38.5296C35.3454 38.5897 35.282 38.823 35.1938 39.1795C34.3671 42.509 34.3825 45.3215 35.5008 47.7427C36.4529 49.8028 38.2178 51.6135 40.9585 53.2569L40.9602 53.2554ZM46.9175 37.3803C46.8688 37.3043 46.834 37.2176 46.8162 37.1234L46.4442 35.084C46.2052 34.7868 46.0181 34.4416 45.8912 34.0562C45.7667 33.6754 45.9802 33.2672 46.3676 33.1456C46.7551 33.0232 47.1704 33.233 47.2941 33.6138C47.4186 33.9931 47.6452 34.298 47.943 34.5062C47.9956 34.5427 48.0505 34.5769 48.1077 34.6081C47.9894 33.7233 47.9693 32.6485 48.1062 31.715C48.2879 30.4706 48.7705 29.4232 49.6962 29.1334C49.7751 29.1083 49.847 29.0908 49.9112 29.0802C50.1997 29.0315 50.4889 29.0118 50.7758 28.992C51.1849 28.9647 51.5855 28.9373 51.8098 28.8263C51.8176 28.6385 51.8477 28.4576 51.8988 28.2843C52.0565 27.7431 52.403 27.2756 52.8361 26.9312C53.055 26.7571 53.3001 26.6127 53.5577 26.5048C53.1292 26.0403 52.7155 25.6808 52.294 25.474C51.7085 25.1874 51.0442 25.2148 50.1803 25.7142C48.7116 26.5633 47.1062 26.5131 45.475 26.463C45.3451 26.4592 45.2152 26.4546 45.0852 26.4516C45.2066 26.5474 45.3288 26.6386 45.4518 26.7237C45.9684 27.0802 46.5005 27.3273 47.0426 27.3676C47.4494 27.3972 47.7542 27.7454 47.724 28.1452C47.6938 28.545 47.3396 28.8446 46.9328 28.8149C46.5028 28.783 46.0906 28.6758 45.6939 28.5131C44.7388 29.5279 44.134 30.5313 43.7489 31.6343C43.3699 32.7206 43.1982 33.9185 43.1147 35.3249C43.9507 36.0714 44.7597 36.6742 45.6081 37.0353C46.0265 37.2131 46.4596 37.3325 46.9197 37.3811L46.9175 37.3803ZM49.5964 49.5528C48.895 50.6527 47.9716 51.6805 46.806 52.6481C47.2639 52.7712 47.6869 52.9939 48.0751 53.3239C48.9251 54.0452 49.5453 55.2798 49.9343 57.0882C50.5383 56.7728 51.1362 56.6154 51.7634 56.5949C52.437 56.5728 53.1168 56.7142 53.8545 56.9894C54.0842 55.6348 54.1646 54.5378 53.9411 53.6607C53.6928 52.687 53.0246 51.9314 51.676 51.2967C51.437 51.1842 50.5654 50.7517 49.9088 49.9756C49.7974 49.8433 49.6923 49.7025 49.5964 49.5528ZM44.4797 54.3053C44.2694 54.4353 44.0536 54.5645 43.8324 54.6922C44.0327 55.0001 44.2369 55.2509 44.4782 55.4524C44.7481 55.6781 45.0845 55.8621 45.5362 56.021C45.7937 55.8522 46.0334 55.5755 46.2206 55.2593C46.4534 54.8655 46.5903 54.4391 46.5671 54.1046C46.0048 53.9054 45.308 53.9822 44.4797 54.3053ZM31.0703 28.4546C30.9852 28.3071 30.8638 28.1733 30.7223 28.0608C30.5018 27.8852 30.2466 27.7704 30.0077 27.74C29.9736 27.7355 29.9396 27.7332 29.9063 27.7332C29.662 28.0874 29.5073 28.5526 29.4454 29.0042C29.4408 29.0399 29.4361 29.0756 29.4323 29.1106C29.672 28.9335 29.9149 28.7989 30.1616 28.6971C30.4694 28.5701 30.7702 28.4964 31.0703 28.4546ZM57.7149 46.2218C57.7296 46.2309 57.7443 46.2408 57.7582 46.2514C58.6074 46.8284 59.397 47.2214 60.2214 47.3803C61.1587 47.5612 62.1873 47.4456 63.4618 46.9622C63.3875 46.8786 63.3125 46.7919 63.2344 46.703C62.6404 46.0219 61.8872 45.1583 60.823 44.6871C60.7889 44.6719 60.7572 44.6552 60.7271 44.6362C60.4239 44.5199 60.13 44.4028 59.8555 44.2934C59.4773 44.1428 59.1331 44.006 58.9413 43.9361C58.5601 43.7962 58.366 43.3796 58.5083 43.0049C58.6505 42.6301 59.0744 42.4393 59.4556 42.5792C59.7928 42.7023 60.0867 42.8194 60.41 42.9479C61.6876 43.4564 63.4122 44.1428 64.2499 44.0729C64.8338 44.0242 65.4378 43.819 66.0093 43.5271C66.3612 43.3477 66.6999 43.1356 67.0139 42.9076C66.8817 42.8315 66.7448 42.7517 66.6025 42.6681C65.7727 42.1793 64.7348 41.5689 63.5244 41.3842C63.1656 41.3492 62.8176 41.3105 62.4928 41.2747C62.1378 41.2352 61.8153 41.1995 61.5137 41.1744C61.1069 41.1417 60.8045 40.7905 60.8377 40.3914C60.871 39.9916 61.2283 39.6944 61.6343 39.7271C61.8949 39.7483 62.2561 39.7886 62.6536 39.8335C62.8694 39.8578 63.096 39.8829 63.3295 39.9072C63.3566 39.9072 63.3837 39.908 63.4107 39.911C63.5012 39.9201 63.5902 39.9308 63.6776 39.9429C64.8353 40.0562 66.0619 40.1261 66.662 39.9064C67.208 39.7065 67.7339 39.3485 68.2072 38.9137C68.4887 38.6552 68.7493 38.3725 68.9837 38.0798C68.8452 38.0509 68.7029 38.0197 68.5544 37.9878C67.1987 37.6921 65.3526 37.29 63.6504 38.0098L63.1438 38.3496C62.8074 38.5754 62.3488 38.4903 62.1191 38.1596C61.9598 37.93 61.9528 37.6427 62.0758 37.4124C62.1291 37.2467 62.2436 37.0984 62.4091 37.0042C62.5839 36.9038 62.7586 36.8149 62.9342 36.7343L65.7842 34.8225C66.2737 34.4021 66.5846 33.7735 66.7625 33.0741C66.9033 32.5207 66.9597 31.9301 66.9535 31.3592C66.1809 31.7918 65.1771 32.2821 64.1926 32.7632C62.9398 33.3752 61.7194 33.9711 61.1611 34.352L59.9253 35.42C59.619 35.6845 59.1527 35.6556 58.8827 35.3546C58.6136 35.0536 58.643 34.5952 58.9493 34.3299L62.1101 31.5972C62.5401 31.1213 62.7697 30.4622 62.8587 29.75C62.9221 29.2445 62.9144 28.7177 62.8571 28.2061C62.0072 29.0506 61.0645 29.9012 60.1218 30.7518C57.957 32.7047 55.7925 34.6575 54.9928 36.3071C54.8134 36.6773 54.7477 36.954 54.7647 37.2064C54.7833 37.4785 54.8969 37.778 55.0702 38.1573C55.7229 39.5864 56.023 40.4523 55.7283 41.2542C55.4313 42.0615 54.6301 42.5374 53.0888 43.1607C52.7122 43.3127 52.2822 43.1364 52.1275 42.7662C51.9728 42.396 52.1522 41.9733 52.5289 41.8213C53.6603 41.3637 54.2264 41.0756 54.3424 40.7609C54.46 40.4408 54.2179 39.8281 53.7253 38.7479C53.4855 38.2219 53.3255 37.7825 53.293 37.2975C53.2589 36.792 53.3641 36.2926 53.6603 35.683C54.5814 33.7833 56.8528 31.7339 59.1243 29.6854C60.4382 28.5003 61.7521 27.3144 62.7529 26.2069C63.0221 25.9074 63.4876 25.8793 63.7923 26.1446C63.9022 26.2396 63.9756 26.3597 64.0128 26.4882L64.0151 26.4874C64.3128 27.5052 64.4737 28.7572 64.3275 29.9256C64.2711 30.3771 64.169 30.8188 64.012 31.2338C65.363 30.5725 66.6584 29.9218 67.0969 29.5425C67.4032 29.2779 67.8695 29.3068 68.1395 29.6079C68.2485 29.7295 68.308 29.877 68.3212 30.0267C68.4821 31.0651 68.4813 32.3041 68.1967 33.4262C67.9469 34.4098 67.4782 35.3152 66.7118 35.9521C66.6917 35.9688 66.6708 35.984 66.6499 35.9985L66.3955 36.1695C67.3042 36.2318 68.1495 36.4158 68.8742 36.5739C69.4535 36.7001 69.9423 36.8065 70.2369 36.7958C70.6437 36.7814 70.9848 37.0946 70.9995 37.4937C71.0049 37.6351 70.9678 37.7681 70.9005 37.8821C70.4798 38.5944 69.9005 39.3454 69.2145 39.9741C68.6129 40.5259 67.9238 40.9889 67.1783 41.2618C67.1589 41.2686 67.1388 41.2755 67.1187 41.2823C67.2007 41.3302 67.2819 41.3781 67.3608 41.4244C67.848 41.711 68.2618 41.9543 68.5394 42.0189C68.9362 42.1116 69.1821 42.5024 69.0877 42.8931C69.0498 43.0504 68.9624 43.1835 68.8457 43.2808C68.2525 43.8433 67.5023 44.399 66.6872 44.8148C65.9541 45.1888 65.1629 45.4541 64.3732 45.5194C64.3028 45.5255 64.2294 45.5278 64.1543 45.5278C64.2239 45.6068 64.2912 45.6844 64.357 45.7596C64.6825 46.1336 64.9586 46.4499 65.162 46.5738C65.5077 46.7851 65.6137 47.2328 65.3987 47.5726C65.3167 47.7026 65.1992 47.7984 65.0661 47.8546C63.0136 48.8269 61.4228 49.0891 59.9409 48.8033C59.654 48.7478 59.374 48.6726 59.0979 48.5783C59.265 48.9584 59.4096 49.2685 59.521 49.3711C59.8179 49.6456 59.8319 50.1039 59.5527 50.3958C59.4413 50.5121 59.3006 50.5836 59.1529 50.611C58.4135 50.7934 57.678 50.8641 56.9766 50.8261C55.8081 50.763 54.7222 50.4057 53.8475 49.7642C52.9604 49.1142 52.2945 48.1785 51.979 46.9699C51.8197 46.3587 51.7516 45.6837 51.7926 44.9464C51.8135 44.5466 52.16 44.2395 52.5668 44.26C52.9736 44.2805 53.286 44.6211 53.2651 45.0209C53.2319 45.6146 53.2837 46.1452 53.4059 46.6135C53.6309 47.4763 54.1035 48.1414 54.7314 48.6013C55.371 49.0704 56.1761 49.3326 57.0524 49.3797C57.3099 49.3934 57.5721 49.3896 57.8382 49.3668C57.7825 49.2444 57.726 49.1159 57.668 48.9837C57.436 48.4538 57.1684 47.8419 56.8034 47.3607C56.4391 47.1076 56.0679 46.8279 55.6836 46.523C55.3665 46.2722 55.3154 45.8161 55.5706 45.5044C55.8259 45.1928 56.2899 45.1426 56.607 45.3934C56.9921 45.699 57.3602 45.9765 57.7175 46.2213L57.7149 46.2218ZM45.2127 60.1813C45.6241 60.5758 46.0943 60.8092 46.6055 60.8791C46.8074 60.9072 47.0177 60.9102 47.2358 60.889C46.1044 59.7974 45.9002 58.8828 45.6775 57.5276C45.5584 57.539 45.4408 57.5223 45.3325 57.4805C45.1609 57.4273 44.9992 57.3718 44.8469 57.3125C44.587 59.0023 44.6342 59.2812 45.2127 60.1813ZM48.3355 66.1561C49.5589 66.1431 50.4026 66.9139 50.9952 67.6977C50.9697 67.2211 50.8614 66.7931 50.6564 66.4275C50.3247 65.8368 49.7098 65.3792 48.7385 65.1071C48.4508 65.0265 48.1932 64.9451 47.9605 64.8623C48.143 65.3085 48.2682 65.7311 48.3355 66.1561ZM60.636 63.4005C60.5795 63.3276 60.4983 63.2455 60.3993 63.1573C60.1619 62.946 59.8433 62.7361 59.4891 62.5469C58.5749 62.0589 57.5224 61.716 57.1798 61.9083C56.8024 62.1197 56.418 62.1866 56.0306 62.1455C55.6802 62.1083 55.3438 61.9821 55.019 61.7966C52.8125 60.5408 52.8318 59.2401 52.8574 58.1874C52.4846 58.0825 52.1389 58.0315 51.811 58.0422C51.5782 58.0498 51.3478 58.0893 51.1142 58.1646C51.043 58.9247 51.1931 59.605 51.5148 60.1524C51.8566 60.7339 52.3964 61.1741 53.0701 61.4036C53.9865 61.7153 54.5194 61.9274 54.9277 62.1889C55.3848 62.4815 55.64 62.7871 55.9926 63.2789C56.5441 64.0482 57.1063 64.3546 57.6299 64.4025C58.1728 64.4519 58.7219 64.2421 59.1874 63.9768C59.5664 63.7609 60.0776 63.5852 60.636 63.4005ZM54.5805 27.7322C54.5472 27.733 54.5132 27.7353 54.4792 27.7391C54.2402 27.7695 53.985 27.8842 53.7645 28.0598C53.623 28.1723 53.5024 28.3061 53.4165 28.4536C53.7166 28.4954 54.0175 28.5676 54.3252 28.6953C54.5719 28.7972 54.8148 28.9317 55.0545 29.1088C55.0507 29.0739 55.046 29.0382 55.0414 29.0024C54.9787 28.5517 54.8241 28.0864 54.5805 27.7322Z" fill="white"/>
<path d="M39.3633 8.49559C39.3633 8.74643 39.5698 8.9494 39.825 8.9494H41.0253V9.9551C39.9448 10.0524 38.9704 10.4872 38.2365 11.1417C37.3796 11.9049 36.849 12.9631 36.849 14.1345C36.849 14.5358 37.18 14.8612 37.5884 14.8612C37.9967 14.8612 38.3277 14.5358 38.3277 14.1345C38.3277 13.3872 38.6703 12.7077 39.2241 12.2143C39.6966 11.7939 40.3223 11.5051 41.0253 11.4161V12.5077C41.0253 12.7586 41.2317 12.9615 41.487 12.9615C41.7422 12.9615 41.9487 12.7586 41.9487 12.5077V11.4161C42.6517 11.5043 43.2773 11.7932 43.7498 12.2143C44.3036 12.7077 44.6462 13.3872 44.6462 14.1345C44.6462 14.5358 44.9772 14.8612 45.3855 14.8612C45.7939 14.8612 46.1249 14.5358 46.1249 14.1345C46.1249 12.9638 45.5943 11.9057 44.7375 11.1417C44.0035 10.488 43.029 10.0524 41.9487 9.9551V8.9494H43.1489C43.4041 8.9494 43.6106 8.74645 43.6106 8.49559C43.6106 8.24476 43.4042 8.04179 43.1489 8.04179H41.9487V6.45381C41.9487 6.20297 41.7422 6 41.487 6C41.2317 6 41.0253 6.20295 41.0253 6.45381V8.04179H39.825C39.5698 8.04179 39.3633 8.24474 39.3633 8.49559Z" fill="white"/>
<path d="M43.6586 14.8034C43.0716 14.6947 42.2773 14.6271 41.4143 14.6271C40.5512 14.6271 39.7569 14.6947 39.1699 14.8034C38.2573 14.9722 37.6928 15.3538 37.6928 15.9064C37.6928 16.4591 38.2573 16.8407 39.1699 17.0094C39.7569 17.1181 40.5512 17.1858 41.4143 17.1858C42.2773 17.1858 43.0716 17.1181 43.6586 17.0094C44.5712 16.8407 45.1357 16.4591 45.1357 15.9064C45.1357 15.3538 44.5712 14.9722 43.6586 14.8034Z" fill="white"/>
<path d="M30.5143 14.5511C30.5143 14.8019 30.7207 15.0049 30.976 15.0049H32.1762V16.0106C31.0958 16.1079 30.1214 16.5427 29.3874 17.1972C28.5305 17.9604 28 19.0185 28 20.1899C28 20.5913 28.331 20.9167 28.7393 20.9167C29.1477 20.9167 29.4787 20.5913 29.4787 20.1899C29.4787 19.4427 29.8213 18.7631 30.375 18.2698C30.8476 17.8494 31.4732 17.5605 32.1762 17.4716V18.5632C32.1762 18.814 32.3827 19.017 32.6379 19.017C32.8931 19.017 33.0996 18.8141 33.0996 18.5632V17.4716C33.8026 17.5598 34.4283 17.8486 34.9008 18.2698C35.4545 18.7631 35.7972 19.4427 35.7972 20.1899C35.7972 20.5913 36.1282 20.9167 36.5365 20.9167C36.9448 20.9167 37.2759 20.5913 37.2759 20.1899C37.2759 19.0193 36.7453 17.9611 35.8884 17.1972C35.1545 16.5434 34.18 16.1079 33.0996 16.0106V15.0049H34.2999C34.5551 15.0049 34.7616 14.8019 34.7616 14.5511C34.7616 14.3002 34.5551 14.0972 34.2999 14.0972H33.0996V12.5093C33.0996 12.2584 32.8931 12.0555 32.6379 12.0555C32.3827 12.0555 32.1762 12.2584 32.1762 12.5093V14.0972H30.976C30.7207 14.0972 30.5143 14.3002 30.5143 14.5511Z" fill="white"/>
<path d="M34.8096 20.8589C34.2226 20.7502 33.4283 20.6825 32.5652 20.6825C31.7021 20.6825 30.9079 20.7502 30.3209 20.8589C29.4083 21.0276 28.8437 21.4093 28.8437 21.9619C28.8437 22.5145 29.4083 22.8961 30.3209 23.0649C30.9079 23.1736 31.7021 23.2412 32.5652 23.2412C33.4283 23.2412 34.2226 23.1736 34.8096 23.0649C35.7221 22.8961 36.2867 22.5145 36.2867 21.9619C36.2867 21.4092 35.7222 21.0276 34.8096 20.8589Z" fill="white"/>
<path d="M47.9694 14.5511C47.9694 14.8019 48.1758 15.0049 48.4311 15.0049H49.6313V16.0106C48.5509 16.1079 47.5765 16.5427 46.8425 17.1972C45.9856 17.9604 45.4551 19.0186 45.4551 20.19C45.4551 20.5913 45.7861 20.9167 46.1945 20.9167C46.6028 20.9167 46.9338 20.5913 46.9338 20.19C46.9338 19.4427 47.2764 18.7632 47.8301 18.2698C48.3027 17.8494 48.9283 17.5606 49.6313 17.4716V18.5632C49.6313 18.8141 49.8378 19.017 50.093 19.017C50.3482 19.017 50.5547 18.8141 50.5547 18.5632V17.4716C51.2577 17.5598 51.8834 17.8487 52.3559 18.2698C52.9096 18.7632 53.2523 19.4427 53.2523 20.19C53.2523 20.5913 53.5833 20.9167 53.9916 20.9167C54.4 20.9167 54.731 20.5913 54.731 20.19C54.731 19.0193 54.2004 17.9612 53.3435 17.1972C52.6096 16.5435 51.6351 16.1079 50.5547 16.0106V15.0049H51.755C52.0102 15.0049 52.2167 14.8019 52.2167 14.5511C52.2167 14.3003 52.0102 14.0973 51.755 14.0973H50.5547V12.5093C50.5547 12.2585 50.3483 12.0555 50.093 12.0555C49.8378 12.0555 49.6313 12.2584 49.6313 12.5093V14.0973H48.4311C48.1759 14.0973 47.9694 14.3003 47.9694 14.5511Z" fill="white"/>
<path d="M52.2647 20.8589C51.6777 20.7502 50.8834 20.6826 50.0203 20.6826C49.1572 20.6826 48.363 20.7502 47.776 20.8589C46.8634 21.0277 46.2988 21.4093 46.2988 21.9619C46.2988 22.5146 46.8634 22.8962 47.776 23.0649C48.363 23.1736 49.1572 23.2413 50.0203 23.2413C50.8834 23.2413 51.6777 23.1736 52.2647 23.0649C53.1772 22.8962 53.7418 22.5145 53.7418 21.9619C53.7418 21.4093 53.1773 21.0277 52.2647 20.8589Z" fill="white"/>
</svg>
