<svg width="152" height="86" viewBox="0 0 152 86" fill="none" xmlns="http://www.w3.org/2000/svg">
<path fill-rule="evenodd" clip-rule="evenodd" d="M0 0.543399C0.745702 2.14037 4.56628 9.29629 5.1711 10.4075C8.78639 17.0526 21.728 40.3616 24.0275 44.3701C25.1154 46.2651 28.4061 52.1092 31.3411 57.3567C37.8235 68.9467 41.4031 74.0827 45.358 77.4687C51.8816 83.0547 59.6989 85.3072 67.9852 86.0002C67.9852 85.6467 62.5112 75.6732 61.0127 73.2612C60.3189 72.1442 56.7675 65.7717 53.0953 59.2122C49.4226 52.6527 44.8699 44.5424 42.977 41.1896C41.0841 37.8369 37.7455 31.8735 35.5577 27.9377C26.4357 11.5249 22.5069 7.27084 10.8081 2.92847C6.59156 1.36368 3.59869 0.744864 0 0.543399ZM146.142 0.954664C139.964 1.99998 132.263 5.93369 127.411 10.522C122.784 14.8989 119.362 20.065 111.174 35.0333C106.67 43.2654 105.319 46.3557 103.898 49.2768C101.533 34.4897 82.301 28.9569 82.4122 13.8906C82.4383 10.3757 82.7483 8.28774 83.5896 5.95804C84.4581 3.55426 84.992 2.38007 85.3819 1.36105C84.525 1.70759 83.6279 2.27926 82.3694 3.32411C77.0438 7.74389 71.3439 17.7851 69.8394 25.3976C68.8476 30.4147 68.8109 37.2973 69.7559 41.1896C70.1443 42.7931 71.2206 46.0133 72.1469 48.3457C73.986 52.9762 74.2497 59.1247 73.4014 63.9522C72.8192 62.2517 70.5232 57.3197 66.0555 54.4682C66.7227 55.7002 69.5959 60.5212 69.5959 65.4282C69.5959 68.5687 69.4253 71.2507 68.4235 75.0417C70.3888 73.9697 72.716 72.5597 74.4278 70.9242C82.7745 62.9502 80.5368 49.9445 78.6177 39.7752C89.8279 46.5263 95.8902 60.0097 92.3161 72.7332C90.874 77.8687 88.1478 82.7472 85.87 85.7557C89.5612 84.7977 90.477 84.6757 94.4893 82.7472C108.184 76.1662 116.479 62.9157 123.453 50.2007C129.623 38.9555 136.292 27.9613 142.263 16.6105C144.311 12.7183 149.593 4.10966 152 0.000244141C150.127 0.217456 149.91 0.316984 146.142 0.954664Z" fill="#4F2417"/>
</svg>
