<svg width="80" height="80" fill="none" xmlns="http://www.w3.org/2000/svg"><path d="M28.025 49v-1.765h3.963V33.723l-3.126 2.017L28 34.202l4.554-2.975h1.452v16.008h3.717V49h-9.698zm13.922 0v-1.563l5.933-6.555c.837-.94 1.436-1.798 1.797-2.571a5.347 5.347 0 00.566-2.37c0-2.067-1.173-3.1-3.52-3.1-1.756 0-3.307.672-4.652 2.016l-.764-1.613c.64-.673 1.453-1.21 2.438-1.614a8.06 8.06 0 013.15-.63c1.74 0 3.07.42 3.988 1.26.935.824 1.403 2 1.403 3.53 0 1.059-.254 2.1-.763 3.126-.509 1.008-1.288 2.084-2.338 3.227l-4.653 5.092H53V49H41.947z" fill="#F55308"/><circle cx="40" cy="40" r="28" stroke="#fff" stroke-width="2"/></svg>