<svg width="80" height="80" fill="none" xmlns="http://www.w3.org/2000/svg"><path fill-rule="evenodd" clip-rule="evenodd" d="M58.541 35.757h4.557l-.001-2.005h7.471v6.014h-7.471V37.76h-4.762c-.853 4.37-4.5 7.953-9.335 9.37v-2.097c4.418-1.493 7.537-5.067 7.537-9.227l.001-.05h-44.1v.05c0 5.058 4.61 9.25 10.562 9.888v2.015c-7.06-.668-12.568-5.751-12.568-11.903v-2.055h48.11v2.005zm10.023 0h-3.462v2.004h3.462v-2.004z" fill="#fff"/><path d="M18.743 29.034l1.417 1.417 3.34-3.34h.001a3.368 3.368 0 000-4.759l-1.67-1.67a1.362 1.362 0 010-1.924l3.34-3.34L23.755 14l-3.34 3.34a3.368 3.368 0 000 4.76l1.67 1.67c.53.531.53 1.392 0 1.924l-3.341 3.34zm13.03 0l1.417 1.417 3.34-3.34a3.368 3.368 0 000-4.759l-1.669-1.67a1.362 1.362 0 010-1.924l3.34-3.34L36.785 14l-3.34 3.34a3.368 3.368 0 000 4.76l1.67 1.67c.53.531.53 1.392 0 1.924l-3.341 3.34zm13.029 0l1.417 1.417 3.34-3.34h.001a3.368 3.368 0 000-4.759l-1.67-1.67a1.362 1.362 0 010-1.924l3.341-3.34L49.814 14l-3.341 3.34a3.368 3.368 0 000 4.76l1.67 1.67c.53.531.53 1.392 0 1.924l-3.34 3.34zm22.76 27.771v-3.007H53.53v-4.01h-6.014v2.005h4.009v2.005H36.491v-4.01h-2.005v4.01H19.452v-2.005h4.01V49.79h-6.015v4.009h-7.016v13.03h57.13v-4.01a3.007 3.007 0 000-6.013zm-2.005 8.018H12.436v-9.02h53.121v9.02zm2.005-4.009v-2.005a1.002 1.002 0 010 2.005z" fill="#fff"/><path d="M23 45.695c.518.056 1.046.085 1.582.085h19.81c1.63 0 3.186-.266 4.608-.746v2.097a16.385 16.385 0 01-4.608.653H24.58c-.534 0-1.062-.025-1.581-.074v-2.015z" fill="#F55308"/></svg>