<svg width="80" height="80" fill="none" xmlns="http://www.w3.org/2000/svg"><mask id="path-1-outside-1_411_2632" maskUnits="userSpaceOnUse" x="19.8" y="10.001" width="42" height="60" fill="#000"><path fill="#fff" d="M19.8 10.001h42v60h-42z"/><path fill-rule="evenodd" clip-rule="evenodd" d="M37.138 22.518c.874-3.953 4.117-8.389 7.317-11.51.402-.065.813.31.782.716a15.193 15.193 0 001.007 6.733h-1.312a17.318 17.318 0 01-.943-5.131c-3.28 3.572-4.941 6.57-5.54 9.465-.665 3.217-.152 6.418.677 10.33.11.513-.567.991-1.015.717-3.068-1.928-5.456-4.808-6.154-9.338-6.421 6.037-10.404 14.831-10.404 23.21 0 8.924 4.587 14.585 11.8 18.951a7.95 7.95 0 01-.297-2.087c0-4.856 2.984-9.71 7.148-11.68a.69.69 0 01.592 0c4.167 1.968 7.147 6.822 7.147 11.68 0 .734-.128 1.414-.296 2.045 7.207-4.397 11.8-10.253 11.8-19.184a.703.703 0 01.677-.684c.357 0 .682.327.676.684 0 10.145-5.654 16.874-14.168 21.503-.498.267-1.174-.376-.93-.885.474-1.041.888-2.18.888-3.479 0-4.164-2.648-8.44-6.09-10.245-3.439 1.806-6.09 6.083-6.09 10.245 0 1.304.412 2.436.888 3.479.244.509-.431 1.152-.93.885C25.874 64.314 20.2 57.845 20.2 47.71c0-9.202 4.482-18.782 11.736-25.086.378-.33 1.088-.035 1.12.464.288 4.241 2.038 6.76 4.484 8.643-.625-3.234-1.022-6.214-.402-9.212z"/></mask><path fill-rule="evenodd" clip-rule="evenodd" d="M37.138 22.518c.874-3.953 4.117-8.389 7.317-11.51.402-.065.813.31.782.716a15.193 15.193 0 001.007 6.733h-1.312a17.318 17.318 0 01-.943-5.131c-3.28 3.572-4.941 6.57-5.54 9.465-.665 3.217-.152 6.418.677 10.33.11.513-.567.991-1.015.717-3.068-1.928-5.456-4.808-6.154-9.338-6.421 6.037-10.404 14.831-10.404 23.21 0 8.924 4.587 14.585 11.8 18.951a7.95 7.95 0 01-.297-2.087c0-4.856 2.984-9.71 7.148-11.68a.69.69 0 01.592 0c4.167 1.968 7.147 6.822 7.147 11.68 0 .734-.128 1.414-.296 2.045 7.207-4.397 11.8-10.253 11.8-19.184a.703.703 0 01.677-.684c.357 0 .682.327.676.684 0 10.145-5.654 16.874-14.168 21.503-.498.267-1.174-.376-.93-.885.474-1.041.888-2.18.888-3.479 0-4.164-2.648-8.44-6.09-10.245-3.439 1.806-6.09 6.083-6.09 10.245 0 1.304.412 2.436.888 3.479.244.509-.431 1.152-.93.885C25.874 64.314 20.2 57.845 20.2 47.71c0-9.202 4.482-18.782 11.736-25.086.378-.33 1.088-.035 1.12.464.288 4.241 2.038 6.76 4.484 8.643-.625-3.234-1.022-6.214-.402-9.212z" fill="#fff"/><path d="M44.455 11.007l-.047-.296-.094.015-.068.066.209.215zm-7.317 11.51l-.293-.064v.004l.293.06zm8.1-10.793l-.3-.023.3.023zm1.006 6.733v.3h.437l-.157-.408-.28.108zm-1.312 0l-.284.097.07.203h.214v-.3zm-.943-5.131l.3-.009-.022-.737-.499.543.221.203zm-5.54 9.465l-.294-.06.294.06zm.677 10.33l-.294.063.294-.063zm-1.015.717l-.16.254.003.002.157-.256zM31.957 24.5l.296-.046-.086-.564-.416.391.206.219zm1.395 42.161l-.155.257.64.387-.195-.722-.29.078zm6.852-13.766l.128.271.003-.001-.131-.27zm.592 0l-.13.27.002.001.128-.271zm7.147 11.679h.3-.3zm-.296 2.045l-.29-.078-.192.724.638-.39-.156-.256zm11.8-19.184h.3v-.004l-.3.004zm1.353 0l-.3-.005v.005h.3zM46.633 68.938l.142.265.002-.001-.144-.264zm-.93-.885l.27.13.003-.006-.273-.124zM40.5 54.329l.14-.266-.14-.073-.14.073.14.266zm-6.09 10.245h-.3.3zm.888 3.479l-.273.125.003.005.27-.13zm-.93.885l-.144.264h.002l.142-.264zm-2.432-46.315l.197.226-.197-.226zm1.12.464l-.299.02.3-.02zm4.484 8.643l-.183.238.628.484-.15-.778-.295.056zm6.706-20.938c-3.217 3.138-6.508 7.624-7.4 11.66l.585.13c.855-3.868 4.05-8.254 7.233-11.36l-.418-.43zm1.29.954a.968.968 0 00-.325-.778.974.974 0 00-.803-.257l.094.592a.376.376 0 01.304.108.37.37 0 01.132.29l.598.045zm.988 6.603a14.894 14.894 0 01-.988-6.603l-.598-.044a15.493 15.493 0 001.026 6.863l.56-.216zm-1.592.408h1.312v-.6h-1.312v.6zm-1.243-5.422a17.64 17.64 0 00.96 5.219l.567-.194a17.021 17.021 0 01-.927-5.043l-.6.018zm-4.947 9.517c.585-2.824 2.208-5.775 5.468-9.323l-.442-.406c-3.302 3.595-5 6.64-5.613 9.608l.587.121zm.677 10.207c-.828-3.912-1.328-7.058-.677-10.207l-.587-.121c-.68 3.284-.151 6.54.677 10.453l.587-.125zm-1.465 1.035c.358.219.771.12 1.047-.074.275-.195.506-.552.418-.962l-.587.127c.022.102-.03.24-.177.345-.148.104-.297.108-.388.052l-.313.512zm-6.294-9.549c.713 4.629 3.16 7.58 6.291 9.547l.32-.508c-3.006-1.889-5.335-4.698-6.018-9.13l-.593.091zM21.853 47.71c0-8.29 3.944-17.007 10.31-22.992l-.412-.437c-6.476 6.09-10.498 14.961-10.498 23.429h.6zm11.654 18.694c-3.582-2.168-6.493-4.647-8.51-7.676-2.013-3.024-3.144-6.612-3.144-11.018h-.6c0 4.517 1.162 8.222 3.245 11.35 2.08 3.126 5.07 5.66 8.699 7.858l.31-.514zm-.75-1.83c0 .784.127 1.506.306 2.165l.579-.156a7.649 7.649 0 01-.286-2.009h-.6zm7.319-11.95c-4.276 2.02-7.32 6.985-7.32 11.95h.6c0-4.747 2.923-9.492 6.976-11.408l-.256-.542zm.85 0a.99.99 0 00-.853 0l.262.54a.39.39 0 01.33 0l.262-.54zm7.317 11.95c0-4.967-3.04-9.93-7.32-11.95l-.255.542c4.056 1.915 6.975 6.659 6.975 11.408h.6zm-.306 2.122c.172-.646.306-1.353.306-2.122h-.6c0 .7-.122 1.352-.286 1.968l.58.154zm11.21-19.261c0 8.797-4.51 14.568-11.656 18.928l.312.512c7.268-4.434 11.944-10.375 11.944-19.44h-.6zm.977-.984c-.524 0-.984.464-.977.988l.6-.008c-.003-.188.186-.38.377-.38v-.6zm.976.988c.008-.525-.453-.988-.976-.988v.6c.191 0 .38.191.377.38l.6.008zM46.776 69.202C55.353 64.538 61.1 57.722 61.1 47.435h-.6c0 10.002-5.56 16.645-14.011 21.24l.287.527zm-1.345-1.279c-.198.413-.006.836.25 1.08.258.246.69.415 1.093.2l-.283-.53c-.096.052-.251.034-.395-.104-.145-.137-.17-.29-.124-.386l-.54-.26zm.86-3.349c0 1.234-.394 2.326-.862 3.355l.546.248c.48-1.054.915-2.24.915-3.603h-.6zm-5.93-9.98c3.342 1.754 5.93 5.926 5.93 9.98h.6c0-4.275-2.71-8.653-6.251-10.51l-.279.53zm-5.65 9.98c0-4.051 2.59-8.225 5.929-9.98l-.28-.53c-3.538 1.858-6.25 6.238-6.25 10.51h.6zm.86 3.354c-.47-1.03-.86-2.114-.86-3.354h-.6c0 1.368.431 2.547.914 3.604l.546-.25zm-1.345 1.275c.404.215.835.046 1.093-.2.257-.244.448-.667.25-1.08l-.541.26c.046.096.021.249-.123.386-.144.138-.3.156-.396.105l-.283.529zM19.9 47.709c0 10.283 5.771 16.836 14.324 21.493l.287-.527C26.076 64.082 20.5 57.699 20.5 47.709h-.6zm11.84-25.313c-7.317 6.36-11.84 16.02-11.84 25.313h.6c0-9.11 4.441-18.61 11.633-24.86l-.394-.453zm1.616.671c-.026-.395-.315-.675-.616-.8-.3-.125-.703-.13-1.001.13l.394.452c.08-.069.221-.092.378-.028.156.065.24.182.246.286l.599-.04zm4.367 8.426c-2.384-1.837-4.086-4.278-4.367-8.426l-.599.04c.294 4.335 2.092 6.93 4.6 8.861l.366-.475zm-.879-9.036c-.633 3.06-.224 6.09.401 9.33l.59-.113c-.624-3.23-1.01-6.16-.403-9.096l-.588-.121z" fill="#fff" mask="url(#path-1-outside-1_411_2632)"/><mask id="path-3-outside-2_411_2632" maskUnits="userSpaceOnUse" x="44.133" y="17.755" width="17" height="26" fill="#000"><path fill="#fff" d="M44.133 17.755h17v26h-17z"/><path fill-rule="evenodd" clip-rule="evenodd" d="M46.244 18.457h-1.312c1.08 3.152 2.961 5.92 5.042 8.614.358.464.72.927 1.084 1.392 3.153 4.033 6.39 8.174 7.734 13.724.057.367.465.639.828.552.362-.088.6-.515.483-.868-1.42-5.87-4.8-10.186-7.954-14.215-.37-.472-.736-.94-1.096-1.407-1.973-2.556-3.743-5.032-4.81-7.792z"/></mask><path fill-rule="evenodd" clip-rule="evenodd" d="M46.244 18.457h-1.312c1.08 3.152 2.961 5.92 5.042 8.614.358.464.72.927 1.084 1.392 3.153 4.033 6.39 8.174 7.734 13.724.057.367.465.639.828.552.362-.088.6-.515.483-.868-1.42-5.87-4.8-10.186-7.954-14.215-.37-.472-.736-.94-1.096-1.407-1.973-2.556-3.743-5.032-4.81-7.792z" fill="#F55308"/><path d="M44.932 18.457v-.3h-.42l.137.397.283-.097zm1.312 0l.28-.108-.075-.192h-.205v.3zm3.73 8.614l-.238.183.238-.183zm1.084 1.392l.236-.185-.236.185zm7.734 13.724l.296-.047-.002-.012-.002-.012-.292.07zm.828.552l.07.291-.07-.291zm.483-.868l-.291.07.003.012.004.012.284-.094zM52.15 27.656l.236-.185-.236.185zm-1.096-1.407l.237-.183-.237.183zm-6.12-7.492h1.31v-.6h-1.31v.6zm-.284-.203c1.095 3.2 3.002 6 5.087 8.7l.475-.366c-2.075-2.689-3.932-5.425-4.995-8.528l-.567.194zm5.087 8.7c.359.465.722.93 1.085 1.394l.473-.37c-.364-.464-.725-.927-1.083-1.39l-.475.366zm1.085 1.394c3.159 4.04 6.354 8.132 7.68 13.61l.583-.142c-1.361-5.622-4.641-9.81-7.79-13.838l-.473.37zm7.675 13.585c.043.28.217.509.43.65a.977.977 0 00.764.147l-.14-.583a.379.379 0 01-.292-.064.374.374 0 01-.17-.243l-.592.093zm1.194.797a.974.974 0 00.614-.48.971.971 0 00.084-.774l-.57.19a.373.373 0 01-.039.292.376.376 0 01-.23.189l.141.583zm.705-1.23c-1.438-5.941-4.86-10.305-8.01-14.33l-.472.37c3.158 4.035 6.495 8.303 7.899 14.101l.583-.14zm-8.01-14.33c-.37-.471-.736-.939-1.095-1.404l-.475.367c.36.467.728.936 1.098 1.408l.472-.37zm-1.095-1.404c-1.972-2.555-3.718-5.001-4.766-7.717l-.56.216c1.083 2.804 2.877 5.31 4.851 7.867l.475-.366z" fill="#F55308" mask="url(#path-3-outside-2_411_2632)"/></svg>