<svg width="80" height="80" fill="none" xmlns="http://www.w3.org/2000/svg"><g clip-path="url(#clip0_411_1557)"><path d="M65.76 46.81c8.962-8.963 8.9-23.602-.139-32.642-7.686-7.686-19.433-9.073-28.568-3.371a.82.82 0 00-.255 1.122.827.827 0 001.125.265c8.496-5.305 19.415-4.014 26.551 3.131 8.405 8.396 8.463 22.014.129 30.348s-21.943 8.276-30.348-.129c-8.405-8.405-8.462-22.013-.128-30.347a21.095 21.095 0 011.74-1.563.801.801 0 00.116-1.142.805.805 0 00-1.144-.125 24.44 24.44 0 00-1.878 1.682c-4.477 4.477-6.71 10.384-6.684 16.293a23.186 23.186 0 006.822 16.35c9.058 9.03 23.698 9.091 32.66.128z" fill="#fff"/><path d="M58.091 45.626a.816.816 0 001.125.256 18.163 18.163 0 003.11-2.495c3.432-3.432 5.308-8.003 5.287-12.88a18.295 18.295 0 00-5.395-12.934c-3.461-3.461-8.049-5.375-12.926-5.396-4.877-.02-9.448 1.855-12.88 5.287-3.433 3.431-5.308 8.003-5.287 12.88.02 4.877 1.935 9.464 5.396 12.926 3.46 3.46 8.048 5.375 12.925 5.396 2.574.01 5.051-.499 7.37-1.52a.815.815 0 00.413-1.066.823.823 0 00-1.07-.423 16.351 16.351 0 01-6.71 1.384c-4.44-.019-8.619-1.764-11.771-4.917-3.153-3.154-4.898-7.332-4.917-11.771-.02-4.44 1.69-8.604 4.817-11.73 3.117-3.128 7.28-4.838 11.721-4.82 4.44.02 8.619 1.765 11.771 4.918 3.154 3.153 4.899 7.331 4.918 11.77.018 4.441-1.692 8.605-4.818 11.73-.86.86-1.814 1.628-2.842 2.274-.37.25-.48.75-.237 1.131z" fill="#fff"/><path d="M19.273 65.424l13.06-13.06.624.625a.818.818 0 001.152.005l1.545-1.545a.818.818 0 00-1.157-1.157l-.971.972-4.991-4.991.971-.971a.818.818 0 00-1.156-1.157l-1.545 1.545a.802.802 0 00-.239.575c0 .213.085.418.244.577l.625.625-7.53 7.529a.818.818 0 001.157 1.156l7.53-7.529 2.593 2.593L20.26 62.141l-2.593-2.593 1.841-1.841a.818.818 0 00-1.157-1.157l-3.967 3.968a3.417 3.417 0 00-1.003 2.439 3.468 3.468 0 001.023 2.447 3.438 3.438 0 004.869.02zm-3.73-1.168a1.821 1.821 0 01-.011-2.582l.99-.99 2.593 2.594-.99.99a1.822 1.822 0 01-2.582-.012z" fill="#F55308"/></g><defs><clipPath id="clip0_411_1557"><path fill="#fff" transform="rotate(-180 40 40)" d="M0 0h80v80H0z"/></clipPath></defs></svg>