<svg width="80" height="80" fill="none" xmlns="http://www.w3.org/2000/svg"><g clip-path="url(#clip0_411_3059)" fill-rule="evenodd" clip-rule="evenodd"><path d="M50.859 43.264l-.038.01c-1.103-3.557-3.931-6.661-8.057-8.893a34.365 34.365 0 00-14.343-3.788 3.56 3.56 0 00-.554-4.694 3.558 3.558 0 00-5.28 4.694 35.413 35.413 0 00-14.521 3.859c-4.288 2.291-7.048 5.43-7.92 8.87h1.703c1.937-6.427 11.799-11.173 23.665-11.173v-.036c6.393 0 12.085 1.263 16.46 3.655 3.548 1.96 6.078 4.61 7.106 7.553h1.779v-.057zM27.246 27.926a1.868 1.868 0 10-3.448 1.438 1.868 1.868 0 003.448-1.438zM6.395 40.001a20.692 20.692 0 016.313-4.1l.054.037a.826.826 0 011.067.355.89.89 0 01-.4 1.103 19.139 19.139 0 00-5.87 3.788.835.835 0 01-.577.23.798.798 0 01-.587-.248.819.819 0 010-1.165zm11.062-5.878c-.704.163-1.396.371-2.072.623a.828.828 0 00.276 1.6.76.76 0 00.275-.053c.895-.315 1.548-.48 1.773-.537.055-.014.084-.021.086-.023a.818.818 0 00.64-.97.836.836 0 00-.924-.595l-.054-.045z" fill="#F55308"/><path d="M.146 43.321a9.826 9.826 0 00-.136.62.742.742 0 000 .24.808.808 0 00.186.631 72.249 72.249 0 002.482 4.509c2.756 4.517 4.117 5.104 4.988 5.104h35.711c.89 0 2.285-.613 5.105-5.291l10.377-2.49.08.347c.09.37.42.63.801.631h.195l17.172-4.117a3.741 3.741 0 002.33-1.699 3.68 3.68 0 00.454-2.845 3.773 3.773 0 00-4.544-2.783l-17.172 4.117a.888.888 0 00-.515.373.893.893 0 00-.098.623l.088.338-6.791 1.636v.056H49.08l.009.024H1.842l.007-.024H.146zm47.084 4.666a.783.783 0 01.515-.383l10.725-2.57-.214-.889-.222-.89-7.434 1.78a.816.816 0 01-.355.089H2.17a45.016 45.016 0 001.93 3.334c2.57 4.304 3.557 4.304 3.557 4.304H43.36c.01 0 1.059-.054 3.869-4.775zm30.75-7.079c-.288.482-.76.826-1.308.952l-16.327 3.966-.489-2.063-.408-1.717-.08-.338 16.362-3.93a2.125 2.125 0 012.56 1.565 2.062 2.062 0 01-.257 1.601l-.053-.036z" fill="#fff"/></g><defs><clipPath id="clip0_411_3059"><path fill="#fff" transform="rotate(-180 40 40)" d="M0 0h80v80H0z"/></clipPath></defs></svg>