<svg width="817" height="228" fill="none" xmlns="http://www.w3.org/2000/svg"><g clip-path="url(#clip0_294_5419)" fill="#fff"><path d="M130.998 7.422c-2.628 1.3-5.101 3.06-7.342 5.126-2.241 2.066-4.405 4.59-6.415 7.498-2.086 2.908-4.25 6.198-6.646 9.87a443.931 443.931 0 01-6.647 10.1c-2.859 4.285-5.719 8.722-8.733 13.236-3.014 4.59-5.874 8.952-8.656 13.16-2.782 4.208-4.946 7.498-6.569 9.87v39.557c0 3.825.077 7.498.31 11.094.154 3.596.85 6.121 1.854 7.574 2.01 2.908 4.56 4.744 7.729 5.662 3.168.918 6.26 1.607 9.12 2.143v1.989h-61.21v-1.913c3.4-.383 6.414-.995 9.042-1.836 2.55-.842 5.332-2.908 8.27-6.198.695-.612 1.159-1.759 1.468-3.366.309-1.607.618-3.367.773-5.279.231-1.99.309-4.056.386-6.274.077-2.219.077-4.362.077-6.504.155-3.672.232-8.034.31-13.083.077-5.05.077-11.171.077-18.363-.232-.383-1.082-1.607-2.396-3.75-1.314-2.141-2.937-4.666-4.87-7.803-1.931-3.06-4.018-6.504-6.337-10.33-2.318-3.825-4.637-7.497-6.878-11.093-2.241-3.596-4.405-6.963-6.337-10.1-2.01-3.137-3.633-5.738-4.947-7.651-2.55-3.826-4.791-7.269-6.878-10.406-2.087-3.137-4.096-5.815-6.26-8.033-2.164-2.22-4.173-3.979-6.26-5.28C5.023 5.74 2.628 4.974 0 4.897v-1.99h60.205v1.99c-2.01.153-3.941.306-5.951.612a24.71 24.71 0 00-5.564 1.3c-1.7.613-3.092 1.378-4.174 2.373-1.082.994-1.546 2.371-1.546 4.055 0 1.683.928 4.284 2.86 7.804 1.932 3.443 3.942 6.962 6.106 10.482a644.782 644.782 0 015.178 8.57 407.838 407.838 0 006.569 10.634c2.396 3.75 4.792 7.575 7.265 11.477a906.067 906.067 0 016.878 11.247c1.7-2.525 3.864-5.662 6.337-9.564 2.474-3.902 5.101-7.804 7.652-11.782 2.55-3.979 5.023-7.804 7.342-11.477 2.318-3.673 4.096-6.58 5.255-8.646.696-1.071 1.391-2.295 2.164-3.672a74.58 74.58 0 002.241-4.285c.696-1.53 1.391-3.06 1.855-4.59.541-1.607.773-2.985.773-4.285 0-2.066-.541-3.75-1.623-4.897-1.082-1.148-2.396-2.066-4.096-2.755a27.244 27.244 0 00-5.487-1.453 304.04 304.04 0 01-5.72-.918v-1.99h45.908v1.99c-3.555.076-6.724.994-9.429 2.295zm75.971 136.879v-1.913c.386 0 1.313-.153 2.86-.383 1.545-.306 3.091-.765 4.791-1.377a16.417 16.417 0 004.406-2.754c1.236-1.148 1.854-2.678 1.854-4.515 0-1.147-.386-3.137-1.082-5.815-.695-2.677-1.777-5.967-3.092-9.869-1.313-3.903-2.858-8.187-4.559-12.854a537.516 537.516 0 00-5.564-14.767H153.72c-2.01 4.973-3.865 9.717-5.797 14.231-1.855 4.514-3.709 9.105-5.564 13.696-2.783 7.115-4.174 12.088-4.174 14.919 0 1.683.541 3.137 1.623 4.208 1.082 1.148 2.396 2.066 4.096 2.755 1.623.688 3.401 1.224 5.333 1.607 1.932.306 3.71.612 5.488.918v1.989h-42.353v-2.142c3.478-.383 6.415-1.301 8.811-2.755 2.473-1.453 3.864-2.448 4.25-2.984.928-.918 2.473-3.06 4.56-6.503 2.087-3.367 4.714-8.493 7.729-15.149 2.782-6.198 5.873-13.16 9.351-21.041 3.478-7.88 6.956-15.99 10.665-24.254a2476.86 2476.86 0 0010.82-25.172c3.555-8.493 6.957-16.374 10.125-23.719L187.107 0h8.655c4.097 10.865 8.038 21.194 11.749 30.987 3.708 9.794 7.264 19.204 10.665 28.233 3.4 9.028 6.645 17.827 9.814 26.243a2916.5 2916.5 0 009.507 25.096c1.468 4.055 2.782 7.422 4.095 10.099 1.238 2.678 2.706 5.739 4.252 9.182.309.535.849 1.454 1.776 2.754.928 1.301 2.164 2.678 3.711 4.055 1.468 1.378 3.4 2.602 5.641 3.596 2.242 1.071 4.869 1.607 7.961 1.76v2.372h-57.964v-.076zM180.924 25.172c-.773 1.684-1.932 4.361-3.477 8.034-1.547 3.672-3.402 8.11-5.643 13.39-2.241 5.202-4.713 11.17-7.419 17.827-2.705 6.58-5.643 13.772-8.811 21.5h49.463c-2.241-5.892-4.56-11.784-6.878-17.675a4465.355 4465.355 0 00-6.724-16.985c-2.164-5.433-4.174-10.406-5.952-14.92-1.855-4.59-3.4-8.34-4.559-11.17zm577.86 119.129v-1.913c.387 0 1.392-.153 2.937-.383 1.547-.306 3.091-.765 4.792-1.377a16.396 16.396 0 004.405-2.754c1.236-1.148 1.855-2.678 1.855-4.515 0-1.147-.387-3.137-1.082-5.815-.696-2.677-1.7-5.967-3.091-9.869-1.315-3.903-2.86-8.187-4.561-12.854a531.077 531.077 0 00-5.564-14.767h-52.863a2500.34 2500.34 0 01-5.797 14.231c-1.855 4.514-3.708 9.105-5.563 13.696-2.783 7.115-4.174 12.088-4.174 14.919 0 1.683.54 3.137 1.622 4.208 1.084 1.148 2.397 2.066 4.096 2.755 1.624.688 3.479 1.224 5.334 1.607 1.931.306 3.709.612 5.487.918v1.989h-42.275v-2.142c3.477-.383 6.414-1.301 8.811-2.755 2.473-1.453 3.863-2.448 4.251-2.984.927-.918 2.472-3.06 4.559-6.503 2.087-3.367 4.715-8.493 7.729-15.149 2.782-6.198 5.873-13.16 9.352-21.041 3.4-7.88 6.954-15.99 10.587-24.254a2476.86 2476.86 0 0010.82-25.172c3.556-8.493 6.956-16.374 10.124-23.719L738.999 0h8.656c4.096 10.865 8.038 21.194 11.748 30.987 3.709 9.794 7.265 19.204 10.665 28.233 3.4 9.028 6.647 17.827 9.816 26.243a2916.689 2916.689 0 009.506 25.096c1.467 4.055 2.782 7.422 4.096 10.099 1.236 2.678 2.704 5.739 4.25 9.182.309.535.851 1.454 1.778 2.754.928 1.301 2.164 2.678 3.709 4.055 1.547 1.378 3.402 2.602 5.643 3.596 2.241 1.071 4.868 1.607 7.959 1.76v2.372h-58.041v-.076zM732.816 25.172c-.773 1.684-1.932 4.361-3.477 8.034-1.546 3.672-3.4 8.11-5.643 13.39-2.241 5.202-4.713 11.17-7.419 17.827-2.704 6.58-5.641 13.772-8.809 21.5h49.462c-2.242-5.892-4.56-11.784-6.879-17.675a4304.63 4304.63 0 00-6.724-16.985c-2.241-5.433-4.173-10.406-5.95-14.92-1.932-4.59-3.402-8.34-4.561-11.17zM442.612 145.295v-1.989c3.323-.536 6.414-1.377 9.274-2.525 2.858-1.148 5.255-2.908 7.265-5.126.617-.765 1.159-1.913 1.468-3.367.308-1.454.619-3.137.773-5.126.231-1.989.309-4.055.386-6.198.077-2.142.077-4.284.077-6.427 0-1.836.077-4.361.077-7.498.077-3.137.154-6.58.233-10.329.077-3.672.077-7.498.077-11.4V28.462c0-2.372-.154-4.59-.31-6.58-.231-2.066-.463-3.902-.928-5.509-.385-1.606-1.004-2.907-1.776-3.825-1.855-2.219-4.173-3.826-6.879-4.82-2.705-.995-5.797-1.684-9.274-2.066v-1.99h57.113v1.99c-2.781.382-5.718 1.147-8.887 2.142-3.168 1.071-5.642 3.137-7.342 6.274-1.159 2.219-1.855 5.05-1.855 8.416-.077 3.443-.154 6.657-.308 9.64 0 3.29 0 6.504-.079 9.718-.077 3.213-.077 6.427-.077 9.717v65.876c0 3.826.077 7.498.233 11.018.154 3.519.694 6.044 1.776 7.498 1.624 2.219 4.096 3.978 7.575 5.126 3.477 1.148 6.569 1.913 9.352 2.142v1.99h-57.964v.076zM663.03 8.416c-2.938 1.837-5.256 4.668-6.802 8.417-.928 1.989-1.545 5.585-1.778 10.94-.309 5.28-.54 11.018-.772 16.986-.31 5.662-.542 12.319-.696 19.97-.232 7.65-.309 15.914-.309 24.713v12.624c0 4.591.078 9.258.078 14.078.077 4.821.077 9.564.077 14.232v12.777c0 .536-.155.918-.465 1.301-.309.306-.849.459-1.468.459-1.082 0-2.241-.689-3.556-1.99-11.282-12.854-21.561-24.636-30.758-35.424-9.274-10.788-18.085-21.041-26.509-30.758-8.424-9.793-16.694-19.28-24.732-28.615-8.036-9.335-16.616-18.975-25.659-28.922v83.015c0 6.657.156 12.701.465 18.133.309 5.356 1.159 9.335 2.472 12.013 1.47 2.984 3.711 5.279 6.879 6.809 3.092 1.53 7.419 2.602 12.829 3.214v1.989h-48.844v-1.989c3.169-.383 6.337-1.224 9.506-2.449 3.169-1.224 5.72-3.29 7.575-6.197 1.854-2.754 3.014-6.81 3.554-12.165.542-5.356.928-11.783 1.159-19.281.311-5.662.465-12.319.619-19.97.155-7.65.232-15.914.232-24.713V33.665c0-2.601-.077-5.815-.232-9.64-.387-3.826-1.313-6.886-2.782-9.335-1.468-2.448-3.169-4.36-5.178-5.738-2.01-1.377-4.174-2.372-6.415-2.907-2.318-.613-4.559-.995-6.646-1.301v-1.99h40.342l94.133 108.953V44.836c0-5.203-.077-10.253-.232-15.073-.154-4.82-.694-8.57-1.778-11.324-1.313-3.672-3.708-6.656-7.031-8.952-3.402-2.295-8.27-3.902-14.607-4.82V2.678h49.23v1.99c-5.024.688-8.964 1.912-11.901 3.748zM386.424 2.678v1.99c6.338.917 11.207 2.524 14.607 4.82 3.402 2.295 5.72 5.279 7.033 8.951 1.082 2.755 1.624 6.504 1.778 11.324.155 4.82.232 9.793.232 15.073v66.87L315.941 2.678h-40.343v1.99c2.087.229 4.328.688 6.647 1.3 2.318.612 4.482 1.607 6.492 2.907 2.009 1.377 3.71 3.29 5.178 5.739 1.468 2.448 2.395 5.508 2.783 9.334.154 3.825.231 7.04.231 9.64v23.948c0 8.8-.077 16.986-.231 24.714-.155 7.65-.311 14.307-.619 19.969-.232 7.498-.696 13.925-1.159 19.281-.542 5.356-1.701 9.411-3.555 12.165-1.855 2.908-4.329 4.974-7.575 6.198-3.168 1.224-6.337 2.065-9.506 2.448v1.989h48.844v-1.912c-5.409-.689-9.737-1.76-12.828-3.214-3.092-1.53-5.41-3.749-6.879-6.809-1.314-2.602-2.164-6.657-2.473-12.013-.31-5.355-.464-11.4-.464-18.133V19.204c8.965 9.947 17.543 19.587 25.581 28.922a7096.748 7096.748 0 0124.732 28.615c8.424 9.793 17.235 20.046 26.509 30.757a6854.992 6854.992 0 0030.295 34.813h6.106v-12.012c0-4.744 0-9.488-.077-14.231-.077-4.821-.077-9.488-.077-14.078V89.365c0-8.799.077-16.985.308-24.713.155-7.651.386-14.308.697-19.97.231-6.044.54-11.706.771-16.985.233-5.28.851-8.952 1.778-10.941 1.624-3.826 3.865-6.657 6.879-8.416 2.936-1.837 6.955-3.06 11.824-3.75V2.602h-49.386v.077zM56.13 203.107l-.874 2.142c-3.41 1.736-7.048 2.603-10.918 2.603-5.543 0-10.05-1.574-13.52-4.722-3.455-3.147-5.183-7.263-5.183-12.345 0-3.501.86-6.557 2.58-9.167 1.735-2.626 4.015-4.584 6.84-5.874 2.842-1.305 6.028-1.957 9.56-1.957 2.042 0 4.06.214 6.057.644 1.996.43 3.662.945 4.998 1.544l.161.23c-.353.86-.683 2.987-.99 6.38l-.161.184h-1.083l-.184-.184-.23-3.915c-1.121-.891-2.48-1.582-4.077-2.073a16.123 16.123 0 00-4.952-.761c-2.595 0-4.922.561-6.98 1.682-2.057 1.105-3.654 2.718-4.79 4.837-1.136 2.103-1.704 4.683-1.704 7.739 0 3.071.668 5.766 2.003 8.084 1.336 2.319 3.156 4.1 5.46 5.344 2.318 1.244 5.02 1.866 8.107 1.866 1.366 0 2.68-.131 3.938-.392 1.26-.261 2.304-.583 3.133-.967a14.14 14.14 0 002.418-1.405l.392.483zm95.111-11.977c0-2.303.33-4.453.991-6.449.66-1.996 1.781-3.839 3.362-5.528 1.597-1.704 3.517-3.017 5.759-3.938 2.242-.937 4.775-1.405 7.601-1.405 5.236 0 9.405 1.428 12.506 4.284 3.102 2.84 4.653 6.725 4.653 11.654 0 3.471-.76 6.588-2.28 9.352-1.52 2.764-3.701 4.913-6.542 6.449-2.825 1.535-6.003 2.303-9.535 2.303-2.503 0-4.806-.414-6.91-1.244a14.306 14.306 0 01-5.39-3.754c-1.474-1.658-2.549-3.578-3.224-5.758-.661-2.181-.991-4.169-.991-5.966zm4.791-1.52c0 1.873.3 3.893.898 6.058.615 2.15 1.521 4 2.718 5.551 1.213 1.535 2.603 2.679 4.169 3.432 1.582.752 3.378 1.128 5.39 1.128 2.38 0 4.499-.545 6.357-1.635 1.858-1.09 3.271-2.779 4.238-5.067.967-2.304 1.451-4.883 1.451-7.739 0-3.102-.553-5.904-1.658-8.407-1.106-2.503-2.68-4.323-4.722-5.459-2.042-1.136-4.307-1.705-6.795-1.705-3.731 0-6.672 1.167-8.821 3.501-2.15 2.334-3.225 5.782-3.225 10.342zm124.569-14.994l.185-.162c3.808.123 6.004.185 6.587.185.522 0 2.726-.062 6.611-.185l.184.162v1.151l-.184.162c-1.06.03-1.881.076-2.465.138-.568.061-.983.176-1.244.345-.261.169-.437.568-.529 1.198-.077.614-.116 1.474-.116 2.58l-.046 5.297v7.325c0 2.41.046 4.184.139 5.32.107 1.121.322 2.073.644 2.856a5.48 5.48 0 001.521 2.004c.675.553 1.643 1.006 2.902 1.359 1.259.353 2.687.53 4.284.53 1.689 0 3.263-.23 4.722-.691 1.474-.476 2.595-1.159 3.362-2.05.768-.891 1.267-2.058 1.498-3.501.245-1.459.368-3.478.368-6.058v-7.094c0-1.197-.023-2.84-.069-4.929-.031-2.103-.123-3.309-.276-3.616-.139-.322-.407-.56-.807-.714-.383-.169-1.466-.269-3.247-.299l-.184-.185v-1.082l.184-.208c2.272.123 4.092.185 5.459.185 1.167 0 2.979-.062 5.435-.185l.208.185v1.105l-.208.185c-1.443.03-2.387.092-2.833.184-.43.077-.737.199-.921.368-.169.169-.299.43-.392.783-.076.354-.13 1.367-.161 3.041l-.069 5.182v7.002c0 2.795-.107 4.998-.322 6.611-.215 1.612-.699 2.94-1.451 3.984a10.65 10.65 0 01-2.649 2.603c-1.014.691-2.319 1.221-3.916 1.589a21.206 21.206 0 01-4.975.576c-2.15 0-4.054-.238-5.712-.714-1.643-.476-2.941-1.105-3.893-1.889-.952-.783-1.635-1.604-2.05-2.464-.414-.875-.683-1.896-.806-3.063-.123-1.183-.184-2.979-.184-5.39v-8.845l-.046-4.491c-.015-1.751-.061-2.879-.138-3.386-.062-.507-.169-.845-.323-1.013-.138-.169-.414-.308-.829-.415-.414-.108-1.436-.192-3.063-.253l-.185-.162v-1.151zm156.517-.162l.207.208c-.138 1.382-.207 3.793-.207 7.232l-.185.184h-1.082l-.185-.207-.253-2.119c-.123-1.136-.223-1.827-.299-2.073-.062-.261-.169-.445-.323-.553-.153-.123-.652-.222-1.497-.299a31.439 31.439 0 00-2.833-.115h-4.353c-.123 3.47-.184 5.474-.184 6.011v13.428l.046 4.492c.015 1.735.053 2.864.115 3.386.077.506.184.844.322 1.013.154.154.438.292.852.415.415.107 1.444.192 3.087.253l.161.138V207l-.161.184c-3.931-.123-6.127-.184-6.588-.184-.491 0-2.679.061-6.564.184l-.184-.184v-1.152l.184-.138c1.443-.061 2.396-.138 2.856-.23.476-.092.791-.207.945-.346.168-.153.307-.468.414-.944.108-.476.161-1.536.161-3.179l.046-4.86v-13.428c0-.245-.061-2.249-.184-6.011H418c-1.412 0-2.633.03-3.662.092-1.029.061-1.628.222-1.797.484-.153.245-.299 1.067-.437 2.464l-.231 2.119-.207.207h-1.059l-.185-.184c-.03-3.701-.099-6.111-.207-7.232l.207-.208c2.672.123 7.118.185 13.336.185 6.342 0 10.795-.062 13.36-.185zm94.511.162l.184-.162c3.808.123 6.004.185 6.588.185.522 0 2.725-.062 6.61-.185l.184.162v1.151l-.184.162c-1.059.03-1.881.076-2.464.138-.569.061-.983.176-1.244.345-.261.169-.438.568-.53 1.198-.077.614-.115 1.474-.115 2.58l-.046 5.297v7.325c0 2.41.046 4.184.138 5.32.108 1.121.323 2.073.645 2.856a5.488 5.488 0 001.52 2.004c.676.553 1.643 1.006 2.902 1.359 1.259.353 2.687.53 4.284.53 1.689 0 3.263-.23 4.722-.691 1.474-.476 2.595-1.159 3.363-2.05.768-.891 1.267-2.058 1.497-3.501.246-1.459.369-3.478.369-6.058v-7.094c0-1.197-.023-2.84-.069-4.929-.031-2.103-.123-3.309-.277-3.616-.138-.322-.407-.56-.806-.714-.384-.169-1.466-.269-3.248-.299l-.184-.185v-1.082l.184-.208c2.273.123 4.093.185 5.459.185 1.167 0 2.979-.062 5.436-.185l.207.185v1.105l-.207.185c-1.443.03-2.388.092-2.833.184-.43.077-.737.199-.921.368-.169.169-.3.43-.392.783-.077.354-.131 1.367-.161 3.041l-.069 5.182v7.002c0 2.795-.108 4.998-.323 6.611-.215 1.612-.698 2.94-1.451 3.984a10.65 10.65 0 01-2.649 2.603c-1.013.691-2.318 1.221-3.915 1.589a21.212 21.212 0 01-4.975.576c-2.15 0-4.054-.238-5.713-.714-1.643-.476-2.94-1.105-3.892-1.889-.952-.783-1.635-1.604-2.05-2.464-.415-.875-.683-1.896-.806-3.063-.123-1.183-.184-2.979-.184-5.39v-8.845l-.047-4.491c-.015-1.751-.061-2.879-.138-3.386-.061-.507-.169-.845-.322-1.013-.138-.169-.415-.308-.829-.415-.415-.108-1.436-.192-3.064-.253l-.184-.162v-1.151zm129.683 0l.184-.162c2.81.123 4.998.185 6.564.185 1.736 0 4.077-.054 7.025-.161a94.628 94.628 0 012.373-.047c3.885 0 6.518.707 7.9 2.119 1.382 1.413 2.073 3.087 2.073 5.022 0 1.289-.338 2.556-1.013 3.8-.676 1.244-1.674 2.311-2.995 3.202-1.32.875-3.14 1.535-5.458 1.98a159.32 159.32 0 002.326 3.11l3.271 4.33a495.315 495.315 0 003.408 4.538c1.213 1.581 1.997 2.479 2.35 2.694.353.2.652.323.898.369.261.046.668.069 1.221.069l.184.184v1.083l-.207.207a21.563 21.563 0 00-2.626-.138c-1.09 0-2.28.046-3.57.138-1.06-1.29-2.726-3.524-4.998-6.702a132.36 132.36 0 00-8.108-10.25l.231-.714c.798.046 1.42.069 1.865.069 2.657 0 4.737-.637 6.242-1.912 1.505-1.274 2.257-3.04 2.257-5.297 0-2.027-.675-3.555-2.027-4.584-1.351-1.044-3.178-1.566-5.481-1.566-1.613 0-3.133.223-4.561.668-.23.338-.345 3.217-.345 8.637v10.664l.023 4.492c.015 1.735.061 2.856.138 3.363.077.506.184.844.322 1.013.154.169.438.315.852.438.415.107 1.436.192 3.064.253l.184.138V207l-.184.184c-.077 0-1.428-.046-4.054-.138a95.221 95.221 0 00-2.557-.046c-.476 0-2.671.061-6.587.184l-.184-.184v-1.152l.184-.138c1.428-.061 2.38-.138 2.856-.23s.791-.207.944-.346c.169-.153.3-.468.392-.944.107-.476.169-1.536.184-3.179l.023-4.86v-10.664l-.046-4.491c-.015-1.751-.061-2.879-.138-3.386-.061-.507-.169-.845-.322-1.013-.139-.169-.415-.308-.83-.415-.414-.108-1.435-.192-3.063-.253l-.184-.162v-1.151zm124.915 0l.184-.162c5.267.093 8.637.139 10.111.139 5.037 0 9.521-.046 13.452-.139l.115.162c-.384 1.474-.668 3.785-.852 6.933l-.139.184h-1.128l-.208-.184c.016-.139.023-.261.023-.369 0-1.305-.099-2.549-.299-3.731-.967-.43-2.311-.707-4.031-.829-1.704-.139-2.986-.208-3.846-.208-1.213 0-2.764.085-4.653.254l-.092 3.685-.069 4.215-.069 4.676c1.658.092 3.186.138 4.583.138 1.413 0 2.595-.046 3.547-.138.952-.093 1.505-.185 1.659-.277.169-.107.292-.299.368-.576.092-.291.169-.798.231-1.52l.092-1.428.184-.184h1.06l.184.184a579.018 579.018 0 01-.115 5.044l.115 5.183-.184.184h-1.06l-.184-.184-.161-1.382c-.139-1.075-.238-1.712-.3-1.912-.061-.215-.207-.399-.438-.553-.214-.153-.783-.276-1.704-.368-.921-.092-2.188-.138-3.8-.138-.891 0-2.25.038-4.077.115-.077 1.29-.115 3.439-.115 6.449 0 3.225.038 5.597.115 7.117h4.238c3.731 0 6.065-.046 7.002-.138a9.229 9.229 0 002.672-.668c.138-.353.361-1.167.668-2.442.322-1.289.506-2.096.552-2.418l.231-.161h1.105l.185.161c-.139.66-.277 1.812-.415 3.455a57.695 57.695 0 00-.184 4.215l-.162.184c-2.932-.092-6.771-.138-11.516-.138l-6.265-.046a58.84 58.84 0 00-4.56.184l-.185-.184v-.76l.185-.23c.906-.461 1.42-.745 1.543-.853.138-.122.245-1.466.322-4.03.092-2.58.138-4.546.138-5.897v-8.453l-.023-5.228c0-1.137-.015-2.058-.046-2.764-.03-.722-.084-1.236-.161-1.544-.077-.307-.169-.522-.276-.644-.092-.123-.254-.223-.484-.3-.215-.092-.591-.169-1.129-.23l-1.75-.138-.184-.162v-1.151z"/></g><defs><clipPath id="clip0_294_5419"><path fill="#fff" d="M0 0h817v228H0z"/></clipPath></defs></svg>