<svg width="109" height="109" viewBox="0 0 109 109" fill="none" xmlns="http://www.w3.org/2000/svg">
<path d="M54.539 0.914032C24.9132 0.914032 0.896835 24.9477 0.896835 54.5948C0.896835 84.2419 24.9132 108.276 54.539 108.276C84.1647 108.276 108.181 84.2419 108.181 54.5948C108.181 24.9477 84.1647 0.914032 54.539 0.914032Z" stroke="#593226"/>
<path d="M54.5386 12.5886C31.3559 12.5886 12.5626 31.3955 12.5626 54.5949C12.5626 77.7943 31.3559 96.6012 54.5386 96.6012C77.7214 96.6012 96.5146 77.7943 96.5146 54.5949C96.5146 31.3955 77.7214 12.5886 54.5386 12.5886Z" stroke="#593226"/>
<path d="M54.5373 25.0432C38.2285 25.0432 25.0076 38.2736 25.0076 54.5941C25.0076 70.9146 38.2285 84.145 54.5373 84.145C70.846 84.145 84.0669 70.9146 84.0669 54.5941C84.0669 38.2736 70.846 25.0432 54.5373 25.0432Z" stroke="#593226"/>
<path d="M54.5379 38.6612C45.7447 38.6612 38.6163 45.7946 38.6163 54.5942C38.6163 63.3938 45.7447 70.5272 54.5379 70.5272C63.3311 70.5272 70.4595 63.3938 70.4595 54.5942C70.4595 45.7946 63.3311 38.6612 54.5379 38.6612Z" stroke="#593226"/>
</svg>
