<svg width="187" height="33" viewBox="0 0 187 33" fill="none" xmlns="http://www.w3.org/2000/svg">
<g clip-path="url(#clip0_101_118)">
<path d="M29.947 1.68568C29.3463 1.9811 28.7809 2.38078 28.2686 2.84998C27.7562 3.31917 27.2615 3.89263 26.8021 4.55298C26.3251 5.21332 25.8304 5.96055 25.2827 6.79468C24.9117 7.36816 24.417 8.13275 23.7632 9.08853C23.1096 10.0617 22.4558 11.0696 21.7668 12.0948C21.0777 13.1375 20.424 14.128 19.788 15.0838C19.152 16.0395 18.6573 16.7868 18.2862 17.3255V26.3097C18.2862 27.1786 18.3039 28.0127 18.3569 28.8294C18.3923 29.6462 18.5512 30.2196 18.7809 30.5498C19.2403 31.2102 19.8233 31.6273 20.5477 31.8358C21.2721 32.0443 21.9788 32.2007 22.6325 32.3223V32.7742H8.63957V32.3397C9.41696 32.2528 10.106 32.1138 10.7067 31.9227C11.2897 31.7315 11.9258 31.2623 12.5972 30.5151C12.7562 30.3761 12.8622 30.1154 12.9329 29.7505C13.0035 29.3855 13.0742 28.9859 13.1095 28.5514C13.1626 28.0996 13.1802 27.6304 13.1979 27.1264C13.2156 26.6225 13.2156 26.1359 13.2156 25.6494C13.2509 24.8152 13.2686 23.8247 13.2862 22.6778C13.3039 21.5309 13.3039 20.1406 13.3039 18.5072C13.2509 18.4203 13.0565 18.1422 12.7562 17.6557C12.4558 17.1691 12.0848 16.5956 11.6431 15.8832C11.2014 15.188 10.7244 14.4061 10.1943 13.5372C9.66433 12.6683 9.13427 11.8342 8.62193 11.0174C8.10955 10.2007 7.61484 9.43607 7.17313 8.72359C6.71378 8.01113 6.34275 7.42029 6.04242 6.98584C5.45937 6.11697 4.94699 5.33497 4.46996 4.62248C3.99293 3.91 3.53359 3.3018 3.03887 2.79785C2.54417 2.2939 2.08481 1.89421 1.60777 1.59879C1.14841 1.30337 0.600705 1.1296 0 1.11222V0.6604H13.7633V1.11222C13.3039 1.14698 12.8622 1.18173 12.4028 1.25124C11.9435 1.30337 11.5194 1.40764 11.1308 1.54666C10.742 1.68568 10.424 1.85946 10.1767 2.08537C9.92934 2.31128 9.82331 2.62407 9.82331 3.00638C9.82331 3.38868 10.0353 3.97951 10.477 4.7789C10.9187 5.56087 11.3781 6.36027 11.8728 7.15963C12.2085 7.69833 12.5972 8.34127 13.0565 9.1059C13.5159 9.87053 14.0106 10.6699 14.5583 11.5214C15.106 12.3729 15.6537 13.2418 16.2191 14.128C16.7844 15.0317 17.2968 15.8658 17.7915 16.6825C18.1802 16.1091 18.6749 15.3966 19.2403 14.5103C19.8057 13.6241 20.4064 12.7378 20.9894 11.8342C21.5725 10.9306 22.1378 10.0617 22.6678 9.22755C23.1979 8.39341 23.6043 7.73306 23.8693 7.26387C24.0283 7.02061 24.1873 6.74254 24.364 6.42977C24.5406 6.11697 24.7173 5.78679 24.8763 5.45662C25.0353 5.10908 25.1944 4.7615 25.3004 4.41396C25.4241 4.04905 25.477 3.73624 25.477 3.44082C25.477 2.97162 25.3534 2.58932 25.106 2.32865C24.8587 2.06799 24.5583 1.85946 24.1696 1.70306C23.7986 1.56404 23.3746 1.4424 22.9152 1.37289C22.4558 1.30338 22.0141 1.23386 21.6078 1.16435V0.712537H32.1025V1.16435C31.2897 1.18173 30.5654 1.39026 29.947 1.68568Z" fill="black"/>
<path d="M47.3149 32.7741V32.3397C47.4031 32.3397 47.6152 32.3049 47.9687 32.2528C48.3219 32.1833 48.6754 32.079 49.0639 31.94C49.4351 31.7836 49.7706 31.5751 50.0712 31.3144C50.3538 31.0537 50.495 30.7062 50.495 30.2891C50.495 30.0284 50.4068 29.5766 50.2476 28.9684C50.0889 28.3602 49.8415 27.6129 49.5409 26.7267C49.2406 25.8405 48.8875 24.8673 48.4986 23.8073C48.1098 22.7299 47.6861 21.6177 47.2267 20.4534H35.1418C34.6824 21.5829 34.2584 22.6603 33.8167 23.6856C33.3927 24.7109 32.9686 25.7535 32.5446 26.7962C31.9085 28.4123 31.5905 29.5419 31.5905 30.1848C31.5905 30.5671 31.7142 30.8973 31.9615 31.1406C32.2089 31.4013 32.5093 31.6098 32.8979 31.7662C33.269 31.9226 33.6753 32.0443 34.117 32.1311C34.5587 32.2006 34.9651 32.2701 35.3716 32.3397V32.7915H25.6895V32.3049C26.4845 32.218 27.1559 32.0095 27.7036 31.6793C28.269 31.3491 28.587 31.1232 28.6753 31.0016C28.8873 30.7931 29.2407 30.3065 29.7177 29.5245C30.1948 28.7599 30.7955 27.5956 31.4845 26.0837C32.1206 24.6761 32.8273 23.0948 33.6223 21.3049C34.4174 19.515 35.2124 17.673 36.0603 15.7962C36.8909 13.9021 37.7211 11.9905 38.534 10.079C39.3466 8.15006 40.1242 6.36018 40.8486 4.69194L42.7743 0H44.753C45.6894 2.46762 46.5905 4.81359 47.4387 7.03793C48.2866 9.26223 49.0995 11.3997 49.8768 13.4502C50.6541 15.5008 51.3961 17.4992 52.1204 19.4107C52.8448 21.3396 53.5692 23.2338 54.2939 25.1106C54.6294 26.0316 54.9297 26.7962 55.2299 27.4044C55.5129 28.0127 55.8484 28.7077 56.202 29.4897C56.2725 29.6114 56.396 29.8199 56.6081 30.1153C56.8201 30.4108 57.1028 30.7236 57.4563 31.0363C57.7918 31.3491 58.2336 31.6272 58.7459 31.8531C59.2586 32.0964 59.8591 32.218 60.5658 32.2528V32.7915H47.3149V32.7741ZM41.3609 5.71723C41.1841 6.09955 40.9192 6.70775 40.566 7.54185C40.2124 8.37599 39.7883 9.38388 39.276 10.5829C38.7637 11.7646 38.1985 13.1201 37.58 14.6319C36.9615 16.1264 36.29 17.7599 35.5657 19.515H46.8732C46.3609 18.1769 45.8309 16.8389 45.3009 15.5008C44.7706 14.1627 44.2583 12.8768 43.7637 11.643C43.269 10.4092 42.8096 9.27964 42.4032 8.25434C41.9791 7.21168 41.6259 6.36018 41.3609 5.71723Z" fill="black"/>
<path d="M173.463 32.7741V32.3397C173.552 32.3397 173.781 32.3049 174.135 32.2528C174.488 32.1833 174.841 32.079 175.23 31.94C175.601 31.7836 175.937 31.5751 176.237 31.3144C176.52 31.0537 176.661 30.7062 176.661 30.2891C176.661 30.0284 176.573 29.5766 176.414 28.9684C176.255 28.3602 176.025 27.6129 175.707 26.7267C175.406 25.8405 175.053 24.8673 174.664 23.8073C174.276 22.7299 173.852 21.6177 173.393 20.4534H161.308C160.848 21.5829 160.407 22.6603 159.982 23.6856C159.558 24.7109 159.135 25.7535 158.711 26.7962C158.074 28.4123 157.756 29.5419 157.756 30.1848C157.756 30.5671 157.88 30.8973 158.127 31.1406C158.375 31.4013 158.675 31.6098 159.064 31.7662C159.435 31.9226 159.859 32.0443 160.283 32.1311C160.725 32.2006 161.131 32.2701 161.537 32.3397V32.7915H151.873V32.3049C152.668 32.218 153.339 32.0095 153.887 31.6793C154.453 31.3491 154.77 31.1232 154.859 31.0016C155.071 30.7931 155.424 30.3065 155.901 29.5245C156.378 28.7599 156.979 27.5956 157.668 26.0837C158.304 24.6761 159.011 23.0948 159.806 21.3049C160.583 19.515 161.396 17.673 162.227 15.7962C163.057 13.9021 163.887 11.9905 164.7 10.079C165.513 8.15006 166.29 6.36018 167.014 4.69194L168.94 0H170.919C171.855 2.46762 172.756 4.81359 173.605 7.03793C174.452 9.26223 175.265 11.3997 176.043 13.4502C176.82 15.5008 177.562 17.4992 178.287 19.4107C179.011 21.3396 179.735 23.2338 180.46 25.1106C180.795 26.0316 181.096 26.7962 181.396 27.4044C181.679 28.0127 182.014 28.7077 182.368 29.4897C182.438 29.6114 182.562 29.8199 182.774 30.1153C182.986 30.4108 183.269 30.7236 183.622 31.0363C183.976 31.3491 184.4 31.6272 184.912 31.8531C185.424 32.0964 186.025 32.218 186.732 32.2528V32.7915H173.463V32.7741ZM167.527 5.71723C167.35 6.09955 167.085 6.70775 166.732 7.54185C166.378 8.37599 165.954 9.38388 165.442 10.5829C164.93 11.7646 164.364 13.1201 163.746 14.6319C163.128 16.1264 162.456 17.7599 161.732 19.515H173.039C172.527 18.1769 171.997 16.8389 171.467 15.5008C170.937 14.1627 170.424 12.8768 169.929 11.643C169.417 10.4092 168.975 9.27964 168.569 8.25434C168.128 7.21168 167.792 6.36018 167.527 5.71723Z" fill="black"/>
<path d="M101.184 33V32.5482C101.943 32.4265 102.65 32.2354 103.304 31.9747C103.957 31.7141 104.505 31.3144 104.965 30.8104C105.106 30.6367 105.229 30.376 105.3 30.0458C105.371 29.7156 105.442 29.3333 105.477 28.8815C105.53 28.4297 105.547 27.9605 105.565 27.4739C105.583 26.9873 105.583 26.5008 105.583 26.0142C105.583 25.5971 105.6 25.0237 105.6 24.3112C105.618 23.5987 105.636 22.8167 105.654 21.9652C105.671 21.1311 105.671 20.2622 105.671 19.376C105.671 18.455 105.671 17.5861 105.671 16.7867V8.08057C105.671 7.54183 105.671 7.00313 105.671 6.46443C105.671 5.92574 105.636 5.42177 105.6 4.96999C105.547 4.50076 105.494 4.08371 105.388 3.71876C105.3 3.35385 105.159 3.05843 104.982 2.8499C104.558 2.34595 104.028 1.98102 103.41 1.75512C102.791 1.5292 102.084 1.37281 101.289 1.28592V0.834106H114.346V1.28592C113.71 1.37281 113.039 1.54659 112.314 1.77249C111.59 2.01578 111.024 2.48497 110.636 3.19745C110.371 3.7014 110.212 4.34438 110.212 5.109C110.194 5.89096 110.177 6.62085 110.141 7.29857C110.141 8.04579 110.141 8.77565 110.123 9.50551C110.106 10.2354 110.106 10.9652 110.106 11.7125C110.106 12.4597 110.106 13.2243 110.106 14.0411C110.106 14.8231 110.106 15.6572 110.106 16.5782V26.6746C110.106 27.5434 110.123 28.3775 110.159 29.1769C110.194 29.9763 110.318 30.5497 110.565 30.8799C110.936 31.3839 111.501 31.7836 112.297 32.0442C113.092 32.3049 113.798 32.4786 114.434 32.5308V32.9826H101.184V33Z" fill="black"/>
<path d="M151.572 1.91159C150.901 2.32865 150.371 2.97163 150.017 3.82313C149.805 4.27495 149.664 5.09169 149.611 6.3081C149.54 7.50718 149.487 8.81047 149.434 10.1659C149.364 11.4519 149.311 12.9637 149.275 14.7015C149.222 16.4392 149.205 18.316 149.205 20.3144C149.205 21.1486 149.205 22.1043 149.205 23.1817C149.205 24.2244 149.222 25.2844 149.222 26.3792C149.24 27.474 149.24 28.5514 149.24 29.6115C149.24 30.6715 149.24 31.6446 149.24 32.5135C149.24 32.6352 149.205 32.722 149.134 32.8089C149.063 32.8784 148.94 32.9132 148.798 32.9132C148.551 32.9132 148.286 32.7568 147.985 32.4614C145.406 29.5419 143.056 26.8658 140.954 24.4156C138.834 21.9653 136.819 19.6367 134.894 17.4298C132.968 15.2054 131.077 13.0506 129.24 10.9306C127.403 8.81051 125.441 6.6209 123.374 4.36183V23.2165C123.374 24.7284 123.41 26.1012 123.48 27.335C123.551 28.5514 123.745 29.455 124.045 30.0633C124.381 30.741 124.894 31.2623 125.618 31.6099C126.325 31.9574 127.314 32.2007 128.551 32.3397V32.7915H117.385V32.3397C118.109 32.2528 118.833 32.0617 119.558 31.7837C120.282 31.5056 120.865 31.0364 121.29 30.376C121.713 29.7505 121.979 28.8295 122.102 27.613C122.226 26.3966 122.314 24.9369 122.367 23.2339C122.438 21.9479 122.473 20.4361 122.509 18.6983C122.544 16.9606 122.561 15.0838 122.561 13.0854C122.561 12.2165 122.561 11.504 122.561 10.9479C122.561 10.3745 122.561 9.83577 122.561 9.29707C122.561 8.75837 122.561 8.20227 122.561 7.6462C122.561 7.05536 122.544 6.3255 122.509 5.45663C122.42 4.58776 122.208 3.89264 121.872 3.33655C121.537 2.78047 121.148 2.34603 120.689 2.03323C120.229 1.72044 119.735 1.49453 119.222 1.37289C118.692 1.23387 118.18 1.14698 117.703 1.07747V0.625655H126.925L148.445 25.3713V10.1833C148.445 9.00163 148.427 7.85472 148.392 6.75992C148.357 5.66516 148.233 4.81365 147.985 4.18804C147.685 3.35393 147.138 2.67621 146.378 2.15488C145.6 1.63355 144.487 1.26863 143.039 1.0601V0.608276H154.293V1.0601C153.144 1.21649 152.244 1.49453 151.572 1.91159Z" fill="black"/>
<path d="M88.3391 0.608196V1.06001C89.7878 1.26855 90.901 1.63347 91.6782 2.1548C92.4559 2.67612 92.9858 3.35385 93.2861 4.18796C93.5334 4.81357 93.6573 5.66507 93.6925 6.75984C93.7278 7.85464 93.7455 8.98418 93.7455 10.1832V25.3712L72.226 0.608196H63.0034V1.06001C63.4804 1.11215 63.9927 1.21641 64.523 1.35543C65.053 1.49445 65.5476 1.72036 66.007 2.01578C66.4664 2.32858 66.8552 2.76302 67.1908 3.3191C67.5263 3.87519 67.7384 4.57027 67.8269 5.43915C67.8622 6.30802 67.8798 7.03791 67.8798 7.62875C67.8798 8.18481 67.8798 8.74088 67.8798 9.27962C67.8798 9.81831 67.8798 10.3744 67.8798 10.9305C67.8798 11.5039 67.8798 12.2164 67.8798 13.0679C67.8798 15.0663 67.8622 16.9257 67.8269 18.6809C67.7916 20.4186 67.756 21.9305 67.6854 23.2164C67.6325 24.9194 67.5263 26.3791 67.4205 27.5956C67.2966 28.812 67.0316 29.733 66.6079 30.3586C66.1838 31.0189 65.6182 31.4881 64.8762 31.7662C64.1518 32.0442 63.4275 32.2354 62.7031 32.3223V32.7741H73.8691V32.3396C72.6325 32.1832 71.6431 31.94 70.9364 31.6098C70.2297 31.2622 69.6997 30.7583 69.3639 30.0632C69.0636 29.4723 68.8692 28.5513 68.7986 27.3349C68.7277 26.1185 68.6924 24.7456 68.6924 23.2164V4.36175C70.742 6.62082 72.703 8.81043 74.5406 10.9305C76.3958 13.0505 78.2686 15.2053 80.1943 17.4297C82.1201 19.654 84.1344 21.9826 86.2545 24.4155C88.3391 26.8136 90.6536 29.4549 93.1802 32.3223H94.576C94.576 31.5055 94.576 30.6019 94.576 29.594C94.576 28.5166 94.576 27.4392 94.5584 26.3617C94.5408 25.267 94.5408 24.2069 94.5408 23.1643C94.5408 22.0869 94.5408 21.1311 94.5408 20.297C94.5408 18.2985 94.5584 16.4392 94.6113 14.684C94.6466 12.9463 94.6995 11.4344 94.7705 10.1485C94.8234 8.77565 94.8939 7.4897 94.9469 6.29065C95.0001 5.0916 95.1413 4.25747 95.3533 3.80568C95.7245 2.93679 96.2368 2.29382 96.9259 1.89414C97.597 1.47708 98.5157 1.19903 99.6289 1.04263V0.59082H88.3391V0.608196Z" fill="black"/>
</g>
<defs>
<clipPath id="clip0_101_118">
<rect width="187" height="33" fill="white"/>
</clipPath>
</defs>
</svg>
