<svg width="817" height="228" viewBox="0 0 817 228" fill="none" xmlns="http://www.w3.org/2000/svg">
<g clip-path="url(#clip0_294_5419)">
<path d="M130.998 7.4219C128.37 8.72258 125.897 10.4824 123.656 12.5482C121.415 14.614 119.251 17.1388 117.241 20.0463C115.155 22.9537 112.991 26.2436 110.595 29.9162C108.972 32.4412 106.808 35.8076 103.948 40.0158C101.089 44.3005 98.2293 48.7381 95.2152 53.2522C92.2011 57.8429 89.3415 62.204 86.5592 66.4122C83.7771 70.6203 81.6131 73.9104 79.99 76.2822V115.839C79.99 119.664 80.0673 123.337 80.2992 126.933C80.4538 130.529 81.1493 133.054 82.154 134.507C84.1634 137.415 86.7138 139.251 89.8826 140.169C93.0512 141.087 96.1426 141.776 99.0022 142.312V144.301H37.7923V142.388C41.1929 142.005 44.207 141.393 46.8348 140.552C49.3851 139.71 52.1674 137.644 55.1043 134.354C55.7998 133.742 56.2635 132.595 56.5727 130.988C56.8818 129.381 57.191 127.621 57.3455 125.709C57.5774 123.719 57.6546 121.653 57.7319 119.435C57.8093 117.216 57.8093 115.073 57.8093 112.931C57.9637 109.259 58.0411 104.897 58.1184 99.8477C58.1956 94.798 58.1957 88.6769 58.1957 81.485C57.9637 81.1023 57.1137 79.8782 55.7998 77.7359C54.486 75.5935 52.863 73.0687 50.9308 69.9317C48.9988 66.8712 46.912 63.4283 44.5935 59.6026C42.275 55.7771 39.9563 52.1046 37.7152 48.5085C35.4738 44.9125 33.3098 41.546 31.3777 38.409C29.3683 35.2721 27.7453 32.6707 26.4315 30.7579C23.8811 26.9323 21.6398 23.4893 19.5531 20.3523C17.4664 17.2153 15.4571 14.5375 13.293 12.3186C11.1291 10.0998 9.11964 8.34004 7.03294 7.03934C5.02353 5.73864 2.62768 4.97354 0 4.89703V2.90771H60.2051V4.89703C58.1956 5.05005 56.2635 5.20306 54.254 5.50911C52.2447 5.73865 50.3898 6.19772 48.6896 6.80982C46.9893 7.42191 45.5982 8.18704 44.5161 9.18168C43.4342 10.1763 42.9704 11.5535 42.9704 13.2368C42.9704 14.92 43.8979 17.5213 45.83 21.041C47.7622 24.4839 49.7716 28.0035 51.9356 31.5231C53.4039 33.8949 55.1043 36.7257 57.1136 40.0923C59.1231 43.4588 61.287 46.9783 63.6828 50.7274C66.0788 54.4765 68.4746 58.302 70.9477 62.204C73.4207 66.1827 75.662 69.8553 77.826 73.4512C79.5262 70.9263 81.6904 67.7893 84.1634 63.8873C86.6365 59.9853 89.2643 56.0831 91.8146 52.1045C94.3651 48.126 96.8382 44.3005 99.1567 40.6279C101.475 36.9553 103.253 34.0478 104.412 31.982C105.108 30.911 105.803 29.6867 106.576 28.3096C107.349 26.9323 108.122 25.4786 108.817 24.0249C109.513 22.4947 110.208 20.9644 110.672 19.4342C111.213 17.8275 111.445 16.4503 111.445 15.1496C111.445 13.0838 110.904 11.4005 109.822 10.2528C108.74 9.10516 107.426 8.18702 105.726 7.49841C104.103 6.88632 102.248 6.35075 100.239 6.04471C98.2293 5.73866 96.2971 5.43259 94.5196 5.12655V3.13727H140.427V5.12655C136.872 5.20307 133.703 6.1212 130.998 7.4219Z" fill="white"/>
<path d="M206.969 144.301V142.388C207.355 142.388 208.282 142.235 209.829 142.005C211.374 141.699 212.92 141.24 214.62 140.628C216.243 139.939 217.711 139.021 219.026 137.874C220.262 136.726 220.88 135.196 220.88 133.359C220.88 132.212 220.494 130.222 219.798 127.544C219.103 124.867 218.021 121.577 216.706 117.675C215.393 113.772 213.848 109.488 212.147 104.821C210.446 100.077 208.593 95.1802 206.583 90.0539H153.72C151.71 95.0271 149.855 99.7708 147.923 104.285C146.068 108.799 144.214 113.39 142.359 117.981C139.576 125.096 138.185 130.069 138.185 132.9C138.185 134.583 138.726 136.037 139.808 137.108C140.89 138.256 142.204 139.174 143.904 139.863C145.527 140.551 147.305 141.087 149.237 141.47C151.169 141.776 152.947 142.082 154.725 142.388V144.377H112.372V142.235C115.85 141.852 118.787 140.934 121.183 139.48C123.656 138.027 125.047 137.032 125.433 136.496C126.361 135.578 127.906 133.436 129.993 129.993C132.08 126.626 134.707 121.5 137.722 114.844C140.504 108.646 143.595 101.684 147.073 93.803C150.551 85.9223 154.029 77.8121 157.738 69.5488C161.371 61.2092 165.002 52.7929 168.558 44.3766C172.113 35.8838 175.515 28.0031 178.683 20.6581L187.107 0H195.762C199.859 10.8646 203.8 21.1937 207.511 30.9872C211.219 40.7805 214.775 50.1915 218.176 59.2198C221.576 68.2482 224.821 77.0469 227.99 85.4632C231.159 93.9559 234.327 102.296 237.497 110.559C238.965 114.614 240.279 117.981 241.592 120.658C242.83 123.336 244.298 126.397 245.844 129.84C246.153 130.375 246.693 131.294 247.62 132.594C248.548 133.895 249.784 135.272 251.331 136.649C252.799 138.027 254.731 139.251 256.972 140.245C259.214 141.316 261.841 141.852 264.933 142.005V144.377H206.969V144.301ZM180.924 25.1723C180.151 26.8556 178.992 29.5334 177.447 33.2059C175.9 36.8785 174.045 41.3161 171.804 46.5954C169.563 51.7982 167.091 57.7661 164.385 64.4226C161.68 71.0025 158.742 78.1946 155.574 85.9223H205.037C202.796 80.0308 200.477 74.1395 198.159 68.2482C195.84 62.3568 193.599 56.6949 191.435 51.2627C189.271 45.8304 187.261 40.8571 185.483 36.3429C183.628 31.7522 182.083 28.0031 180.924 25.1723Z" fill="white"/>
<path d="M758.784 144.301V142.388C759.171 142.388 760.176 142.235 761.721 142.005C763.268 141.699 764.812 141.24 766.513 140.628C768.135 139.939 769.605 139.021 770.918 137.874C772.154 136.726 772.773 135.196 772.773 133.359C772.773 132.212 772.386 130.222 771.691 127.544C770.995 124.867 769.991 121.577 768.6 117.675C767.285 113.772 765.74 109.488 764.039 104.821C762.34 100.077 760.485 95.1802 758.475 90.0539H705.612C703.603 95.0271 701.671 99.7708 699.815 104.285C697.96 108.799 696.107 113.39 694.252 117.981C691.469 125.096 690.078 130.069 690.078 132.9C690.078 134.583 690.618 136.037 691.7 137.108C692.784 138.256 694.097 139.174 695.796 139.863C697.42 140.551 699.275 141.087 701.13 141.47C703.061 141.776 704.839 142.082 706.617 142.388V144.377H664.342V142.235C667.819 141.852 670.756 140.934 673.153 139.48C675.626 138.027 677.016 137.032 677.404 136.496C678.331 135.578 679.876 133.436 681.963 129.993C684.05 126.626 686.678 121.5 689.692 114.844C692.474 108.646 695.565 101.684 699.044 93.803C702.444 85.9223 705.998 77.8121 709.631 69.5488C713.263 61.2092 716.896 52.7929 720.451 44.3766C724.007 35.8838 727.407 28.0031 730.575 20.6581L738.999 0H747.655C751.751 10.8646 755.693 21.1937 759.403 30.9872C763.112 40.7805 766.668 50.1915 770.068 59.2198C773.468 68.2482 776.715 77.0469 779.884 85.4632C783.052 93.9559 786.221 102.296 789.39 110.559C790.857 114.614 792.172 117.981 793.486 120.658C794.722 123.336 796.19 126.397 797.736 129.84C798.045 130.375 798.587 131.294 799.514 132.594C800.442 133.895 801.678 135.272 803.223 136.649C804.77 138.027 806.625 139.251 808.866 140.245C811.107 141.316 813.734 141.852 816.825 142.005V144.377H758.784V144.301ZM732.816 25.1723C732.043 26.8556 730.884 29.5334 729.339 33.2059C727.793 36.8785 725.939 41.3161 723.696 46.5954C721.455 51.7982 718.983 57.7661 716.277 64.4226C713.573 71.0025 710.636 78.1946 707.468 85.9223H756.93C754.688 80.0308 752.37 74.1395 750.051 68.2482C747.733 62.3568 745.491 56.6949 743.327 51.2627C741.086 45.8304 739.154 40.8571 737.377 36.3429C735.445 31.7522 733.975 28.0031 732.816 25.1723Z" fill="white"/>
<path d="M442.612 145.295V143.306C445.935 142.77 449.026 141.929 451.886 140.781C454.744 139.633 457.141 137.873 459.151 135.655C459.768 134.89 460.31 133.742 460.619 132.288C460.927 130.834 461.238 129.151 461.392 127.162C461.623 125.173 461.701 123.107 461.778 120.964C461.855 118.822 461.855 116.68 461.855 114.537C461.855 112.701 461.932 110.176 461.932 107.039C462.009 103.902 462.086 100.459 462.165 96.7103C462.242 93.0379 462.242 89.2122 462.242 85.3102C462.242 81.255 462.242 77.4295 462.242 73.91V35.5778C462.242 33.2058 462.242 30.834 462.242 28.4622C462.242 26.0903 462.088 23.8714 461.932 21.8823C461.701 19.8163 461.469 17.9801 461.004 16.3733C460.619 14.7666 460 13.4659 459.228 12.5478C457.373 10.329 455.055 8.72222 452.349 7.72758C449.644 6.73292 446.552 6.04431 443.075 5.66176V3.67249H500.188V5.66176C497.407 6.04431 494.47 6.80945 491.301 7.8041C488.133 8.87526 485.659 10.9411 483.959 14.078C482.8 16.2968 482.104 19.1278 482.104 22.4943C482.027 25.9372 481.95 29.1509 481.796 32.1348C481.796 35.4247 481.796 38.6382 481.717 41.8516C481.64 45.0651 481.64 48.2786 481.64 51.5687C481.64 54.8586 481.64 58.2252 481.64 61.8211C481.64 65.2642 481.64 68.9368 481.64 72.9919V117.445C481.64 121.271 481.717 124.943 481.873 128.463C482.027 131.982 482.567 134.507 483.649 135.961C485.273 138.18 487.745 139.939 491.224 141.087C494.701 142.235 497.793 143 500.576 143.229V145.219H442.612V145.295Z" fill="white"/>
<path d="M663.03 8.41633C660.092 10.2526 657.774 13.0835 656.228 16.8326C655.3 18.8219 654.683 22.4179 654.45 27.7736C654.141 33.053 653.91 38.7913 653.678 44.7592C653.368 50.421 653.136 57.0775 652.982 64.7288C652.75 72.3798 652.673 80.6432 652.673 89.4419C652.673 93.1144 652.673 97.3226 652.673 102.066C652.673 106.657 652.751 111.324 652.751 116.144C652.828 120.965 652.828 125.708 652.828 130.376C652.828 135.043 652.828 139.327 652.828 143.153C652.828 143.689 652.673 144.071 652.363 144.454C652.054 144.76 651.514 144.913 650.895 144.913C649.813 144.913 648.654 144.224 647.339 142.923C636.057 130.069 625.778 118.287 616.581 107.499C607.307 96.7105 598.496 86.458 590.072 76.741C581.648 66.9475 573.378 57.4602 565.34 48.1258C557.304 38.7914 548.724 29.1509 539.681 19.2044V102.219C539.681 108.876 539.837 114.92 540.146 120.352C540.455 125.708 541.305 129.687 542.618 132.365C544.088 135.349 546.329 137.644 549.497 139.174C552.589 140.704 556.916 141.776 562.326 142.388V144.377H513.482V142.388C516.651 142.005 519.819 141.164 522.988 139.939C526.157 138.715 528.708 136.649 530.563 133.742C532.417 130.988 533.577 126.932 534.117 121.577C534.659 116.221 535.045 109.794 535.276 102.296C535.587 96.634 535.741 89.9775 535.895 82.3263C536.05 74.6752 536.127 66.412 536.127 57.6131C536.127 53.7876 536.127 50.6506 536.127 48.2023C536.127 45.6773 536.127 43.3055 536.127 40.9337C536.127 38.5619 536.127 36.1134 536.127 33.6651C536.127 31.0637 536.05 27.8503 535.895 24.0247C535.508 20.1992 534.582 17.1386 533.113 14.6903C531.645 12.2419 529.944 10.3291 527.935 8.9519C525.925 7.5747 523.761 6.58007 521.52 6.0445C519.202 5.43241 516.961 5.04982 514.874 4.74378V2.7545H555.216L649.349 111.707V44.8357C649.349 39.6329 649.272 34.5832 649.117 29.7629C648.963 24.9428 648.423 21.1937 647.339 18.4393C646.026 14.7668 643.631 11.7828 640.308 9.48749C636.906 7.19214 632.038 5.58543 625.701 4.66728V2.67798H674.931V4.66728C669.907 5.35589 665.967 6.58005 663.03 8.41633Z" fill="white"/>
<path d="M386.424 2.67782V4.66712C392.762 5.58527 397.631 7.19199 401.031 9.48733C404.433 11.7827 406.751 14.7666 408.064 18.4391C409.146 21.1936 409.688 24.9427 409.842 29.7628C409.997 34.5831 410.074 39.5563 410.074 44.8355V111.706L315.941 2.67782H275.598V4.66712C277.685 4.89666 279.926 5.35572 282.245 5.96781C284.563 6.5799 286.727 7.57455 288.737 8.87525C290.746 10.2525 292.447 12.1652 293.915 14.6136C295.383 17.062 296.31 20.1224 296.698 23.9479C296.852 27.7735 296.929 30.9871 296.929 33.5885C296.929 36.0368 296.929 38.4851 296.929 40.8571C296.929 43.2289 296.929 45.6772 296.929 48.1256C296.929 50.6504 296.929 53.7874 296.929 57.5365C296.929 66.3352 296.852 74.5221 296.698 82.2496C296.543 89.9007 296.387 96.5572 296.079 102.219C295.847 109.717 295.383 116.144 294.92 121.5C294.378 126.856 293.219 130.911 291.365 133.665C289.51 136.573 287.036 138.639 283.79 139.863C280.622 141.087 277.453 141.928 274.284 142.311V144.3H323.128V142.388C317.719 141.699 313.391 140.628 310.3 139.174C307.208 137.644 304.89 135.425 303.421 132.365C302.107 129.763 301.257 125.708 300.948 120.352C300.638 114.997 300.484 108.952 300.484 102.219V19.2043C309.449 29.1507 318.027 38.7913 326.065 48.1256C334.181 57.46 342.373 66.9473 350.797 76.7408C359.221 86.5343 368.032 96.7868 377.306 107.498C386.424 118.057 396.549 129.687 407.601 142.311H413.707C413.707 138.715 413.707 134.736 413.707 130.299C413.707 125.555 413.707 120.811 413.63 116.068C413.553 111.247 413.553 106.58 413.553 101.99C413.553 97.2459 413.553 93.0377 413.553 89.3653C413.553 80.5664 413.63 72.3797 413.861 64.6521C414.016 57.0009 414.247 50.3444 414.558 44.6826C414.789 38.6382 415.098 32.9763 415.329 27.697C415.562 22.4177 416.18 18.7451 417.107 16.756C418.731 12.9303 420.972 10.0994 423.986 8.33966C426.922 6.50339 430.941 5.2792 435.81 4.59059V2.60132H386.424V2.67782Z" fill="white"/>
<path d="M56.1309 203.107L55.2557 205.249C51.8468 206.985 48.2076 207.852 44.3381 207.852C38.7948 207.852 34.288 206.278 30.8177 203.13C27.3628 199.983 25.6353 195.867 25.6353 190.785C25.6353 187.284 26.4952 184.228 28.215 181.618C29.9502 178.992 32.2304 177.034 35.0558 175.744C37.8965 174.439 41.0828 173.787 44.6145 173.787C46.6567 173.787 48.6759 174.001 50.6721 174.431C52.6683 174.861 54.3344 175.376 55.6703 175.975L55.8315 176.205C55.4783 177.065 55.1482 179.192 54.8411 182.585L54.6799 182.769H53.5973L53.413 182.585L53.1827 178.67C52.0618 177.779 50.7028 177.088 49.1059 176.597C47.5243 176.09 45.8736 175.836 44.1538 175.836C41.5588 175.836 39.2324 176.397 37.1748 177.518C35.1172 178.623 33.5203 180.236 32.384 182.355C31.2477 184.458 30.6795 187.038 30.6795 190.094C30.6795 193.165 31.3475 195.86 32.6834 198.178C34.0193 200.497 35.8389 202.278 38.1422 203.522C40.4609 204.766 43.1634 205.388 46.2498 205.388C47.6164 205.388 48.9293 205.257 50.1884 204.996C51.4476 204.735 52.4917 204.413 53.3209 204.029C54.1655 203.645 54.9716 203.177 55.7394 202.624L56.1309 203.107ZM151.241 191.13C151.241 188.827 151.571 186.677 152.232 184.681C152.892 182.685 154.013 180.842 155.594 179.153C157.191 177.449 159.111 176.136 161.353 175.215C163.595 174.278 166.128 173.81 168.954 173.81C174.19 173.81 178.359 175.238 181.46 178.094C184.562 180.934 186.113 184.819 186.113 189.748C186.113 193.219 185.353 196.336 183.833 199.1C182.313 201.864 180.132 204.013 177.291 205.549C174.466 207.084 171.288 207.852 167.756 207.852C165.253 207.852 162.95 207.438 160.846 206.608C158.742 205.764 156.946 204.512 155.456 202.854C153.982 201.196 152.907 199.276 152.232 197.096C151.571 194.915 151.241 192.927 151.241 191.13ZM156.032 189.61C156.032 191.483 156.332 193.503 156.93 195.668C157.545 197.818 158.451 199.668 159.648 201.219C160.861 202.754 162.251 203.898 163.817 204.651C165.399 205.403 167.195 205.779 169.207 205.779C171.587 205.779 173.706 205.234 175.564 204.144C177.422 203.054 178.835 201.365 179.802 199.077C180.769 196.773 181.253 194.194 181.253 191.338C181.253 188.236 180.7 185.434 179.595 182.931C178.489 180.428 176.915 178.608 174.873 177.472C172.831 176.336 170.566 175.767 168.078 175.767C164.347 175.767 161.406 176.934 159.257 179.268C157.107 181.602 156.032 185.05 156.032 189.61ZM280.601 174.616L280.786 174.454C284.594 174.577 286.79 174.639 287.373 174.639C287.895 174.639 290.099 174.577 293.984 174.454L294.168 174.616V175.767L293.984 175.929C292.924 175.959 292.103 176.005 291.519 176.067C290.951 176.128 290.536 176.243 290.275 176.412C290.014 176.581 289.838 176.98 289.746 177.61C289.669 178.224 289.63 179.084 289.63 180.19L289.584 185.487V192.812C289.584 195.222 289.63 196.996 289.723 198.132C289.83 199.253 290.045 200.205 290.367 200.988C290.705 201.756 291.212 202.424 291.888 202.992C292.563 203.545 293.531 203.998 294.79 204.351C296.049 204.704 297.477 204.881 299.074 204.881C300.763 204.881 302.337 204.651 303.796 204.19C305.27 203.714 306.391 203.031 307.158 202.14C307.926 201.249 308.425 200.082 308.656 198.639C308.901 197.18 309.024 195.161 309.024 192.581V185.487C309.024 184.29 309.001 182.647 308.955 180.558C308.924 178.455 308.832 177.249 308.679 176.942C308.54 176.62 308.272 176.382 307.872 176.228C307.489 176.059 306.406 175.959 304.625 175.929L304.441 175.744V174.662L304.625 174.454C306.897 174.577 308.717 174.639 310.084 174.639C311.251 174.639 313.063 174.577 315.519 174.454L315.727 174.639V175.744L315.519 175.929C314.076 175.959 313.132 176.021 312.686 176.113C312.256 176.19 311.949 176.312 311.765 176.481C311.596 176.65 311.466 176.911 311.373 177.264C311.297 177.618 311.243 178.631 311.212 180.305L311.143 185.487V192.489C311.143 195.284 311.036 197.487 310.821 199.1C310.606 200.712 310.122 202.04 309.37 203.084C308.633 204.113 307.75 204.981 306.721 205.687C305.707 206.378 304.402 206.908 302.805 207.276C301.208 207.66 299.55 207.852 297.83 207.852C295.68 207.852 293.776 207.614 292.118 207.138C290.475 206.662 289.177 206.033 288.225 205.249C287.273 204.466 286.59 203.645 286.175 202.785C285.761 201.91 285.492 200.889 285.369 199.722C285.246 198.539 285.185 196.743 285.185 194.332V185.487L285.139 180.996C285.124 179.245 285.078 178.117 285.001 177.61C284.939 177.103 284.832 176.765 284.678 176.597C284.54 176.428 284.264 176.289 283.849 176.182C283.435 176.074 282.413 175.99 280.786 175.929L280.601 175.767V174.616ZM437.118 174.454L437.325 174.662C437.187 176.044 437.118 178.455 437.118 181.894L436.933 182.078H435.851L435.666 181.871L435.413 179.752C435.29 178.616 435.19 177.925 435.114 177.679C435.052 177.418 434.945 177.234 434.791 177.126C434.638 177.003 434.139 176.904 433.294 176.827C432.45 176.75 431.505 176.712 430.461 176.712H426.108C425.985 180.182 425.924 182.186 425.924 182.723V196.151L425.97 200.643C425.985 202.378 426.023 203.507 426.085 204.029C426.162 204.535 426.269 204.873 426.407 205.042C426.561 205.196 426.845 205.334 427.259 205.457C427.674 205.564 428.703 205.649 430.346 205.71L430.507 205.848V207L430.346 207.184C426.415 207.061 424.219 207 423.758 207C423.267 207 421.079 207.061 417.194 207.184L417.01 207V205.848L417.194 205.71C418.637 205.649 419.59 205.572 420.05 205.48C420.526 205.388 420.841 205.273 420.995 205.134C421.163 204.981 421.302 204.666 421.409 204.19C421.517 203.714 421.57 202.654 421.57 201.011L421.616 196.151V182.723C421.616 182.478 421.555 180.474 421.432 176.712H418C416.588 176.712 415.367 176.742 414.338 176.804C413.309 176.865 412.71 177.026 412.541 177.288C412.388 177.533 412.242 178.355 412.104 179.752L411.873 181.871L411.666 182.078H410.607L410.422 181.894C410.392 178.193 410.323 175.783 410.215 174.662L410.422 174.454C413.094 174.577 417.54 174.639 423.758 174.639C430.1 174.639 434.553 174.577 437.118 174.454ZM531.629 174.616L531.813 174.454C535.621 174.577 537.817 174.639 538.401 174.639C538.923 174.639 541.126 174.577 545.011 174.454L545.195 174.616V175.767L545.011 175.929C543.952 175.959 543.13 176.005 542.547 176.067C541.978 176.128 541.564 176.243 541.303 176.412C541.042 176.581 540.865 176.98 540.773 177.61C540.696 178.224 540.658 179.084 540.658 180.19L540.612 185.487V192.812C540.612 195.222 540.658 196.996 540.75 198.132C540.858 199.253 541.073 200.205 541.395 200.988C541.733 201.756 542.24 202.424 542.915 202.992C543.591 203.545 544.558 203.998 545.817 204.351C547.076 204.704 548.504 204.881 550.101 204.881C551.79 204.881 553.364 204.651 554.823 204.19C556.297 203.714 557.418 203.031 558.186 202.14C558.954 201.249 559.453 200.082 559.683 198.639C559.929 197.18 560.052 195.161 560.052 192.581V185.487C560.052 184.29 560.029 182.647 559.983 180.558C559.952 178.455 559.86 177.249 559.706 176.942C559.568 176.62 559.299 176.382 558.9 176.228C558.516 176.059 557.434 175.959 555.652 175.929L555.468 175.744V174.662L555.652 174.454C557.925 174.577 559.745 174.639 561.111 174.639C562.278 174.639 564.09 174.577 566.547 174.454L566.754 174.639V175.744L566.547 175.929C565.104 175.959 564.159 176.021 563.714 176.113C563.284 176.19 562.977 176.312 562.793 176.481C562.624 176.65 562.493 176.911 562.401 177.264C562.324 177.618 562.27 178.631 562.24 180.305L562.171 185.487V192.489C562.171 195.284 562.063 197.487 561.848 199.1C561.633 200.712 561.15 202.04 560.397 203.084C559.66 204.113 558.777 204.981 557.748 205.687C556.735 206.378 555.43 206.908 553.833 207.276C552.236 207.66 550.577 207.852 548.858 207.852C546.708 207.852 544.804 207.614 543.145 207.138C541.502 206.662 540.205 206.033 539.253 205.249C538.301 204.466 537.618 203.645 537.203 202.785C536.788 201.91 536.52 200.889 536.397 199.722C536.274 198.539 536.213 196.743 536.213 194.332V185.487L536.166 180.996C536.151 179.245 536.105 178.117 536.028 177.61C535.967 177.103 535.859 176.765 535.706 176.597C535.568 176.428 535.291 176.289 534.877 176.182C534.462 176.074 533.441 175.99 531.813 175.929L531.629 175.767V174.616ZM661.312 174.616L661.496 174.454C664.306 174.577 666.494 174.639 668.06 174.639C669.796 174.639 672.137 174.585 675.085 174.478C676.176 174.447 676.966 174.431 677.458 174.431C681.343 174.431 683.976 175.138 685.358 176.55C686.74 177.963 687.431 179.637 687.431 181.572C687.431 182.861 687.093 184.128 686.418 185.372C685.742 186.616 684.744 187.683 683.423 188.574C682.103 189.449 680.283 190.109 677.965 190.554C678.394 191.153 679.17 192.19 680.291 193.664L683.562 197.994C684.621 199.422 685.757 200.935 686.97 202.532C688.183 204.113 688.967 205.011 689.32 205.226C689.673 205.426 689.972 205.549 690.218 205.595C690.479 205.641 690.886 205.664 691.439 205.664L691.623 205.848V206.931L691.416 207.138C690.679 207.046 689.803 207 688.79 207C687.7 207 686.51 207.046 685.22 207.138C684.16 205.848 682.494 203.614 680.222 200.436C677.581 196.75 674.878 193.334 672.114 190.186L672.345 189.472C673.143 189.518 673.765 189.541 674.21 189.541C676.867 189.541 678.947 188.904 680.452 187.629C681.957 186.355 682.709 184.589 682.709 182.332C682.709 180.305 682.034 178.777 680.682 177.748C679.331 176.704 677.504 176.182 675.201 176.182C673.588 176.182 672.068 176.405 670.64 176.85C670.41 177.188 670.295 180.067 670.295 185.487V196.151L670.318 200.643C670.333 202.378 670.379 203.499 670.456 204.006C670.533 204.512 670.64 204.85 670.778 205.019C670.932 205.188 671.216 205.334 671.63 205.457C672.045 205.564 673.066 205.649 674.694 205.71L674.878 205.848V207L674.694 207.184C674.617 207.184 673.266 207.138 670.64 207.046C669.55 207.015 668.698 207 668.083 207C667.607 207 665.412 207.061 661.496 207.184L661.312 207V205.848L661.496 205.71C662.924 205.649 663.876 205.572 664.352 205.48C664.828 205.388 665.143 205.273 665.296 205.134C665.465 204.981 665.596 204.666 665.688 204.19C665.795 203.714 665.857 202.654 665.872 201.011L665.895 196.151V185.487L665.849 180.996C665.834 179.245 665.788 178.117 665.711 177.61C665.65 177.103 665.542 176.765 665.389 176.597C665.25 176.428 664.974 176.289 664.559 176.182C664.145 176.074 663.124 175.99 661.496 175.929L661.312 175.767V174.616ZM786.227 174.616L786.411 174.454C791.678 174.547 795.048 174.593 796.522 174.593C801.559 174.593 806.043 174.547 809.974 174.454L810.089 174.616C809.705 176.09 809.421 178.401 809.237 181.549L809.098 181.733H807.97L807.762 181.549C807.778 181.41 807.785 181.288 807.785 181.18C807.785 179.875 807.686 178.631 807.486 177.449C806.519 177.019 805.175 176.742 803.455 176.62C801.751 176.481 800.469 176.412 799.609 176.412C798.396 176.412 796.845 176.497 794.956 176.666L794.864 180.351L794.795 184.566L794.726 189.242C796.384 189.334 797.912 189.38 799.309 189.38C800.722 189.38 801.904 189.334 802.856 189.242C803.808 189.149 804.361 189.057 804.515 188.965C804.684 188.858 804.807 188.666 804.883 188.389C804.975 188.098 805.052 187.591 805.114 186.869L805.206 185.441L805.39 185.257H806.45L806.634 185.441C806.603 187.115 806.565 188.796 806.519 190.485L806.634 195.668L806.45 195.852H805.39L805.206 195.668L805.045 194.286C804.906 193.211 804.807 192.574 804.745 192.374C804.684 192.159 804.538 191.975 804.307 191.821C804.093 191.668 803.524 191.545 802.603 191.453C801.682 191.361 800.415 191.315 798.803 191.315C797.912 191.315 796.553 191.353 794.726 191.43C794.649 192.72 794.611 194.869 794.611 197.879C794.611 201.104 794.649 203.476 794.726 204.996H798.964C802.695 204.996 805.029 204.95 805.966 204.858C806.903 204.766 807.793 204.543 808.638 204.19C808.776 203.837 808.999 203.023 809.306 201.748C809.628 200.459 809.812 199.652 809.858 199.33L810.089 199.169H811.194L811.379 199.33C811.24 199.99 811.102 201.142 810.964 202.785C810.841 204.428 810.78 205.833 810.78 207L810.618 207.184C807.686 207.092 803.847 207.046 799.102 207.046L792.837 207C791.378 207 789.858 207.061 788.277 207.184L788.092 207V206.24L788.277 206.01C789.183 205.549 789.697 205.265 789.82 205.157C789.958 205.035 790.065 203.691 790.142 201.127C790.234 198.547 790.28 196.581 790.28 195.23V186.777L790.257 181.549C790.257 180.412 790.242 179.491 790.211 178.785C790.181 178.063 790.127 177.549 790.05 177.241C789.973 176.934 789.881 176.719 789.774 176.597C789.682 176.474 789.52 176.374 789.29 176.297C789.075 176.205 788.699 176.128 788.161 176.067L786.411 175.929L786.227 175.767V174.616Z" fill="white"/>
</g>
<defs>
<clipPath id="clip0_294_5419">
<rect width="817" height="228" fill="white"/>
</clipPath>
</defs>
</svg>
