<?xml version="1.0" standalone="no"?>
<!DOCTYPE svg PUBLIC "-//W3C//DTD SVG 20010904//EN"
 "http://www.w3.org/TR/2001/REC-SVG-20010904/DTD/svg10.dtd">
<svg version="1.0" xmlns="http://www.w3.org/2000/svg"
 width="1212.000000pt" height="1212.000000pt" viewBox="0 0 1212.000000 1212.000000"
 preserveAspectRatio="xMidYMid meet">
<metadata>
Created by potrace 1.14, written by Peter Selinger 2001-2017
</metadata>
<g transform="translate(0.000000,1212.000000) scale(0.100000,-0.100000)"
fill="#000000" stroke="none">
<path d="M11989 9488 c-19 -4 -52 -10 -74 -13 -22 -3 -64 -10 -94 -16 -30 -6
-64 -12 -75 -14 -12 -2 -39 -6 -61 -10 -22 -3 -51 -8 -65 -10 -76 -13 -257
-57 -290 -72 -8 -3 -19 -7 -25 -7 -44 -4 -324 -125 -490 -210 -112 -58 -323
-185 -380 -228 -5 -4 -53 -40 -105 -80 -165 -126 -356 -314 -490 -484 -92
-117 -120 -155 -120 -164 0 -5 -4 -10 -10 -10 -5 0 -10 -6 -10 -14 0 -8 -3
-16 -8 -18 -11 -5 -82 -107 -82 -118 0 -6 -4 -10 -9 -10 -5 0 -13 -9 -16 -20
-3 -11 -12 -26 -19 -32 -6 -7 -29 -42 -51 -78 -21 -36 -44 -68 -49 -72 -7 -5
-7 -8 -1 -8 6 0 6 -3 0 -8 -14 -9 -145 -230 -145 -243 0 -5 -4 -9 -9 -9 -5 0
-11 -8 -14 -17 -4 -10 -18 -36 -32 -58 -13 -22 -28 -47 -32 -55 -4 -8 -22 -40
-40 -72 -63 -108 -104 -183 -110 -200 -3 -10 -9 -18 -14 -18 -5 0 -9 -4 -9 -9
0 -5 -30 -64 -67 -131 -38 -67 -85 -153 -105 -191 -21 -38 -56 -102 -78 -141
-21 -40 -58 -109 -81 -153 -63 -122 -111 -209 -122 -222 -5 -7 -7 -13 -3 -13
3 0 -7 -21 -22 -47 -39 -67 -212 -419 -212 -432 0 -6 -4 -11 -10 -11 -5 0 -10
-5 -10 -10 0 -17 -84 -190 -92 -190 -5 0 -7 3 -6 8 1 4 -2 27 -7 52 -5 25 -9
47 -10 50 0 3 -4 11 -8 18 -5 6 -6 12 -3 12 8 0 -60 191 -94 265 -47 100 -189
328 -237 380 -10 11 -31 38 -48 60 -16 21 -36 47 -45 56 -8 8 -42 47 -75 85
-33 38 -134 145 -225 238 -91 92 -203 207 -250 255 -73 75 -174 184 -250 271
-12 14 -34 41 -49 60 -14 19 -34 44 -44 55 -41 46 -152 222 -202 320 -30 59
-68 148 -84 198 -29 90 -35 116 -47 187 -3 19 -8 49 -12 65 -14 71 -5 427 14
555 15 93 75 293 121 400 3 8 7 20 9 25 1 6 20 54 42 107 39 94 39 97 17 88
-43 -16 -105 -57 -206 -136 -95 -74 -295 -298 -394 -439 -22 -32 -46 -63 -52
-71 -7 -7 -13 -17 -13 -23 0 -6 -3 -11 -8 -11 -4 0 -12 -9 -17 -20 -6 -11 -43
-74 -83 -140 -96 -159 -252 -467 -277 -550 -4 -14 -11 -29 -15 -35 -3 -5 -21
-53 -39 -105 -18 -52 -35 -102 -38 -110 -3 -8 -7 -19 -9 -25 -1 -5 -12 -45
-24 -87 -11 -43 -23 -88 -25 -100 -3 -13 -7 -34 -10 -48 -2 -14 -7 -37 -10
-52 -3 -16 -7 -38 -10 -51 -3 -13 -7 -43 -9 -68 -3 -24 -5 -44 -6 -44 -2 0 -2
-5 -16 -155 -16 -179 -9 -624 12 -750 13 -77 23 -131 34 -171 7 -24 13 -51 15
-59 4 -21 65 -211 75 -235 5 -11 15 -40 23 -65 8 -25 30 -83 47 -130 41 -108
79 -223 83 -247 1 -10 5 -22 9 -28 3 -5 9 -26 12 -45 3 -19 12 -69 20 -110 24
-127 31 -226 31 -450 0 -194 -4 -270 -21 -380 -8 -48 -11 -48 -30 -1 -48 122
-158 305 -248 416 -69 86 -225 235 -245 235 -6 0 -11 3 -11 8 0 9 -40 35 -46
29 -3 -2 11 -31 29 -64 94 -165 190 -417 213 -555 2 -16 6 -40 8 -55 3 -16 7
-39 10 -53 7 -29 8 -312 1 -385 -18 -209 -29 -281 -70 -458 -7 -31 -12 -57
-10 -57 18 0 247 147 345 221 97 73 269 243 270 267 1 4 14 23 30 42 17 19 30
40 30 47 0 7 4 13 8 13 4 0 24 30 43 68 18 37 37 69 40 72 12 11 91 220 82
220 -3 0 -1 6 5 13 9 11 39 121 48 177 3 14 9 48 14 75 26 141 39 449 26 640
-7 102 -17 221 -21 245 -2 14 -7 48 -10 76 -3 28 -8 61 -10 75 -3 13 -8 48
-11 78 -3 30 -8 64 -10 75 -8 33 -11 54 -28 156 -9 52 -18 105 -20 116 -3 12
-7 37 -10 55 -3 19 -8 44 -10 57 -3 12 -2 22 1 22 6 0 72 -39 88 -53 6 -4 45
-33 88 -63 42 -30 77 -60 77 -66 0 -6 3 -9 6 -5 3 3 22 -8 42 -26 44 -37 270
-264 292 -293 8 -10 31 -39 50 -64 19 -25 37 -47 40 -50 14 -12 81 -113 131
-195 71 -116 130 -231 167 -325 16 -41 33 -84 37 -95 5 -11 9 -22 10 -25 1 -3
4 -12 8 -20 11 -29 56 -185 60 -210 3 -14 10 -45 17 -69 6 -23 9 -45 6 -48 -3
-3 -1 -13 3 -22 5 -9 12 -39 16 -66 3 -28 8 -63 10 -80 13 -100 18 -266 11
-380 -9 -133 -16 -190 -36 -295 -6 -30 -14 -66 -16 -80 -3 -14 -12 -48 -20
-76 -8 -28 -16 -61 -19 -73 -2 -11 -7 -26 -10 -31 -3 -5 -8 -18 -10 -27 -3
-17 -47 -137 -64 -178 -5 -11 -17 -40 -27 -65 -52 -133 -216 -450 -236 -458
-4 -2 -8 -9 -8 -15 0 -11 -65 -111 -87 -135 -7 -7 -13 -17 -13 -21 0 -4 -9
-18 -20 -31 -11 -13 -19 -24 -18 -26 12 -11 394 105 491 149 28 14 75 34 102
47 87 38 269 133 345 180 81 49 144 90 187 122 29 21 57 38 63 38 5 0 10 5 10
10 0 6 6 10 14 10 8 0 16 4 18 9 2 4 59 53 128 108 69 55 145 119 170 143 130
123 193 187 275 276 50 54 97 105 105 114 8 8 46 54 83 100 37 47 77 95 87
106 11 12 20 26 20 32 0 6 4 12 9 14 9 3 87 104 131 169 8 12 24 34 35 48 12
14 43 60 70 101 28 41 58 84 67 94 10 11 18 23 18 27 0 6 57 97 78 124 20 26
122 198 122 206 0 5 5 9 10 9 6 0 10 4 10 10 0 5 26 53 59 107 61 102 207 360
281 498 24 44 48 89 54 100 6 11 13 22 16 25 3 3 15 25 28 50 22 44 35 69 98
180 17 30 87 154 155 275 68 121 126 222 129 225 3 3 13 21 22 40 10 19 31 58
48 85 16 28 34 59 39 71 5 12 37 67 70 123 34 57 61 105 61 107 0 2 17 33 39
68 21 35 44 77 52 95 8 17 16 31 20 31 3 0 11 16 19 35 8 19 17 35 22 35 4 0
8 5 8 11 0 6 17 41 39 77 21 37 50 88 65 115 14 26 38 68 52 95 15 26 42 73
60 105 19 32 34 60 34 61 0 2 24 46 53 97 28 52 59 108 67 124 8 17 17 32 20
35 3 3 27 48 54 100 27 52 52 100 56 105 4 6 35 64 70 130 84 160 118 223 202
368 39 67 78 135 87 150 9 16 21 36 26 45 6 9 30 51 54 92 24 41 70 119 103
172 32 54 58 102 58 107 0 6 7 14 16 19 9 5 15 11 13 13 -2 2 37 72 86 154
121 203 122 205 144 246 l20 37 -28 -2 c-16 0 -44 -4 -62 -8z"/>
<path d="M3 9451 c30 -64 114 -227 120 -229 4 -2 7 -12 7 -22 0 -10 3 -20 8
-22 4 -1 18 -25 31 -53 14 -27 32 -58 40 -69 9 -10 14 -19 12 -20 -4 -1 21
-53 72 -146 16 -30 52 -98 79 -150 28 -52 63 -117 78 -145 15 -27 50 -90 77
-140 28 -49 67 -121 88 -160 20 -38 48 -88 60 -110 26 -47 98 -180 123 -227 9
-18 19 -35 22 -38 3 -3 19 -32 36 -65 28 -53 65 -120 152 -275 13 -25 42 -76
62 -115 42 -78 105 -192 119 -215 6 -8 22 -40 38 -70 15 -30 31 -56 35 -58 5
-2 8 -7 8 -12 0 -4 41 -81 91 -171 50 -90 105 -189 121 -219 16 -30 37 -68 47
-85 10 -16 37 -66 61 -110 24 -44 79 -142 122 -219 43 -76 78 -140 78 -141 0
-2 30 -56 68 -122 37 -65 74 -131 82 -148 8 -16 18 -32 21 -35 3 -3 27 -45 54
-95 26 -49 56 -102 66 -117 11 -14 19 -33 19 -42 0 -9 4 -16 10 -16 5 0 12
-11 16 -25 3 -14 10 -25 15 -25 5 0 9 -4 9 -8 0 -5 39 -78 86 -163 48 -85 96
-172 107 -194 12 -22 25 -41 29 -43 4 -2 8 -8 8 -13 0 -5 31 -64 69 -132 37
-67 78 -140 91 -162 12 -22 26 -44 31 -50 5 -5 9 -17 9 -27 0 -10 4 -18 10
-18 5 0 18 -19 30 -42 11 -24 26 -52 33 -63 6 -11 30 -52 52 -90 22 -39 44
-77 50 -87 5 -9 21 -37 34 -62 14 -25 28 -46 33 -46 4 0 8 -5 8 -10 0 -9 32
-65 78 -136 6 -10 20 -34 29 -51 9 -18 20 -33 25 -33 4 0 8 -4 8 -10 0 -5 42
-71 93 -146 50 -75 97 -143 102 -152 6 -9 20 -27 33 -41 12 -14 22 -29 22 -33
0 -3 6 -13 12 -20 7 -7 25 -29 40 -50 15 -20 33 -42 40 -50 7 -7 38 -43 68
-78 277 -325 697 -596 1145 -740 55 -17 107 -34 115 -36 8 -2 56 -14 105 -27
50 -13 93 -24 98 -25 4 -1 17 -4 30 -7 33 -7 78 -15 117 -21 19 -2 60 -9 90
-14 74 -12 138 -22 180 -26 19 -1 59 -6 88 -9 28 -4 52 -4 52 0 0 8 -67 143
-127 255 -96 181 -120 225 -140 260 -11 19 -58 103 -103 185 -78 141 -99 179
-132 236 -7 13 -16 26 -19 29 -3 3 -16 25 -30 50 -13 25 -27 47 -31 48 -5 2
-8 8 -8 14 0 6 -15 36 -34 67 -18 31 -46 79 -61 106 -15 28 -40 73 -55 100
-15 28 -47 84 -70 125 -23 41 -52 93 -64 115 -11 22 -23 42 -26 45 -3 3 -19
31 -35 62 -26 49 -87 160 -200 363 -180 321 -262 468 -285 510 -32 58 -45 82
-126 225 -71 128 -92 164 -124 227 -14 26 -31 54 -37 61 -7 7 -16 24 -19 38
-3 13 -10 24 -14 24 -4 0 -13 14 -21 32 -7 17 -43 84 -79 147 -36 64 -69 123
-73 131 -4 8 -18 33 -30 55 -13 22 -38 67 -57 100 -49 89 -70 124 -102 180
-16 28 -34 62 -41 78 -6 15 -15 27 -19 27 -4 0 -8 5 -8 12 0 6 -20 45 -44 87
-59 103 -95 168 -120 216 -12 22 -23 42 -26 45 -3 3 -17 29 -32 58 -35 68 -62
116 -68 122 -3 3 -15 23 -27 45 -11 22 -35 67 -53 100 -18 33 -62 112 -98 175
-36 63 -76 135 -90 160 -64 116 -207 355 -214 358 -4 2 -8 7 -8 12 0 5 -18 36
-40 69 -22 33 -40 64 -40 70 0 5 -3 11 -7 13 -5 2 -41 53 -82 113 -41 61 -78
112 -83 113 -4 2 -8 8 -8 13 0 8 -150 198 -190 240 -8 8 -43 45 -76 80 -225
237 -506 420 -874 569 -30 12 -68 28 -85 35 -110 47 -420 148 -515 168 -14 3
-36 8 -50 11 -24 6 -100 19 -170 31 -19 3 -66 8 -105 11 -38 3 -82 7 -97 8
-15 2 -26 1 -25 -3z"/>
</g>
</svg>
